<?xml version="1.0" encoding="UTF-8"?><svg id="uuid-df707da5-12af-4c77-977b-581d994e4920" xmlns="http://www.w3.org/2000/svg" xmlns:xlink="http://www.w3.org/1999/xlink" viewBox="0 0 1150 420"><defs><style>.uuid-10d0a04c-1184-4e41-bd54-0a41fc6cc72b,.uuid-b74e1db5-4df3-41c6-b67f-83779b488a1d,.uuid-c9138d45-f447-49de-b1ed-28ca14005c5e,.uuid-4505c660-0e67-4255-a36a-d74e0a9d4abb,.uuid-0d184ae7-c0aa-4837-95c5-e62f2b8afbef,.uuid-ba08186b-d4f9-46ab-9192-199b0846f50a,.uuid-8a691664-c99b-481b-b356-83b884a84e8c,.uuid-380d71f7-c4c0-4cce-9a49-01a9252419d6,.uuid-b6abbfae-cd2d-4501-aed5-022046baa8e4,.uuid-22ee7d11-19e5-46b2-a446-491f61e44a62,.uuid-37e8da11-b527-4ce5-a5c6-92840049e6d4,.uuid-d0f3ceff-d97e-420c-867a-f42e7b01df3a,.uuid-384a5cd0-b354-4ae6-9c70-7a21b535161a,.uuid-8f5583ac-47f2-4335-b93d-d3adc622d291,.uuid-0730ccd6-47b7-4305-b279-d1ef5e6df928,.uuid-cea689eb-246a-43cf-96db-e5a69325e4a8,.uuid-ce0c1281-ad14-4c57-9de7-2c732fc1f434,.uuid-263b7d6d-e427-4824-a70b-ef510610db2c,.uuid-16eb0491-649f-47f3-b9f6-2308e64d45d1,.uuid-98ef8d89-9037-4794-b2a1-914c811ad5a7,.uuid-b91797e8-7f21-4a6f-b217-9e6a66ad138f,.uuid-824b96ef-5141-426c-bf6b-324aeef494b0,.uuid-db72a4d2-33e3-4496-a652-df4902fc691c{fill:none;}.uuid-b74e1db5-4df3-41c6-b67f-83779b488a1d,.uuid-53b90073-8bcb-45c1-ad7e-d7f9e1fd46ec,.uuid-b359415e-137f-46df-af93-8b75efa94940,.uuid-d59d8267-d066-4229-9c08-642d7827ddc9,.uuid-291fd35e-5e6b-4499-af85-d6b85efdc1e7,.uuid-269a1d77-ae53-4b22-afe4-d63f1d45b255,.uuid-99f72fa0-d645-41e8-b941-2989886c6f26,.uuid-f753e4f4-109b-481f-a9de-ba928a0ed3de,.uuid-3aeec66d-67b2-4f7e-8c3a-da2a70c5282f{opacity:.5;}.uuid-c9138d45-f447-49de-b1ed-28ca14005c5e{opacity:.75;}.uuid-a3fc7bf0-e1f7-4da6-85c8-b511f19481b8,.uuid-b3a743e9-a55c-42c4-beeb-1d0445a4972c,.uuid-09b58fe0-c17c-486a-997c-48122e7991b9,.uuid-4505c660-0e67-4255-a36a-d74e0a9d4abb,.uuid-0d184ae7-c0aa-4837-95c5-e62f2b8afbef,.uuid-ba08186b-d4f9-46ab-9192-199b0846f50a,.uuid-8a691664-c99b-481b-b356-83b884a84e8c,.uuid-09193c22-ed88-47ea-b832-aa565119bb9d,.uuid-380d71f7-c4c0-4cce-9a49-01a9252419d6,.uuid-e3392efc-5f45-492c-9427-aa7ae59cf551,.uuid-b6abbfae-cd2d-4501-aed5-022046baa8e4,.uuid-22ee7d11-19e5-46b2-a446-491f61e44a62,.uuid-2c3148e4-e411-4bc4-b2b8-f87acccedd82,.uuid-a457b821-d385-4095-a8a4-b999fb4b024f,.uuid-e95654db-0658-4ddd-b439-753d2d7abdd7,.uuid-d6bf10e6-7329-41d2-a51d-1df54f511aa2,.uuid-d0f3ceff-d97e-420c-867a-f42e7b01df3a,.uuid-e18c373a-bd72-4a56-8161-c9b889852333,.uuid-0730ccd6-47b7-4305-b279-d1ef5e6df928,.uuid-cea689eb-246a-43cf-96db-e5a69325e4a8,.uuid-ce0c1281-ad14-4c57-9de7-2c732fc1f434,.uuid-263b7d6d-e427-4824-a70b-ef510610db2c,.uuid-16eb0491-649f-47f3-b9f6-2308e64d45d1,.uuid-3936db1f-d816-41aa-a030-08171e541154,.uuid-98ef8d89-9037-4794-b2a1-914c811ad5a7,.uuid-4951d959-08b8-4c4a-926f-ec06de1b537e,.uuid-21a417d2-8fdc-429a-bd5c-6c62387d8797,.uuid-d49f2a48-441a-4797-8ac3-5c92ef11951c,.uuid-02192615-2872-4ee1-a132-ae030beef921,.uuid-b91797e8-7f21-4a6f-b217-9e6a66ad138f,.uuid-824b96ef-5141-426c-bf6b-324aeef494b0,.uuid-db72a4d2-33e3-4496-a652-df4902fc691c,.uuid-6edf6a80-4ff2-4b68-9e8c-b0332fac6332{stroke-linecap:round;}.uuid-a3fc7bf0-e1f7-4da6-85c8-b511f19481b8,.uuid-b3a743e9-a55c-42c4-beeb-1d0445a4972c,.uuid-09b58fe0-c17c-486a-997c-48122e7991b9,.uuid-4505c660-0e67-4255-a36a-d74e0a9d4abb,.uuid-8a691664-c99b-481b-b356-83b884a84e8c,.uuid-09193c22-ed88-47ea-b832-aa565119bb9d,.uuid-380d71f7-c4c0-4cce-9a49-01a9252419d6,.uuid-e3392efc-5f45-492c-9427-aa7ae59cf551,.uuid-b6abbfae-cd2d-4501-aed5-022046baa8e4,.uuid-22ee7d11-19e5-46b2-a446-491f61e44a62,.uuid-2c3148e4-e411-4bc4-b2b8-f87acccedd82,.uuid-a457b821-d385-4095-a8a4-b999fb4b024f,.uuid-e95654db-0658-4ddd-b439-753d2d7abdd7,.uuid-37e8da11-b527-4ce5-a5c6-92840049e6d4,.uuid-d6bf10e6-7329-41d2-a51d-1df54f511aa2,.uuid-d0f3ceff-d97e-420c-867a-f42e7b01df3a,.uuid-e18c373a-bd72-4a56-8161-c9b889852333,.uuid-0730ccd6-47b7-4305-b279-d1ef5e6df928,.uuid-263b7d6d-e427-4824-a70b-ef510610db2c,.uuid-16eb0491-649f-47f3-b9f6-2308e64d45d1,.uuid-3936db1f-d816-41aa-a030-08171e541154,.uuid-98ef8d89-9037-4794-b2a1-914c811ad5a7,.uuid-4951d959-08b8-4c4a-926f-ec06de1b537e,.uuid-21a417d2-8fdc-429a-bd5c-6c62387d8797,.uuid-d49f2a48-441a-4797-8ac3-5c92ef11951c,.uuid-02192615-2872-4ee1-a132-ae030beef921,.uuid-db72a4d2-33e3-4496-a652-df4902fc691c,.uuid-6edf6a80-4ff2-4b68-9e8c-b0332fac6332{stroke:#003e3f;}.uuid-a3fc7bf0-e1f7-4da6-85c8-b511f19481b8,.uuid-b3a743e9-a55c-42c4-beeb-1d0445a4972c,.uuid-09b58fe0-c17c-486a-997c-48122e7991b9,.uuid-0d184ae7-c0aa-4837-95c5-e62f2b8afbef,.uuid-ba08186b-d4f9-46ab-9192-199b0846f50a,.uuid-8a691664-c99b-481b-b356-83b884a84e8c,.uuid-09193c22-ed88-47ea-b832-aa565119bb9d,.uuid-380d71f7-c4c0-4cce-9a49-01a9252419d6,.uuid-e3392efc-5f45-492c-9427-aa7ae59cf551,.uuid-b6abbfae-cd2d-4501-aed5-022046baa8e4,.uuid-22ee7d11-19e5-46b2-a446-491f61e44a62,.uuid-2c3148e4-e411-4bc4-b2b8-f87acccedd82,.uuid-a457b821-d385-4095-a8a4-b999fb4b024f,.uuid-e95654db-0658-4ddd-b439-753d2d7abdd7,.uuid-d6bf10e6-7329-41d2-a51d-1df54f511aa2,.uuid-d0f3ceff-d97e-420c-867a-f42e7b01df3a,.uuid-e18c373a-bd72-4a56-8161-c9b889852333,.uuid-0730ccd6-47b7-4305-b279-d1ef5e6df928,.uuid-cea689eb-246a-43cf-96db-e5a69325e4a8,.uuid-ce0c1281-ad14-4c57-9de7-2c732fc1f434,.uuid-263b7d6d-e427-4824-a70b-ef510610db2c,.uuid-16eb0491-649f-47f3-b9f6-2308e64d45d1,.uuid-3936db1f-d816-41aa-a030-08171e541154,.uuid-98ef8d89-9037-4794-b2a1-914c811ad5a7,.uuid-4951d959-08b8-4c4a-926f-ec06de1b537e,.uuid-21a417d2-8fdc-429a-bd5c-6c62387d8797,.uuid-d49f2a48-441a-4797-8ac3-5c92ef11951c,.uuid-02192615-2872-4ee1-a132-ae030beef921,.uuid-b91797e8-7f21-4a6f-b217-9e6a66ad138f,.uuid-824b96ef-5141-426c-bf6b-324aeef494b0,.uuid-db72a4d2-33e3-4496-a652-df4902fc691c,.uuid-6edf6a80-4ff2-4b68-9e8c-b0332fac6332{stroke-linejoin:round;}.uuid-a3fc7bf0-e1f7-4da6-85c8-b511f19481b8,.uuid-b3a743e9-a55c-42c4-beeb-1d0445a4972c,.uuid-09b58fe0-c17c-486a-997c-48122e7991b9,.uuid-380d71f7-c4c0-4cce-9a49-01a9252419d6{stroke-width:1.252px;}.uuid-a3fc7bf0-e1f7-4da6-85c8-b511f19481b8,.uuid-e3392efc-5f45-492c-9427-aa7ae59cf551,.uuid-9f47d6fc-fcfd-4ae7-851b-dfe3e0ee123c,.uuid-a457b821-d385-4095-a8a4-b999fb4b024f,.uuid-e95654db-0658-4ddd-b439-753d2d7abdd7,.uuid-02192615-2872-4ee1-a132-ae030beef921,.uuid-6edf6a80-4ff2-4b68-9e8c-b0332fac6332{fill:#fff;}.uuid-b3a743e9-a55c-42c4-beeb-1d0445a4972c{fill:#ffd5eb;}.uuid-09b58fe0-c17c-486a-997c-48122e7991b9,.uuid-8631f469-fd1e-4177-ae23-3071f64c357a{fill:#ffbddf;}.uuid-4505c660-0e67-4255-a36a-d74e0a9d4abb{stroke-width:1.084px;}.uuid-4505c660-0e67-4255-a36a-d74e0a9d4abb,.uuid-37e8da11-b527-4ce5-a5c6-92840049e6d4,.uuid-384a5cd0-b354-4ae6-9c70-7a21b535161a,.uuid-8f5583ac-47f2-4335-b93d-d3adc622d291{stroke-miterlimit:10;}.uuid-0d184ae7-c0aa-4837-95c5-e62f2b8afbef{stroke-dasharray:0 0 .881 3.523;stroke-width:.872px;}.uuid-0d184ae7-c0aa-4837-95c5-e62f2b8afbef,.uuid-ba08186b-d4f9-46ab-9192-199b0846f50a,.uuid-cea689eb-246a-43cf-96db-e5a69325e4a8,.uuid-ce0c1281-ad14-4c57-9de7-2c732fc1f434,.uuid-b91797e8-7f21-4a6f-b217-9e6a66ad138f,.uuid-824b96ef-5141-426c-bf6b-324aeef494b0{stroke:#007173;}.uuid-ba08186b-d4f9-46ab-9192-199b0846f50a{stroke-dasharray:0 0 .37 1.481;stroke-width:.367px;}.uuid-8a691664-c99b-481b-b356-83b884a84e8c{stroke-width:1.308px;}.uuid-09193c22-ed88-47ea-b832-aa565119bb9d{stroke-width:1.115px;}.uuid-09193c22-ed88-47ea-b832-aa565119bb9d,.uuid-58fc6cbb-e0ce-4ef9-9bfa-03ffbe85dcc7,.uuid-2c3148e4-e411-4bc4-b2b8-f87acccedd82,.uuid-e18c373a-bd72-4a56-8161-c9b889852333,.uuid-3936db1f-d816-41aa-a030-08171e541154,.uuid-4951d959-08b8-4c4a-926f-ec06de1b537e,.uuid-21a417d2-8fdc-429a-bd5c-6c62387d8797,.uuid-d49f2a48-441a-4797-8ac3-5c92ef11951c{fill:#003e3f;}.uuid-53b90073-8bcb-45c1-ad7e-d7f9e1fd46ec{fill:url(#uuid-d7d733a5-9b4b-41f2-8103-ec6e9bbaca05);}.uuid-e3392efc-5f45-492c-9427-aa7ae59cf551{stroke-width:1.191px;}.uuid-2d7b9f82-0db2-47e1-bf45-76349b6ce689{fill:#00cfb7;}.uuid-1a48e929-b24a-4b57-b11f-77646c6c330e{fill:#00ccb7;}.uuid-beaa4133-a700-468a-a8aa-ae894fccc9c0{fill:#007173;}.uuid-27a40351-738f-4768-9058-8e69f99393a0{fill:#ffd938;}.uuid-dab8e7cd-ae2a-44bb-b2d6-bff7c665ba72{fill:#7de4ff;}.uuid-586a4ee2-eb55-4569-97ec-644ef80fdc25{fill:#dc9cc1;}.uuid-36e961d3-cdae-4e1b-aa9a-4caa509283ca{fill:#5ec4dc;}.uuid-b359415e-137f-46df-af93-8b75efa94940{fill:url(#uuid-6598a1d3-0ff4-40ff-ac97-ebdee3c8a2f0);}.uuid-d59d8267-d066-4229-9c08-642d7827ddc9{fill:url(#uuid-26575e10-45b3-4eef-86cb-9e8a12dc1898);}.uuid-b6abbfae-cd2d-4501-aed5-022046baa8e4{stroke-width:1.236px;}.uuid-22ee7d11-19e5-46b2-a446-491f61e44a62{stroke-width:1.03px;}.uuid-2c3148e4-e411-4bc4-b2b8-f87acccedd82{stroke-width:.97px;}.uuid-a457b821-d385-4095-a8a4-b999fb4b024f,.uuid-d6bf10e6-7329-41d2-a51d-1df54f511aa2,.uuid-0730ccd6-47b7-4305-b279-d1ef5e6df928{stroke-width:.977px;}.uuid-e95654db-0658-4ddd-b439-753d2d7abdd7{stroke-width:.929px;}.uuid-37e8da11-b527-4ce5-a5c6-92840049e6d4{stroke-width:1.39px;}.uuid-d6bf10e6-7329-41d2-a51d-1df54f511aa2{fill:#aceeff;}.uuid-d0f3ceff-d97e-420c-867a-f42e7b01df3a,.uuid-384a5cd0-b354-4ae6-9c70-7a21b535161a,.uuid-8f5583ac-47f2-4335-b93d-d3adc622d291{stroke-width:2px;}.uuid-291fd35e-5e6b-4499-af85-d6b85efdc1e7{fill:url(#uuid-ec0de899-a4e8-4843-b1bd-7bf3cc778364);}.uuid-e18c373a-bd72-4a56-8161-c9b889852333{stroke-width:.988px;}.uuid-e4539dd1-f3f5-4883-9749-284149c1ef73{fill:url(#uuid-72abb1e3-301a-4da4-a9d3-f2ef199d4103);}.uuid-269a1d77-ae53-4b22-afe4-d63f1d45b255{fill:url(#uuid-c773517d-42a4-4bf2-9c72-141819f980c1);}.uuid-99f72fa0-d645-41e8-b941-2989886c6f26{fill:url(#uuid-a602ac2b-8697-48f7-a5e1-700c7c32df50);}.uuid-f753e4f4-109b-481f-a9de-ba928a0ed3de{fill:url(#uuid-c6c3d400-a4ee-4a46-ab87-682f81bb6157);}.uuid-384a5cd0-b354-4ae6-9c70-7a21b535161a{stroke:#7de4ff;}.uuid-8f5583ac-47f2-4335-b93d-d3adc622d291{stroke:#ffbddf;}.uuid-cea689eb-246a-43cf-96db-e5a69325e4a8{stroke-dasharray:0 0 .425 1.7;stroke-width:.421px;}.uuid-ce0c1281-ad14-4c57-9de7-2c732fc1f434{stroke-dasharray:0 0 .519 2.075;stroke-width:.517px;}.uuid-263b7d6d-e427-4824-a70b-ef510610db2c{stroke-width:.888px;}.uuid-4abf3da9-31ef-46f2-86f4-f754814ab6e3{fill:url(#uuid-7e183ee1-1ed7-4871-b318-5bb68e74098d);}.uuid-16eb0491-649f-47f3-b9f6-2308e64d45d1{stroke-width:1.338px;}.uuid-3936db1f-d816-41aa-a030-08171e541154{stroke-width:.77px;}.uuid-98ef8d89-9037-4794-b2a1-914c811ad5a7{stroke-width:1.664px;}.uuid-4951d959-08b8-4c4a-926f-ec06de1b537e{stroke-width:.858px;}.uuid-21a417d2-8fdc-429a-bd5c-6c62387d8797{stroke-width:.757px;}.uuid-3aeec66d-67b2-4f7e-8c3a-da2a70c5282f{fill:url(#uuid-6cc90b36-17f6-48d6-87fa-344b682251b3);}.uuid-d49f2a48-441a-4797-8ac3-5c92ef11951c{stroke-width:1.101px;}.uuid-02192615-2872-4ee1-a132-ae030beef921{stroke-width:1.092px;}.uuid-b91797e8-7f21-4a6f-b217-9e6a66ad138f{stroke-dasharray:0 0 .497 1.988;stroke-width:.492px;}.uuid-824b96ef-5141-426c-bf6b-324aeef494b0{stroke-dasharray:0 0 .578 2.314;stroke-width:.572px;}.uuid-db72a4d2-33e3-4496-a652-df4902fc691c{stroke-width:.76px;}.uuid-6edf6a80-4ff2-4b68-9e8c-b0332fac6332{stroke-width:1.401px;}</style><pattern id="uuid-7e183ee1-1ed7-4871-b318-5bb68e74098d" x="0" y="0" width="2" height="2" patternTransform="translate(-4884.837 4987.164)" patternUnits="userSpaceOnUse" viewBox="0 0 2 2"><rect class="uuid-10d0a04c-1184-4e41-bd54-0a41fc6cc72b" width="2" height="2"/><circle class="uuid-58fc6cbb-e0ce-4ef9-9bfa-03ffbe85dcc7" cx=".515" cy=".5" r=".5"/><circle class="uuid-10d0a04c-1184-4e41-bd54-0a41fc6cc72b" cx="1.485" cy=".5" r=".5"/><circle class="uuid-10d0a04c-1184-4e41-bd54-0a41fc6cc72b" cx=".515" cy="1.5" r=".5"/><circle class="uuid-10d0a04c-1184-4e41-bd54-0a41fc6cc72b" cx="1.485" cy="1.5" r=".5"/></pattern><pattern id="uuid-ec0de899-a4e8-4843-b1bd-7bf3cc778364" patternTransform="translate(-16021.059 1046.83) rotate(-180) scale(.542 -.542)" xlink:href="#uuid-7e183ee1-1ed7-4871-b318-5bb68e74098d"/><pattern id="uuid-26575e10-45b3-4eef-86cb-9e8a12dc1898" patternTransform="translate(-7402.519 271.182) rotate(-10.241) scale(.542)" xlink:href="#uuid-7e183ee1-1ed7-4871-b318-5bb68e74098d"/><pattern id="uuid-c773517d-42a4-4bf2-9c72-141819f980c1" patternTransform="translate(-7402.519 271.182) rotate(-10.241) scale(.542)" xlink:href="#uuid-7e183ee1-1ed7-4871-b318-5bb68e74098d"/><pattern id="uuid-6cc90b36-17f6-48d6-87fa-344b682251b3" patternTransform="translate(-7402.519 271.182) rotate(-10.241) scale(.542)" xlink:href="#uuid-7e183ee1-1ed7-4871-b318-5bb68e74098d"/><pattern id="uuid-72abb1e3-301a-4da4-a9d3-f2ef199d4103" patternTransform="translate(-8183.69 1046.041) scale(.542)" xlink:href="#uuid-7e183ee1-1ed7-4871-b318-5bb68e74098d"/><pattern id="uuid-c6c3d400-a4ee-4a46-ab87-682f81bb6157" patternTransform="translate(-7077.101 2381.323) scale(.695)" xlink:href="#uuid-7e183ee1-1ed7-4871-b318-5bb68e74098d"/><pattern id="uuid-a602ac2b-8697-48f7-a5e1-700c7c32df50" patternTransform="translate(-7077.101 2381.323) scale(.695)" xlink:href="#uuid-7e183ee1-1ed7-4871-b318-5bb68e74098d"/><pattern id="uuid-6598a1d3-0ff4-40ff-ac97-ebdee3c8a2f0" patternTransform="translate(-7077.101 2381.323) scale(.695)" xlink:href="#uuid-7e183ee1-1ed7-4871-b318-5bb68e74098d"/><pattern id="uuid-d7d733a5-9b4b-41f2-8103-ec6e9bbaca05" patternTransform="translate(-7077.101 2381.323) scale(.695)" xlink:href="#uuid-7e183ee1-1ed7-4871-b318-5bb68e74098d"/></defs><path class="uuid-8f5583ac-47f2-4335-b93d-d3adc622d291" d="m869.673,113.87c-1.492,0-1.492.246-2.984.246-1.492,0-1.492-.213-2.985-.213s-1.491.195-2.982.195c-1.49,0-1.49-.066-2.98-.066s-1.491-.181-2.982-.181c-1.493,0-1.493-.074-2.985-.074q-1.491,0-2.982-.003c-1.493,0-1.493.061-2.985.061s-1.492.037-2.984.037-1.493.177-2.987.177-1.492-.105-2.985-.105-1.493-.033-2.986-.033-1.494-.118-2.988-.118-1.494-.039-2.988-.039-1.492.132-2.984.132-1.494.053-2.987.053c-1.494,0-1.494.055-2.988.055-1.494,0-1.494-.011-2.989-.011s-1.497.102-2.993.102-1.497-.194-2.993-.194c-.874,0-1.61-.353-2.315-.761-.728-.421-1.382-.905-1.803-1.633-.408-.706-.806-1.504-.806-2.378,0-1.523.333-1.523.333-3.045s-.306-1.524-.306-3.047.207-1.525.207-3.051-.242-1.524-.242-3.047.176-1.525.176-3.051-.109-1.525-.109-3.049.142-1.526.142-3.052-.016-1.525-.016-3.05c0-1.526-.224-1.526-.224-3.052,0-1.526.124-1.526.124-3.053,0-1.526.111-1.526.111-3.053,0-1.525-.044-1.525-.044-3.049s.096-1.526.096-3.053c0-1.527-.328-1.527-.328-3.053s.309-1.527.309-3.054-.212-1.529-.212-3.059c0-1.529.061-1.529.061-3.059,0-.874.34-1.661.749-2.366.421-.728,1.073-1.192,1.801-1.613.706-.408,1.423-.777,2.297-.777,1.492,0,1.492-.187,2.984-.187s1.492.102,2.985.102,1.491.135,2.982.135,1.49.042,2.98.042,1.491.03,2.982.03,1.493.007,2.985.007,1.491-.002,2.982-.002,1.493-.082,2.985-.082,1.492.06,2.984.06,1.493-.124,2.987-.124,1.492.018,2.985.018,1.493.091,2.986.091,1.494-.278,2.988-.278,1.494.296,2.988.296,1.492-.024,2.984-.024,1.494.011,2.987.011,1.494.022,2.988.022,1.494-.015,2.989-.015,1.497-.121,2.993-.121,1.497-.197,2.993-.197c.874,0,1.707.383,2.413.792.728.421,1.219,1.111,1.64,1.84.408.706.702,1.466.702,2.34,0,1.523-.067,1.523-.067,3.045s.283,1.524.283,3.047c0,1.525-.245,1.525-.245,3.051s.076,1.524.076,3.047c0,1.525-.098,1.525-.098,3.051s.068,1.525.068,3.049.172,1.526.172,3.052c0,1.525-.127,1.525-.127,3.05s.024,1.526.024,3.052c0,1.526-.077,1.526-.077,3.053,0,1.526.237,1.526.237,3.053,0,1.525-.367,1.525-.367,3.049,0,1.526.061,1.526.061,3.053s-.098,1.527-.098,3.053.358,1.527.358,3.054c0,1.529-.291,1.529-.291,3.059,0,1.529.015,1.529.015,3.059,0,.874-.14,1.679-.549,2.384-.421.728-1.078,1.219-1.806,1.641-.706.408-1.449.725-2.324.725Z"/><path class="uuid-8631f469-fd1e-4177-ae23-3071f64c357a" d="m869.099,52.396c-1.463,0-1.463.246-2.927.246s-1.464-.213-2.927-.213-1.463.195-2.925.195-1.461-.066-2.923-.066-1.462-.181-2.925-.181-1.464-.074-2.928-.074-1.462-.003-2.925-.003-1.464.061-2.928.061-1.463.037-2.926.037c-1.465,0-1.465.177-2.929.177-1.464,0-1.464-.105-2.927-.105-1.464,0-1.464-.033-2.929-.033-1.465,0-1.465-.118-2.93-.118s-1.465-.039-2.93-.039c-1.463,0-1.463.132-2.927.132-1.465,0-1.465.053-2.93.053-1.465,0-1.465.055-2.93.055-1.466,0-1.466-.011-2.931-.011-1.468,0-1.468.102-2.936.102s-1.468-.194-2.936-.194c-.979,0-1.981.143-2.771.6-.815.472-1.448,1.276-1.92,2.091-.457.79-.555,1.73-.555,2.708,0,1.491-.333,1.491-.333,2.982,0,1.491-.783,1.862.277,2.911,1.071,1.06,1.436.178,2.943.178s1.506-.242,3.011-.242,1.506.176,3.013.176,1.506-.109,3.012-.109,1.506.142,3.013.142,1.505-.016,3.01-.016,1.504-.224,3.008-.224,1.505.124,3.01.124,1.507.111,3.013.111,1.505-.044,3.01-.044,1.507.096,3.013.096,1.506-.328,3.012-.328,1.507.309,3.015.309,1.506-.212,3.013-.212,1.507.061,3.014.061,1.508.115,3.016.115,1.508.138,3.016.138,1.506-.162,3.012-.162,1.508-.187,3.015-.187,1.508.102,3.016.102,1.508.135,3.017.135,1.511.042,3.022.042,2.062,1.043,3.138-.018c1.061-1.048.056-1.609.056-3.1q0-1.491-.002-2.982c0-.979-.355-1.94-.813-2.731-.472-.815-1.154-1.579-1.969-2.05-.79-.457-1.782-.639-2.76-.639Z"/><circle class="uuid-9f47d6fc-fcfd-4ae7-851b-dfe3e0ee123c" cx="812.105" cy="58.023" r="1.973"/><circle class="uuid-9f47d6fc-fcfd-4ae7-851b-dfe3e0ee123c" cx="818.15" cy="58.023" r="1.973"/><g class="uuid-c9138d45-f447-49de-b1ed-28ca14005c5e"><path class="uuid-8631f469-fd1e-4177-ae23-3071f64c357a" d="m813.352,99.942c0-2.483,1.325-4.777,3.475-6.018,2.149-1.242,4.8-1.242,6.949,0,2.149,1.241,3.475,3.535,3.475,6.018s-1.325,4.777-3.475,6.018c-2.149,1.242-4.8,1.242-6.949,0-2.149-1.241-3.475-3.535-3.475-6.018Zm1.876-3.353c-.59.891-.953,1.946-1.002,3.084l1.67-1.051c.032-.019.057-.051.067-.087v-.005c.011-.035.011-.076-.005-.111l-.733-1.83h.003Zm-.964,4.08c.095.804.348,1.558.725,2.234.022-.005.046-.008.071-.011l2.396-.16c.166-.011.331-.068.429-.201l.106-.144c.179-.247.16-.581.064-.869l-.496-1.528c-.096-.291-.274-.573-.564-.665l-.172-.054c-.157-.052-.326,0-.464.089l-2.033,1.276c-.019.014-.041.024-.062.033Zm1.281,3.062c.679.853,1.583,1.518,2.622,1.906l-.482-1.914c-.009-.038-.033-.07-.062-.092-.03-.021-.071-.033-.109-.033l-1.968.13v.003Zm2.196-9.306c-.723.334-1.365.806-1.9,1.382.011.019.021.041.029.062l.896,2.226c.062.152.168.293.322.345l.172.054c.29.095.6-.027.847-.207l1.3-.944c.248-.179.459-.437.459-.741v-.179c0-.166-.1-.31-.228-.416l-1.847-1.536c-.019-.017-.035-.033-.051-.049v.002Zm2.177,3.622l-1.3.944c-.229.166-.323.459-.236.728l.496,1.528c.088.269.337.451.619.451h1.607c.282,0,.531-.182.619-.451l.496-1.528c.087-.269-.008-.562-.236-.728l-1.3-.944c-.228-.166-.538-.166-.766,0Zm1.558,7.861c.004-.022.006-.046.012-.071l.589-2.329c.04-.16.038-.336-.06-.47l-.105-.144c-.18-.247-.503-.332-.81-.332h-1.604c-.307,0-.627.084-.809.332l-.105.144c-.098.133-.102.31-.061.47l.59,2.329c.005.024.01.046.01.071.381.073.774.114,1.176.114s.795-.038,1.176-.114h.002Zm.445-11.828c-.516-.144-1.061-.22-1.62-.22s-1.104.076-1.62.22l1.514,1.262c.03.024.068.038.106.038s.076-.014.106-.038l1.514-1.262Zm2.837,1.724c-.534-.576-1.178-1.048-1.899-1.382-.017.016-.033.035-.053.049l-1.846,1.536c-.127.106-.228.25-.228.416v.179c0,.304.212.562.458.741l1.301.944c.247.179.557.301.848.207l.17-.054c.158-.052.264-.193.324-.345l.893-2.229c.008-.021.02-.043.029-.062h.003Zm-2.323,9.832c1.039-.388,1.943-1.053,2.622-1.906l-1.968-.13c-.038-.003-.076.008-.109.033-.032.024-.054.057-.062.092l-.482,1.914v-.002Zm3.179-2.734c.377-.676.63-1.43.725-2.234-.021-.008-.04-.019-.062-.033l-2.033-1.278c-.138-.087-.307-.139-.464-.09l-.172.054c-.29.095-.469.375-.564.665l-.494,1.528c-.094.291-.113.622.066.869l.105.144c.098.133.264.19.429.201l2.397.16c.023.003.045.006.07.011l-.003.002Zm.763-3.23c-.049-1.138-.41-2.191-1.002-3.084l-.732,1.833c-.014.035-.017.073-.006.111v.005c.014.035.035.065.068.087l1.669,1.05.003-.002Z"/></g><path class="uuid-384a5cd0-b354-4ae6-9c70-7a21b535161a" d="m458.74,144.607c-1.485,0-1.485.246-2.97.246s-1.484-.213-2.968-.213-1.486.195-2.971.195-1.485-.066-2.969-.066-1.485-.181-2.971-.181-1.486-.074-2.972-.074-1.486-.003-2.972-.003-1.484.061-2.969.061-1.486.037-2.972.037-1.486.177-2.973.177-1.487-.105-2.973-.105-1.489-.033-2.978-.033-1.489-.118-2.978-.118c-.874,0-1.612-.251-2.317-.659-.728-.421-1.39-.902-1.811-1.631-.408-.706-.691-1.509-.691-2.383,0-1.523-.055-1.523-.055-3.045s.011-1.524.011-3.047-.102-1.525-.102-3.051.194-1.524.194-3.047.141-1.525.141-3.051-.125-1.525-.125-3.049-.17-1.526-.17-3.052.333-1.525.333-3.05-.306-1.526-.306-3.052.207-1.526.207-3.053-.242-1.526-.242-3.053.176-1.525.176-3.049-.109-1.526-.109-3.053.142-1.527.142-3.053-.016-1.527-.016-3.054-.224-1.529-.224-3.059.124-1.529.124-3.059c0-.874.335-1.659.744-2.365.421-.728.981-1.348,1.709-1.77.706-.408,1.513-.543,2.387-.543,1.492,0,1.492-.328,2.984-.328s1.492.309,2.985.309,1.491-.212,2.982-.212,1.49.061,2.98.061,1.491.115,2.982.115,1.493.138,2.985.138,1.491-.162,2.982-.162,1.493-.187,2.985-.187,1.492.102,2.984.102,1.493.135,2.987.135,1.492.042,2.985.042,1.493.03,2.986.03,1.494.007,2.988.007,1.494-.002,2.988-.002,1.492-.082,2.984-.082,1.494.06,2.987.06,1.494-.124,2.988-.124,1.494.018,2.989.018,1.497.091,2.993.091,1.497-.278,2.993-.278c.874,0,1.618.51,2.324.918.728.421,1.301.961,1.722,1.69.408.706.614,1.462.614,2.336,0,1.494-.022,1.494-.022,2.987s.015,1.493.015,2.986.121,1.494.121,2.987.197,1.494.197,2.988-.146,1.494-.146,2.988-.146,1.492-.146,2.985.076,1.494.076,2.988-.067,1.494-.067,2.989.283,1.495.283,2.989-.245,1.497-.245,2.994.076,1.497.076,2.994"/><path class="uuid-dab8e7cd-ae2a-44bb-b2d6-bff7c665ba72" d="m480.127,83.133c-1.507,0-1.507.246-3.015.246s-1.508-.213-3.015-.213-1.507.195-3.013.195-1.505-.066-3.01-.066-1.506-.181-3.013-.181-1.508-.074-3.016-.074-1.506-.003-3.013-.003-1.508.061-3.016.061-1.507.037-3.014.037c-1.509,0-1.509.177-3.017.177s-1.508-.105-3.015-.105-1.508-.033-3.017-.033-1.509-.118-3.018-.118-1.509-.039-3.018-.039-1.507.132-3.015.132c-1.509,0-1.509.053-3.018.053-1.509,0-1.509.055-3.019.055s-1.51-.011-3.019-.011c-1.512,0-1.512.102-3.024.102s-1.512-.194-3.024-.194c-1.24,0-2.482.411-3.295,1.223s-1.24,2.055-1.24,3.295c0,1.711.17,1.711.17,3.423s-1.412,2.274-.282,3.559c.995,1.131,1.661-.236,3.168-.236s1.506.207,3.011.207,1.506-.242,3.013-.242,1.506.176,3.012.176,1.506-.109,3.013-.109,1.505.142,3.01.142,1.504-.016,3.008-.016,1.505-.224,3.01-.224,1.507.124,3.013.124,1.505.111,3.01.111,1.507-.044,3.013-.044,1.506.096,3.012.096,1.507-.328,3.015-.328,1.506.309,3.013.309,1.507-.212,3.014-.212,1.508.061,3.016.061,1.508.115,3.016.115,1.506.138,3.012.138,1.508-.162,3.015-.162,1.508-.187,3.016-.187,1.508.102,3.017.102,1.511.135,3.022.135,2.123,1.129,3.123-.003c1.133-1.283.064-1.801.064-3.512s.007-1.711.007-3.423c0-1.24-.555-2.483-1.368-3.296s-2.055-1.244-3.296-1.244Z"/><circle class="uuid-9f47d6fc-fcfd-4ae7-851b-dfe3e0ee123c" cx="422.252" cy="88.759" r="1.973"/><circle class="uuid-9f47d6fc-fcfd-4ae7-851b-dfe3e0ee123c" cx="428.297" cy="88.759" r="1.973"/><path class="uuid-dab8e7cd-ae2a-44bb-b2d6-bff7c665ba72" d="m423.497,130.68c0-2.483,1.324-4.777,3.475-6.018,2.15-1.242,4.799-1.242,6.949,0,2.15,1.241,3.475,3.535,3.475,6.018s-1.324,4.777-3.475,6.018c-2.15,1.242-4.799,1.242-6.949,0-2.15-1.241-3.475-3.535-3.475-6.018Zm1.876-3.353c-.589.891-.953,1.946-1.002,3.084l1.669-1.051c.033-.019.058-.051.068-.087v-.005c.011-.035.011-.076-.006-.111l-.732-1.83h.003Zm-.964,4.08c.096.804.348,1.558.725,2.234.021-.005.047-.008.07-.011l2.397-.16c.165-.011.331-.068.429-.201l.105-.144c.18-.247.16-.581.065-.869l-.497-1.528c-.095-.291-.273-.573-.564-.665l-.171-.054c-.157-.052-.325,0-.464.089l-2.033,1.276c-.02.014-.041.024-.062.033Zm1.281,3.062c.679.853,1.582,1.518,2.622,1.906l-.483-1.914c-.008-.038-.032-.07-.062-.092-.029-.021-.07-.033-.107-.033l-1.969.13v.003Zm2.196-9.306c-.722.334-1.366.806-1.9,1.382.011.019.021.041.03.062l.896,2.226c.062.152.168.293.323.345l.171.054c.29.095.6-.027.847-.207l1.301-.944c.246-.179.458-.437.458-.741v-.179c0-.166-.101-.31-.228-.416l-1.846-1.536c-.02-.017-.035-.033-.052-.049v.002Zm2.177,3.622l-1.301.944c-.228.166-.322.459-.235.728l.497,1.528c.086.269.336.451.618.451h1.607c.282,0,.532-.182.618-.451l.497-1.528c.087-.269-.008-.562-.235-.728l-1.301-.944c-.229-.166-.537-.166-.766,0Zm1.559,7.861c.002-.022.005-.046.01-.071l.59-2.329c.041-.16.038-.336-.06-.47l-.106-.144c-.179-.247-.502-.332-.809-.332h-1.604c-.307,0-.627.084-.809.332l-.106.144c-.098.133-.1.31-.059.47l.588,2.329c.006.024.012.046.012.071.38.073.773.114,1.175.114s.796-.038,1.176-.114h.003Zm.445-11.828c-.516-.144-1.062-.22-1.621-.22s-1.105.076-1.621.22l1.516,1.262c.029.024.067.038.105.038s.076-.014.105-.038l1.516-1.262Zm2.836,1.724c-.535-.576-1.178-1.048-1.9-1.382-.016.016-.032.035-.051.049l-1.846,1.536c-.128.106-.229.25-.229.416v.179c0,.304.212.562.459.741l1.3.944c.247.179.557.301.847.207l.172-.054c.157-.052.263-.193.322-.345l.894-2.229c.008-.021.019-.043.03-.062h.002Zm-2.323,9.832c1.04-.388,1.943-1.053,2.622-1.906l-1.969-.13c-.037-.003-.075.008-.107.033-.033.024-.055.057-.062.092l-.483,1.914v-.002Zm3.179-2.734c.377-.676.629-1.43.725-2.234-.021-.008-.041-.019-.062-.033l-2.033-1.278c-.139-.087-.307-.139-.464-.09l-.171.054c-.291.095-.47.375-.564.665l-.494,1.528c-.096.291-.114.622.064.869l.105.144c.099.133.264.19.43.201l2.396.16c.025.003.047.006.07.011l-.002.002Zm.763-3.23c-.049-1.138-.41-2.191-1.002-3.084l-.733,1.833c-.013.035-.016.073-.005.111v.005c.014.035.036.065.067.087l1.67,1.05.003-.002Z"/><ellipse class="uuid-27a40351-738f-4768-9058-8e69f99393a0" cx="127.562" cy="182.758" rx="16.147" ry="11.63" transform="translate(-60.095 302.997) rotate(-87.735)"/><path class="uuid-27a40351-738f-4768-9058-8e69f99393a0" d="m124.383,167.471c.099,0,.199.002.302.006,1.681.067,3.419.135,5.273.425,3.655.571,5.027,8.247,4.754,15.138-.275,6.962-2.357,14.555-6.276,14.774-.447.025-.97.038-1.555.038-1.161,0-2.398-.049-3.398-.088-2.777-.11-5.349-1.746-7.242-4.607-1.96-2.962-2.951-6.853-2.789-10.957.321-8.122,5.225-14.729,10.931-14.729m0-.991c-6.272,0-11.575,6.926-11.921,15.681-.353,8.91,4.564,16.34,10.982,16.594,1.015.04,2.255.089,3.437.089.56,0,1.106-.011,1.61-.039,4.917-.274,6.941-8.889,7.211-15.724.258-6.524-.894-15.424-5.592-16.157-1.912-.299-3.672-.368-5.391-.436-.112-.004-.226-.007-.337-.007h0Z"/><path class="uuid-beaa4133-a700-468a-a8aa-ae894fccc9c0" d="m128.348,174.235c.547.022,1.052.126,1.516.313.302.122.586.259.851.409.227.129.325.496.218.809l-.31.903c-.101.293-.348.434-.559.313-.202-.116-.41-.221-.625-.316-.349-.154-.7-.239-1.055-.253-.415-.016-.761.132-1.037.445-.276.313-.429.849-.459,1.608l-.069,1.738c-.013.333.17.61.41.62l2.033.08c.24.009.423.287.41.62l-.028.714c-.013.333-.218.595-.458.585l-2.033-.08c-.24-.009-.445.253-.458.585l-.045,1.148c-.031.788-.11,1.44-.324,1.869-.157.315-.303.592-.574.778l4.793.19c.24.009.423.287.41.62l-.043,1.094c-.013.333-.218.595-.458.585l-6.863-.272c-.24-.009-.423-.287-.41-.62l.046-1.151c.009-.236.109-.459.267-.554.321-.193.589-.441.803-.742.268-.377.419-.994.453-1.851l.046-1.169c.013-.333-.17-.61-.41-.62l-.499-.02c-.24-.009-.423-.287-.41-.62l.028-.714c.013-.333.218-.595.458-.585l.499.02c.24.009.445-.253.458-.585l.072-1.823c.038-.97.209-1.759.512-2.366.303-.607.701-1.05,1.194-1.326.493-.276,1.043-.402,1.65-.378Z"/><path class="uuid-cea689eb-246a-43cf-96db-e5a69325e4a8" d="m137.406,183.147c.298-7.549-3.867-13.843-9.304-14.058-5.437-.215-10.086,5.73-10.385,13.279-.298,7.549,3.867,13.843,9.304,14.058,5.437.215,10.086-5.73,10.385-13.279Z"/><ellipse class="uuid-1a48e929-b24a-4b57-b11f-77646c6c330e" cx="1116.418" cy="132.53" rx="10.134" ry="14.071" transform="translate(6.953 314.303) rotate(-16.074)"/><path class="uuid-1a48e929-b24a-4b57-b11f-77646c6c330e" d="m1117.508,118.742c4.485,0,8.999,4.365,10.733,10.379,2.017,6.998-.338,13.843-5.257,15.261-1.407.406-2.862.825-4.473,1.094-.136.023-.274.034-.41.034-3.044,0-6.112-5.833-7.675-11.252-1.682-5.834-2.042-12.686,1.139-13.942,1.236-.488,2.897-.967,4.11-1.317.592-.171,1.209-.257,1.833-.257m0-.864c-.696,0-1.39.094-2.072.291-1.252.361-2.915.841-4.188,1.343-3.992,1.576-3.303,9.257-1.652,14.985,1.504,5.219,4.666,11.877,8.505,11.877.183,0,.366-.015.552-.046,1.663-.277,3.138-.703,4.578-1.118,5.377-1.551,7.992-8.861,5.84-16.328-1.879-6.52-6.772-11.004-11.563-11.004h0Z"/><path class="uuid-beaa4133-a700-468a-a8aa-ae894fccc9c0" d="m1114.909,125.482c.464-.11.913-.14,1.346-.091.282.032.552.08.81.145.22.055.389.34.372.628l-.05.83c-.016.269-.19.446-.397.393-.197-.05-.396-.09-.598-.12-.329-.048-.644-.037-.945.034-.353.083-.608.289-.767.616-.159.328-.162.813-.01,1.458l.348,1.475c.067.282.286.472.489.424l1.726-.408c.203-.048.422.142.489.424l.143.606c.067.282-.044.55-.248.598l-1.726.408c-.203.048-.314.316-.248.598l.23.974c.158.668.244,1.235.165,1.645-.058.301-.116.568-.3.788l4.068-.961c.203-.048.422.142.489.424l.219.928c.067.282-.044.55-.248.598l-5.825,1.376c-.203.048-.422-.142-.489-.424l-.231-.977c-.047-.201-.015-.411.095-.527.224-.237.391-.508.501-.811.137-.379.12-.932-.052-1.66l-.234-.992c-.067-.282-.286-.472-.489-.424l-.424.1c-.203.048-.422-.142-.489-.424l-.143-.606c-.067-.282.044-.55.248-.598l.424-.1c.203-.048.314-.316.248-.598l-.365-1.547c-.194-.823-.235-1.525-.123-2.106.112-.581.343-1.045.692-1.392.349-.347.781-.581,1.297-.703Z"/><path class="uuid-ba08186b-d4f9-46ab-9192-199b0846f50a" d="m1108.169,134.909c1.823,6.326,6.995,10.389,11.551,9.075,4.556-1.314,6.771-7.507,4.947-13.833-1.823-6.326-6.995-10.389-11.551-9.075-4.556,1.313-6.771,7.507-4.947,13.833Z"/><ellipse class="uuid-1a48e929-b24a-4b57-b11f-77646c6c330e" cx="245.275" cy="358.233" rx="15.822" ry="21.971" transform="translate(-89.648 81.977) rotate(-16.084)"/><path class="uuid-1a48e929-b24a-4b57-b11f-77646c6c330e" d="m242.648,337.967c4.753,0,9.544,9.109,11.983,17.572,2.625,9.11,3.188,19.807-1.779,21.767-1.93.761-4.524,1.508-6.418,2.054-.924.266-1.885.401-2.857.401-7.005,0-14.053-6.818-16.76-16.211-1.547-5.369-1.503-10.833.125-15.383,1.573-4.395,4.439-7.391,8.072-8.438,2.2-.634,4.476-1.289,6.997-1.709.212-.035.427-.053.638-.053m0-1.349c-.284,0-.571.023-.86.072-2.597.432-4.9,1.096-7.148,1.743-8.397,2.418-12.48,13.831-9.12,25.49,2.934,10.182,10.576,17.187,18.057,17.187,1.085,0,2.167-.147,3.23-.454,1.956-.563,4.552-1.311,6.54-2.095,6.232-2.458,5.158-14.451,2.581-23.395-2.349-8.151-7.285-18.548-13.279-18.548h0Z"/><path class="uuid-beaa4133-a700-468a-a8aa-ae894fccc9c0" d="m242.641,346.888c.715-.206,1.413-.287,2.093-.244.443.028.868.083,1.274.164.348.069.632.502.627.952l-.014,1.298c-.005.421-.263.709-.589.643-.311-.063-.625-.11-.942-.141-.517-.05-1.007-.009-1.47.125-.543.156-.926.496-1.149,1.018-.223.523-.19,1.28.096,2.274l.655,2.274c.125.435.481.715.795.625l2.66-.766c.314-.09.669.189.795.625l.269.934c.125.435-.027.862-.341.952l-2.66.766c-.314.09-.466.516-.341.952l.433,1.502c.297,1.031.474,1.907.382,2.552-.068.474-.138.894-.408,1.251l6.271-1.806c.314-.09.669.189.795.625l.412,1.431c.125.435-.027.862-.341.952l-8.98,2.586c-.314.09-.669-.189-.795-.625l-.434-1.506c-.089-.309-.055-.639.108-.83.332-.387.571-.821.72-1.303.185-.601.116-1.463-.207-2.585l-.441-1.529c-.125-.435-.481-.715-.795-.625l-.653.188c-.314.09-.669-.189-.795-.625l-.269-.934c-.125-.435.027-.862.341-.952l.653-.188c.314-.09.466-.516.341-.952l-.687-2.385c-.366-1.27-.483-2.361-.352-3.276.131-.914.456-1.656.974-2.223.518-.568,1.174-.966,1.969-1.195Z"/><path class="uuid-824b96ef-5141-426c-bf6b-324aeef494b0" d="m258.155,354.524c-2.846-9.878-10.92-16.225-18.034-14.176-7.113,2.049-10.573,11.717-7.727,21.595,2.847,9.878,10.921,16.224,18.034,14.176,7.114-2.049,10.573-11.717,7.727-21.595Z"/><ellipse class="uuid-27a40351-738f-4768-9058-8e69f99393a0" cx="1014.701" cy="335.524" rx="33.453" ry="24.093" transform="translate(355.639 1176.852) rotate(-70.223)"/><path class="uuid-27a40351-738f-4768-9058-8e69f99393a0" d="m1020.741,305.026c.54,0,1.083.069,1.614.204,3.061.781,6.93,2.171,9.754,3.186,5.418,1.947,9.48,6.782,11.438,13.615,2.028,7.074,1.559,15.379-1.319,23.386-4.872,13.553-15.562,23.019-25.998,23.019-1.853,0-3.657-.311-5.367-.926-3.281-1.179-6.674-2.399-10.157-4.126-6.866-3.405-4.792-19.427.042-32.873,2.432-6.765,5.609-12.996,8.947-17.544,2.658-3.623,6.733-7.941,11.046-7.941m0-2.054c-9.087,0-17.476,14.466-21.926,26.845-4.576,12.73-7.846,31.033.979,35.408,3.591,1.781,7.026,3.015,10.379,4.22,1.967.707,4.003,1.045,6.058,1.045,11.026,0,22.664-9.723,27.931-24.378,6.25-17.386,1.165-35.128-11.357-39.628-2.917-1.048-6.788-2.439-9.941-3.243-.71-.181-1.419-.268-2.122-.268h0Z"/><path class="uuid-beaa4133-a700-468a-a8aa-ae894fccc9c0" d="m1021.605,319.842c1.047.435,1.954,1.001,2.721,1.699.5.455.953.924,1.359,1.406.348.413.275,1.197-.159,1.728l-1.252,1.531c-.406.496-.987.593-1.312.205-.31-.37-.638-.725-.987-1.064-.567-.551-1.189-.968-1.868-1.249-.795-.33-1.574-.291-2.335.119-.762.41-1.444,1.342-2.048,2.795l-1.383,3.328c-.265.637-.107,1.308.351,1.499l3.893,1.617c.459.191.616.862.351,1.499l-.568,1.367c-.265.637-.851.999-1.31.808l-3.893-1.617c-.459-.191-1.045.171-1.31.808l-.913,2.198c-.627,1.508-1.249,2.719-1.973,3.398-.531.499-1.015.932-1.675,1.1l9.177,3.813c.459.191.616.862.351,1.499l-.87,2.094c-.265.637-.851.999-1.31.808l-13.141-5.46c-.459-.191-.616-.862-.351-1.499l.916-2.203c.188-.453.542-.813.917-.884.762-.145,1.46-.433,2.095-.865.792-.539,1.529-1.629,2.212-3.272l.93-2.238c.265-.637.107-1.308-.351-1.499l-.955-.397c-.459-.191-.616-.862-.351-1.499l.568-1.367c.265-.637.851-.999,1.31-.808l.955.397c.459.191,1.045-.171,1.31-.808l1.45-3.49c.772-1.858,1.671-3.267,2.696-4.23,1.025-.963,2.116-1.536,3.272-1.718,1.156-.183,2.315-.033,3.479.451Z"/><path class="uuid-0d184ae7-c0aa-4837-95c5-e62f2b8afbef" d="m995.493,328.622c-5.294,14.729-.987,29.76,9.622,33.572,10.608,3.812,23.5-5.038,28.795-19.767,5.294-14.729.986-29.76-9.622-33.572-10.608-3.812-23.5,5.038-28.794,19.767Z"/><ellipse class="uuid-27a40351-738f-4768-9058-8e69f99393a0" cx="764.782" cy="123.004" rx="13.595" ry="18.877" transform="translate(-1.68 235.067) rotate(-17.455)"/><path class="uuid-27a40351-738f-4768-9058-8e69f99393a0" d="m766.019,104.474c5.933,0,12.034,5.709,14.509,13.576,2.931,9.319-.005,18.576-6.55,20.635-1.876.59-3.817,1.201-5.971,1.614-.208.04-.419.06-.627.06-2.941,0-7.352-4.59-10.577-14.844-2.444-7.77-3.15-16.948,1.077-18.735,1.643-.695,3.855-1.391,5.47-1.899.858-.27,1.757-.407,2.67-.407m0-1.159c-1.018,0-2.029.149-3.018.461-1.668.525-3.882,1.221-5.574,1.937-5.302,2.243-4.13,12.522-1.73,20.151,2.171,6.903,6.58,15.655,11.683,15.655.28,0,.562-.026.846-.081,2.221-.426,4.186-1.044,6.104-1.647,7.162-2.254,10.433-12.143,7.304-22.088-2.696-8.572-9.266-14.387-15.614-14.387h0Z"/><path class="uuid-beaa4133-a700-468a-a8aa-ae894fccc9c0" d="m762.53,113.601c.619-.162,1.22-.217,1.803-.166.38.034.743.09,1.091.168.297.067.532.444.519.83l-.04,1.115c-.013.362-.241.604-.519.54-.266-.061-.534-.108-.806-.141-.443-.054-.865-.029-1.266.076-.47.123-.806.407-1.008.85-.202.444-.191,1.096.034,1.955l.515,1.967c.099.377.398.624.67.553l2.301-.602c.271-.071.571.177.67.553l.212.808c.099.377-.041.74-.313.811l-2.301.602c-.271.071-.411.434-.313.811l.34,1.299c.233.891.367,1.648.274,2.2-.068.405-.138.765-.377,1.066l5.425-1.42c.271-.071.571.177.67.553l.324,1.238c.099.377-.041.74-.313.811l-7.768,2.034c-.271.071-.571-.177-.67-.553l-.341-1.302c-.07-.268-.034-.55.11-.71.293-.325.508-.693.646-1.104.172-.512.131-1.254-.123-2.225l-.346-1.323c-.099-.377-.398-.624-.67-.553l-.565.148c-.271.071-.571-.177-.67-.553l-.212-.808c-.099-.377.041-.74.313-.811l.565-.148c.271-.071.411-.434.313-.811l-.54-2.063c-.287-1.098-.365-2.038-.233-2.821.132-.783.426-1.413.884-1.889.457-.477,1.029-.805,1.717-.985Z"/><path class="uuid-b91797e8-7f21-4a6f-b217-9e6a66ad138f" d="m753.796,126.461c2.65,8.425,9.717,13.708,15.785,11.799,6.067-1.909,8.838-10.287,6.188-18.712s-9.717-13.708-15.785-11.799c-6.068,1.909-8.838,10.287-6.188,18.712Z"/><ellipse class="uuid-27a40351-738f-4768-9058-8e69f99393a0" cx="304.326" cy="37.612" rx="24.77" ry="17.841" transform="translate(172.852 314.639) rotate(-71.657)"/><path class="uuid-27a40351-738f-4768-9058-8e69f99393a0" d="m302.891,12.973c1.296,0,2.567.203,3.782.606,2.458.815,5,1.658,7.625,2.879,5.313,2.473,4.106,14.539.735,24.704-3.208,9.677-9.008,19.441-14.734,19.441-.382,0-.768-.044-1.147-.131-2.294-.524-5.192-1.485-7.307-2.187-8.699-2.884-12.452-15.259-8.365-27.584,3.406-10.272,11.569-17.728,19.411-17.728m0-1.22c-8.267,0-16.889,7.466-20.568,18.564-4.305,12.985-.214,26.025,9.139,29.126,2.178.722,5.07,1.681,7.419,2.218.476.109.95.161,1.419.161,6.791,0,12.802-10.959,15.892-20.276,3.152-9.508,5.234-23.116-1.378-26.193-2.691-1.252-5.256-2.103-7.761-2.933-1.359-.451-2.755-.667-4.161-.667h0Z"/><path class="uuid-beaa4133-a700-468a-a8aa-ae894fccc9c0" d="m309.107,25.383c.797.264,1.498.633,2.102,1.106.394.309.754.63,1.081.964.28.286.268.869-.023,1.285l-.841,1.199c-.273.389-.697.492-.957.223-.249-.257-.511-.5-.787-.732-.449-.376-.931-.65-1.447-.821-.605-.201-1.178-.129-1.717.215-.54.344-.993,1.069-1.36,2.176l-.84,2.533c-.161.485-.008.972.341,1.088l2.963.982c.349.116.502.603.341,1.088l-.345,1.041c-.161.485-.574.784-.923.668l-2.963-.982c-.349-.116-.763.183-.923.668l-.555,1.673c-.381,1.148-.774,2.076-1.271,2.617-.365.397-.699.744-1.177.903l6.985,2.316c.349.116.502.603.341,1.088l-.528,1.594c-.161.485-.574.784-.923.668l-10.002-3.316c-.349-.116-.502-.603-.341-1.088l.556-1.677c.114-.344.356-.63.629-.703.555-.149,1.055-.4,1.5-.753.555-.441,1.04-1.287,1.455-2.536l.565-1.703c.161-.485.008-.972-.341-1.088l-.727-.241c-.349-.116-.502-.603-.341-1.088l.345-1.041c.161-.485.574-.784.923-.668l.727.241c.349.116.763-.183.923-.668l.881-2.656c.469-1.414,1.056-2.504,1.76-3.271.705-.767,1.479-1.25,2.323-1.447.843-.198,1.708-.15,2.593.143Z"/><path class="uuid-ce0c1281-ad14-4c57-9de7-2c732fc1f434" d="m318.672,42.368c3.647-11,.181-22.048-7.742-24.674-7.923-2.627-17.303,4.161-20.95,15.162-3.647,11.001-.181,22.048,7.742,24.675,7.923,2.627,17.303-4.161,20.95-15.162Z"/><path class="uuid-27a40351-738f-4768-9058-8e69f99393a0" d="m979.748,256.227c-.934-.005-.934-.008-1.869-.013s-.933-.118-1.867-.123-.935.13-1.869.125-.934-.066-1.868-.071-.934-.209-1.869-.214-.934-.092-1.868-.097c-.932-.005-.933.154-1.866.149s-.933.281-1.865.276-.931-.264-1.863-.27-.932-.076-1.865-.081-.934-.053-1.868-.058-.936.179-1.871.174-.933-.132-1.867-.137-.935.363-1.868.357-.933-.068-1.867-.073-.935.034-1.871.028-.935.005-1.87,0-.932-.331-1.867-.336-.936.143-1.87.138-.936-.054-1.871-.059-.935.031-1.87.026-.935-.163-1.871-.168-.937.343-1.873.338-.936-.05-1.872-.055-.935-.06-1.871-.065-.932-.238-1.866-.243-.936-.031-1.873-.036-.937.284-1.872.278-.937.053-1.873.048-.935-.39-1.872-.395-.938.361-1.874.356-.938-.102-1.876-.107-.939-.132-1.879-.137-.939-.114-1.879-.12c-.648-.004-1.298.143-1.91.018-.63-.128-1.21-.427-1.789-.671-.589-.248-1.121-.583-1.644-.938-.527-.357-.927-.834-1.373-1.285s-.953-.834-1.304-1.365c-.348-.527-.641-1.086-.882-1.678-.238-.582-.285-1.211-.406-1.843-.118-.613-.399-1.215-.395-1.863.005-.959.067-.959.072-1.918s.027-.959.032-1.917.07-.958.075-1.917-.116-.96-.111-1.919c.005-.96-.17-.961-.164-1.921.005-.959.132-.958.137-1.918.005-.959-.028-.959-.023-1.918s.352-.955.357-1.911c.005-.957-.476-.959-.471-1.916s.019-.957.024-1.915.47-.956.475-1.915c.005-.96-.112-.961-.107-1.92s-.071-.959-.065-1.917-.211-.959-.206-1.917.407-.956.412-1.914-.23-.961-.224-1.921-.189-.961-.184-1.92c.005-.959.083-.958.088-1.917s-.09-.96-.085-1.92.143-.96.148-1.92.218-.958.223-1.918-.022-.961-.017-1.921-.177-.961-.172-1.921.102-.961.107-1.922.072-.96.077-1.921-.029-.961-.024-1.922.09-.96.096-1.921c.005-.959-.101-.96-.096-1.919s.104-.96.11-1.921-.146-.963-.141-1.924.136-.961.142-1.923.071-.962.076-1.924-.298-.965-.293-1.929.298-.962.303-1.926c.004-.693-.089-1.373.086-2.011.18-.66.274-1.395.612-1.972.343-.585.951-1.013,1.43-1.487s.998-.931,1.587-1.267c.581-.332,1.222-.604,1.884-.777.64-.167,1.331-.413,2.024-.409.936.005.934.357,1.87.362.936.005.936-.104,1.872-.099s.936-.178,1.872-.173.934.312,1.869.317.935.068,1.871.073.938-.316,1.875-.311.934.237,1.87.242.933.098,1.867.103.935-.288,1.868-.283.934-.084,1.867-.079.932.333,1.866.338c.935.005.936-.138,1.872-.132s.937-.13,1.874-.125.935.026,1.87.031.934.061,1.869.067.934.255,1.869.26.937-.035,1.873-.03.938-.325,1.874-.32.933.396,1.869.401.937-.223,1.873-.218.936.234,1.873.239.939-.468,1.875-.462c.937.005.935.496,1.872.502.937.005.939-.429,1.876-.424s.937.099,1.875.105.936.264,1.873.269.935-.059,1.87-.054.938-.065,1.876-.06.936.023,1.872.028.937.045,1.875.05.938.085,1.877.09.938-.096,1.875-.091.94-.111,1.88-.106.942-.105,1.883-.1.94.109,1.881.114c.648.004,1.257.245,1.868.369.63.128,1.223.295,1.802.538.589.248,1.319.266,1.842.621.527.357.821,1.022,1.267,1.473s1.045.794,1.396,1.325c.348.527.521,1.174.762,1.766.238.582.423,1.193.545,1.824.118.613.368,1.249.364,1.897-.005.958.004.958-.002,1.916s-.15.957-.155,1.915-.011.958-.016,1.917.109.96.104,1.919-.06.958-.065,1.917-.284.957-.289,1.915.401.958.396,1.914-.076.956-.081,1.912-.402.955-.408,1.911c-.005.958.062.959.057,1.917s.362.961.356,1.92-.031.958-.036,1.915c-.005.957-.222.956-.227,1.913s.037.958.031,1.916.129.96.124,1.919c-.005.959-.072.959-.077,1.918s-.135.957-.14,1.916c-.005.959-.064.959-.07,1.917-.005.96.18.961.175,1.921-.005.959-.308.957-.313,1.916s.091.961.086,1.921.287.961.281,1.921-.037.96-.042,1.921.024.96.019,1.92c-.005.96-.053.96-.059,1.92-.005.96-.165.959-.17,1.92s.003.959-.002,1.917-.024.96-.029,1.92c-.005.961-.089.961-.094,1.922s.369.963.364,1.924-.443.959-.449,1.92-.017.963-.023,1.926.196.964.19,1.927c-.004.648-.238,1.243-.363,1.854-.128.63-.311,1.201-.555,1.78-.248.589-.462,1.165-.816,1.688-.357.527-.618,1.135-1.069,1.581s-.901.944-1.432,1.295c-.527.348-1.278.281-1.869.523-.582.238-1.111.603-1.743.724-.613.118-1.242.291-1.889.287Z"/><path class="uuid-58fc6cbb-e0ce-4ef9-9bfa-03ffbe85dcc7" d="m918.514,231.791c.003-.443.361-.797.804-.794l1.332.007c1.764.01,3.187,1.449,3.177,3.212.01-1.764,1.448-3.187,3.212-3.178l1.332.007c.442.002.797.36.794.803v.266c-.008,1.155-.627,2.163-1.548,2.721,2.674.431,4.711,2.755,4.695,5.55-.024,4.533-6.672,7.105-8.048,7.59-.168.059-.337.085-.514.084s-.346-.029-.512-.089c-1.372-.5-7.99-3.146-7.966-7.678.016-2.795,2.078-5.097,4.756-5.499-.915-.567-1.522-1.583-1.516-2.737v-.266Zm-1.644,8.511c-.008,1.444,1.063,2.821,2.784,4.039,1.63,1.154,3.446,1.879,4.104,2.12.66-.233,2.484-.939,4.128-2.074,1.734-1.199,2.819-2.564,2.827-4.008.013-2.207-1.765-4.003-3.971-4.016-.437-.002-.856.065-1.246.189-.134.046-.271.082-.406.115.691.799,1.161,1.796,1.312,2.893.061.436-.304.793-.747.791-.442-.002-.79-.363-.873-.796-.356-1.83-1.963-3.213-3.896-3.223-2.206-.012-4.003,1.765-4.016,3.972Z"/><path class="uuid-58fc6cbb-e0ce-4ef9-9bfa-03ffbe85dcc7" d="m916.103,199.718l.041-7.453c0-.1.067-.167.168-.166l3.971.021c.101,0,.166.068.166.168l-.007,1.224c0,.1-.067.167-.168.166l-2.38-.013-.008,1.469,2.235.012c.101,0,.166.067.166.167l-.007,1.224c0,.1-.067.167-.168.166l-2.235-.012-.017,3.037c0,.1-.068.167-.168.166l-1.424-.008c-.101,0-.167-.068-.166-.168Z"/><path class="uuid-58fc6cbb-e0ce-4ef9-9bfa-03ffbe85dcc7" d="m928.291,199.951l-1.524-.008c-.089,0-.155-.034-.199-.113l-1.576-2.578-.4-.002-.014,2.514c0,.1-.068.167-.168.166l-1.424-.008c-.101,0-.167-.068-.166-.168l.041-7.453c0-.1.067-.167.168-.166l2.392.013c1.88.01,2.764,1.061,2.755,2.574-.006,1.101-.489,1.955-1.481,2.328l1.71,2.701c.077.123.021.2-.112.2Zm-3.691-4.259l.756.004c.59.003,1.136-.183,1.14-.984.005-.812-.539-1.004-1.129-1.007l-.756-.004-.011,1.991Z"/><path class="uuid-58fc6cbb-e0ce-4ef9-9bfa-03ffbe85dcc7" d="m930.67,199.797l.041-7.453c0-.1.067-.167.168-.166l4.016.022c.1,0,.166.068.166.168l-.007,1.224c0,.1-.068.166-.168.166l-2.426-.013-.009,1.524,2.281.013c.1,0,.166.067.165.167l-.006,1.224c0,.1-.067.167-.167.167l-2.281-.013-.009,1.591,2.414.013c.101,0,.178.067.178.167l-.007,1.224c0,.1-.079.167-.18.166l-4.004-.022c-.101,0-.167-.068-.166-.168Z"/><path class="uuid-58fc6cbb-e0ce-4ef9-9bfa-03ffbe85dcc7" d="m937.475,199.835l.041-7.453c0-.1.067-.167.168-.167l4.016.022c.1,0,.166.068.166.168l-.007,1.224c0,.1-.068.167-.168.166l-2.426-.013-.009,1.524,2.281.013c.1,0,.166.067.165.167l-.006,1.224c0,.1-.067.167-.167.166l-2.281-.013-.009,1.591,2.414.013c.101,0,.178.067.178.167l-.007,1.224c0,.1-.079.167-.18.166l-4.004-.022c-.101,0-.167-.067-.166-.167Z"/><path class="uuid-58fc6cbb-e0ce-4ef9-9bfa-03ffbe85dcc7" d="m915.812,212.127c-.055-.067-.055-.156.013-.234l.772-.864c.056-.066.145-.099.245-.021.509.503.931.75,1.52.753.567.003.969-.217.971-.707.003-.456-.329-.603-.818-.828l-.942-.45c-.821-.372-1.597-.965-1.59-2.178.008-1.458,1.113-2.241,2.47-2.233.924.005,1.689.376,2.331,1.047.066.067.077.167.01.245l-.739.886c-.056.078-.155.11-.233.054-.499-.425-.865-.616-1.321-.619-.512-.002-.812.251-.814.652-.003.423.309.558.874.828l.787.36c.821.394,1.709.91,1.701,2.245-.009,1.624-1.348,2.317-2.66,2.311-1.235-.007-2.11-.624-2.574-1.249Z"/><path class="uuid-58fc6cbb-e0ce-4ef9-9bfa-03ffbe85dcc7" d="m923.347,213.102l.041-7.453c0-.1.067-.167.168-.166l2.392.013c1.88.01,2.764,1.061,2.756,2.574-.009,1.513-.904,2.542-2.784,2.532l-.802-.004-.014,2.514c0,.1-.067.167-.167.166l-1.424-.008c-.101,0-.166-.068-.166-.168Zm2.536-4.058c.59.003,1.136-.183,1.141-.983.004-.812-.54-1.004-1.13-1.007l-.757-.004-.011,1.991.757.004Z"/><path class="uuid-58fc6cbb-e0ce-4ef9-9bfa-03ffbe85dcc7" d="m930.919,213.143l.041-7.453c0-.1.067-.167.168-.166l1.424.008c.1,0,.165.068.165.168l-.041,7.453c0,.1-.067.167-.167.166l-1.424-.008c-.101,0-.166-.068-.166-.168Z"/><path class="uuid-58fc6cbb-e0ce-4ef9-9bfa-03ffbe85dcc7" d="m941.659,205.749l-.041,7.453c0,.1-.067.167-.168.166l-1.657-.009c-.089,0-.155-.034-.199-.112l-2.554-4.831-.026,4.761c0,.1-.068.167-.168.166l-1.424-.008c-.101,0-.166-.068-.166-.167l.041-7.453c0-.1.067-.167.168-.166l1.657.009c.089,0,.155.034.199.112l2.555,4.831.026-4.761c0-.1.067-.167.167-.166l1.424.008c.101,0,.166.068.166.168Z"/><path class="uuid-58fc6cbb-e0ce-4ef9-9bfa-03ffbe85dcc7" d="m943.979,212.28c-.055-.067-.055-.156.013-.234l.772-.863c.056-.066.145-.099.245-.021.509.503.931.75,1.52.753.567.003.969-.217.971-.707.003-.456-.329-.603-.817-.828l-.943-.45c-.821-.372-1.597-.965-1.59-2.178.008-1.458,1.113-2.241,2.47-2.234.924.005,1.689.376,2.331,1.047.066.067.077.167.01.245l-.739.885c-.056.078-.155.111-.233.055-.499-.426-.865-.617-1.321-.619-.512-.003-.812.251-.814.652-.003.423.309.558.874.828l.787.36c.821.394,1.709.91,1.701,2.245-.009,1.624-1.348,2.317-2.66,2.31-1.235-.007-2.11-.624-2.574-1.249Z"/><line class="uuid-b6abbfae-cd2d-4501-aed5-022046baa8e4" x1="916.673" y1="183.163" x2="943.883" y2="183.312"/><path class="uuid-27a40351-738f-4768-9058-8e69f99393a0" d="m236.317,159.42c-.572-.003-.572-.005-1.145-.008s-.572-.073-1.145-.076-.574.08-1.147.077-.574-.04-1.148-.044-.575-.129-1.15-.132-.574-.056-1.149-.06-.574.095-1.148.092-.574.173-1.148.17-.573-.163-1.146-.166-.574-.046-1.148-.05-.575-.032-1.15-.036-.576.11-1.152.107-.574-.081-1.149-.084-.576.223-1.15.22-.574-.042-1.149-.045-.576.021-1.151.017-.575.003-1.151,0-.574-.204-1.149-.207-.576.088-1.151.085-.576-.033-1.152-.036-.575.019-1.151.016-.572-.1-1.145-.103-.575.211-1.149.208-.576-.031-1.152-.034-.575-.037-1.15-.04-.574-.146-1.149-.15-.577-.019-1.154-.022-.577.174-1.153.171-.577.033-1.154.03-.576-.24-1.154-.243-.578.222-1.154.219-.577-.063-1.155-.066-.579-.081-1.158-.084-.579-.07-1.158-.074c-.399-.002-.799.088-1.175.011-.388-.079-.745-.263-1.101-.413-.362-.153-.69-.359-1.011-.577-.324-.22-.57-.513-.845-.791s-.586-.513-.802-.84c-.214-.324-.394-.668-.543-1.032-.146-.358-.175-.745-.25-1.134-.072-.377-.245-.747-.243-1.146.003-.588.041-.587.044-1.175s.017-.588.02-1.176.043-.588.046-1.177-.071-.59-.068-1.179-.104-.591-.101-1.182.081-.589.085-1.179-.017-.589-.014-1.178.216-.587.22-1.176-.293-.59-.29-1.179.012-.589.015-1.178.289-.589.292-1.179-.069-.591-.066-1.182-.043-.59-.04-1.18-.13-.59-.126-1.18.25-.588.254-1.178-.141-.592-.138-1.182-.116-.591-.113-1.182.051-.59.054-1.18-.056-.591-.052-1.181.088-.591.091-1.182.134-.59.137-1.18-.014-.591-.01-1.183-.109-.589-.106-1.178.063-.591.066-1.182.044-.59.047-1.18-.018-.59-.015-1.18.056-.592.059-1.184-.062-.591-.059-1.182.064-.591.067-1.183-.09-.593-.087-1.185.084-.591.087-1.183.043-.592.047-1.185-.183-.595-.18-1.189.183-.593.186-1.187c.002-.426-.054-.845.053-1.237.111-.406.169-.858.377-1.213.211-.36.585-.623.88-.915s.614-.572.976-.779c.357-.204.751-.371,1.159-.478.394-.103.819-.254,1.245-.252.573.003.572.22,1.145.223s.574-.064,1.147-.061.574-.11,1.148-.106.573.192,1.148.195.575.042,1.15.045.577-.194,1.154-.191.575.146,1.15.149.574.06,1.149.064.575-.177,1.15-.174.575-.052,1.149-.049.574.205,1.149.208.576-.085,1.152-.081.577-.08,1.153-.077.575.016,1.151.019.575.038,1.15.041.575.157,1.15.16.577-.021,1.153-.018.577-.2,1.154-.197.574.243,1.15.247.577-.137,1.153-.134.576.144,1.153.147.578-.288,1.154-.284.572.305,1.146.309.576-.264,1.151-.261.577.061,1.154.064.575.163,1.151.166.576-.036,1.152-.033.578-.04,1.156-.037.577.014,1.154.017.578.027,1.155.031.578.052,1.156.055.578-.059,1.155-.056.579-.068,1.157-.065.58-.065,1.16-.062.58.067,1.16.07c.399.002.773.151,1.149.227.388.079.752.181,1.109.331.362.153.811.164,1.133.382.324.22.505.629.78.906s.643.488.859.815c.214.324.32.722.469,1.086.146.358.26.734.335,1.122.072.377.226.769.224,1.167-.003.587.002.587,0,1.175s-.092.588-.096,1.176-.007.589-.01,1.178.067.591.064,1.181-.037.589-.04,1.178-.175.588-.178,1.176.247.59.244,1.178-.047.588-.05,1.176-.248.587-.251,1.176.038.59.035,1.179.222.591.219,1.182-.019.589-.022,1.179-.136.588-.14,1.177.023.589.019,1.179.079.591.076,1.181-.044.59-.047,1.18-.083.589-.086,1.179-.04.59-.043,1.18.111.591.108,1.182-.19.589-.193,1.179.056.591.053,1.182.176.589.173,1.177-.023.591-.026,1.182.015.59.012,1.179-.033.589-.036,1.179-.101.591-.105,1.182.002.591-.001,1.181-.015.591-.018,1.183-.055.592-.058,1.184.227.592.224,1.184-.273.591-.276,1.183-.011.594-.014,1.187.12.594.117,1.188c-.002.399-.147.765-.223,1.141-.079.388-.191.739-.341,1.095-.153.362-.284.716-.502,1.038-.22.324-.38.698-.658.973s-.554.581-.881.797c-.324.214-.786.173-1.15.322-.358.146-.683.371-1.072.446-.377.072-.764.179-1.162.177Z"/><path class="uuid-58fc6cbb-e0ce-4ef9-9bfa-03ffbe85dcc7" d="m196.657,149.126c.011-1.873,1.019-3.598,2.646-4.526,1.627-.927,3.625-.917,5.242.029,1.616.945,2.606,2.681,2.596,4.554-.01,1.873-1.019,3.598-2.646,4.525-1.627.928-3.625.917-5.242-.029-1.617-.945-2.606-2.681-2.597-4.554Zm5.055,4.283c.007-1.13.445-2.258,1.314-3.117.868-.86,2.001-1.283,3.131-1.279-.073-2.22-1.849-4.016-4.07-4.112-.006,1.13-.445,2.258-1.313,3.118s-2,1.283-3.13,1.277c.072,2.222,1.848,4.018,4.068,4.114Zm-3.987-5.096c.854-.016,1.704-.345,2.358-.995.654-.649.995-1.493,1.021-2.347-1.697.321-3.04,1.648-3.379,3.342Zm4.972,5.026c1.697-.321,3.039-1.648,3.381-3.342-.854.016-1.704.345-2.358.995-.655.65-.997,1.493-1.022,2.349v-.002Z"/><path class="uuid-58fc6cbb-e0ce-4ef9-9bfa-03ffbe85dcc7" d="m197.164,124.658l.025-4.58c0-.062.042-.102.104-.102l2.44.013c.062,0,.102.042.102.103l-.004.752c0,.062-.042.102-.104.102l-1.463-.008-.005.902,1.374.008c.062,0,.103.042.103.103l-.005.752c0,.062-.041.102-.103.102l-1.374-.008-.011,1.866c0,.062-.041.102-.103.102l-.875-.005c-.062,0-.103-.042-.103-.103Z"/><path class="uuid-58fc6cbb-e0ce-4ef9-9bfa-03ffbe85dcc7" d="m204.659,124.802l-.937-.005c-.055,0-.096-.021-.123-.069l-.969-1.584h-.246s-.009,1.543-.009,1.543c0,.062-.041.102-.103.102l-.875-.005c-.062,0-.103-.042-.103-.103l.025-4.58c0-.062.042-.102.104-.102l1.47.008c1.155.006,1.698.652,1.693,1.582-.004.677-.301,1.201-.91,1.431l1.05,1.66c.048.076.014.123-.068.123Zm-2.27-2.617l.465.002c.362.002.698-.112.701-.604.002-.499-.332-.617-.694-.619l-.465-.002-.007,1.224Z"/><path class="uuid-58fc6cbb-e0ce-4ef9-9bfa-03ffbe85dcc7" d="m206.125,124.707l.025-4.58c0-.062.042-.102.104-.102l2.468.013c.062,0,.102.042.102.103l-.004.752c0,.062-.042.102-.104.102l-1.49-.008-.005.937,1.401.008c.062,0,.103.042.102.103l-.004.752c0,.062-.041.102-.103.102l-1.401-.008-.006.977,1.483.008c.062,0,.109.042.108.103l-.004.752c0,.062-.048.102-.109.102l-2.461-.013c-.062,0-.103-.042-.103-.103Z"/><path class="uuid-58fc6cbb-e0ce-4ef9-9bfa-03ffbe85dcc7" d="m210.312,124.73l.025-4.58c0-.062.042-.102.104-.102l2.468.013c.062,0,.102.042.102.103l-.004.752c0,.062-.042.103-.104.102l-1.49-.008-.005.937,1.401.008c.062,0,.103.042.102.103l-.004.752c0,.062-.041.103-.103.102l-1.401-.008-.006.977,1.483.008c.062,0,.109.042.108.103l-.004.752c0,.062-.048.102-.109.102l-2.461-.013c-.062,0-.103-.042-.103-.103Z"/><path class="uuid-58fc6cbb-e0ce-4ef9-9bfa-03ffbe85dcc7" d="m197.119,132.867l.025-4.58c0-.062.042-.102.104-.102l1.661.009c.854.005,1.322.561,1.319,1.224-.003.513-.312.846-.621.995.464.125.927.518.923,1.215-.004.807-.561,1.357-1.716,1.351l-1.593-.009c-.062,0-.103-.042-.103-.103Zm1.632-.839c.403.002.678-.167.68-.563.002-.403-.271-.555-.674-.558l-.561-.003-.006,1.121.561.003Zm-.078-1.962c.328.002.534-.127.536-.476.002-.328-.203-.445-.531-.447l-.472-.002-.005.923.472.002Z"/><path class="uuid-58fc6cbb-e0ce-4ef9-9bfa-03ffbe85dcc7" d="m201.866,132.893l.025-4.58c0-.062.042-.102.104-.102l2.468.013c.062,0,.102.042.102.103l-.004.752c0,.062-.042.102-.104.102l-1.49-.008-.005.937,1.401.008c.062,0,.103.042.102.103l-.004.752c0,.062-.041.102-.103.102l-1.401-.008-.006.978,1.483.008c.062,0,.109.042.109.103l-.005.752c0,.062-.048.102-.109.102l-2.461-.013c-.062,0-.103-.042-.103-.103Z"/><path class="uuid-58fc6cbb-e0ce-4ef9-9bfa-03ffbe85dcc7" d="m206.928,132.921l.021-3.726-.909-.005c-.062,0-.103-.042-.102-.103l.004-.752c0-.062.042-.102.104-.102l2.905.016c.062,0,.108.042.108.103l-.004.752c0,.062-.049.102-.11.102l-.909-.005-.021,3.726c0,.062-.041.102-.103.102l-.875-.005c-.062,0-.109-.042-.109-.103Z"/><line class="uuid-db72a4d2-33e3-4496-a652-df4902fc691c" x1="197.516" y1="114.474" x2="214.255" y2="114.566"/><path class="uuid-2d7b9f82-0db2-47e1-bf45-76349b6ce689" d="m805.191,87.274c-.798-.004-.796-.395-1.594-.399s-.799.354-1.597.349-.798-.092-1.597-.097-.796-.23-1.594-.235-.796-.049-1.593-.054-.797.105-1.593.101-.797.083-1.593.079-.797-.058-1.593-.062-.799.211-1.597.207-.799-.012-1.598-.016-.796-.254-1.594-.258-.797-.058-1.594-.063-.798.011-1.595.007-.801.286-1.599.281-.798-.108-1.597-.112-.797-.247-1.595-.251-.8.301-1.599.296c-.8-.004-.799-.187-1.598-.191s-.8.231-1.599.226-.798-.213-1.598-.218-.798-.151-1.597-.155-.802.291-1.601.287-.797-.135-1.595-.139-.798.117-1.596.113-.8-.108-1.6-.113-.799.074-1.598.07-.799-.258-1.599-.262-.803.303-1.604.299-.799-.217-1.598-.221-.801-.105-1.603-.109-.804.145-1.607.141-.803-.049-1.606-.053c-.535-.003-1.024-.18-1.533-.272-.524-.095-1.126.122-1.613-.059-.497-.184-.929-.542-1.38-.806-.455-.267-1-.444-1.4-.783s-.661-.852-.997-1.257-.756-.773-1.018-1.231c-.259-.454-.353-1.007-.532-1.506-.175-.49-.136-1.031-.225-1.556-.086-.51-.106-1.007-.104-1.542.004-.792-.273-.794-.269-1.586s.229-.79.233-1.582-.079-.79-.075-1.58-.06-.792-.056-1.583c.004-.793-.082-.793-.077-1.586s.284-.79.288-1.581-.34-.792-.335-1.583.011-.79.015-1.58.189-.789.193-1.579-.089-.791-.085-1.582.19-.791.195-1.583-.069-.793-.065-1.586-.125-.792-.121-1.584.028-.791.032-1.582.039-.791.043-1.583.21-.792.214-1.584-.07-.793-.065-1.586-.169-.793-.164-1.585-.047-.793-.043-1.585.297-.792.301-1.585.019-.792.024-1.585-.054-.794-.049-1.587-.038-.793-.034-1.586-.094-.794-.09-1.588.105-.791.11-1.582-.244-.793-.24-1.584.139-.793.144-1.588-.147-.794-.142-1.586.131-.793.135-1.587.194-.794.198-1.589-.109-.794-.105-1.588-.049-.796-.044-1.591.128-.796.133-1.593-.017-.797-.013-1.594c.003-.541-.135-1.103,0-1.601.141-.515.588-.905.852-1.355.267-.456.414-1.012.788-1.382s.791-.754,1.251-1.017c.453-.259,1.073-.128,1.59-.263.499-.13.973-.238,1.513-.235.795.004.797-.259,1.592-.255s.795.05,1.59.055.792.242,1.585.246.795.01,1.589.014.798-.352,1.594-.347.795-.015,1.589-.01.794.054,1.587.058.792.29,1.585.294.793.034,1.587.038.796-.27,1.59-.266.795-.02,1.591-.016.795.212,1.591.216.796-.227,1.591-.223.795,0,1.589.005.793.271,1.588.275.796.079,1.592.083.798-.324,1.594-.319.794.232,1.589.237.796.059,1.591.064.798-.135,1.594-.13.796.01,1.592.014.797-.057,1.594-.053c.796.004.796.108,1.592.112s.797.054,1.594.059.794.106,1.589.111c.795.004.796-.213,1.591-.208s.796.193,1.594.197.796.004,1.592.008.798-.069,1.595-.065.799-.145,1.597-.141.796.115,1.593.119.798.15,1.597.154.802-.324,1.602-.32.799.264,1.599.268c.535.003,1.033.076,1.542.168.524.095,1.094-.012,1.582.169.497.184.913.548,1.364.812.455.267.925.512,1.325.851s.827.674,1.163,1.079.442.966.703,1.424c.259.454.78.798.959,1.297.175.49.076,1.072.165,1.597.086.51.316,1.026.313,1.561-.004.793-.066.792-.07,1.585s-.138.793-.142,1.587.045.796.041,1.591.096.794.092,1.588-.243.792-.248,1.585.273.794.268,1.587q-.004.793-.01,1.585c-.004.793-.011.793-.015,1.587s-.228.793-.233,1.588.073.796.068,1.591.232.795.228,1.59-.346.792-.351,1.586c-.004.794-.042.794-.046,1.588s.353.797.348,1.593-.381.793-.385,1.588.149.795.145,1.59c-.004.795.09.796.086,1.591s-.036.796-.041,1.592c-.004.795.039.795.034,1.59-.004.796-.261.795-.265,1.591s.01.796.005,1.591c-.004.796.164.797.16,1.594s.155.795.151,1.589-.315.792-.319,1.587.186.798.181,1.595.137.796.133,1.592-.261.795-.266,1.592c-.004.797.047.798.042,1.595s.004.796,0,1.593.197.799.193,1.597-.073.799-.077,1.598-.186.798-.19,1.598c-.003.535-.063,1.044-.155,1.554-.095.524-.288.995-.469,1.483-.184.497-.223,1.052-.487,1.503-.267.455-.675.81-1.015,1.209s-.73.734-1.135,1.07-.726.79-1.184,1.052c-.454.259-.965.429-1.463.608-.49.175-.975.472-1.5.561-.51.086-1.067.149-1.602.147Z"/><path class="uuid-58fc6cbb-e0ce-4ef9-9bfa-03ffbe85dcc7" d="m753.487,75.938c-1.547-2.713-1.528-6.043.047-8.737,1.576-2.696,4.471-4.346,7.592-4.328,3.122.017,5.998,1.698,7.544,4.41s1.528,6.042-.048,8.737c-1.576,2.696-4.47,4.345-7.592,4.328-3.121-.018-5.997-1.698-7.543-4.41Zm14.652-3.6l-2.588-1.649c-.146-.097-.258-.24-.312-.408-.053-.167-.045-.349.021-.512l1.155-2.84c-.675-.768-1.515-1.391-2.461-1.812l-2.369,1.954c-.135.111-.309.172-.482.171s-.345-.063-.48-.177l-2.348-1.979c-.951.412-1.799,1.025-2.481,1.785l1.121,2.854c.063.163.069.345.015.512-.057.166-.166.31-.316.404l-2.604,1.62c.094,1.053.422,2.041.926,2.911l3.063-.188c.178-.01.354.039.494.146.14.105.241.257.284.428l.734,2.979c.495.109,1.003.17,1.529.173.525.003,1.037-.049,1.529-.155l.768-2.972c.042-.175.145-.32.289-.426.144-.105.318-.152.496-.141l3.061.222c.514-.864.85-1.849.957-2.899Zm-13.752-3.116c-.035.102-.07.207-.102.31l.102-.31Zm2.557,8.158l-.13-.094c.044.031.085.062.13.094Zm4.628-8.149l1.629,1.196c.286.209.403.578.292.915l-.635,1.919c-.111.337-.427.564-.782.562l-2.021-.012c-.354-.002-.668-.231-.775-.57l-.613-1.926c-.107-.338.014-.706.302-.912l1.642-1.175c.287-.206.677-.204.962.006v-.004Zm-.485-4.72h.061-.061Zm4.06,12.917c.044-.03.092-.064.137-.098l-.137.098Zm2.646-8.133l.101.313c-.03-.105-.063-.211-.101-.313Z"/><path class="uuid-58fc6cbb-e0ce-4ef9-9bfa-03ffbe85dcc7" d="m753.019,40.938l.034-6.215c0-.084.057-.14.14-.139l2.255.012c1.159.007,1.796.761,1.791,1.661-.004.695-.424,1.148-.843,1.351.63.17,1.258.703,1.253,1.648-.006,1.096-.762,1.842-2.329,1.834l-2.162-.012c-.083,0-.139-.057-.139-.141Zm2.215-1.139c.547.003.92-.227.923-.765.003-.547-.367-.754-.915-.757l-.76-.004-.009,1.521.761.004Zm-.106-2.663c.445.003.725-.171.728-.645.002-.445-.275-.604-.721-.607l-.64-.003-.007,1.252.64.003Z"/><path class="uuid-58fc6cbb-e0ce-4ef9-9bfa-03ffbe85dcc7" d="m759.285,37.892c.011-1.883,1.521-3.341,3.358-3.33,1.846.01,3.341,1.483,3.331,3.366-.011,1.875-1.521,3.332-3.368,3.322-1.836-.011-3.331-1.483-3.321-3.358Zm5.195.028c.006-1.094-.787-1.915-1.845-1.92-1.049-.006-1.86.806-1.866,1.899-.006,1.076.797,1.907,1.845,1.913,1.059.005,1.86-.816,1.866-1.893Z"/><path class="uuid-58fc6cbb-e0ce-4ef9-9bfa-03ffbe85dcc7" d="m773.251,34.834l-.034,6.215c0,.084-.056.14-.14.139l-1.382-.008c-.074,0-.13-.028-.167-.094l-2.13-4.029-.022,3.971c0,.084-.056.14-.14.14l-1.188-.007c-.083,0-.139-.057-.138-.141l.033-6.215c0-.084.057-.139.141-.139l1.382.008c.074,0,.13.028.167.094l2.13,4.029.021-3.971c0-.084.057-.14.14-.139l1.188.006c.084,0,.139.057.139.141Z"/><path class="uuid-58fc6cbb-e0ce-4ef9-9bfa-03ffbe85dcc7" d="m775.332,38.658l.021-3.812c0-.084.057-.14.141-.14l1.188.007c.083,0,.139.057.138.141l-.021,3.794c-.004.788.364,1.245,1.041,1.249.668.004,1.051-.449,1.056-1.237l.021-3.794c0-.084.057-.14.141-.14l1.188.007c.083,0,.139.057.138.141l-.021,3.812c-.01,1.763-1.062,2.656-2.529,2.648-1.475-.008-2.509-.913-2.499-2.676Z"/><path class="uuid-58fc6cbb-e0ce-4ef9-9bfa-03ffbe85dcc7" d="m782.269,40.319c-.047-.056-.046-.13.01-.194l.645-.721c.047-.055.121-.083.204-.018.425.42.775.627,1.268.63.473.002.808-.182.811-.59.002-.381-.276-.504-.683-.691l-.787-.375c-.685-.31-1.332-.805-1.326-1.816.007-1.215.929-1.869,2.061-1.862.771.004,1.408.313,1.943.873.056.057.064.14.009.205l-.616.738c-.047.064-.131.092-.195.045-.416-.354-.721-.515-1.102-.517-.427-.002-.678.21-.68.544-.002.353.257.466.729.69l.657.301c.685.328,1.425.76,1.419,1.873-.008,1.354-1.124,1.933-2.219,1.927-1.03-.006-1.76-.521-2.146-1.042Z"/><line class="uuid-22ee7d11-19e5-46b2-a446-491f61e44a62" x1="753.543" y1="26.225" x2="776.233" y2="26.349"/><path class="uuid-d0f3ceff-d97e-420c-867a-f42e7b01df3a" d="m715.274,201.57c0-24.197-12.094-45.564-30.566-58.375-10.987-35.411-39.639-63.056-75.658-72.628-2.196-15.823-12.611-22.128-17.202-24.161-.608-.272-1.17.445-.771.989,6.26,8.647,6.505,17.066,6.224,20.741-1.27-.2-2.54-.363-3.828-.499-4.228-9.898-10.824-12.502-14.172-13.183-.563-.118-.898.58-.472.961,4.155,3.684,5.417,9.853,5.689,11.577-1.134-.045-2.268-.063-3.402-.063-39.204,0-73.553,20.795-92.597,51.969-24.361,11.25-41.263,35.892-41.263,64.49,0,28.071,16.286,52.332,39.93,63.854-3.983,9.726-6.179,20.377-6.179,31.537,0,46.035,37.316,83.352,83.352,83.352s83.343-37.317,83.343-83.352c0-2.114-.082-4.201-.236-6.278,37.743-1.67,67.81-32.789,67.81-70.931Zm-247.86-18.182c0-10.969,2.731-21.312,7.558-30.367-1.516,7.213-2.314,14.689-2.314,22.356,0,20.078,5.453,38.877,14.97,54.999-12.448-11.795-20.214-28.489-20.214-46.988Zm165.678,48.249c-5.779,3.275-12.149,5.607-18.926,6.786,5.09,7.013,8.855,15.061,10.896,23.78.617,2.649,1.08,5.353,1.361,8.111.127,1.152.227,2.313.281,3.484.064,1.189.1,2.386.1,3.593,0,36.645-29.713,66.359-66.368,66.359s-66.358-29.713-66.358-66.359c0-9.073,1.823-17.719,5.117-25.594.499-1.197,1.034-2.377,1.606-3.538,1.071-2.205,2.268-4.337,3.575-6.397,4.745-7.466,10.933-13.918,18.173-18.953-3.892-2.531-7.467-5.516-10.661-8.882-10.089-10.634-16.268-24.995-16.268-40.809,0-24.47,14.816-45.473,35.974-54.528,2.722-1.17,5.544-2.141,8.456-2.894,4.754-1.225,9.735-1.878,14.87-1.878,11.731,0,22.673,3.411,31.873,9.29,5.416-1.633,11.169-2.513,17.12-2.513,12.33,0,23.789,3.765,33.279,10.207,1.588,1.08,3.121,2.232,4.591,3.447l.009.009c13.083,10.887,21.421,27.282,21.421,45.636,0,22.146-12.139,41.462-30.122,51.642Zm18.472,26.175c22.709-19.406,37.299-48.04,37.97-80.113,2.023,6.26,3.112,12.929,3.112,19.86,0,27.4-17.03,50.817-41.082,60.252Z"/><path class="uuid-58fc6cbb-e0ce-4ef9-9bfa-03ffbe85dcc7" d="m561.118,232.2c-.944,1.053-4.727,1.842-9.254,1.842-5.244,0-9.491-1.061-9.491-2.359,0-.154.064-.308.173-.454.862-1.08,4.699-1.896,9.318-1.896,5.244,0,9.49,1.052,9.49,2.35,0,.182-.082.354-.236.517Zm-1.379-36.636c-1.733,2.286-4.482,3.765-7.567,3.765-1.742,0-3.366-.463-4.763-1.279-.345-.2-.68-.427-.998-.672-2.268-1.733-3.729-4.464-3.729-7.54,0-2.232.771-4.273,2.06-5.897,1.733-2.187,4.419-3.593,7.431-3.593,5.235,0,9.49,4.246,9.49,9.49,0,2.15-.717,4.128-1.924,5.725Zm25.821,42.143c-.118.472-.807.762-1.887.88-1.479.155-3.693-.027-6.197-.535v-.009c-.554-.1-1.116-.236-1.697-.381-2.169-.544-4.11-1.234-5.607-1.941-1.043-.499-1.86-.998-2.386-1.461-.49-.435-.726-.843-.635-1.197.145-.59,1.17-.898,2.731-.925.98-.027,2.187.063,3.52.254.263.045.535.082.816.136.871.145,1.779.345,2.713.58.427.109.853.227,1.261.336l.009.009c1.152.335,2.232.707,3.175,1.088v.009c1.089.435,2.014.898,2.713,1.352h.009c1.034.662,1.588,1.298,1.461,1.806Zm12.149-35.321c-1.234,1.125-2.767,1.942-4.473,2.286v.009c-.626.127-1.271.19-1.933.19-1.805,0-3.493-.508-4.936-1.379-2.204-1.343-3.828-3.566-4.373-6.179-.127-.626-.19-1.271-.19-1.932,0-4.528,3.166-8.302,7.403-9.254.672-.154,1.379-.236,2.096-.236,2.005,0,3.856.617,5.389,1.678,2.477,1.715,4.101,4.573,4.101,7.812,0,2.776-1.189,5.262-3.085,7.004Z"/><path class="uuid-4abf3da9-31ef-46f2-86f4-f754814ab6e3" d="m572.019,342.722c-3.763.663-7.628,1.028-11.581,1.028-36.645,0-66.358-29.713-66.358-66.358,0-9.073,1.824-17.719,5.117-25.594.499-1.198,1.034-2.377,1.605-3.539,1.071-2.205,2.269-4.336,3.575-6.396,4.745-7.466,10.933-13.917,18.173-18.953-3.893-2.531-7.467-5.517-10.661-8.882-10.089-10.634-16.268-24.996-16.268-40.81,0-24.469,14.816-45.473,35.973-54.528,2.722-1.17,5.544-2.141,8.457-2.894,4.754-1.225,9.735-1.878,14.87-1.878,1.582,0,3.147.067,4.698.189,31.013-42.794,74.256-33.369,74.615-33.29-7.843-4.414-16.287-7.885-25.184-10.249-2.196-15.823-12.611-22.128-17.202-24.161-.608-.272-1.17.445-.771.989,6.26,8.646,6.505,17.066,6.224,20.741-1.27-.2-2.541-.363-3.829-.499-4.228-9.898-10.824-12.502-14.172-13.183-.562-.118-.898.58-.472.961,4.155,3.684,5.417,9.853,5.688,11.577-1.134-.045-2.268-.063-3.402-.063-39.204,0-73.553,20.794-92.597,51.969-24.361,11.25-41.263,35.892-41.263,64.489,0,28.071,16.286,52.332,39.93,63.854-3.983,9.726-6.179,20.377-6.179,31.537,0,46.035,37.316,83.352,83.352,83.352,4.737,0,9.375-.416,13.897-1.176-3.737-6.048-5.526-12.398-6.236-18.234Zm-104.604-159.334c0-10.969,2.731-21.312,7.558-30.367-1.515,7.213-2.313,14.689-2.313,22.355,0,20.078,5.453,38.877,14.97,55-12.448-11.794-20.214-28.488-20.214-46.988Z"/><path class="uuid-58fc6cbb-e0ce-4ef9-9bfa-03ffbe85dcc7" d="m416.939,267.023c.567-.232,1.17-.411,1.79-.524,1.462-.292,2.924-.758,3.979-1.808,1.057-1.051,1.521-2.518,1.809-3.979.113-.621.285-1.224.524-1.79.43-1.044,1.067-2.022,1.915-2.87.848-.847,1.82-1.485,2.863-1.915,1.045-.43,2.185-.668,3.383-.668h4.058c2.637,0,4.772,2.136,4.772,4.773v4.057c0,2.464-1.008,4.695-2.637,6.294-.835.823-1.796,1.444-2.816,1.868-.566.232-1.169.411-1.789.524-1.462.292-2.924.758-3.979,1.808-1.056,1.051-1.521,2.518-1.808,3.979-.113.621-.287,1.224-.525,1.79-.43,1.044-1.068,2.022-1.915,2.87-.848.847-1.819,1.485-2.864,1.915-1.044.43-2.184.668-3.383.668h-4.057c-2.637,0-4.773-2.136-4.773-4.773v-4.057c0-2.464,1.009-4.695,2.638-6.294.835-.823,1.796-1.444,2.815-1.868Zm15.5,6.867c.633-.482,1.527-.799,2.703-1.032.531-.095,1.051-.227,1.551-.399l3.02,1.343c1.975.883,2.857,3.191,1.98,5.166l-1.348,3.037c-.4.901-.961,1.671-1.629,2.309-.668.639-1.468,1.152-2.381,1.504l-.029.012c-.913.347-1.85.495-2.769.472-.501-.012-1.015-.078-1.516-.203-1.188-.274-2.44-.411-3.58.024s-1.975,1.378-2.679,2.374c-.292.43-.626.817-.99,1.163-.668.639-1.474,1.158-2.393,1.516-.912.347-1.855.501-2.78.478s-1.861-.227-2.756-.626l-3.025-1.36c-1.969-.884-2.857-3.192-1.98-5.167l.083-.191c.483.418,1.033.77,1.629,1.032-.399.997.054,2.136,1.045,2.578l3.036,1.354c.662.293,1.354.441,2.028.46.675.018,1.367-.09,2.047-.353.68-.262,1.271-.644,1.76-1.109.269-.251.514-.537.729-.854l.006-.012.006-.012c.752-1.068,1.867-2.41,3.556-3.061s3.419-.4,4.689-.107l.012.006.012.006c.37.09.746.138,1.116.149.674.018,1.36-.09,2.034-.347l.024-.006c.674-.256,1.258-.638,1.748-1.104.494-.465.906-1.038,1.199-1.7l1.354-3.037c.447-1.008-.006-2.195-1.014-2.643l-3.037-1.354c-1.134-.507-2.339-.585-3.454-.305h-.007Zm-5.297,2.519v-.013c.304-1.545.858-3.49,2.326-4.958,1.468-1.467,3.413-2.022,4.958-2.326l.012-.006h.013c.488-.09.954-.227,1.401-.412.8-.328,1.552-.817,2.208-1.462,1.276-1.259,2.064-3.001,2.064-4.934v-4.045c0-1.581-1.283-2.864-2.864-2.864h-4.069c-.942,0-1.837.186-2.648.525s-1.575.835-2.243,1.503-1.17,1.433-1.504,2.25c-.185.447-.322.912-.411,1.401v.024c-.305,1.545-.859,3.49-2.327,4.958s-3.413,2.022-4.958,2.326h-.023c-.489.09-.955.227-1.402.412-.8.328-1.551.817-2.207,1.462-1.277,1.259-2.064,3.001-2.064,4.934v4.057c0,1.581,1.282,2.864,2.863,2.864h4.057c.943,0,1.838-.185,2.649-.525.812-.34,1.575-.835,2.243-1.503s1.17-1.432,1.504-2.249c.185-.448.322-.913.411-1.402v-.012l.013-.006Zm-11.074-3.849c0-.633.514-1.146,1.146-1.146s1.145.513,1.145,1.146-.513,1.146-1.145,1.146-1.146-.513-1.146-1.146Zm1.146,4.964c-.633,0-1.146-.513-1.146-1.146s.514-1.146,1.146-1.146,1.145.513,1.145,1.146-.513,1.146-1.145,1.146Zm2.672-4.964c0-.633.514-1.146,1.146-1.146s1.145.513,1.145,1.146-.513,1.146-1.145,1.146-1.146-.513-1.146-1.146Zm10.691-12.219c-.632,0-1.145-.513-1.145-1.146s.513-1.146,1.145-1.146,1.146.513,1.146,1.146-.514,1.146-1.146,1.146Zm0,3.818c-.632,0-1.145-.513-1.145-1.146s.513-1.146,1.145-1.146,1.146.513,1.146,1.146-.514,1.146-1.146,1.146Zm3.818-3.818c-.632,0-1.145-.513-1.145-1.146s.513-1.146,1.145-1.146,1.146.513,1.146,1.146-.514,1.146-1.146,1.146Z"/><line class="uuid-98ef8d89-9037-4794-b2a1-914c811ad5a7" x1="391.193" y1="237.924" x2="391.193" y2="246.167"/><line class="uuid-98ef8d89-9037-4794-b2a1-914c811ad5a7" x1="391.193" y1="209.196" x2="391.193" y2="216.078"/><line class="uuid-98ef8d89-9037-4794-b2a1-914c811ad5a7" x1="380.95" y1="227.681" x2="372.708" y2="227.681"/><line class="uuid-98ef8d89-9037-4794-b2a1-914c811ad5a7" x1="409.679" y1="227.681" x2="402.797" y2="227.681"/><line class="uuid-98ef8d89-9037-4794-b2a1-914c811ad5a7" x1="383.95" y1="234.924" x2="378.122" y2="240.753"/><line class="uuid-98ef8d89-9037-4794-b2a1-914c811ad5a7" x1="404.264" y1="214.61" x2="399.398" y2="219.477"/><line class="uuid-98ef8d89-9037-4794-b2a1-914c811ad5a7" x1="383.95" y1="220.438" x2="378.122" y2="214.61"/><line class="uuid-98ef8d89-9037-4794-b2a1-914c811ad5a7" x1="404.264" y1="240.753" x2="399.398" y2="235.886"/><line class="uuid-98ef8d89-9037-4794-b2a1-914c811ad5a7" x1="769.197" y1="189.291" x2="769.197" y2="197.533"/><line class="uuid-98ef8d89-9037-4794-b2a1-914c811ad5a7" x1="769.197" y1="160.562" x2="769.197" y2="167.444"/><line class="uuid-98ef8d89-9037-4794-b2a1-914c811ad5a7" x1="758.954" y1="179.048" x2="750.712" y2="179.048"/><line class="uuid-98ef8d89-9037-4794-b2a1-914c811ad5a7" x1="787.682" y1="179.048" x2="780.8" y2="179.048"/><line class="uuid-98ef8d89-9037-4794-b2a1-914c811ad5a7" x1="761.954" y1="186.29" x2="756.126" y2="192.119"/><line class="uuid-98ef8d89-9037-4794-b2a1-914c811ad5a7" x1="782.268" y1="165.976" x2="777.402" y2="170.843"/><line class="uuid-98ef8d89-9037-4794-b2a1-914c811ad5a7" x1="761.954" y1="171.805" x2="756.126" y2="165.976"/><line class="uuid-98ef8d89-9037-4794-b2a1-914c811ad5a7" x1="782.268" y1="192.119" x2="777.402" y2="187.252"/><g class="uuid-b74e1db5-4df3-41c6-b67f-83779b488a1d"><path class="uuid-2d7b9f82-0db2-47e1-bf45-76349b6ce689" d="m347.706,126.377l-5.578,3.927c-.543.383-.674,1.129-.295,1.673l.344.491c.387.552.244,1.294-.295,1.673l-11.256,7.884c-.267.188-.965.54-1.744.184-2.569-1.178-4.307-3.66-4.535-6.474-.049-.604.244-1.207.77-1.575l11.259-7.887c.544-.379,1.29-.248,1.669.296l.346.491c.383.544,1.129.675,1.672.297l5.582-3.931c.33-.229.727-.323,1.121-.248.394.071.738.289.967.619l.346.491c.473.679.308,1.612-.371,2.089Zm-9.324,8.746l-5.015-.885.886-5.015-8.451,5.915c-.172.124-.273.314-.258.495.033,1.113.795,4.084,3.836,5.483.166.075.383.049.556-.075l8.446-5.919Zm2.637-2.209l-3.785-5.408c-.094-.139-.281-.169-.416-.075l-1.174.821-.885,5.015,5.015.886,1.174-.821c.135-.098.169-.281.071-.417Zm6.072-7.936l-.346-.492c-.101-.149-.292-.161-.416-.074l-6.563,4.616.69.983,6.563-4.617c.135-.094.169-.281.071-.416Zm-1.145,14.38c0,1.653-1.346,3-3,3s-3-1.347-3-3,1.346-3.001,3-3.001,3,1.347,3,3.001Zm-1.199,0c0-.994-.807-1.801-1.801-1.801s-1.801.807-1.801,1.801.807,1.8,1.801,1.8,1.801-.807,1.801-1.8Z"/><rect class="uuid-2d7b9f82-0db2-47e1-bf45-76349b6ce689" x="355.828" y="126.786" width="24.289" height="2.544" rx="1.272" ry="1.272"/><rect class="uuid-2d7b9f82-0db2-47e1-bf45-76349b6ce689" x="355.828" y="135.764" width="15.289" height="2.544" rx="1.272" ry="1.272"/><rect class="uuid-2d7b9f82-0db2-47e1-bf45-76349b6ce689" x="355.828" y="131.275" width="31.289" height="2.544" rx="1.272" ry="1.272"/><path class="uuid-2d7b9f82-0db2-47e1-bf45-76349b6ce689" d="m342.224,164.612c-3.627,3.627-9.531,3.631-13.161,0-3.627-3.627-3.627-9.534,0-13.16,3.627-3.627,9.534-3.627,13.161,0,3.631,3.626,3.631,9.53,0,13.16Zm-12.715-1.298l5.289-5.284-2.029-2.029c-1.459,1.29-3.271,2.123-5.207,2.394.08,1.766.729,3.503,1.947,4.92Zm.004-10.568c-1.11,1.286-1.756,2.839-1.92,4.437,1.604-.259,3.105-.964,4.328-2.029l-2.408-2.407Zm3.256,1.556c1.064-1.223,1.77-2.723,2.029-4.328-1.599.169-3.151.811-4.438,1.921l2.408,2.407Zm5.006,6.706l-2.129-2.13-5.285,5.288c1.443,1.245,3.229,1.898,5.029,1.954.285-1.897,1.114-3.676,2.385-5.112Zm-4.158-5.854l2.029,2.029,5.283-5.284c-1.417-1.223-3.157-1.872-4.92-1.951-.267,1.936-1.1,3.747-2.393,5.206Zm8.16-2.407l-5.284,5.284,2.13,2.127c1.438-1.268,3.215-2.097,5.113-2.382-.057-1.801-.709-3.586-1.959-5.029Zm-5.138,13.314c1.546-.188,3.042-.821,4.29-1.898l-2.287-2.287c-1.035,1.192-1.726,2.637-2.003,4.186Zm5.138-2.742c1.077-1.249,1.707-2.745,1.898-4.29-1.549.273-2.993.964-4.186,1.999l2.287,2.291Z"/><rect class="uuid-2d7b9f82-0db2-47e1-bf45-76349b6ce689" x="355.828" y="152.059" width="24.289" height="2.544" rx="1.272" ry="1.272"/><rect class="uuid-2d7b9f82-0db2-47e1-bf45-76349b6ce689" x="355.828" y="161.038" width="15.289" height="2.544" rx="1.272" ry="1.272"/><rect class="uuid-2d7b9f82-0db2-47e1-bf45-76349b6ce689" x="355.828" y="156.548" width="31.289" height="2.544" rx="1.272" ry="1.272"/><path class="uuid-2d7b9f82-0db2-47e1-bf45-76349b6ce689" d="m346.942,174.31c.334.436.556.964.611,1.55l.289,3.03c.087.896-.345,1.767-1.11,2.246-1.092.683-2.527.375-3.244-.697l-.064-.094h-.277v1.5c0,.026-.004.057-.004.083.004.071.004.146.004.218,0,1.158-.465,2.189-1.199,2.94v5.761c0,.829-.672,1.5-1.5,1.5h-1.201c-.828,0-1.5-.671-1.5-1.5v-4.666l-3.305-.742c-.019.536-.135,1.061-.345,1.553l-.304.712c-.082.188-.094.397-.041.597l.596,2.146c.267.956-.453,1.901-1.443,1.901h-1.249c-.675,0-1.265-.45-1.444-1.099l-.506-1.823c-.312-1.117-.232-2.307.225-3.375l.304-.713c.008-.015.011-.03.011-.049,0-.015-.003-.03-.007-.045l-1.253-3.004c-.157-.379-.24-.78-.24-1.189-.697.248-1.199.915-1.199,1.699v1.8c0,.33-.271.601-.601.601s-.601-.271-.601-.601v-1.804c0-1.549,1.174-2.82,2.678-2.981.488-1.073,1.568-1.819,2.824-1.819h5.934c.301-2.7,2.588-4.801,5.367-4.801h3.602c.33,0,.6.271.6.6,0,.263-.169.488-.405.566Zm-7.996,4.234c0,.33-.271.601-.601.601h-6.5c-1.049,0-1.9.852-1.9,1.901,0,.252.049.499.146.731l1.252,3.004c.067.162.102.334.102.507,0,.18-.037.356-.105.521l-.304.713c-.349.813-.409,1.725-.173,2.58l.507,1.822c.038.132.153.222.288.222h1.246c.199,0,.342-.188.289-.379l-.597-2.146c-.128-.461-.094-.948.094-1.388l.304-.712c.165-.391.252-.807.252-1.23,0-.173-.016-.346-.042-.514-.034-.199.034-.397.181-.537.146-.139.348-.194.543-.149l4.358.979c.053.012.104.022.161.03.289.049.499.3.499.593v5.153c0,.165.136.3.3.3h1.201c.164,0,.299-.135.299-.3v-6.017c0-.172.072-.333.199-.446.611-.547,1.002-1.339,1.002-2.238,0-.087-.004-.169-.012-.252-.004-.056,0-.116.012-.169v-1.979c0-.33.27-.601.6-.601h1.2c.202,0,.386.102.499.267l.24.359c.352.533,1.068.687,1.608.346.379-.236.593-.668.552-1.114l-.289-3.03c-.086-.923-.863-1.628-1.793-1.628h-1.418c-2.321,0-4.2,1.879-4.2,4.2Zm4.801-1.8c0-.331.269-.601.601-.601s.6.27.6.601-.269.601-.6.601-.601-.27-.601-.601Z"/><rect class="uuid-2d7b9f82-0db2-47e1-bf45-76349b6ce689" x="355.828" y="177.776" width="24.289" height="2.544" rx="1.272" ry="1.272"/><rect class="uuid-2d7b9f82-0db2-47e1-bf45-76349b6ce689" x="355.828" y="186.754" width="15.289" height="2.544" rx="1.272" ry="1.272"/><rect class="uuid-2d7b9f82-0db2-47e1-bf45-76349b6ce689" x="355.828" y="182.265" width="31.289" height="2.544" rx="1.272" ry="1.272"/></g><path class="uuid-a457b821-d385-4095-a8a4-b999fb4b024f" d="m366.487,273.494s-29.676,14.298-51.063-1.444c0,0-3.414-.225-4.455,2.038-1.312,2.852.509,4.765.509,4.765,0,0,22.514,18.422,57.699.647"/><path class="uuid-a457b821-d385-4095-a8a4-b999fb4b024f" d="m333.721,279.2s-1.938.918-2.04,2.856"/><path class="uuid-a457b821-d385-4095-a8a4-b999fb4b024f" d="m338.508,279.56s-1.169.786-1.512,2.111"/><path class="uuid-21a417d2-8fdc-429a-bd5c-6c62387d8797" d="m286.44,295.578c-.675-8.601,5.751-16.121,14.352-16.795,8.601-.675,16.121,5.751,16.795,14.352.52,6.624-3.18,12.592-8.833,15.3,0,0-1.596.803-2.826,1.407-1.281.629-3.588,1.381-3.588,1.381l.609-1.286c-8.481.511-15.843-5.855-16.51-14.36Z"/><circle class="uuid-21a417d2-8fdc-429a-bd5c-6c62387d8797" cx="298.026" cy="296.231" r="15.622"/><circle class="uuid-a457b821-d385-4095-a8a4-b999fb4b024f" cx="298.026" cy="296.231" r="9.261"/><path class="uuid-02192615-2872-4ee1-a132-ae030beef921" d="m270.108,283.716l-1.425-18.171,56.441-4.427,2.309,29.441c.264,3.37-12.156,7.093-27.742,8.315-15.586,1.222-28.435-.518-28.699-3.888l-.509-6.495"/><ellipse class="uuid-a457b821-d385-4095-a8a4-b999fb4b024f" cx="296.939" cy="263.79" rx="28.307" ry="6.12" transform="translate(-19.717 24.026) rotate(-4.485)"/><ellipse class="uuid-291fd35e-5e6b-4499-af85-d6b85efdc1e7" cx="296.939" cy="263.79" rx="28.307" ry="6.12" transform="translate(-19.717 24.026) rotate(-4.485)"/><circle class="uuid-a457b821-d385-4095-a8a4-b999fb4b024f" cx="296.998" cy="280.109" r="7.242"/><path class="uuid-9f47d6fc-fcfd-4ae7-851b-dfe3e0ee123c" d="m293.658,221.958c15.586-1.222,29.159,9.756,30.317,24.521l.838,10.678c.264,3.37-12.156,7.093-27.742,8.315-15.586,1.222-28.435-.518-28.699-3.888l-.838-10.678c-.331-4.221.389-8.295,1.949-11.989,1.073-2.539,2.543-4.898,4.342-7.003,1.96-2.293,4.31-4.283,6.964-5.874,1.233-.74,2.532-1.393,3.888-1.95,2.781-1.143,5.8-1.882,8.981-2.131Z"/><line class="uuid-21a417d2-8fdc-429a-bd5c-6c62387d8797" x1="282.245" y1="251.174" x2="282.711" y2="257.123"/><line class="uuid-21a417d2-8fdc-429a-bd5c-6c62387d8797" x1="279.501" y1="251.201" x2="279.968" y2="257.15"/><line class="uuid-21a417d2-8fdc-429a-bd5c-6c62387d8797" x1="276.74" y1="251.008" x2="277.207" y2="256.958"/><path class="uuid-d59d8267-d066-4229-9c08-642d7827ddc9" d="m297.529,222.453s17.774,4.519,19.725,26.361l1.083,12.896s5.496-1.107,6.544-4.73l-1.235-12.812s-3.805-12.779-11.592-17.232-14.525-4.483-14.525-4.483Z"/><path class="uuid-269a1d77-ae53-4b22-afe4-d63f1d45b255" d="m319.265,266.156l2.81,28.668s5.148-1.179,5.272-3.945-2.021-29.489-2.021-29.489c0,0,1.218,1.58-6.061,4.765Z"/><rect class="uuid-dab8e7cd-ae2a-44bb-b2d6-bff7c665ba72" x="338.146" y="273.482" width="62.644" height="55.558" rx="2.987" ry="2.987" transform="translate(-38.87 55.243) rotate(-8.125)"/><path class="uuid-36e961d3-cdae-4e1b-aa9a-4caa509283ca" d="m392.531,269.908l-53.978,7.706c-2.219.317-3.762,2.373-3.445,4.592l.874,6.125,62.015-8.854-.874-6.125c-.317-2.219-2.373-3.762-4.592-3.445Z"/><circle class="uuid-9f47d6fc-fcfd-4ae7-851b-dfe3e0ee123c" cx="341.463" cy="282.291" r="1.783"/><circle class="uuid-9f47d6fc-fcfd-4ae7-851b-dfe3e0ee123c" cx="346.871" cy="281.519" r="1.783"/><path class="uuid-36e961d3-cdae-4e1b-aa9a-4caa509283ca" d="m354.209,315.817l-.798,1.032c-.091.121-.182.147-.304.043-.396-.402-.866-.768-1.555-.669-.727.104-1.164.639-1.062,1.353.085.596.497.929.849,1.405l1.998-.285c.133-.019.225.062.242.182l.13.913c.018.119-.051.21-.184.229l-1.666.238c.067.76-.191,1.404-.604,1.922l3.388-.483c.118-.017.211.064.228.184l.188,1.31c.017.119-.051.209-.169.227l-5.559.793c-.119.017-.21-.051-.227-.17l-.218-1.522c.668-.433,1.222-1.092,1.103-1.926l-.01-.066-1.138.163c-.119.017-.209-.051-.227-.17l-.13-.913c-.018-.12.047-.237.166-.254l.596-.085c-.331-.425-.66-.932-.763-1.646-.225-1.575.858-2.972,2.646-3.227,1.402-.2,2.41.426,3.076,1.114.076.07.095.203.003.31Z"/><path class="uuid-36e961d3-cdae-4e1b-aa9a-4caa509283ca" d="m361.554,314.768l-.798,1.032c-.091.121-.182.147-.304.043-.396-.402-.866-.768-1.555-.669-.728.104-1.164.639-1.062,1.354.085.596.497.928.849,1.405l1.998-.285c.133-.019.225.062.242.182l.13.913c.017.119-.051.209-.184.229l-1.666.238c.067.76-.192,1.404-.604,1.922l3.388-.484c.119-.017.212.065.229.184l.188,1.31c.017.119-.051.209-.17.226l-5.558.793c-.119.017-.21-.051-.227-.17l-.218-1.522c.668-.432,1.222-1.092,1.103-1.926l-.01-.066-1.138.162c-.119.017-.21-.052-.227-.17l-.13-.913c-.018-.12.047-.237.166-.254l.596-.085c-.332-.425-.66-.932-.763-1.646-.225-1.575.858-2.972,2.645-3.227,1.403-.2,2.411.426,3.077,1.114.076.07.096.202.003.31Z"/><path class="uuid-36e961d3-cdae-4e1b-aa9a-4caa509283ca" d="m368.899,313.72l-.798,1.032c-.091.121-.182.147-.304.043-.396-.402-.867-.768-1.555-.669-.728.104-1.165.639-1.063,1.353.085.596.498.928.85,1.405l1.998-.285c.133-.019.225.062.242.182l.13.913c.018.119-.051.21-.184.229l-1.667.238c.068.76-.191,1.404-.604,1.922l3.388-.484c.119-.017.212.064.229.184l.188,1.31c.017.119-.051.209-.17.227l-5.558.793c-.119.017-.21-.051-.227-.17l-.218-1.522c.667-.433,1.222-1.092,1.103-1.926l-.01-.066-1.138.163c-.119.017-.209-.051-.227-.17l-.13-.913c-.018-.12.047-.237.166-.254l.595-.085c-.331-.425-.659-.932-.762-1.646-.225-1.575.858-2.972,2.645-3.227,1.403-.2,2.41.426,3.076,1.114.077.07.096.203.004.31Z"/><rect class="uuid-36e961d3-cdae-4e1b-aa9a-4caa509283ca" x="342.228" y="289.398" width="42.701" height="3.495" rx=".822" ry=".822" transform="translate(-37.322 54.009) rotate(-8.082)"/><rect class="uuid-36e961d3-cdae-4e1b-aa9a-4caa509283ca" x="343.248" y="297.425" width="18.901" height="3.495" rx="1.072" ry="1.072" transform="translate(-38.559 52.559) rotate(-8.082)"/><path class="uuid-4505c660-0e67-4255-a36a-d74e0a9d4abb" d="m339.841,315.36l-4.885-34.215c-.233-1.633.902-3.146,2.535-3.379l17.024-2.431"/><path class="uuid-4505c660-0e67-4255-a36a-d74e0a9d4abb" d="m360.726,274.448l32.867-4.692c1.633-.233,3.146.902,3.379,2.535l7.008,49.086c.233,1.633-.902,3.146-2.535,3.379l-56.101,8.009c-1.633.233-3.146-.902-3.379-2.535l-1.053-7.373"/><path class="uuid-4951d959-08b8-4c4a-926f-ec06de1b537e" d="m380.023,272.002s-1.364-3.24-4.945-3.922-6.764,1.421-8.242,5.173l5.116-.455s1.819,1.478,2.16,2.046,6.597.006,6.699-.606c.169-1.011-.787-2.236-.787-2.236Z"/><path class="uuid-a457b821-d385-4095-a8a4-b999fb4b024f" d="m293.843,295.714c3.357,8.773,13.926,16.825,42.072,11.189l2.454-3.742-3.374-2.515s-41.306,10.118-35-19.506c.096-.452-.153-3.132-3.466-3.377-2.63-.195-3.436,2.393-3.436,2.393,0,0-1.665,6.221-.077,12.872"/><path class="uuid-3936db1f-d816-41aa-a030-08171e541154" d="m335.354,301.971c-.082-1.009.947-1.76,1.867-1.339,1.007.461,2.447.842,4.459.842h3.758c.741,0,1.342.601,1.342,1.342v4.29c0,.652-.464,1.209-1.106,1.322-2.241.391-7.292.969-9.503-1.241-.354-.354-.639-3.025-.817-5.216Z"/><path class="uuid-3936db1f-d816-41aa-a030-08171e541154" d="m334.743,299.281l.611,2.69,1.867-1.339-.106-3.774s-1.53,1.02-2.372,2.423Z"/><path class="uuid-d6bf10e6-7329-41d2-a51d-1df54f511aa2" d="m299.35,288.314s-.736-1.472-3.067-1.472"/><path class="uuid-d6bf10e6-7329-41d2-a51d-1df54f511aa2" d="m299.671,290.353s-1.087-1.236-3.341-.642"/><path class="uuid-d6bf10e6-7329-41d2-a51d-1df54f511aa2" d="m309.936,301.214s-1.488.704-1.539,3.035"/><path class="uuid-d6bf10e6-7329-41d2-a51d-1df54f511aa2" d="m312.229,301.918s-.899.593-1.095,2.045"/><ellipse class="uuid-d6bf10e6-7329-41d2-a51d-1df54f511aa2" cx="315.986" cy="245.499" rx="5.657" ry="9.31" transform="translate(-18.229 25.46) rotate(-4.485)"/><ellipse class="uuid-58fc6cbb-e0ce-4ef9-9bfa-03ffbe85dcc7" cx="314.915" cy="245.583" rx="2.525" ry="4.155" transform="translate(-18.239 25.376) rotate(-4.485)"/><ellipse class="uuid-3aeec66d-67b2-4f7e-8c3a-da2a70c5282f" cx="315.986" cy="245.499" rx="5.657" ry="9.31" transform="translate(-18.229 25.46) rotate(-4.485)"/><path class="uuid-0730ccd6-47b7-4305-b279-d1ef5e6df928" d="m284.676,224.089c2.781-1.143,5.8-1.882,8.981-2.131,15.586-1.222,29.159,9.756,30.317,24.521l.838,10.678c.264,3.37-12.156,7.093-27.742,8.315-15.586,1.222-28.435-.518-28.699-3.888l-.838-10.678c-.331-4.221.389-8.295,1.949-11.989"/><path class="uuid-0730ccd6-47b7-4305-b279-d1ef5e6df928" d="m273.825,231.913c1.96-2.293,4.31-4.283,6.964-5.874"/><path class="uuid-e95654db-0658-4ddd-b439-753d2d7abdd7" d="m292.57,223.704s.038.48,1.255.384,1.179-.575,1.179-.575l-2.012-25.656-2.434.191,2.012,25.656Z"/><circle class="uuid-d6bf10e6-7329-41d2-a51d-1df54f511aa2" cx="291.795" cy="198.207" r="4.052"/><path class="uuid-e4539dd1-f3f5-4883-9749-284149c1ef73" d="m288.676,299.541l6.626-.245,6.626,6.135s-10.184,2.577-13.251-5.89Z"/><path class="uuid-58fc6cbb-e0ce-4ef9-9bfa-03ffbe85dcc7" d="m392.285,335.419c-2.334-2.334-3.788-5.55-3.808-9.105l-.032-5.956c-.021-3.871,3.097-7.024,6.968-7.045l5.956-.032c1.76-.01,3.436.332,4.972.954,1.527.622,2.96,1.543,4.201,2.78l.036.035c1.242,1.237,2.178,2.651,2.816,4.171.355.83.614,1.713.785,2.623.433,2.144,1.127,4.294,2.687,5.827,1.558,1.533,3.708,2.205,5.855,2.622.912.161,1.799.419,2.633.756,1.535.623,2.978,1.552,4.227,2.789,1.25,1.237,2.195,2.659,2.835,4.189.639,1.529.998,3.2,1.008,4.96l.032,5.956c.021,3.871-3.098,7.023-6.968,7.045l-5.956.032c-3.547.02-6.76-1.382-9.11-3.672-.054-.052-.098-.096-.15-.148-1.215-1.22-2.134-2.625-2.764-4.119-.355-.83-.614-1.714-.785-2.623-.433-2.144-1.127-4.294-2.687-5.827-1.558-1.533-3.708-2.205-5.856-2.622-.912-.161-1.798-.419-2.632-.756-1.519-.623-2.942-1.534-4.185-2.754l-.078-.079Zm2.97-2.976l.054.052c.845.827,1.803,1.444,2.83,1.859.562.233,1.159.405,1.771.507l.035.009.035.009c2.333.452,5.543,1.31,8.018,3.758,2.475,2.447,3.377,5.648,3.845,7.976l.009.035.01.035c.117.613.295,1.208.526,1.767.426,1.005,1.044,1.948,1.863,2.784.017.018.043.043.062.061.009.009.026.026.035.035l-2.849,2.923,2.849-2.923c1.595,1.559,3.763,2.502,6.162,2.489l5.956-.032c1.55-.009,2.795-1.268,2.786-2.818l-.032-5.956c-.007-1.191-.249-2.32-.684-3.351-.435-1.022-1.07-1.991-1.916-2.827-.854-.845-1.82-1.47-2.856-1.885-.562-.233-1.159-.405-1.771-.507l-.035-.009-.035-.009c-2.333-.451-5.543-1.31-8.019-3.757-2.475-2.448-3.377-5.648-3.845-7.976l-.009-.035-.009-.035c-.117-.613-.296-1.207-.526-1.767-.427-1.022-1.062-1.973-1.898-2.81l-.026-.026c-.846-.836-1.812-1.461-2.839-1.876-1.037-.432-2.167-.663-3.358-.656l-5.956.032c-1.55.009-2.796,1.268-2.787,2.818l.032,5.956c.013,2.408.989,4.575,2.573,6.152Zm3.735-5.556c-.929.005-1.686-.744-1.69-1.672s.744-1.686,1.673-1.691c.93-.005,1.686.744,1.69,1.672s-.743,1.686-1.673,1.691Zm.031,5.605c-.929.005-1.686-.744-1.691-1.672-.005-.929.744-1.686,1.673-1.691.93-.005,1.686.744,1.69,1.672.006.929-.742,1.686-1.672,1.691Zm5.605-.031c-.929.005-1.686-.744-1.691-1.672-.005-.929.744-1.686,1.673-1.691.93-.005,1.686.744,1.69,1.673.006.929-.742,1.686-1.672,1.691Zm9.581,9.477c-.005-.929.744-1.686,1.673-1.691.93-.005,1.686.744,1.69,1.672s-.742,1.686-1.672,1.691c-.929.005-1.687-.744-1.691-1.672Zm.031,5.605c-.006-.929.743-1.686,1.672-1.691.93-.005,1.686.744,1.691,1.672.005.929-.743,1.686-1.673,1.691-.929.005-1.686-.744-1.69-1.672Zm19.689,9.78c1.462-1.724,2.344-3.953,2.33-6.397-.002-.456.004-.928,0-1.41.026-4.853.055-10.958-4.711-15.67-2.333-2.308-5.187-3.755-8.316-4.316-2.008-.392-3.465-.936-4.39-1.859-.925-.924-1.493-2.365-1.907-4.369-.144-.779-.35-1.531-.6-2.274l1.938-4.434c1.28-2.906,4.663-4.221,7.568-2.949l4.469,1.955c1.316.579,2.46,1.396,3.402,2.372.934.976,1.702,2.146,2.227,3.483l.017.044c.517,1.337.743,2.711.715,4.06-.014.745-.106,1.489-.285,2.226-.386,1.745-.585,3.595.063,5.255.648,1.661,2.039,2.888,3.508,3.914.632.425,1.204.913,1.715,1.444.943.976,1.711,2.154,2.236,3.5.523,1.338.759,2.729.731,4.078-.028,1.357-.318,2.726-.898,4.051l-1.964,4.469c-1.271,2.906-4.662,4.229-7.568,2.949l-.281-.122Zm-12.394-8.138c-.929.005-1.686-.744-1.69-1.673-.006-.929.743-1.686,1.672-1.691.93-.005,1.686.744,1.691,1.672.005.929-.743,1.686-1.673,1.691Z"/><path class="uuid-2c3148e4-e411-4bc4-b2b8-f87acccedd82" d="m846.579,297.845c.865-11.029-7.374-20.67-18.403-21.535-11.029-.865-20.67,7.374-21.535,18.403-.666,8.493,4.078,16.145,11.326,19.618,0,0,2.046,1.03,3.624,1.804,1.642.806,4.601,1.771,4.601,1.771l-.781-1.648c10.874.655,20.314-7.508,21.169-18.413Z"/><circle class="uuid-2c3148e4-e411-4bc4-b2b8-f87acccedd82" cx="831.724" cy="298.682" r="20.03"/><circle class="uuid-a3fc7bf0-e1f7-4da6-85c8-b511f19481b8" cx="831.724" cy="298.682" r="11.875"/><path class="uuid-a3fc7bf0-e1f7-4da6-85c8-b511f19481b8" d="m743.942,269.528s38.051,18.333,65.474-1.852c0,0,4.378-.288,5.712,2.613,1.682,3.657-.653,6.11-.653,6.11,0,0-28.868,23.621-73.983.83"/><path class="uuid-6edf6a80-4ff2-4b68-9e8c-b0332fac6332" d="m796.98,253.66l-2.961,37.749c-.339,4.321,15.587,9.094,35.571,10.662,19.984,1.567,36.459-.665,36.798-4.985l2.961-37.749-72.369-5.676Z"/><ellipse class="uuid-a3fc7bf0-e1f7-4da6-85c8-b511f19481b8" cx="833.119" cy="257.085" rx="7.848" ry="36.296" transform="translate(511.677 1067.55) rotate(-85.515)"/><ellipse class="uuid-f753e4f4-109b-481f-a9de-ba928a0ed3de" cx="833.119" cy="257.085" rx="7.848" ry="36.296" transform="translate(511.677 1067.55) rotate(-85.515)"/><path class="uuid-a3fc7bf0-e1f7-4da6-85c8-b511f19481b8" d="m782.734,277.022s2.485,1.177,2.616,3.662"/><path class="uuid-a3fc7bf0-e1f7-4da6-85c8-b511f19481b8" d="m779.817,277.305s1.498,1.007,1.939,2.707"/><path class="uuid-9f47d6fc-fcfd-4ae7-851b-dfe3e0ee123c" d="m837.326,203.447c-19.984-1.567-37.388,12.509-38.873,31.441l-1.074,13.692c-.339,4.321,15.587,9.094,35.571,10.662,19.984,1.567,36.459-.665,36.798-4.985l1.074-13.692c1.485-18.932-13.512-35.55-33.496-37.117Z"/><path class="uuid-380d71f7-c4c0-4cce-9a49-01a9252419d6" d="m818.545,206.763c-2.777,1.283-5.36,2.898-7.688,4.793"/><path class="uuid-380d71f7-c4c0-4cce-9a49-01a9252419d6" d="m808.658,213.505c-5.757,5.545-9.547,12.986-10.205,21.382l-1.074,13.692c-.339,4.321,15.587,9.094,35.571,10.662,19.984,1.567,36.459-.665,36.798-4.985l1.074-13.692c1.485-18.932-13.512-35.55-33.496-37.117-3.454-.271-6.831-.075-10.061.533"/><circle class="uuid-a3fc7bf0-e1f7-4da6-85c8-b511f19481b8" cx="834.006" cy="277.676" r="9.286"/><rect class="uuid-8631f469-fd1e-4177-ae23-3071f64c357a" x="688.187" y="268.357" width="80.324" height="71.238" rx="3.83" ry="3.83" transform="translate(39.083 -80.48) rotate(6.499)"/><path class="uuid-586a4ee2-eb55-4569-97ec-644ef80fdc25" d="m767.113,272.542l-69.464-7.913c-2.856-.325-5.435,1.726-5.761,4.582l-.898,7.882,79.808,9.091.898-7.882c.325-2.856-1.726-5.435-4.582-5.761Z"/><circle class="uuid-9f47d6fc-fcfd-4ae7-851b-dfe3e0ee123c" cx="699.744" cy="271.374" r="2.286"/><circle class="uuid-9f47d6fc-fcfd-4ae7-851b-dfe3e0ee123c" cx="706.704" cy="272.167" r="2.286"/><path class="uuid-586a4ee2-eb55-4569-97ec-644ef80fdc25" d="m695.652,319.796c.326-2.859,2.152-5.327,4.792-6.475,2.639-1.147,5.689-.8,8.003.912,2.312,1.712,3.537,4.527,3.211,7.386-.325,2.859-2.151,5.328-4.79,6.475-2.64,1.147-5.69.8-8.003-.912-2.313-1.712-3.538-4.527-3.213-7.387Zm.956.958c.004.938.195,1.84.542,2.668.025-.003.055-.003.082-.003l2.781.13c.192.009.392-.035.521-.175l.141-.152c.239-.261.261-.648.188-.992l-.371-1.825c-.071-.347-.241-.696-.562-.84l-.19-.085c-.175-.08-.376-.043-.547.042l-2.508,1.202c-.024.013-.051.023-.076.03Zm1.645-4.572c-.795.948-1.354,2.116-1.559,3.419l2.062-.991c.04-.018.072-.052.088-.091v-.003s0-.003,0-.003c.018-.04.022-.086.009-.129l-.604-2.203h.003Zm-.571,8.266c.67,1.071,1.624,1.955,2.771,2.539l-.307-2.268c-.005-.045-.027-.086-.059-.115-.031-.029-.078-.047-.121-.052l-2.283-.108v.003Zm3.75-10.428c-.876.29-1.679.749-2.37,1.342.01.024.02.05.026.076l.739,2.681c.053.183.156.359.328.439l.19.085c.32.147.693.047,1.001-.126l1.621-.917c.308-.174.586-.443.626-.793l.023-.206c.021-.191-.076-.37-.208-.508l-1.925-2.011c-.02-.021-.035-.042-.052-.063v.003Zm2.795,13.713c.006-.025.013-.052.021-.08l.984-2.605c.067-.179.088-.383-.008-.548l-.102-.18c-.175-.308-.535-.448-.89-.488l-1.848-.21c-.353-.04-.732.015-.974.275l-.142.152c-.13.14-.156.343-.13.533l.372,2.76c.003.029.007.055.004.083.428.135.876.233,1.339.286s.921.061,1.368.023h.003Zm-.763-9.258l-1.622.917c-.283.161-.432.486-.367.807l.372,1.825c.065.321.328.563.652.6l1.852.211c.325.037.637-.14.771-.438l.773-1.695c.135-.298.064-.648-.176-.869l-1.375-1.258c-.24-.221-.597-.261-.881-.1Zm2.827-4.305c-.575-.233-1.193-.392-1.838-.466-.644-.073-1.281-.057-1.894.041l1.577,1.653c.032.032.074.052.117.057.044.005.09-.005.128-.029l1.909-1.255Zm3.04,2.357c-.54-.732-1.219-1.361-2.006-1.84-.021.016-.043.036-.066.049l-2.327,1.527c-.162.105-.296.258-.317.448l-.023.206c-.04.351.17.675.432.914l1.373,1.259c.261.239.602.42.948.349l.204-.04c.188-.039.329-.188.417-.354l1.322-2.449c.012-.024.025-.048.041-.069h.003Zm-3.966,11.019c1.248-.311,2.377-.958,3.271-1.851l-2.249-.408c-.044-.008-.088,0-.13.023-.041.023-.069.059-.084.098l-.808,2.14v-.003Zm4.021-2.731c.522-.729.913-1.565,1.127-2.478-.023-.012-.044-.027-.067-.046l-2.174-1.739c-.148-.118-.335-.2-.522-.164l-.205.04c-.346.071-.589.37-.737.692l-.769,1.695c-.147.322-.214.701-.039,1.009l.104.18c.095.166.277.253.468.287l2.738.499c.028.006.053.012.08.022l-.003.003Zm1.302-3.62c.093-1.316-.185-2.576-.748-3.682l-1.085,2.014c-.021.039-.029.082-.021.127v.003s0,.003,0,.003c.011.042.032.08.067.109l1.784,1.429.004-.003Z"/><rect class="uuid-586a4ee2-eb55-4569-97ec-644ef80fdc25" x="696.94" y="287.278" width="54.753" height="4.481" rx="1.054" ry="1.054" transform="translate(37.698 -80.63) rotate(6.541)"/><rect class="uuid-586a4ee2-eb55-4569-97ec-644ef80fdc25" x="696.102" y="293.715" width="24.235" height="4.481" rx="1.375" ry="1.375" transform="translate(38.326 -78.755) rotate(6.541)"/><rect class="uuid-263b7d6d-e427-4824-a70b-ef510610db2c" x="688.187" y="268.357" width="80.324" height="71.238" rx="3.83" ry="3.83" transform="translate(39.083 -80.48) rotate(6.499)"/><rect class="uuid-37e8da11-b527-4ce5-a5c6-92840049e6d4" x="688.187" y="268.357" width="80.324" height="71.238" rx="3.83" ry="3.83" transform="translate(39.083 -80.48) rotate(6.499)"/><path class="uuid-a3fc7bf0-e1f7-4da6-85c8-b511f19481b8" d="m769.393,302.723s42.182,2.158,59.643-27.075c0,0,3.924-1.962,6.278.196,2.967,2.72,1.766,5.886,1.766,5.886,0,0-17.461,32.961-67.883,29.429"/><path class="uuid-16eb0491-649f-47f3-b9f6-2308e64d45d1" d="m817.01,289.159s4.606-1.285,6.452,1.718"/><path class="uuid-16eb0491-649f-47f3-b9f6-2308e64d45d1" d="m813.964,291.17s4.658-1.082,6.371,2"/><path class="uuid-8a691664-c99b-481b-b356-83b884a84e8c" d="m797.351,298.898s2.744.206,4.208,2.149"/><path class="uuid-8a691664-c99b-481b-b356-83b884a84e8c" d="m805.199,296.04s1.824.057,3.337,1.092"/><path class="uuid-8a691664-c99b-481b-b356-83b884a84e8c" d="m798.513,306.563c-.378,1.228-.922,1.741-1.816,2.602"/><path class="uuid-8a691664-c99b-481b-b356-83b884a84e8c" d="m793.604,299.95s2.318.299,3.858,1.679"/><path class="uuid-e18c373a-bd72-4a56-8161-c9b889852333" d="m772.534,306.041c.105-1.293-1.214-2.257-2.394-1.716-1.291.591-3.138,1.08-5.717,1.08h-4.819c-.95,0-1.721.77-1.721,1.721v5.501c0,.836.595,1.551,1.418,1.695,2.874.502,9.35,1.243,12.184-1.592.454-.454.82-3.878,1.048-6.688Z"/><path class="uuid-09193c22-ed88-47ea-b832-aa565119bb9d" d="m773.317,302.403l-.947,3.638-2.894-1.811.164-5.104s2.372,1.38,3.676,3.277Z"/><path class="uuid-d49f2a48-441a-4797-8ac3-5c92ef11951c" d="m726.586,267.615s1.749-4.154,6.341-5.029c4.592-.875,8.673,1.822,10.568,6.633l-6.56-.583s-2.332,1.895-2.77,2.624-8.459.008-8.59-.777c-.216-1.297,1.01-2.867,1.01-2.867Z"/><ellipse class="uuid-b3a743e9-a55c-42c4-beeb-1d0445a4972c" cx="808.695" cy="233.632" rx="11.937" ry="7.254" transform="translate(512.544 1021.582) rotate(-85.515)"/><ellipse class="uuid-58fc6cbb-e0ce-4ef9-9bfa-03ffbe85dcc7" cx="810.069" cy="233.739" rx="5.328" ry="3.238" transform="translate(513.704 1023.051) rotate(-85.515)"/><path class="uuid-e3392efc-5f45-492c-9427-aa7ae59cf551" d="m838.72,205.686s-.048.615-1.609.493-1.512-.738-1.512-.738l2.58-32.896,3.121.245-2.58,32.896Z"/><circle class="uuid-09b58fe0-c17c-486a-997c-48122e7991b9" cx="839.814" cy="172.993" r="5.195"/><line class="uuid-2c3148e4-e411-4bc4-b2b8-f87acccedd82" x1="851.959" y1="240.908" x2="851.361" y2="248.536"/><line class="uuid-2c3148e4-e411-4bc4-b2b8-f87acccedd82" x1="855.263" y1="240.908" x2="854.665" y2="248.536"/><line class="uuid-2c3148e4-e411-4bc4-b2b8-f87acccedd82" x1="858.567" y1="240.751" x2="857.969" y2="248.379"/><path class="uuid-99f72fa0-d645-41e8-b941-2989886c6f26" d="m843.106,204.455s21.396,9.754,18.879,37.758l-1.573,16.519s7.187-.144,9.336-4.477l1.362-16.447s-1.888-16.991-10.698-24.386-17.306-8.968-17.306-8.968Z"/><path class="uuid-b359415e-137f-46df-af93-8b75efa94940" d="m860.569,264.554l-2.989,36.814s6.765-.315,7.552-3.776,4.172-37.67,4.172-37.67c0,0,1.177,2.271-8.734,4.631Z"/><path class="uuid-53b90073-8bcb-45c1-ad7e-d7f9e1fd46ec" d="m843.971,302.784l-24.386-1.731s-.157,11.17,10.856,10.541c11.013-.629,13.53-8.81,13.53-8.81Z"/><path class="uuid-58fc6cbb-e0ce-4ef9-9bfa-03ffbe85dcc7" d="m709.178,362.342c-1.975.883-4.29-.006-5.167-1.981l-1.354-3.037c-.399-.901-.603-1.832-.626-2.756-.023-.919.131-1.867.483-2.78.352-.919.871-1.724,1.51-2.392.346-.364.733-.698,1.163-.99.996-.704,1.938-1.545,2.374-2.679s.293-2.393.024-3.58c-.125-.501-.191-1.008-.203-1.515-.023-.919.125-1.855.472-2.768l.012-.03c.352-.913.871-1.712,1.504-2.381.638-.668,1.413-1.229,2.309-1.629l3.037-1.348c1.975-.877,4.283.006,5.166,1.981l1.337,3.013c-.167.507-.305,1.02-.4,1.551-.274,1.366-.656,2.351-1.282,2.983-.627.632-1.617,1.008-2.983,1.283-2.13.394-4.068,1.39-5.649,2.971-3.229,3.228-3.187,7.386-3.15,10.691,0,.328.006.65.006.96,0,1.665.608,3.18,1.611,4.349l-.191.083Zm28.423-15.106c-.841.835-1.808,1.462-2.84,1.891-.566.233-1.169.412-1.79.525-1.462.292-2.923.758-3.979,1.808-1.056,1.05-1.521,2.518-1.808,3.979-.113.62-.286,1.223-.524,1.79-.424,1.02-1.045,1.981-1.868,2.816-.035.036-.065.065-.102.101-1.593,1.569-3.776,2.536-6.192,2.536h-4.057c-2.638,0-4.773-2.136-4.773-4.773v-4.057c0-1.199.238-2.339.668-3.383.43-1.044,1.068-2.016,1.915-2.864.848-.847,1.826-1.485,2.87-1.915.566-.233,1.169-.412,1.79-.525,1.462-.292,2.923-.758,3.979-1.808,1.056-1.05,1.521-2.518,1.808-3.979.113-.62.286-1.223.524-1.79.43-1.038,1.062-2.005,1.903-2.852l.024-.024c.841-.847,1.813-1.48,2.852-1.909,1.044-.429,2.184-.668,3.383-.668h4.057c2.638,0,4.773,2.136,4.773,4.773v4.057c0,2.422-.979,4.618-2.56,6.217l-.054.054Zm-.25-6.27v-4.057c0-1.056-.854-1.909-1.91-1.909h-4.057c-.812,0-1.581.161-2.285.459-.698.286-1.354.716-1.927,1.289l-.018.018c-.567.573-.997,1.223-1.283,1.921-.155.382-.274.788-.352,1.205l-.007.024-.006.024c-.31,1.587-.912,3.771-2.589,5.447s-3.86,2.273-5.447,2.589l-.023.006-.024.006c-.417.072-.823.191-1.205.352-.704.286-1.36.716-1.938,1.295-.573.573-1.003,1.235-1.295,1.933-.293.704-.454,1.474-.454,2.285v4.057c0,1.056.854,1.909,1.91,1.909h4.057c1.635,0,3.108-.65,4.188-1.718l1.95,1.981-1.95-1.981c.006-.006.018-.018.023-.024.012-.012.03-.03.042-.042.555-.573.973-1.217,1.259-1.903.155-.382.274-.788.352-1.205l.007-.024.006-.024c.31-1.587.912-3.771,2.589-5.447s3.86-2.273,5.447-2.589l.023-.006.024-.006c.417-.072.823-.191,1.205-.352.698-.286,1.349-.71,1.921-1.277l.036-.036c1.073-1.08,1.73-2.56,1.73-4.2Zm-20.715,14.557c0-.633.513-1.146,1.146-1.146s1.146.513,1.146,1.146-.513,1.146-1.146,1.146-1.146-.513-1.146-1.146Zm4.964-2.673c-.633,0-1.146-.513-1.146-1.146s.513-1.146,1.146-1.146,1.146.513,1.146,1.146-.513,1.146-1.146,1.146Zm0,3.818c-.633,0-1.146-.513-1.146-1.146s.513-1.146,1.146-1.146,1.146.513,1.146,1.146-.513,1.146-1.146,1.146Zm6.491-12.601c0-.633.513-1.146,1.146-1.146s1.146.513,1.146,1.146-.513,1.146-1.146,1.146-1.146-.513-1.146-1.146Zm3.818-3.818c0-.633.513-1.146,1.146-1.146s1.146.513,1.146,1.146-.513,1.146-1.146,1.146-1.146-.513-1.146-1.146Zm0,3.818c0-.633.513-1.146,1.146-1.146s1.146.513,1.146,1.146-.513,1.146-1.146,1.146-1.146-.513-1.146-1.146Z"/></svg>