<?xml version="1.0" encoding="UTF-8"?><svg id="uuid-41a35204-365c-4ee1-8cce-7ddc1f36e2d8" xmlns="http://www.w3.org/2000/svg" xmlns:xlink="http://www.w3.org/1999/xlink" viewBox="0 0 1150 420"><defs><style>.uuid-6b34a134-e66a-4621-8320-497967c6a232,.uuid-42bb29d8-4728-4bac-8f49-df5c6dfb7025,.uuid-76de39f7-b06a-49f9-8012-5de5590bbce1,.uuid-22456e5a-44fd-45cf-aa48-f97efc82fcfe,.uuid-ad363907-6923-4602-8fa9-e3dd16a6d8b9,.uuid-301a0a3f-5a4d-414a-8b11-68c0bed3aa9f,.uuid-c2ff9e65-2722-4249-ac9f-d4fe313624cb,.uuid-63f95f31-2d61-4138-82bf-689019d315c2,.uuid-f9e95102-63a2-4ede-a8ac-4408a2882612,.uuid-08765e09-7a78-49c5-aa39-052fe4e193ae,.uuid-ae09a436-84c4-4236-9341-bf16c94c60e9,.uuid-607dcf79-3b55-466b-88ef-d7c0d72f2c39,.uuid-4a446ed3-a922-4240-8b70-d58f380a99f7,.uuid-eb131076-0e45-4b38-8df9-fbe205a2f2a5,.uuid-df108eea-0489-462e-9d56-7c8685287205,.uuid-428e88d4-7a81-4b56-a4c3-e28c6458bd97,.uuid-ae787dca-520a-4700-9062-120201c73497,.uuid-bc249a3f-1312-4817-af9e-e4b39d57e240,.uuid-6c0224f8-8c9f-42fc-b774-3f8af8d9302f,.uuid-5eb171ba-6e19-444d-bd7a-c178230274f6,.uuid-cec74c73-2ad9-4aa9-9c6e-2fa821be4da6,.uuid-6a403749-b748-4baa-b5d1-69991d3f4fb5,.uuid-528ec207-6a9d-4287-a840-272da43a4b2d,.uuid-4755a0ac-d4fb-4b23-aa73-188a37f78f94,.uuid-63a61d0c-c08e-4a3c-a547-63f64bc51925,.uuid-16d50793-6bc1-48c1-a3f4-75a0364a3d23,.uuid-3ce6b6da-ae4f-4707-8921-a12ec62d2d91,.uuid-7266d75f-2c9a-478e-b3bd-92c3ba870410,.uuid-7346e06c-bd2e-425c-992a-83594c26b06c{fill:none;}.uuid-42bb29d8-4728-4bac-8f49-df5c6dfb7025,.uuid-bef5e192-537b-4e84-b3f1-1978862be9ff,.uuid-48ce4ea1-a2b4-4f11-884d-df9eb011c912,.uuid-86810248-8e2d-427d-8e7e-1c0fdba9b954{opacity:.5;}.uuid-aa5a8bab-2099-4160-876c-8a84c8ed30bf,.uuid-76de39f7-b06a-49f9-8012-5de5590bbce1,.uuid-22456e5a-44fd-45cf-aa48-f97efc82fcfe,.uuid-ad363907-6923-4602-8fa9-e3dd16a6d8b9,.uuid-301a0a3f-5a4d-414a-8b11-68c0bed3aa9f,.uuid-c2ff9e65-2722-4249-ac9f-d4fe313624cb,.uuid-63f95f31-2d61-4138-82bf-689019d315c2,.uuid-60aecd8c-0214-4941-b2c4-d42c6344c4ce,.uuid-f9e95102-63a2-4ede-a8ac-4408a2882612,.uuid-08765e09-7a78-49c5-aa39-052fe4e193ae,.uuid-ae09a436-84c4-4236-9341-bf16c94c60e9,.uuid-607dcf79-3b55-466b-88ef-d7c0d72f2c39,.uuid-eb131076-0e45-4b38-8df9-fbe205a2f2a5,.uuid-df108eea-0489-462e-9d56-7c8685287205,.uuid-428e88d4-7a81-4b56-a4c3-e28c6458bd97,.uuid-bc249a3f-1312-4817-af9e-e4b39d57e240,.uuid-27fddcb5-bc61-4ecd-90b1-b4040aca3b23,.uuid-5eb171ba-6e19-444d-bd7a-c178230274f6,.uuid-8c2996c2-3807-4284-bbdd-60cc9be7504e,.uuid-cec74c73-2ad9-4aa9-9c6e-2fa821be4da6,.uuid-6a403749-b748-4baa-b5d1-69991d3f4fb5,.uuid-103b8067-0831-4d7b-a679-7ecec05ad84d,.uuid-4755a0ac-d4fb-4b23-aa73-188a37f78f94,.uuid-63a61d0c-c08e-4a3c-a547-63f64bc51925,.uuid-16d50793-6bc1-48c1-a3f4-75a0364a3d23,.uuid-3ce6b6da-ae4f-4707-8921-a12ec62d2d91,.uuid-7266d75f-2c9a-478e-b3bd-92c3ba870410,.uuid-7346e06c-bd2e-425c-992a-83594c26b06c{stroke-linecap:round;}.uuid-aa5a8bab-2099-4160-876c-8a84c8ed30bf,.uuid-76de39f7-b06a-49f9-8012-5de5590bbce1,.uuid-22456e5a-44fd-45cf-aa48-f97efc82fcfe,.uuid-ad363907-6923-4602-8fa9-e3dd16a6d8b9,.uuid-301a0a3f-5a4d-414a-8b11-68c0bed3aa9f,.uuid-c2ff9e65-2722-4249-ac9f-d4fe313624cb,.uuid-63f95f31-2d61-4138-82bf-689019d315c2,.uuid-60aecd8c-0214-4941-b2c4-d42c6344c4ce,.uuid-f9e95102-63a2-4ede-a8ac-4408a2882612,.uuid-08765e09-7a78-49c5-aa39-052fe4e193ae,.uuid-ae09a436-84c4-4236-9341-bf16c94c60e9,.uuid-607dcf79-3b55-466b-88ef-d7c0d72f2c39,.uuid-428e88d4-7a81-4b56-a4c3-e28c6458bd97,.uuid-bc249a3f-1312-4817-af9e-e4b39d57e240,.uuid-27fddcb5-bc61-4ecd-90b1-b4040aca3b23,.uuid-5eb171ba-6e19-444d-bd7a-c178230274f6,.uuid-8c2996c2-3807-4284-bbdd-60cc9be7504e,.uuid-6a403749-b748-4baa-b5d1-69991d3f4fb5,.uuid-103b8067-0831-4d7b-a679-7ecec05ad84d,.uuid-4755a0ac-d4fb-4b23-aa73-188a37f78f94,.uuid-63a61d0c-c08e-4a3c-a547-63f64bc51925,.uuid-16d50793-6bc1-48c1-a3f4-75a0364a3d23,.uuid-3ce6b6da-ae4f-4707-8921-a12ec62d2d91,.uuid-7266d75f-2c9a-478e-b3bd-92c3ba870410,.uuid-7346e06c-bd2e-425c-992a-83594c26b06c{stroke-linejoin:round;}.uuid-aa5a8bab-2099-4160-876c-8a84c8ed30bf,.uuid-301a0a3f-5a4d-414a-8b11-68c0bed3aa9f,.uuid-c2ff9e65-2722-4249-ac9f-d4fe313624cb,.uuid-63f95f31-2d61-4138-82bf-689019d315c2,.uuid-60aecd8c-0214-4941-b2c4-d42c6344c4ce,.uuid-f9e95102-63a2-4ede-a8ac-4408a2882612,.uuid-08765e09-7a78-49c5-aa39-052fe4e193ae,.uuid-607dcf79-3b55-466b-88ef-d7c0d72f2c39,.uuid-bc249a3f-1312-4817-af9e-e4b39d57e240,.uuid-27fddcb5-bc61-4ecd-90b1-b4040aca3b23,.uuid-5eb171ba-6e19-444d-bd7a-c178230274f6,.uuid-8c2996c2-3807-4284-bbdd-60cc9be7504e,.uuid-103b8067-0831-4d7b-a679-7ecec05ad84d,.uuid-4755a0ac-d4fb-4b23-aa73-188a37f78f94,.uuid-63a61d0c-c08e-4a3c-a547-63f64bc51925,.uuid-7266d75f-2c9a-478e-b3bd-92c3ba870410{stroke:#003e3f;}.uuid-aa5a8bab-2099-4160-876c-8a84c8ed30bf,.uuid-8c2996c2-3807-4284-bbdd-60cc9be7504e{fill:#9df1e7;}.uuid-76de39f7-b06a-49f9-8012-5de5590bbce1,.uuid-6a403749-b748-4baa-b5d1-69991d3f4fb5,.uuid-7346e06c-bd2e-425c-992a-83594c26b06c{stroke:#fff;}.uuid-22456e5a-44fd-45cf-aa48-f97efc82fcfe{stroke-dasharray:0 0 .881 3.523;stroke-width:.872px;}.uuid-22456e5a-44fd-45cf-aa48-f97efc82fcfe,.uuid-ad363907-6923-4602-8fa9-e3dd16a6d8b9,.uuid-ae09a436-84c4-4236-9341-bf16c94c60e9,.uuid-428e88d4-7a81-4b56-a4c3-e28c6458bd97,.uuid-16d50793-6bc1-48c1-a3f4-75a0364a3d23,.uuid-3ce6b6da-ae4f-4707-8921-a12ec62d2d91{stroke:#007173;}.uuid-ad363907-6923-4602-8fa9-e3dd16a6d8b9{stroke-dasharray:0 0 .37 1.481;stroke-width:.367px;}.uuid-301a0a3f-5a4d-414a-8b11-68c0bed3aa9f{stroke-width:1.25px;}.uuid-be7ae7b1-ab7b-4ceb-b22c-f9ae2b0024d7,.uuid-48ce4ea1-a2b4-4f11-884d-df9eb011c912{fill:url(#uuid-6913abde-0e4c-4841-b0bf-569b990702ab);}.uuid-c2ff9e65-2722-4249-ac9f-d4fe313624cb{stroke-width:2.5px;}.uuid-cc631e34-8936-4c92-99e7-2d0c3b97463f{fill:#003e3f;}.uuid-eecd6d9b-c15b-457d-a12c-4e92032ae6d6{fill:#00cfb7;}.uuid-57f95917-5601-40ec-8b0b-9bb7ee98acd6{fill:#00ccb7;}.uuid-0d31b6ef-f728-404c-9569-2ffaf5f83894{fill:#007173;}.uuid-a445e995-e0bc-4047-a1df-2d200ddec405,.uuid-103b8067-0831-4d7b-a679-7ecec05ad84d{fill:#ffd938;}.uuid-8455dea6-a11c-41b1-8352-d00a2e55a1ae{fill:#ffd813;}.uuid-3f6e8cf1-34d7-4574-b81c-5b11bd481018{fill:#4af0d2;}.uuid-63f95f31-2d61-4138-82bf-689019d315c2{stroke-width:1.829px;}.uuid-60aecd8c-0214-4941-b2c4-d42c6344c4ce,.uuid-607dcf79-3b55-466b-88ef-d7c0d72f2c39,.uuid-eb131076-0e45-4b38-8df9-fbe205a2f2a5,.uuid-df108eea-0489-462e-9d56-7c8685287205{stroke-width:2px;}.uuid-60aecd8c-0214-4941-b2c4-d42c6344c4ce,.uuid-27fddcb5-bc61-4ecd-90b1-b4040aca3b23{fill:#dbf8f5;}.uuid-f9e95102-63a2-4ede-a8ac-4408a2882612{stroke-width:1.236px;}.uuid-08765e09-7a78-49c5-aa39-052fe4e193ae{stroke-width:1.03px;}.uuid-ae09a436-84c4-4236-9341-bf16c94c60e9{stroke-dasharray:0 0 .523 2.091;stroke-width:.517px;}.uuid-4a446ed3-a922-4240-8b70-d58f380a99f7{clip-path:url(#uuid-f23c29a9-60a1-4245-b74f-cc4d71802f0e);}.uuid-eb131076-0e45-4b38-8df9-fbe205a2f2a5{stroke:#54f4d3;}.uuid-eb131076-0e45-4b38-8df9-fbe205a2f2a5,.uuid-df108eea-0489-462e-9d56-7c8685287205,.uuid-cec74c73-2ad9-4aa9-9c6e-2fa821be4da6{stroke-miterlimit:10;}.uuid-df108eea-0489-462e-9d56-7c8685287205,.uuid-cec74c73-2ad9-4aa9-9c6e-2fa821be4da6{stroke:#ffd813;}.uuid-428e88d4-7a81-4b56-a4c3-e28c6458bd97{stroke-dasharray:0 0 .425 1.7;stroke-width:.421px;}.uuid-ae787dca-520a-4700-9062-120201c73497{clip-path:url(#uuid-dde3f323-9013-4184-a5f1-05b13dcb2615);}.uuid-bc249a3f-1312-4817-af9e-e4b39d57e240{stroke-width:1.75px;}.uuid-bef5e192-537b-4e84-b3f1-1978862be9ff{fill:url(#uuid-988ddd71-ebe2-49a0-870e-af2ec7b6bd45);}.uuid-6c0224f8-8c9f-42fc-b774-3f8af8d9302f{clip-path:url(#uuid-cb7dc6f4-ad1a-4223-9446-23e42597486a);}.uuid-27fddcb5-bc61-4ecd-90b1-b4040aca3b23,.uuid-8c2996c2-3807-4284-bbdd-60cc9be7504e,.uuid-103b8067-0831-4d7b-a679-7ecec05ad84d,.uuid-7266d75f-2c9a-478e-b3bd-92c3ba870410,.uuid-7346e06c-bd2e-425c-992a-83594c26b06c{stroke-width:1.5px;}.uuid-5eb171ba-6e19-444d-bd7a-c178230274f6{stroke-width:1.664px;}.uuid-cec74c73-2ad9-4aa9-9c6e-2fa821be4da6{stroke-width:2.48px;}.uuid-6a403749-b748-4baa-b5d1-69991d3f4fb5,.uuid-4755a0ac-d4fb-4b23-aa73-188a37f78f94{stroke-width:1.622px;}.uuid-528ec207-6a9d-4287-a840-272da43a4b2d{clip-path:url(#uuid-85c21741-f61d-4e7c-b352-3c7ee1dcf73e);}.uuid-63a61d0c-c08e-4a3c-a547-63f64bc51925{stroke-width:2.305px;}.uuid-16d50793-6bc1-48c1-a3f4-75a0364a3d23{stroke-dasharray:0 0 .497 1.988;stroke-width:.492px;}.uuid-3ce6b6da-ae4f-4707-8921-a12ec62d2d91{stroke-dasharray:0 0 .578 2.314;stroke-width:.572px;}.uuid-86810248-8e2d-427d-8e7e-1c0fdba9b954{fill:url(#uuid-a70574a1-02cd-49be-b012-ef3dd522fc69);}</style><clipPath id="uuid-f23c29a9-60a1-4245-b74f-cc4d71802f0e"><path class="uuid-6b34a134-e66a-4621-8320-497967c6a232" d="m702.176,289.264h-64.887c-5.81,0-10.398-4.477-10.193-9.989l3.627-97.716c.236-6.357,5.591-11.599,11.899-11.599h70.443c6.308,0,10.95,5.242,10.322,11.599l-9.659,97.716c-.545,5.512-5.741,9.989-11.551,9.989Z"/></clipPath><clipPath id="uuid-cb7dc6f4-ad1a-4223-9446-23e42597486a"><path class="uuid-6b34a134-e66a-4621-8320-497967c6a232" d="m512.711,289.264h-64.887c-5.81,0-11.007-4.477-11.551-9.989l-9.659-97.716c-.628-6.357,4.014-11.599,10.322-11.599h70.443c6.308,0,11.663,5.242,11.899,11.599l3.627,97.716c.205,5.512-4.383,9.989-10.193,9.989Z"/></clipPath><clipPath id="uuid-85c21741-f61d-4e7c-b352-3c7ee1dcf73e"><polygon class="uuid-6b34a134-e66a-4621-8320-497967c6a232" points="470.647 164.232 474.327 218.319 447.37 218.319 442.662 164.232 470.647 164.232"/></clipPath><clipPath id="uuid-dde3f323-9013-4184-a5f1-05b13dcb2615"><polygon class="uuid-6b34a134-e66a-4621-8320-497967c6a232" points="470.647 164.232 474.327 218.319 501.284 218.319 498.631 164.232 470.647 164.232"/></clipPath><pattern id="uuid-6913abde-0e4c-4841-b0bf-569b990702ab" x="0" y="0" width="2" height="2" patternTransform="translate(-4868.837 3617.164)" patternUnits="userSpaceOnUse" viewBox="0 0 2 2"><rect class="uuid-6b34a134-e66a-4621-8320-497967c6a232" width="2" height="2"/><circle class="uuid-cc631e34-8936-4c92-99e7-2d0c3b97463f" cx=".515" cy=".5" r=".5"/><circle class="uuid-6b34a134-e66a-4621-8320-497967c6a232" cx="1.485" cy=".5" r=".5"/><circle class="uuid-6b34a134-e66a-4621-8320-497967c6a232" cx=".515" cy="1.5" r=".5"/><circle class="uuid-6b34a134-e66a-4621-8320-497967c6a232" cx="1.485" cy="1.5" r=".5"/></pattern><pattern id="uuid-988ddd71-ebe2-49a0-870e-af2ec7b6bd45" patternTransform="translate(-4867.676 3617.164)" xlink:href="#uuid-6913abde-0e4c-4841-b0bf-569b990702ab"/><pattern id="uuid-a70574a1-02cd-49be-b012-ef3dd522fc69" patternTransform="translate(-4867.676 3617.164)" xlink:href="#uuid-6913abde-0e4c-4841-b0bf-569b990702ab"/></defs><line class="uuid-607dcf79-3b55-466b-88ef-d7c0d72f2c39" x1="763.789" y1="209.829" x2="798.696" y2="202.679"/><line class="uuid-607dcf79-3b55-466b-88ef-d7c0d72f2c39" x1="789.653" y1="170.19" x2="767.329" y2="177.94"/><ellipse class="uuid-a445e995-e0bc-4047-a1df-2d200ddec405" cx="127.562" cy="182.758" rx="16.147" ry="11.63" transform="translate(-60.095 302.997) rotate(-87.735)"/><path class="uuid-a445e995-e0bc-4047-a1df-2d200ddec405" d="m124.384,167.471c.099,0,.199.002.303.006,1.681.067,3.418.135,5.272.425,3.655.571,5.026,8.247,4.753,15.139-.275,6.962-2.356,14.555-6.275,14.773-.447.025-.97.038-1.555.038-1.161,0-2.398-.049-3.398-.088-5.861-.232-10.36-7.214-10.03-15.564.321-8.122,5.225-14.729,10.931-14.729m0-.991c-6.272,0-11.575,6.926-11.921,15.681-.353,8.91,4.564,16.34,10.982,16.594,1.015.04,2.255.089,3.438.089.56,0,1.106-.011,1.61-.039,4.917-.274,6.941-8.889,7.211-15.724.258-6.524-.894-15.424-5.591-16.157-1.912-.299-3.672-.368-5.391-.436-.112-.004-.226-.007-.337-.007h0Z"/><path class="uuid-0d31b6ef-f728-404c-9569-2ffaf5f83894" d="m128.348,174.235c.547.022,1.052.126,1.516.313.302.122.586.259.851.409.227.129.325.496.218.809l-.31.903c-.101.293-.348.434-.559.313-.202-.116-.41-.221-.625-.316-.349-.154-.7-.239-1.055-.253-.415-.016-.761.132-1.037.445-.276.313-.429.849-.459,1.608l-.069,1.738c-.013.333.17.61.41.62l2.033.08c.24.009.423.287.41.62l-.028.714c-.013.333-.218.595-.458.585l-2.033-.08c-.24-.009-.445.253-.458.585l-.045,1.148c-.031.788-.11,1.44-.324,1.869-.157.315-.303.592-.574.778l4.793.19c.24.009.423.287.41.62l-.043,1.094c-.013.333-.218.595-.458.585l-6.863-.272c-.24-.009-.423-.287-.41-.62l.046-1.151c.009-.236.109-.459.267-.554.321-.193.589-.441.803-.742.268-.377.419-.994.453-1.851l.046-1.169c.013-.333-.17-.61-.41-.62l-.499-.02c-.24-.009-.423-.287-.41-.62l.028-.714c.013-.333.218-.595.458-.585l.499.02c.24.009.445-.253.458-.585l.072-1.823c.038-.97.209-1.759.512-2.366.303-.607.701-1.05,1.194-1.326.493-.276,1.043-.402,1.65-.378Z"/><path class="uuid-428e88d4-7a81-4b56-a4c3-e28c6458bd97" d="m137.406,183.147c.299-7.549-3.867-13.843-9.304-14.058-5.437-.215-10.087,5.73-10.385,13.279-.299,7.549,3.867,13.843,9.304,14.058,5.437.215,10.087-5.73,10.385-13.279Z"/><g class="uuid-42bb29d8-4728-4bac-8f49-df5c6dfb7025"><path class="uuid-eecd6d9b-c15b-457d-a12c-4e92032ae6d6" d="m922.437,76.685v-1.548c0-.851.696-1.548,1.548-1.548h7.74c2.999,0,5.68,1.422,7.373,3.638,1.615-.358,3.289-.542,5.012-.542,12.82,0,23.222,10.401,23.222,23.221s-10.401,23.222-23.222,23.222-23.222-10.401-23.222-23.222c0-4.789,1.451-9.24,3.929-12.936.861.581,1.8,1.055,2.796,1.403-2.283,3.261-3.628,7.247-3.628,11.533,0,11.118,9.008,20.125,20.125,20.125s20.125-9.008,20.125-20.125-9.008-20.125-20.125-20.125c-1.2,0-2.38.106-3.521.31.28.88.425,1.819.425,2.787v1.548c0,.851-.696,1.548-1.548,1.548h-7.74c-5.128,0-9.288-4.161-9.288-9.289Zm15.48,6.192c0-3.416-2.777-6.192-6.192-6.192h-6.192c0,3.416,2.777,6.192,6.192,6.192h6.192Z"/></g><g class="uuid-42bb29d8-4728-4bac-8f49-df5c6dfb7025"><path class="uuid-eecd6d9b-c15b-457d-a12c-4e92032ae6d6" d="m1048.952,204.031l7.953,7.953.48.48c1.741,1.741,2.611,4.025,2.611,6.303,0,6.686-6.686,13.371-18.942,13.371-8.914,0-12.257-3.343-12.257-12.257,0-12.257,6.699-18.942,13.385-18.942,2.277.007,4.548.877,6.289,2.611l.48.481Zm-17.926,15.85c0,4.269.821,6.581,2.131,7.897,1.31,1.316,3.629,2.131,7.897,2.131,11.567,0,16.714-6.163,16.714-11.143,0-1.713-.654-3.419-1.957-4.729l-8.914-8.914c-1.302-1.302-3.001-1.957-4.715-1.957-4.979,0-11.156,5.153-11.156,16.714Zm7.068-.383c.411.411.223,1.56-.605,2.389-.829.829-1.971,1.017-2.389.605-.418-.411-.223-1.56.605-2.389.829-.829,1.971-1.017,2.389-.605Zm1.623-3.74c-.829.829-1.971,1.017-2.389.605-.418-.411-.223-1.56.605-2.389.829-.829,1.971-1.017,2.389-.605.418.411.223,1.56-.605,2.389Zm1.114,9.471c-.829.829-1.971,1.017-2.389.605-.418-.411-.223-1.56.605-2.389.829-.829,1.971-1.017,2.389-.605.418.411.223,1.56-.605,2.389Zm1.163-17.988c.41.411.223,1.56-.606,2.389-.828.829-1.971,1.017-2.389.605-.418-.411-.223-1.56.606-2.389.828-.829,1.971-1.017,2.389-.605Zm1.065,12.417c-.829.829-1.971,1.017-2.389.605-.418-.411-.223-1.56.605-2.389.829-.829,1.971-1.017,2.389-.605.418.411.223,1.56-.605,2.389Zm2.229-5.571c-.829.829-1.971,1.017-2.389.605-.418-.411-.223-1.56.605-2.389.829-.829,1.971-1.017,2.389-.605.418.411.223,1.56-.605,2.389Zm2.277,6.525c.41.411.223,1.56-.606,2.389-.828.829-1.971,1.017-2.389.605-.418-.411-.223-1.56.606-2.389.828-.829,1.971-1.017,2.389-.605Zm1.671-5.571c.411.411.223,1.56-.605,2.389-.829.829-1.971,1.017-2.389.605-.418-.411-.223-1.56.605-2.389.829-.829,1.971-1.017,2.389-.605Zm14.061-17.139c-.801,2.799-2.681,4.77-4.645,6.428,2.402.244,4.171,1.435,4.958,2.062.585.466.843,1.149.843,1.796,0,.641-.258,1.323-.821,1.79-.642.529-2.021,1.525-3.768,1.936-.279-.348-.578-.689-.898-1.01l-1.045-1.045c.132.007.265.007.411.007,1.664,0,3.161-1.01,3.886-1.602v-.007c.007-.007.014-.028.014-.062,0-.028-.007-.049-.007-.056-.718-.578-2.34-1.629-4.457-1.629-1.023,0-1.595.125-1.873.223-.111.042-.182.07-.202.084-.167.132-.355.216-.558.244l-1.253-1.254c.027-.202.104-.39.243-.557.015-.028.049-.091.084-.202.091-.279.223-.85.223-1.874,0-2.117-1.052-3.74-1.615-4.45-.007,0-.028-.007-.056-.007-.035,0-.056.007-.063.014h-.007c-.592.724-1.602,2.229-1.602,3.886,0,.14,0,.279.007.411l-1.044-1.045c-.32-.32-.662-.62-1.01-.898.41-1.755,1.406-3.126,1.936-3.768.453-.578,1.135-.835,1.775-.835s1.331.258,1.797.843c.696.871,2.075,2.953,2.104,5.759,2.075-1.692,3.803-3.35,4.499-5.787.167-.592.787-.933,1.379-.766s.933.787.766,1.379v-.007Zm-10.209,23.427c-.829.829-1.971,1.017-2.389.605-.418-.411-.223-1.56.605-2.389.829-.829,1.971-1.017,2.389-.605.418.411.223,1.56-.605,2.389Z"/></g><ellipse class="uuid-57f95917-5601-40ec-8b0b-9bb7ee98acd6" cx="1126.004" cy="144.209" rx="10.134" ry="14.071" transform="translate(4.094 317.414) rotate(-16.074)"/><path class="uuid-57f95917-5601-40ec-8b0b-9bb7ee98acd6" d="m1127.093,130.421c4.485,0,8.999,4.365,10.733,10.379,2.017,6.998-.338,13.843-5.257,15.261-1.407.406-2.862.825-4.473,1.094-.136.023-.274.034-.41.034-3.044,0-6.112-5.833-7.675-11.252-1.682-5.834-2.042-12.686,1.139-13.942,1.237-.488,2.897-.967,4.11-1.317.592-.171,1.209-.257,1.833-.257m0-.864c-.696,0-1.39.094-2.072.291-1.252.361-2.915.841-4.188,1.343-3.991,1.576-3.302,9.257-1.651,14.985,1.504,5.219,4.666,11.877,8.505,11.877.183,0,.366-.015.552-.046,1.663-.277,3.138-.703,4.578-1.118,5.377-1.551,7.992-8.861,5.84-16.328-1.879-6.52-6.772-11.004-11.563-11.004h0Z"/><path class="uuid-0d31b6ef-f728-404c-9569-2ffaf5f83894" d="m1124.494,137.162c.464-.11.913-.14,1.346-.091.282.032.552.08.81.145.22.055.389.34.372.628l-.05.83c-.016.269-.19.446-.397.393-.197-.05-.396-.09-.598-.12-.329-.048-.644-.037-.945.034-.353.083-.608.289-.767.616-.159.328-.162.813-.01,1.458l.348,1.475c.067.282.286.472.489.424l1.726-.408c.203-.048.422.142.489.424l.143.606c.067.282-.044.55-.248.598l-1.726.408c-.203.048-.314.316-.248.598l.23.974c.158.668.244,1.235.165,1.645-.058.301-.116.568-.3.788l4.068-.961c.203-.048.422.142.489.424l.219.928c.067.282-.044.55-.248.598l-5.825,1.376c-.203.048-.422-.142-.489-.424l-.231-.977c-.047-.201-.015-.411.095-.527.224-.237.391-.508.501-.811.137-.379.12-.932-.052-1.66l-.234-.992c-.067-.282-.286-.472-.489-.424l-.424.1c-.203.048-.422-.142-.489-.424l-.143-.606c-.067-.282.044-.55.248-.598l.424-.1c.203-.048.314-.316.248-.598l-.365-1.547c-.194-.823-.235-1.525-.123-2.106.112-.581.343-1.045.692-1.392.349-.347.781-.581,1.297-.703Z"/><path class="uuid-ad363907-6923-4602-8fa9-e3dd16a6d8b9" d="m1117.755,146.588c1.823,6.326,6.995,10.389,11.551,9.075,4.556-1.314,6.771-7.507,4.947-13.833-1.823-6.326-6.995-10.389-11.551-9.075-4.556,1.313-6.771,7.507-4.947,13.833Z"/><ellipse class="uuid-57f95917-5601-40ec-8b0b-9bb7ee98acd6" cx="245.275" cy="358.233" rx="15.822" ry="21.971" transform="translate(-89.648 81.977) rotate(-16.084)"/><path class="uuid-57f95917-5601-40ec-8b0b-9bb7ee98acd6" d="m242.648,337.967c4.754,0,9.544,9.109,11.983,17.573,2.625,9.11,3.188,19.807-1.779,21.766-1.929.761-4.524,1.508-6.418,2.054-.923.266-1.885.401-2.857.401-7.005,0-14.054-6.818-16.761-16.211-1.547-5.369-1.503-10.833.125-15.383,1.572-4.395,4.439-7.391,8.075-8.438,2.2-.634,4.475-1.289,6.994-1.708.212-.035.426-.053.638-.053m0-1.349c-.285,0-.571.023-.86.072-2.596.433-4.899,1.096-7.148,1.743-8.397,2.418-12.48,13.831-9.121,25.49,2.934,10.182,10.576,17.187,18.057,17.187,1.085,0,2.167-.147,3.23-.454,1.956-.563,4.552-1.311,6.54-2.095,6.232-2.458,5.158-14.451,2.58-23.395-2.349-8.151-7.285-18.548-13.279-18.548h0Z"/><path class="uuid-0d31b6ef-f728-404c-9569-2ffaf5f83894" d="m242.641,346.888c.715-.206,1.413-.287,2.093-.244.443.028.868.083,1.274.164.348.069.632.502.627.952l-.014,1.298c-.005.421-.263.709-.589.643-.311-.063-.625-.11-.942-.141-.517-.05-1.007-.009-1.47.125-.543.156-.926.496-1.149,1.018-.223.523-.19,1.28.096,2.274l.655,2.274c.125.435.481.715.795.625l2.66-.766c.314-.09.669.189.795.625l.269.934c.125.435-.027.862-.341.952l-2.66.766c-.314.09-.466.516-.341.952l.433,1.502c.297,1.031.474,1.907.382,2.552-.068.474-.138.894-.408,1.251l6.271-1.806c.314-.09.669.189.795.625l.412,1.431c.125.435-.027.862-.341.952l-8.98,2.586c-.314.09-.669-.189-.795-.625l-.434-1.506c-.089-.309-.055-.639.108-.83.332-.387.571-.821.72-1.303.185-.601.116-1.463-.207-2.585l-.441-1.529c-.125-.435-.481-.715-.795-.625l-.653.188c-.314.09-.669-.189-.795-.625l-.269-.934c-.125-.435.027-.862.341-.952l.653-.188c.314-.09.466-.516.341-.952l-.687-2.385c-.366-1.27-.483-2.361-.352-3.276.131-.914.456-1.656.974-2.223.518-.568,1.174-.966,1.969-1.195Z"/><path class="uuid-3ce6b6da-ae4f-4707-8921-a12ec62d2d91" d="m258.156,354.524c-2.847-9.878-10.921-16.224-18.034-14.176-7.114,2.049-10.573,11.717-7.727,21.595,2.846,9.878,10.92,16.224,18.034,14.176,7.113-2.049,10.573-11.717,7.727-21.595Z"/><ellipse class="uuid-a445e995-e0bc-4047-a1df-2d200ddec405" cx="1014.701" cy="335.524" rx="33.453" ry="24.093" transform="translate(355.639 1176.852) rotate(-70.223)"/><path class="uuid-a445e995-e0bc-4047-a1df-2d200ddec405" d="m1020.741,305.026c.54,0,1.083.069,1.614.204,3.061.781,6.93,2.171,9.754,3.186,5.418,1.947,9.48,6.782,11.438,13.615,2.028,7.074,1.559,15.379-1.319,23.386-4.872,13.553-15.562,23.019-25.998,23.019-1.853,0-3.657-.311-5.367-.926-3.281-1.179-6.674-2.399-10.157-4.126-6.866-3.405-4.792-19.427.042-32.873,2.432-6.765,5.609-12.996,8.947-17.544,2.658-3.623,6.733-7.941,11.046-7.941m0-2.054c-9.087,0-17.476,14.466-21.926,26.845-4.576,12.73-7.846,31.033.979,35.408,3.591,1.781,7.026,3.015,10.379,4.22,1.967.707,4.003,1.045,6.058,1.045,11.026,0,22.664-9.723,27.931-24.378,6.25-17.386,1.165-35.128-11.357-39.628-2.917-1.048-6.788-2.439-9.941-3.243-.71-.181-1.419-.268-2.122-.268h0Z"/><path class="uuid-0d31b6ef-f728-404c-9569-2ffaf5f83894" d="m1021.605,319.842c1.047.435,1.954,1.001,2.721,1.699.5.455.953.924,1.359,1.406.348.413.275,1.197-.159,1.728l-1.252,1.531c-.406.496-.987.593-1.312.205-.31-.37-.638-.725-.987-1.064-.567-.551-1.189-.968-1.868-1.249-.795-.33-1.574-.291-2.335.119-.762.41-1.444,1.342-2.048,2.795l-1.383,3.328c-.265.637-.107,1.308.351,1.499l3.893,1.617c.459.191.616.862.351,1.499l-.568,1.367c-.265.637-.851.999-1.31.808l-3.893-1.617c-.459-.191-1.045.171-1.31.808l-.913,2.198c-.627,1.508-1.249,2.719-1.973,3.398-.531.499-1.015.932-1.675,1.1l9.177,3.813c.459.191.616.862.351,1.499l-.87,2.094c-.265.637-.851.999-1.31.808l-13.141-5.46c-.459-.191-.616-.862-.351-1.499l.916-2.203c.188-.453.542-.813.917-.884.762-.145,1.46-.433,2.095-.865.792-.539,1.529-1.629,2.212-3.272l.93-2.238c.265-.637.107-1.308-.351-1.499l-.955-.397c-.459-.191-.616-.862-.351-1.499l.568-1.367c.265-.637.851-.999,1.31-.808l.955.397c.459.191,1.045-.171,1.31-.808l1.45-3.49c.772-1.858,1.671-3.267,2.696-4.23,1.025-.963,2.116-1.536,3.272-1.718,1.156-.183,2.315-.033,3.479.451Z"/><path class="uuid-22456e5a-44fd-45cf-aa48-f97efc82fcfe" d="m995.493,328.622c-5.294,14.729-.987,29.76,9.622,33.572,10.608,3.812,23.5-5.038,28.795-19.767s.986-29.76-9.622-33.572c-10.608-3.812-23.5,5.038-28.794,19.767Z"/><line class="uuid-63a61d0c-c08e-4a3c-a547-63f64bc51925" x1="783.98" y1="103.144" x2="783.98" y2="114.561"/><line class="uuid-63a61d0c-c08e-4a3c-a547-63f64bc51925" x1="783.98" y1="63.35" x2="783.98" y2="72.882"/><line class="uuid-63a61d0c-c08e-4a3c-a547-63f64bc51925" x1="769.792" y1="88.955" x2="758.375" y2="88.955"/><line class="uuid-63a61d0c-c08e-4a3c-a547-63f64bc51925" x1="809.586" y1="88.955" x2="800.053" y2="88.955"/><line class="uuid-63a61d0c-c08e-4a3c-a547-63f64bc51925" x1="773.948" y1="98.988" x2="765.874" y2="107.061"/><line class="uuid-63a61d0c-c08e-4a3c-a547-63f64bc51925" x1="802.086" y1="70.849" x2="795.346" y2="77.59"/><line class="uuid-63a61d0c-c08e-4a3c-a547-63f64bc51925" x1="773.948" y1="78.922" x2="765.874" y2="70.849"/><line class="uuid-63a61d0c-c08e-4a3c-a547-63f64bc51925" x1="802.086" y1="107.061" x2="795.346" y2="100.32"/><line class="uuid-5eb171ba-6e19-444d-bd7a-c178230274f6" x1="438.039" y1="66.493" x2="438.039" y2="74.736"/><line class="uuid-5eb171ba-6e19-444d-bd7a-c178230274f6" x1="438.039" y1="37.765" x2="438.039" y2="44.647"/><line class="uuid-5eb171ba-6e19-444d-bd7a-c178230274f6" x1="427.795" y1="56.25" x2="419.553" y2="56.25"/><line class="uuid-5eb171ba-6e19-444d-bd7a-c178230274f6" x1="456.524" y1="56.25" x2="449.642" y2="56.25"/><line class="uuid-5eb171ba-6e19-444d-bd7a-c178230274f6" x1="430.796" y1="63.493" x2="424.967" y2="69.321"/><line class="uuid-5eb171ba-6e19-444d-bd7a-c178230274f6" x1="451.11" y1="43.179" x2="446.243" y2="48.045"/><line class="uuid-5eb171ba-6e19-444d-bd7a-c178230274f6" x1="430.796" y1="49.007" x2="424.967" y2="43.179"/><line class="uuid-5eb171ba-6e19-444d-bd7a-c178230274f6" x1="451.11" y1="69.321" x2="446.243" y2="64.455"/><ellipse class="uuid-a445e995-e0bc-4047-a1df-2d200ddec405" cx="967.859" cy="122.416" rx="13.595" ry="18.877" transform="translate(7.848 295.955) rotate(-17.455)"/><path class="uuid-a445e995-e0bc-4047-a1df-2d200ddec405" d="m969.096,103.886c5.932,0,12.034,5.71,14.508,13.576,2.932,9.32-.005,18.576-6.553,20.636-1.875.59-3.815,1.2-5.968,1.613-.208.04-.419.06-.627.06-2.941,0-7.352-4.59-10.577-14.844-2.444-7.771-3.15-16.948,1.076-18.735,1.638-.693,3.848-1.388,5.47-1.899.859-.27,1.757-.407,2.671-.407m0-1.159c-1.017,0-2.029.149-3.018.461-1.668.525-3.882,1.221-5.574,1.937-5.302,2.243-4.13,12.522-1.73,20.151,2.171,6.903,6.58,15.655,11.683,15.655.28,0,.562-.026.846-.081,2.222-.426,4.186-1.044,6.104-1.647,7.162-2.254,10.433-12.143,7.305-22.088-2.696-8.572-9.266-14.387-15.615-14.387h0Z"/><path class="uuid-0d31b6ef-f728-404c-9569-2ffaf5f83894" d="m965.607,113.013c.619-.162,1.22-.217,1.803-.166.38.034.743.09,1.091.168.297.067.532.444.519.83l-.04,1.115c-.013.362-.241.604-.519.54-.266-.061-.534-.108-.806-.141-.443-.054-.865-.029-1.266.076-.47.123-.806.407-1.008.85-.202.444-.191,1.096.034,1.955l.515,1.967c.099.377.398.624.67.553l2.301-.602c.271-.071.571.177.67.553l.212.808c.099.377-.041.74-.313.811l-2.301.602c-.271.071-.411.434-.313.811l.34,1.299c.233.891.367,1.648.274,2.2-.068.405-.138.765-.377,1.066l5.425-1.42c.271-.071.571.177.67.553l.324,1.238c.099.377-.041.74-.313.811l-7.768,2.034c-.271.071-.571-.177-.67-.553l-.341-1.302c-.07-.268-.034-.55.11-.71.293-.325.508-.693.646-1.104.172-.512.131-1.254-.123-2.225l-.346-1.323c-.099-.377-.398-.624-.67-.553l-.565.148c-.271.071-.571-.177-.67-.553l-.212-.808c-.099-.377.041-.74.313-.811l.565-.148c.271-.071.411-.434.313-.811l-.54-2.063c-.287-1.098-.365-2.038-.233-2.821.132-.783.426-1.413.884-1.889.457-.477,1.029-.805,1.717-.985Z"/><path class="uuid-16d50793-6bc1-48c1-a3f4-75a0364a3d23" d="m956.873,125.873c2.65,8.425,9.717,13.708,15.785,11.799s8.838-10.287,6.188-18.712c-2.65-8.425-9.717-13.708-15.785-11.799-6.068,1.909-8.838,10.287-6.188,18.712Z"/><g class="uuid-4a446ed3-a922-4240-8b70-d58f380a99f7"><path class="uuid-103b8067-0831-4d7b-a679-7ecec05ad84d" d="m674.536,215.806c-1.633-5.566-6.811-9.583-13.226-9.583-8.135,0-15.05,6.457-15.44,14.345-.386,7.802,5.77,14.065,13.747,14.065,4.625,0,8.888-2.105,11.761-5.395"/><path class="uuid-103b8067-0831-4d7b-a679-7ecec05ad84d" d="m699.952,224.541c.684-7.844-5.333-14.265-13.446-14.265s-15.119,6.422-15.645,14.265c-.52,7.759,5.512,13.989,13.467,13.989s14.947-6.229,15.623-13.989Z"/><path class="uuid-7266d75f-2c9a-478e-b3bd-92c3ba870410" d="m683.285,187.212c2.291-1.183,5.499-2.523,8.361-3.411,0,0-13.651,9.95-9.479,27.002"/><path class="uuid-7266d75f-2c9a-478e-b3bd-92c3ba870410" d="m665.778,206.577s1.468-4.935,6.307-10.459"/><path class="uuid-8c2996c2-3807-4284-bbdd-60cc9be7504e" d="m683.798,186.346s-4.005-5.182-15.359-4.734c-13.912.548-19.593,11.78-22.332,15.903,0,0,10.168-4.124,17.648-1.969,7.458,2.148,15.251-.717,20.042-9.2Z"/><path class="uuid-8c2996c2-3807-4284-bbdd-60cc9be7504e" d="m687.202,187.072s-5.019,11.337,4.154,16.32l9.111,4.949s4.608-19.638-13.265-21.269Z"/><path class="uuid-7266d75f-2c9a-478e-b3bd-92c3ba870410" d="m683.798,186.346s-5.335-1.817-16.387,0"/><path class="uuid-7346e06c-bd2e-425c-992a-83594c26b06c" d="m681.675,215.968c-2.174,1.022-3.97,2.75-5.036,4.859"/><path class="uuid-7346e06c-bd2e-425c-992a-83594c26b06c" d="m656.753,211.772c-2.162,1.028-3.934,2.766-4.966,4.887"/><polygon class="uuid-103b8067-0831-4d7b-a679-7ecec05ad84d" points="691.909 295.656 671.875 266.351 648.162 292.767 668.196 322.072 691.909 295.656"/></g><g class="uuid-6c0224f8-8c9f-42fc-b774-3f8af8d9302f"><g id="uuid-bea7c2d5-7319-4c29-bc6e-fd37e0bfdad4"><g class="uuid-528ec207-6a9d-4287-a840-272da43a4b2d"><path class="uuid-103b8067-0831-4d7b-a679-7ecec05ad84d" d="m486.659,191.679c.443,7.598-5.499,13.698-13.267,13.698s-14.54-6.101-15.132-13.698c-.429-5.513,3.177-12.799,2.878-16.782l-.709-9.103h-13.87l.764,9.045h4.991c-.225.668-.533,1.438-.946,2.346-1.908,4.197-4.758,8.5-4.693,14.667.147,13.98,13.216,25.016,27.499,25.016s25.305-11.168,24.606-25.189h-12.122Z"/><path class="uuid-cc631e34-8936-4c92-99e7-2d0c3b97463f" d="m476.181,211.383c-.083-1.255-1.211-2.275-2.519-2.275s-2.297,1.019-2.209,2.275,1.215,2.268,2.519,2.268,2.293-1.014,2.21-2.268Z"/><path class="uuid-cc631e34-8936-4c92-99e7-2d0c3b97463f" d="m463.709,207.297c-.085-1.139-1.114-2.063-2.296-2.063s-2.07.925-1.981,2.063,1.116,2.058,2.296,2.058,2.067-.92,1.981-2.058Z"/><path class="uuid-cc631e34-8936-4c92-99e7-2d0c3b97463f" d="m455.584,196.77c-.084-1.055-1.035-1.911-2.122-1.911s-1.898.856-1.811,1.911,1.037,1.906,2.122,1.906,1.896-.853,1.812-1.906Z"/><path class="uuid-cc631e34-8936-4c92-99e7-2d0c3b97463f" d="m454.525,185.8c-.063-.782-.762-1.416-1.561-1.416s-1.396.634-1.331,1.416.763,1.413,1.561,1.413,1.394-.632,1.332-1.413Z"/></g></g><g id="uuid-03d436c2-21b4-4ba0-9f30-a959dade2beb"><g class="uuid-ae787dca-520a-4700-9062-120201c73497"><path class="uuid-103b8067-0831-4d7b-a679-7ecec05ad84d" d="m458.37,191.679c.591,7.598,7.363,13.698,15.131,13.698s13.71-6.101,13.268-13.698c-.321-5.513-4.918-12.799-5.161-16.782l-.53-9.103h13.87l.467,9.045h-4.991c.316.668.729,1.438,1.265,2.346,2.479,4.197,5.914,8.5,6.688,14.667,1.755,13.98-9.811,25.016-24.095,25.016s-26.825-11.168-28.034-25.189h12.122Z"/><path class="uuid-cc631e34-8936-4c92-99e7-2d0c3b97463f" d="m471.529,211.383c-.087-1.255.902-2.275,2.209-2.275s2.436,1.019,2.519,2.275c.083,1.253-.906,2.268-2.21,2.268s-2.431-1.014-2.518-2.268Z"/><path class="uuid-cc631e34-8936-4c92-99e7-2d0c3b97463f" d="m483.444,207.297c-.07-1.139.833-2.063,2.016-2.063s2.196.925,2.262,2.063-.837,2.058-2.016,2.058-2.192-.92-2.261-2.058Z"/><path class="uuid-cc631e34-8936-4c92-99e7-2d0c3b97463f" d="m490.137,196.77c-.059-1.055.775-1.911,1.862-1.911s2.015.856,2.071,1.911-.778,1.906-1.862,1.906-2.012-.853-2.071-1.906Z"/><path class="uuid-cc631e34-8936-4c92-99e7-2d0c3b97463f" d="m489.703,185.8c-.044-.782.569-1.416,1.369-1.416s1.482.634,1.524,1.416c.042.781-.571,1.413-1.369,1.413s-1.48-.632-1.524-1.413Z"/></g></g><path class="uuid-8c2996c2-3807-4284-bbdd-60cc9be7504e" d="m464.065,250.266c-.768.654-1.517,1.345-2.246,2.073-12.764,12.764-14.171,32.053-3.141,43.083,11.03,11.03,30.319,9.623,43.083-3.141.583-.583,1.142-1.18,1.678-1.788"/><ellipse class="uuid-27fddcb5-bc61-4ecd-90b1-b4040aca3b23" cx="483.515" cy="270.572" rx="14.685" ry="28.135" transform="translate(-49.705 421.145) rotate(-45)"/><ellipse class="uuid-aa5a8bab-2099-4160-876c-8a84c8ed30bf" cx="483.754" cy="270.332" rx="11.279" ry="23.786" transform="translate(-49.466 421.244) rotate(-45)"/><ellipse class="uuid-cc631e34-8936-4c92-99e7-2d0c3b97463f" cx="478.967" cy="265.082" rx=".935" ry="2.049" transform="translate(-47.155 416.321) rotate(-45)"/><ellipse class="uuid-cc631e34-8936-4c92-99e7-2d0c3b97463f" cx="474.179" cy="260.295" rx=".935" ry="2.049" transform="translate(-45.172 411.534) rotate(-45)"/><ellipse class="uuid-cc631e34-8936-4c92-99e7-2d0c3b97463f" cx="483.754" cy="269.869" rx=".935" ry="2.049" transform="translate(-49.138 421.108) rotate(-45)"/><ellipse class="uuid-cc631e34-8936-4c92-99e7-2d0c3b97463f" cx="488.541" cy="274.656" rx=".935" ry="2.049" transform="translate(-51.121 425.896) rotate(-45)"/><ellipse class="uuid-cc631e34-8936-4c92-99e7-2d0c3b97463f" cx="483.754" cy="265.082" rx=".935" ry="2.049" transform="translate(-45.753 419.706) rotate(-45)"/><ellipse class="uuid-cc631e34-8936-4c92-99e7-2d0c3b97463f" cx="478.967" cy="260.295" rx=".935" ry="2.049" transform="translate(-43.77 414.919) rotate(-45)"/><ellipse class="uuid-cc631e34-8936-4c92-99e7-2d0c3b97463f" cx="488.541" cy="269.869" rx=".935" ry="2.049" transform="translate(-47.736 424.493) rotate(-45)"/><ellipse class="uuid-cc631e34-8936-4c92-99e7-2d0c3b97463f" cx="493.328" cy="274.656" rx=".935" ry="2.049" transform="translate(-49.719 429.281) rotate(-45)"/><ellipse class="uuid-cc631e34-8936-4c92-99e7-2d0c3b97463f" cx="478.967" cy="269.869" rx=".935" ry="2.049" transform="translate(-50.54 417.723) rotate(-45)"/><ellipse class="uuid-cc631e34-8936-4c92-99e7-2d0c3b97463f" cx="474.179" cy="265.082" rx=".935" ry="2.049" transform="translate(-48.557 412.936) rotate(-45)"/><ellipse class="uuid-cc631e34-8936-4c92-99e7-2d0c3b97463f" cx="483.754" cy="274.656" rx=".935" ry="2.049" transform="translate(-52.523 422.511) rotate(-45)"/><ellipse class="uuid-cc631e34-8936-4c92-99e7-2d0c3b97463f" cx="488.541" cy="279.444" rx=".935" ry="2.049" transform="translate(-54.506 427.298) rotate(-45)"/><ellipse class="uuid-cc631e34-8936-4c92-99e7-2d0c3b97463f" cx="483.754" cy="260.295" rx=".935" ry="2.049" transform="translate(-42.368 418.304) rotate(-45)"/><ellipse class="uuid-cc631e34-8936-4c92-99e7-2d0c3b97463f" cx="488.541" cy="265.082" rx=".935" ry="2.049" transform="translate(-44.351 423.091) rotate(-45)"/><ellipse class="uuid-cc631e34-8936-4c92-99e7-2d0c3b97463f" cx="493.328" cy="269.869" rx=".935" ry="2.049" transform="translate(-46.334 427.879) rotate(-45)"/><ellipse class="uuid-cc631e34-8936-4c92-99e7-2d0c3b97463f" cx="474.179" cy="269.869" rx=".935" ry="2.049" transform="translate(-51.942 414.338) rotate(-45)"/><ellipse class="uuid-cc631e34-8936-4c92-99e7-2d0c3b97463f" cx="478.967" cy="274.656" rx=".935" ry="2.049" transform="translate(-53.925 419.125) rotate(-45)"/><ellipse class="uuid-cc631e34-8936-4c92-99e7-2d0c3b97463f" cx="483.754" cy="279.444" rx=".935" ry="2.049" transform="translate(-55.908 423.913) rotate(-45)"/><ellipse class="uuid-cc631e34-8936-4c92-99e7-2d0c3b97463f" cx="493.328" cy="279.444" rx=".935" ry="2.049" transform="translate(-53.104 430.683) rotate(-45)"/></g><path class="uuid-eecd6d9b-c15b-457d-a12c-4e92032ae6d6" d="m738.25,161.637h-326.5c-4.299,0-7.437,3.6-6.976,7.978l13.865,131.767c.387,3.675,3.902,6.668,7.813,6.668h297.095c3.911,0,7.427-2.993,7.813-6.668l13.865-131.767c.46-4.378-2.678-7.978-6.977-7.978Zm-225.539,127.627h-64.887c-5.811,0-11.007-4.477-11.552-9.989l-9.659-97.716c-.628-6.358,4.014-11.599,10.322-11.599h70.443c6.308,0,11.663,5.242,11.899,11.599l3.627,97.716c.205,5.512-4.383,9.989-10.193,9.989Zm105.605-9.989c-.17,5.512-5.062,9.989-10.873,9.989h-64.887c-5.81,0-10.702-4.477-10.873-9.989l-3.016-97.716c-.196-6.358,4.803-11.599,11.11-11.599h70.443c6.308,0,11.307,5.242,11.111,11.599l-3.016,97.716Zm105.071-97.716l-9.659,97.716c-.544,5.512-5.741,9.989-11.551,9.989h-64.887c-5.811,0-10.398-4.477-10.193-9.989l3.627-97.716c.236-6.358,5.591-11.599,11.899-11.599h70.442c6.308,0,10.951,5.242,10.322,11.599Z"/><path class="uuid-c2ff9e65-2722-4249-ac9f-d4fe313624cb" d="m752.775,297.632l-1.228,10.287c-1.298,10.876-11.821,19.656-23.402,19.656h-306.29c-11.581,0-22.105-8.78-23.402-19.656l-8.741-73.246"/><path class="uuid-c2ff9e65-2722-4249-ac9f-d4fe313624cb" d="m383.941,186.319l-2.927-24.526c-1.591-13.336,7.797-24.411,20.887-24.411h346.196c13.09,0,22.479,11.075,20.887,24.411l-14.358,120.317"/><line class="uuid-c2ff9e65-2722-4249-ac9f-d4fe313624cb" x1="387.875" y1="219.282" x2="384.847" y2="193.909"/><path class="uuid-607dcf79-3b55-466b-88ef-d7c0d72f2c39" d="m723.547,308.049h-297.095c-3.912,0-7.427-2.993-7.813-6.668l-13.865-131.767c-.461-4.378,2.678-7.978,6.976-7.978h326.5c4.299,0,7.437,3.6,6.976,7.978l-13.865,131.767c-.387,3.675-3.902,6.668-7.813,6.668Z"/><path class="uuid-607dcf79-3b55-466b-88ef-d7c0d72f2c39" d="m512.711,289.264h-64.887c-5.81,0-11.007-4.477-11.551-9.989l-9.659-97.716c-.628-6.357,4.014-11.599,10.322-11.599h70.443c6.308,0,11.663,5.242,11.899,11.599l3.627,97.716c.205,5.512-4.383,9.989-10.193,9.989Z"/><path class="uuid-607dcf79-3b55-466b-88ef-d7c0d72f2c39" d="m607.444,289.264h-64.887c-5.81,0-10.702-4.477-10.872-9.989l-3.016-97.716c-.196-6.357,4.803-11.599,11.111-11.599h70.443c6.308,0,11.307,5.242,11.111,11.599l-3.016,97.716c-.17,5.512-5.062,9.989-10.872,9.989Z"/><path class="uuid-607dcf79-3b55-466b-88ef-d7c0d72f2c39" d="m702.176,289.264h-64.887c-5.81,0-10.398-4.477-10.193-9.989l3.627-97.716c.236-6.357,5.591-11.599,11.899-11.599h70.443c6.308,0,10.95,5.242,10.322,11.599l-9.659,97.716c-.545,5.512-5.741,9.989-11.551,9.989Z"/><path class="uuid-103b8067-0831-4d7b-a679-7ecec05ad84d" d="m547.155,206.347l.503,25.52,11.503.192s-1.158-11.654,6.551-11.654,5.914,6.003,23.055,1.672c0,0-1.205,1.637-3.93,3.998-2.717,2.353-6.939,5.42-10.938,9.681-9.065,9.661-10.366,19.939-10.318,25.339h24.907l.078-9.023s-.026-8.232,7.1-16.644c5.957-7.031,9.826-14.466,10.117-28.997h-11.788s.297,3.745-.643,6.118c0,0-8.159-7.826-18.012-7.826s-16.204,5.679-16.204,5.679l.126-3.914s-12.222-.256-12.105-.142Z"/><path class="uuid-cc631e34-8936-4c92-99e7-2d0c3b97463f" d="m385.557,142.963c12.887-13.837,36.751-39.581,49.381-53.15,3.34-2.994,8.049-4.049,12.334-4.051,0,0,84.98.373,84.98.373.345.001.624.283.622.628-.001.343-.28.621-.622.622l-84.98.373c-3.897.033-7.909.957-10.838,3.486-12.438,13.547-36.382,39.629-49.041,53.416-1.07,1.158-2.975-.429-1.836-1.696h0Z"/><path class="uuid-cc631e34-8936-4c92-99e7-2d0c3b97463f" d="m762.505,144.659c-5.702-6.217-43.72-47.45-48.449-52.603-.711-.859-1.646-1.579-2.652-2.111-4.19-2.419-9.442-2.053-14.158-2.07-19.597-.063-128.659-.42-150.599-.491-.345,0-.625-.282-.623-.627,0-.344.28-.622.623-.623,28.452.01,131.72-.632,158.229-.404,3.628.335,7.443,1.497,10.206,4.043.453.469,2.706,2.936,3.199,3.454,2.217,2.348,42.813,46.261,46.061,49.735,1.037,1.164-.618,2.926-1.837,1.696h0Z"/><line class="uuid-bc249a3f-1312-4817-af9e-e4b39d57e240" x1="535.835" y1="183.491" x2="537.668" y2="247.367"/><line class="uuid-301a0a3f-5a4d-414a-8b11-68c0bed3aa9f" x1="541.523" y1="225.584" x2="542.591" y2="273.598"/><line class="uuid-bc249a3f-1312-4817-af9e-e4b39d57e240" x1="716.905" y1="183.323" x2="711.23" y2="246.973"/><line class="uuid-7266d75f-2c9a-478e-b3bd-92c3ba870410" x1="709.146" y1="209.15" x2="705.19" y2="257.012"/><line class="uuid-4755a0ac-d4fb-4b23-aa73-188a37f78f94" x1="609.588" y1="255.198" x2="608.909" y2="280.327"/><line class="uuid-bc249a3f-1312-4817-af9e-e4b39d57e240" x1="438.093" y1="212.409" x2="440.81" y2="238.897"/><line class="uuid-301a0a3f-5a4d-414a-8b11-68c0bed3aa9f" x1="443.692" y1="227.351" x2="445.399" y2="243.991"/><line class="uuid-bc249a3f-1312-4817-af9e-e4b39d57e240" x1="511.629" y1="218.492" x2="513.706" y2="268.924"/><path class="uuid-60aecd8c-0214-4941-b2c4-d42c6344c4ce" d="m812.194,211.525c-13.428-5.145-22.961-18.156-22.961-33.394,0-8.723,2.96-15.89,8.15-22.096"/><path class="uuid-63a61d0c-c08e-4a3c-a547-63f64bc51925" d="m833.172,261.343c1.174,3.577,2.269,7.758,3.208,11.74"/><path class="uuid-63a61d0c-c08e-4a3c-a547-63f64bc51925" d="m805.533,143.698s3.17,10.867,3.17,14.037-3.622,16.753-3.17,25.356c.453,8.603,14.489,52.977,14.489,52.977,0,0,.872,2.093,2.272,4.978,1.79,3.688,4.442,8.671,7.236,12.228"/><path class="uuid-607dcf79-3b55-466b-88ef-d7c0d72f2c39" d="m808.703,157.734c-11.773,2.264-14.942-6.339-14.037-9.509s2.717-19.923,6.339-22.187c3.622-2.264,18.564-5.886,18.564-5.886,0,0,6.792,0,11.32,4.528s7.245,12.678,7.245,14.942,1.358,9.509,2.264,12.225c.906,2.717,7.697,12.225,8.15,15.848"/><path class="uuid-607dcf79-3b55-466b-88ef-d7c0d72f2c39" d="m830.89,124.68s10.414-2.717,14.942,0c4.528,2.717,32.601,9.961,37.582,12.225s8.751,4.969,8.603,13.131c-.057,3.113-.396,5.32-.396,5.32"/><path class="uuid-607dcf79-3b55-466b-88ef-d7c0d72f2c39" d="m892.469,146.414s7.245.906,9.056,7.245c1.811,6.339-5.886,48.901-7.697,58.41s-.906,29.884-.906,29.884c0,0,2.173,7.791,5.793,20.271"/><path class="uuid-607dcf79-3b55-466b-88ef-d7c0d72f2c39" d="m852.284,155.131c2.717,3.396-4.302,9.961-4.302,9.961"/><path class="uuid-607dcf79-3b55-466b-88ef-d7c0d72f2c39" d="m795.685,141.886s-12.339,10.414-11.433,15.848c.906,5.433,2.717,9.509,5.433,11.32"/><path class="uuid-607dcf79-3b55-466b-88ef-d7c0d72f2c39" d="m803.27,207.088s.906,8.15,4.528,10.414c3.622,2.264,6.226,2.038,6.226,2.038"/><path class="uuid-60aecd8c-0214-4941-b2c4-d42c6344c4ce" d="m839.475,145.443c5.027,2.232,9.443,5.59,12.929,9.753"/><path class="uuid-607dcf79-3b55-466b-88ef-d7c0d72f2c39" d="m421.622,390.853l4.371-32.965c.681-5.135,6.633-9.302,13.233-9.302h66.332c6.6,0,11.789,4.166,11.528,9.302l-1.804,35.547"/><path class="uuid-607dcf79-3b55-466b-88ef-d7c0d72f2c39" d="m526.387,403.6l1.657-45.713c.21-5.135,5.781-9.302,12.381-9.302h66.332c6.6,0,12.17,4.166,12.381,9.302l1.997,42.656"/><path class="uuid-607dcf79-3b55-466b-88ef-d7c0d72f2c39" d="m631.28,381.206l-1.184-23.319c-.261-5.135,4.928-9.302,11.528-9.302h66.332c6.6,0,12.552,4.166,13.233,9.302l4.12,31.076"/><line class="uuid-607dcf79-3b55-466b-88ef-d7c0d72f2c39" x1="632.341" y1="404.279" x2="631.691" y2="389.301"/><path class="uuid-63a61d0c-c08e-4a3c-a547-63f64bc51925" d="m947.192,351.803c8.403,17.197,15.234,30.742,15.234,30.742"/><path class="uuid-607dcf79-3b55-466b-88ef-d7c0d72f2c39" d="m825.84,327.861c-2.369-7.43-4.006-13.235-4.006-13.235.981-24.346,8.532-32.648,8.15-31.922,25.809-38.034,73.352-19.017,73.352-19.017,0,0,8.15,2.717,13.584,21.055,2.546,8.591,12.694,30.6,22.763,51.568"/><path class="uuid-63a61d0c-c08e-4a3c-a547-63f64bc51925" d="m836.323,368.735c-.906-11.773-3.727-21.623-5.14-25.357"/><path class="uuid-63a61d0c-c08e-4a3c-a547-63f64bc51925" d="m897.903,268.668s7.245,16.753,10.867,26.715"/><path class="uuid-63a61d0c-c08e-4a3c-a547-63f64bc51925" d="m890.658,266.857s7.245,16.753,10.867,26.715"/><line class="uuid-607dcf79-3b55-466b-88ef-d7c0d72f2c39" x1="498.931" y1="122.303" x2="651.069" y2="122.303"/><ellipse class="uuid-a445e995-e0bc-4047-a1df-2d200ddec405" cx="374.929" cy="90.834" rx="19.859" ry="14.303" transform="translate(170.717 418.126) rotate(-71.657)"/><path class="uuid-a445e995-e0bc-4047-a1df-2d200ddec405" d="m373.778,71.322c1.013,0,2.006.159,2.952.472,1.965.651,3.997,1.325,6.091,2.3,4.125,1.919,3.131,11.459.462,19.51-2.545,7.676-7.114,15.42-11.583,15.42-.288,0-.579-.033-.865-.098-1.827-.418-4.144-1.186-5.836-1.747-3.244-1.076-5.727-3.885-6.99-7.911-1.308-4.168-1.153-9.104.437-13.898,2.699-8.139,9.147-14.047,15.333-14.047m0-1.219c-6.628,0-13.54,5.985-16.49,14.883-3.452,10.41-.171,20.865,7.327,23.351,1.747.579,4.064,1.348,5.948,1.778.382.087.761.129,1.137.129,5.445,0,10.264-8.787,12.741-16.256,2.527-7.623,4.197-18.533-1.105-21-2.157-1.004-4.214-1.686-6.222-2.351-1.09-.361-2.209-.534-3.336-.534h0Z"/><path class="uuid-0d31b6ef-f728-404c-9569-2ffaf5f83894" d="m378.761,81.029c.639.212,1.201.508,1.685.887.316.247.605.505.866.773.224.229.215.697-.018,1.03l-.674.961c-.219.312-.559.394-.768.179-.199-.206-.41-.401-.631-.587-.36-.301-.746-.521-1.16-.658-.485-.161-.944-.103-1.377.172-.433.276-.796.857-1.09,1.744l-.673,2.031c-.129.389-.006.779.274.872l2.375.788c.28.093.402.483.274.872l-.277.834c-.129.389-.46.629-.74.536l-2.375-.788c-.28-.093-.611.147-.74.536l-.445,1.341c-.305.92-.621,1.664-1.019,2.098-.293.318-.56.596-.944.724l5.6,1.857c.28.093.402.483.274.872l-.424,1.278c-.129.389-.46.629-.74.536l-8.019-2.659c-.28-.093-.402-.483-.274-.872l.446-1.344c.092-.276.285-.505.504-.563.445-.119.846-.32,1.202-.604.445-.354.834-1.031,1.166-2.034l.453-1.366c.129-.389.006-.779-.274-.872l-.583-.193c-.28-.093-.402-.483-.274-.872l.277-.834c.129-.389.46-.629.74-.536l.583.193c.28.093.611-.147.74-.536l.706-2.129c.376-1.133.846-2.007,1.411-2.622.565-.615,1.186-1.002,1.862-1.16.676-.159,1.369-.12,2.079.115Z"/><path class="uuid-ae09a436-84c4-4236-9341-bf16c94c60e9" d="m386.43,94.648c2.924-8.82.145-17.676-6.207-19.782s-13.872,3.336-16.796,12.156c-2.924,8.82-.145,17.676,6.208,19.782,6.352,2.106,13.872-3.336,16.796-12.156Z"/><path class="uuid-be7ae7b1-ab7b-4ceb-b22c-f9ae2b0024d7" d="m424.283,308.514l9.509-15.848s-4.075-.453-4.075-9.056-10.867-106.406-10.867-106.406c0,0-2.016-10.882,6.905-11.32,27.506-1.351,318.312,0,318.312,0l-.113-1.811-4.981-1.811-327.223-.625s-6.562-.065-6.976,7.978c-.414,8.042,13.865,131.767,13.865,131.767l5.644,7.133Z"/><path class="uuid-be7ae7b1-ab7b-4ceb-b22c-f9ae2b0024d7" d="m810.967,122.869s-1.358,6.339.453,10.414c1.811,4.075,11.32,42.11,13.131,48.449,1.811,6.339-2.717,19.017-1.358,26.715,1.358,7.697,12.225,33.054,15.395,39.393,3.17,6.339,5.886,19.47,5.886,19.47l-7.528,5.886s-3.226-15.112-9.905-23.092c-1.985-2.371-3.468-7.543-5.543-13.063-.876-2.329-1.768-4.782-2.647-7.249-4.338-12.184-8.337-24.741-8.337-24.741,0,0-7.471-27.167-4.981-31.469,2.49-4.302,2.717-13.584,2.717-13.584,0,0,.453-1.811-2.264-2.038s-11.32-1.358-11.32-9.735,3.396-19.923,7.924-22.866c4.528-2.943,8.377-2.49,8.377-2.49Z"/><path class="uuid-be7ae7b1-ab7b-4ceb-b22c-f9ae2b0024d7" d="m837.795,136.34c1.358.34,22.413,9.169,25.13,14.942s-11.546,24.451-11.546,24.451l-4.075-11.659s5.547-2.717,5.207-6.452c-.34-3.736-5.547-8.15-5.547-8.15l-8.263-3.736-.906-9.395Z"/><path class="uuid-7266d75f-2c9a-478e-b3bd-92c3ba870410" d="m853.19,155.47s2.604-3.17,5.66-3.509"/><path class="uuid-be7ae7b1-ab7b-4ceb-b22c-f9ae2b0024d7" d="m789.742,170.639c-7.301,3.905-3.396,12.565-9.848,16.98-6.908,4.727-14.433,6.113-14.433,6.113l-1.673,16.098,34.908-7.15s-6.102-9.017-8.331-17.324c-1.337-4.984.898-15.529-.623-14.716Z"/><path class="uuid-a445e995-e0bc-4047-a1df-2d200ddec405" d="m1003.244,282.545c-.934-.005-.934-.008-1.869-.013s-.933-.118-1.867-.123-.935.13-1.869.125-.934-.066-1.868-.071-.934-.209-1.869-.214-.934-.092-1.868-.097-.933.154-1.866.149-.933.281-1.865.276-.931-.264-1.863-.27c-.933-.005-.932-.076-1.865-.081s-.934-.053-1.868-.058-.936.179-1.871.174-.933-.132-1.867-.137-.935.363-1.868.357-.933-.068-1.867-.073-.935.034-1.871.028-.935.005-1.87,0-.932-.331-1.867-.336-.936.143-1.87.138-.936-.054-1.871-.059-.935.031-1.87.026-.935-.163-1.871-.168-.937.343-1.873.338-.936-.05-1.872-.055-.935-.06-1.871-.065-.932-.238-1.866-.243-.936-.031-1.873-.036-.937.284-1.872.278-.937.053-1.873.048-.935-.39-1.872-.395-.938.361-1.874.356-.938-.102-1.876-.107-.939-.132-1.879-.137-.939-.114-1.879-.12c-.648-.004-1.298.143-1.91.018-.63-.128-1.21-.427-1.789-.671-.589-.248-1.121-.583-1.644-.938-.527-.357-.927-.834-1.373-1.285s-.953-.834-1.304-1.365c-.348-.527-.641-1.086-.882-1.678-.238-.582-.285-1.211-.406-1.843-.118-.613-.399-1.215-.395-1.863.005-.959.067-.959.072-1.918s.027-.959.032-1.917.07-.958.075-1.917c.005-.959-.116-.96-.111-1.919.005-.96-.17-.961-.164-1.921s.132-.958.137-1.918c.005-.959-.028-.959-.023-1.918s.352-.955.357-1.911-.476-.959-.471-1.916.019-.957.024-1.915.47-.956.475-1.915-.112-.961-.107-1.92-.071-.959-.065-1.917c.005-.958-.211-.959-.206-1.917s.407-.956.412-1.914-.23-.961-.224-1.921-.189-.961-.184-1.92.083-.958.088-1.917-.09-.96-.085-1.92.143-.96.148-1.92.218-.958.223-1.918-.022-.961-.017-1.921c.005-.96-.177-.961-.172-1.921s.102-.961.107-1.922.072-.96.077-1.921-.029-.961-.024-1.922.09-.96.096-1.921-.101-.96-.096-1.919.104-.96.11-1.921-.146-.963-.141-1.924.136-.961.142-1.923.071-.962.076-1.924c.005-.964-.298-.965-.293-1.929s.298-.962.303-1.926c.004-.693-.089-1.373.086-2.011.18-.66.274-1.395.612-1.972.343-.585.951-1.013,1.43-1.487s.998-.931,1.587-1.267c.581-.332,1.222-.604,1.884-.777.64-.167,1.331-.413,2.024-.409.936.005.934.357,1.87.362.936.005.936-.104,1.872-.099s.936-.178,1.872-.173.934.312,1.869.317.935.068,1.871.073.938-.316,1.875-.311.934.237,1.87.242.933.098,1.867.103.935-.288,1.868-.283.934-.084,1.867-.079.932.333,1.866.338c.935.005.936-.138,1.872-.132s.937-.13,1.874-.125.935.026,1.87.031.934.061,1.869.067.934.255,1.869.26.937-.035,1.873-.03.938-.325,1.874-.32.933.396,1.869.401.937-.223,1.873-.218.936.234,1.873.239.939-.468,1.875-.462.935.496,1.872.502c.937.005.939-.429,1.876-.424s.937.099,1.875.105.936.264,1.873.269c.935.005.935-.059,1.87-.054s.938-.065,1.876-.06c.936.005.936.023,1.872.028s.937.045,1.875.05.938.085,1.877.09.938-.096,1.875-.091.94-.111,1.88-.106c.941.005.942-.105,1.883-.1.941.005.94.109,1.881.114.648.004,1.257.245,1.868.369.63.128,1.223.295,1.802.538.589.248,1.319.266,1.842.621.527.357.821,1.022,1.267,1.473s1.045.794,1.396,1.325c.348.527.521,1.174.762,1.766.238.582.423,1.193.545,1.824.118.613.368,1.249.364,1.897-.005.958.004.958-.002,1.916s-.15.957-.155,1.915-.011.958-.016,1.917c-.005.959.109.96.104,1.919-.005.958-.06.958-.065,1.917s-.284.957-.289,1.915.401.958.396,1.914-.076.956-.081,1.912-.402.955-.408,1.911.062.959.057,1.917.362.961.356,1.92-.031.958-.036,1.915c-.005.957-.222.956-.227,1.913s.037.958.031,1.916.129.96.124,1.919c-.005.959-.072.959-.077,1.918s-.135.957-.14,1.916c-.005.959-.064.959-.07,1.917-.005.96.18.961.175,1.921s-.308.957-.313,1.916.091.961.086,1.921.287.961.281,1.921-.037.96-.042,1.921.024.96.019,1.92-.053.96-.059,1.92-.165.959-.17,1.92.003.959-.002,1.917-.024.96-.029,1.92-.089.961-.094,1.922.369.963.364,1.924-.443.959-.449,1.92-.017.963-.023,1.926.196.964.19,1.927c-.004.648-.238,1.243-.363,1.854-.128.63-.311,1.201-.555,1.78-.248.589-.462,1.165-.816,1.688-.357.527-.618,1.135-1.069,1.581s-.901.944-1.432,1.295c-.527.348-1.278.281-1.869.523-.582.238-1.111.603-1.743.724-.613.118-1.242.291-1.889.287Z"/><path class="uuid-cc631e34-8936-4c92-99e7-2d0c3b97463f" d="m942.011,258.109c.003-.443.361-.797.804-.794l1.332.007c1.764.01,3.187,1.449,3.177,3.212.01-1.764,1.448-3.187,3.212-3.178l1.332.007c.442.002.797.36.794.803v.266c-.008,1.155-.627,2.163-1.548,2.721,2.674.431,4.711,2.755,4.695,5.55-.024,4.533-6.672,7.105-8.048,7.59-.168.059-.337.085-.514.084s-.346-.029-.512-.089c-1.372-.5-7.99-3.146-7.966-7.678.016-2.795,2.078-5.097,4.756-5.499-.915-.567-1.522-1.583-1.516-2.737v-.266Zm-1.644,8.511c-.008,1.444,1.063,2.821,2.784,4.039,1.63,1.154,3.446,1.879,4.104,2.12.66-.233,2.484-.939,4.128-2.074,1.734-1.199,2.819-2.564,2.827-4.008.013-2.207-1.765-4.003-3.971-4.016-.437-.002-.856.065-1.246.189-.134.046-.271.082-.406.115.691.799,1.161,1.796,1.312,2.893.061.436-.304.793-.747.791-.442-.002-.79-.363-.873-.796-.356-1.83-1.963-3.213-3.896-3.223-2.206-.012-4.003,1.765-4.016,3.972Z"/><path class="uuid-cc631e34-8936-4c92-99e7-2d0c3b97463f" d="m939.6,226.036l.041-7.453c0-.1.067-.167.168-.166l3.971.021c.101,0,.166.068.166.168l-.007,1.224c0,.1-.067.167-.168.166l-2.38-.013-.008,1.469,2.235.012c.101,0,.166.067.166.167l-.007,1.224c0,.1-.067.167-.168.166l-2.235-.012-.017,3.037c0,.1-.068.167-.168.166l-1.424-.008c-.101,0-.167-.068-.166-.168Z"/><path class="uuid-cc631e34-8936-4c92-99e7-2d0c3b97463f" d="m951.788,226.269l-1.524-.008c-.089,0-.155-.034-.199-.113l-1.576-2.578-.4-.002-.014,2.514c0,.1-.068.167-.168.166l-1.424-.008c-.101,0-.167-.068-.166-.168l.041-7.453c0-.1.067-.167.168-.166l2.392.013c1.88.01,2.764,1.061,2.755,2.574-.006,1.101-.489,1.955-1.481,2.328l1.71,2.701c.077.123.021.2-.112.2Zm-3.691-4.259l.756.004c.59.003,1.136-.183,1.14-.984.005-.812-.539-1.004-1.129-1.007l-.756-.004-.011,1.991Z"/><path class="uuid-cc631e34-8936-4c92-99e7-2d0c3b97463f" d="m954.167,226.115l.041-7.453c0-.1.067-.167.168-.166l4.016.022c.1,0,.166.068.166.168l-.007,1.224c0,.1-.068.166-.168.166l-2.426-.013-.009,1.524,2.281.013c.1,0,.166.067.165.167l-.006,1.224c0,.1-.067.167-.167.167l-2.281-.013-.009,1.591,2.414.013c.101,0,.178.067.178.167l-.007,1.224c0,.1-.079.167-.18.166l-4.004-.022c-.101,0-.167-.068-.166-.168Z"/><path class="uuid-cc631e34-8936-4c92-99e7-2d0c3b97463f" d="m960.972,226.153l.041-7.453c0-.1.067-.167.168-.167l4.016.022c.1,0,.166.068.166.168l-.007,1.224c0,.1-.068.167-.168.166l-2.426-.013-.009,1.524,2.281.013c.1,0,.166.067.165.167l-.006,1.224c0,.1-.067.167-.167.166l-2.281-.013-.009,1.591,2.414.013c.101,0,.178.067.178.167l-.007,1.224c0,.1-.079.167-.18.166l-4.004-.022c-.101,0-.167-.067-.166-.167Z"/><path class="uuid-cc631e34-8936-4c92-99e7-2d0c3b97463f" d="m939.309,238.445c-.055-.067-.055-.156.013-.234l.772-.864c.056-.066.145-.099.245-.021.509.503.931.75,1.52.753.567.003.969-.217.971-.707.003-.456-.329-.603-.818-.828l-.942-.45c-.821-.372-1.597-.965-1.59-2.178.008-1.458,1.113-2.241,2.47-2.233.924.005,1.689.376,2.331,1.047.066.067.077.167.01.245l-.739.886c-.056.078-.155.11-.233.054-.499-.425-.865-.616-1.321-.619-.512-.002-.812.251-.814.652-.003.423.309.558.874.828l.787.36c.821.394,1.709.91,1.701,2.245-.009,1.624-1.348,2.317-2.66,2.311-1.235-.007-2.11-.624-2.574-1.249Z"/><path class="uuid-cc631e34-8936-4c92-99e7-2d0c3b97463f" d="m946.844,239.42l.041-7.453c0-.1.067-.167.168-.166l2.392.013c1.88.01,2.764,1.061,2.756,2.574-.009,1.513-.904,2.542-2.784,2.532l-.802-.004-.014,2.514c0,.1-.067.167-.167.166l-1.424-.008c-.101,0-.166-.068-.166-.168Zm2.536-4.058c.59.003,1.136-.183,1.141-.983.004-.812-.54-1.004-1.13-1.007l-.757-.004-.011,1.991.757.004Z"/><path class="uuid-cc631e34-8936-4c92-99e7-2d0c3b97463f" d="m954.416,239.461l.041-7.453c0-.1.067-.167.168-.166l1.424.008c.1,0,.165.068.165.168l-.041,7.453c0,.1-.067.167-.167.166l-1.424-.008c-.101,0-.166-.068-.166-.168Z"/><path class="uuid-cc631e34-8936-4c92-99e7-2d0c3b97463f" d="m965.156,232.067l-.041,7.453c0,.1-.067.167-.168.166l-1.657-.009c-.089,0-.155-.034-.199-.112l-2.554-4.831-.026,4.761c0,.1-.068.167-.168.166l-1.424-.008c-.101,0-.166-.068-.166-.167l.041-7.453c0-.1.067-.167.168-.166l1.657.009c.089,0,.155.034.199.112l2.555,4.831.026-4.761c0-.1.067-.167.167-.166l1.424.008c.101,0,.166.068.166.168Z"/><path class="uuid-cc631e34-8936-4c92-99e7-2d0c3b97463f" d="m967.476,238.599c-.055-.067-.055-.156.013-.234l.772-.863c.056-.066.145-.099.245-.021.509.503.931.75,1.52.753.567.003.969-.217.971-.707.003-.456-.329-.603-.817-.828l-.943-.45c-.821-.372-1.597-.965-1.59-2.178.008-1.458,1.113-2.241,2.47-2.234.924.005,1.689.376,2.331,1.047.066.067.077.167.01.245l-.739.885c-.056.078-.155.111-.233.055-.499-.426-.865-.617-1.321-.619-.512-.003-.812.251-.814.652-.003.423.309.558.874.828l.787.36c.821.394,1.709.91,1.701,2.245-.009,1.624-1.348,2.317-2.66,2.31-1.235-.007-2.11-.624-2.574-1.249Z"/><line class="uuid-f9e95102-63a2-4ede-a8ac-4408a2882612" x1="940.169" y1="209.481" x2="967.38" y2="209.63"/><path class="uuid-a445e995-e0bc-4047-a1df-2d200ddec405" d="m319.711,245.601c-1.41-.008-1.41.023-2.821.015s-1.408-.456-2.818-.463-1.412.154-2.822.146-1.41-.351-2.822-.359c-1.411-.008-1.414.509-2.825.501-1.411-.008-1.411-.017-2.821-.025s-1.41-.282-2.821-.29-1.412.03-2.823.023-1.41-.143-2.821-.151-1.411-.108-2.822-.116-1.412.058-2.824.05-1.412.129-2.823.121c-1.412-.008-1.414.353-2.826.346s-1.409-.388-2.821-.395c-1.411-.008-1.412.09-2.822.083s-1.409-.248-2.82-.256-1.412.454-2.821.446-1.41-.053-2.821-.061c-1.412-.008-1.412.016-2.824.009s-1.41-.159-2.82-.167-1.41-.461-2.822-.469-1.415.698-2.827.691c-1.413-.008-1.411-.296-2.824-.304-1.412-.008-1.41-.354-2.822-.361s-1.415.45-2.828.443c-1.413-.008-1.414.07-2.827.062-1.413-.008-1.41-.576-2.823-.584-1.411-.008-1.413.264-2.824.256s-1.414.08-2.827.072c-1.413-.008-1.411-.378-2.825-.386s-1.417.63-2.831.622-1.416-.011-2.832-.019-1.415-.244-2.831-.252c-.99-.005-2.027.174-2.962-.016-.963-.196-1.683-1.162-2.568-1.535-.901-.379-1.863-.562-2.662-1.104-.806-.546-1.408-1.297-2.09-1.986-.682-.689-1.295-1.387-1.832-2.199-.533-.805-1.421-1.443-1.791-2.348-.363-.889-.405-1.921-.591-2.887-.18-.937.09-1.906.095-2.897.008-1.408-.204-1.409-.197-2.816s-.327-1.409-.319-2.816.213-1.406.221-2.813c.008-1.407-.363-1.409-.356-2.817s.74-1.404.747-2.813-.72-1.411-.712-2.819c.008-1.407.114-1.407.121-2.814s.561-1.405.569-2.813c.008-1.408-.115-1.409-.107-2.817s-.076-1.408-.068-2.815.214-1.407.222-2.815-.149-1.409-.141-2.818-.329-1.41-.322-2.817.193-1.407.201-2.816c.008-1.408.179-1.407.187-2.815s-.43-1.41-.422-2.818.593-1.404.6-2.811c.008-1.406-.569-1.409-.562-2.815s.595-1.404.603-2.811c.008-1.409-.06-1.409-.052-2.818.008-1.407-.569-1.41-.562-2.817s-.034-1.409-.026-2.818c.008-1.408.076-1.408.084-2.815s.473-1.407.481-2.816c.008-1.408.137-1.408.144-2.816.008-1.409-.226-1.41-.219-2.819s.249-1.408.257-2.818c.008-1.41-.091-1.41-.083-2.82s.094-1.408.102-2.816.078-1.409.086-2.819c.008-1.41-.137-1.411-.13-2.821.008-1.41-.511-1.413-.503-2.823.008-1.412.324-1.411.332-2.823.008-1.412-.122-1.413-.115-2.826.005-.905.035-1.83.232-2.676.204-.873.544-1.739.929-2.526.391-.8.983-1.506,1.537-2.191s1.45-1,2.146-1.549,1.216-1.313,2.02-1.696c.791-.376,1.704-.352,2.579-.545.848-.188,1.664-.707,2.569-.702,1.414.008,1.411.462,2.825.47,1.413.008,1.414-.205,2.827-.197s1.414-.138,2.827-.13,1.414-.039,2.827-.032,1.413.225,2.828.233,1.412.22,2.826.228,1.417-.674,2.83-.666,1.412.398,2.825.405,1.414-.015,2.829-.007,1.412.333,2.825.34c1.414.008,1.415-.218,2.829-.21,1.414.008,1.414.012,2.829.02s1.413.138,2.827.146,1.415-.16,2.83-.153c1.414.008,1.415-.244,2.83-.236s1.413.164,2.826.171,1.414-.169,2.828-.162,1.413-.117,2.825-.109,1.413.034,2.826.042c1.415.008,1.412.561,2.826.569,1.413.008,1.416-.574,2.829-.567,1.415.008,1.415-.035,2.83-.027,1.414.008,1.41.689,2.824.697,1.415.008,1.419-.663,2.834-.655s1.413.255,2.827.263,1.415-.009,2.83-.001c1.416.008,1.415.063,2.831.071s1.417-.232,2.833-.225,1.413.257,2.827.265c1.416.008,1.417-.25,2.833-.243s1.415.219,2.831.227,1.414.408,2.83.416c1.419.008,1.42-.344,2.839-.336,1.419.008,1.419-.001,2.837.007.99.005,2.018-.156,2.953.034.963.196,1.872.689,2.757,1.062.901.379,1.913.648,2.713,1.19.806.546,1.307,1.509,1.989,2.198.682.689,1.436,1.336,1.973,2.147.533.805,1.18,1.61,1.55,2.515.363.889.535,1.903.72,2.868.18.937.123,1.938.118,2.929-.008,1.404-.193,1.403-.201,2.807-.008,1.404.498,1.407.491,2.811-.008,1.405-.198,1.404-.206,2.808s-.478,1.403-.486,2.809.5,1.407.492,2.812-.197,1.403-.205,2.808-.105,1.404-.112,2.809.064,1.406.057,2.811.136,1.406.128,2.81.208,1.406.2,2.811-.304,1.404-.312,2.81c-.008,1.405-.014,1.405-.022,2.81s.152,1.407.145,2.812-.124,1.405-.132,2.81.141,1.406.133,2.81-.369,1.403-.377,2.807c-.008,1.403.228,1.405.221,2.808s.139,1.405.131,2.809-.269,1.404-.277,2.81c-.008,1.404.346,1.406.338,2.81s-.194,1.405-.202,2.811-.414,1.403-.422,2.808-.097,1.406-.105,2.812.577,1.409.569,2.814-.294,1.405-.301,2.811-.178,1.406-.186,2.813.27,1.408.262,2.815c-.008,1.405.26,1.407.252,2.812-.008,1.407.034,1.407.027,2.814s-.504,1.404-.511,2.811-.089,1.407-.096,2.814.469,1.412.461,2.822c-.008,1.41-.531,1.407-.539,2.817-.005.99.453,2.021.263,2.956-.196.963-1.006,1.74-1.379,2.626-.379.901-.76,1.759-1.302,2.558-.546.806-.948,1.734-1.638,2.416-.689.682-1.656,1.023-2.468,1.559-.805.533-1.588,1.066-2.493,1.435-.889.363-1.794.666-2.76.851-.937.18-1.891.679-2.882.673Z"/><path class="uuid-cc631e34-8936-4c92-99e7-2d0c3b97463f" d="m239.49,208.395l.726-.987.005.005.021.015c.016.01.041.031.07.052.062.046.148.113.255.2.219.17.524.422.89.746.732.647,1.713,1.587,2.723,2.768,1.776,2.083,3.717,5.01,4.422,8.467.877-.455,2.253-.989,3.903-.98,0,0,4.902.027,4.871,5.747-.045,8.17-7.403,8.948-9.854,8.934-1.037-.005-2.94-.307-4.795-1.216.621-.542,1.187-1.188,1.66-1.941,1.279.517,2.52.698,3.147.701,1.047.006,3-.172,4.613-1.083,1.419-.799,2.76-2.247,2.777-5.414.011-1.997-.757-2.619-1.221-2.892-.311-.186-.646-.29-.917-.342-.133-.026-.235-.037-.291-.042h-.036c-.955,0-1.809.271-2.454.568-.317.146-.569.293-.728.395-.081.05-.134.091-.164.111l-.021.015c-.893.695-2.144.688-3.028-.017l-.021-.015c-.031-.021-.086-.062-.162-.113-.066-.042-.144-.093-.234-.144-.365-1.417-1.065-2.468-1.893-3.229.878.127,1.643.387,2.254.661-.702-2.562-2.195-4.823-3.697-6.583-.726-.847-1.442-1.561-2.036-2.115-.163.653-.381,1.433-.677,2.299-.607,1.79-1.534,3.955-2.931,6.124.773-.272,1.714-.486,2.762-.48,0,0,4.902.027,4.871,5.747-.045,8.17-7.403,8.947-9.854,8.934-2.451-.014-9.797-1.688-9.757-9.042.031-5.72,4.934-5.693,4.934-5.693,1.559.008,2.873.501,3.749.94,1.976-2.492,3.185-5.177,3.911-7.318.4-1.172.65-2.172.798-2.871.073-.347.121-.623.152-.806.016-.092.026-.158.032-.204l.005-.046v-.01c.054-.429.332-.8.73-.972.399-.171.858-.123,1.21.135l-.726.992h.005Zm-6.495,13.739l-.021-.015c-.03-.021-.086-.062-.162-.113-.158-.104-.408-.253-.724-.402-.642-.305-1.493-.585-2.448-.596-.005.005-.021.005-.036.005-.056.004-.158.014-.291.04-.271.049-.608.149-.921.332-.466.268-1.241.882-1.252,2.879-.015,2.676,1.239,4.21,2.802,5.184,1.685,1.057,3.669,1.389,4.521,1.394,1.047.006,2.999-.173,4.613-1.083,1.419-.799,2.76-2.248,2.777-5.414.011-1.997-.757-2.619-1.221-2.893-.311-.186-.646-.29-.917-.342-.133-.026-.235-.038-.291-.042h-.03s-.006,0-.006,0c-.955,0-1.809.271-2.454.569-.317.146-.568.293-.728.395-.081.051-.133.091-.164.111l-.021.016c-.893.695-2.144.688-3.028-.017v-.005Z"/><path class="uuid-cc631e34-8936-4c92-99e7-2d0c3b97463f" d="m225.869,161.778l.061-11.031c0-.147.101-.246.248-.246l5.878.032c.148,0,.246.102.245.249l-.01,1.812c0,.148-.1.246-.248.245l-3.523-.019-.012,2.173,3.31.018c.148,0,.246.101.245.249l-.01,1.812c0,.147-.101.245-.248.244l-3.31-.018-.024,4.495c0,.148-.101.246-.249.245l-2.107-.012c-.147,0-.246-.1-.245-.248Z"/><path class="uuid-cc631e34-8936-4c92-99e7-2d0c3b97463f" d="m243.911,162.124l-2.256-.013c-.132,0-.23-.051-.296-.166l-2.333-3.815-.593-.004-.021,3.721c0,.148-.1.247-.248.246l-2.107-.012c-.148,0-.246-.1-.246-.248l.061-11.031c0-.147.101-.247.248-.246l3.54.02c2.782.016,4.091,1.57,4.079,3.81-.01,1.63-.724,2.894-2.192,3.446l2.53,3.998c.114.182.031.296-.166.295Zm-5.465-6.303l1.119.007c.873.004,1.681-.271,1.688-1.457.007-1.202-.799-1.486-1.671-1.49l-1.12-.007-.016,2.947Z"/><path class="uuid-cc631e34-8936-4c92-99e7-2d0c3b97463f" d="m247.434,161.896l.061-11.031c0-.147.1-.247.248-.246l5.943.032c.148,0,.247.102.246.249l-.01,1.812c0,.148-.101.246-.249.245l-3.589-.02-.013,2.255,3.376.019c.147,0,.246.102.245.249l-.01,1.812c0,.148-.1.246-.248.245l-3.375-.019-.014,2.354,3.573.02c.147,0,.263.101.262.249l-.01,1.811c0,.148-.116.246-.265.245l-5.928-.032c-.147,0-.246-.1-.245-.248Z"/><path class="uuid-cc631e34-8936-4c92-99e7-2d0c3b97463f" d="m257.508,161.951l.061-11.031c0-.147.101-.246.248-.245l5.943.032c.148,0,.247.101.246.248l-.01,1.812c0,.148-.101.247-.249.246l-3.589-.02-.012,2.255,3.375.019c.147,0,.246.101.245.248l-.01,1.812c0,.148-.1.247-.248.246l-3.375-.019-.014,2.354,3.573.02c.147,0,.263.1.262.248l-.01,1.811c0,.148-.116.247-.265.246l-5.927-.032c-.148,0-.247-.101-.246-.249Z"/><path class="uuid-cc631e34-8936-4c92-99e7-2d0c3b97463f" d="m225.44,180.147c-.082-.099-.081-.23.019-.346l1.143-1.277c.083-.099.215-.147.362-.031.753.745,1.377,1.11,2.25,1.115.84.005,1.434-.321,1.438-1.046.003-.676-.489-.892-1.212-1.226l-1.396-.665c-1.216-.551-2.363-1.43-2.354-3.225.012-2.156,1.647-3.315,3.656-3.305,1.367.007,2.5.557,3.449,1.549.099.101.113.248.015.362l-1.094,1.312c-.083.115-.231.164-.347.08-.737-.629-1.279-.912-1.954-.916-.757-.004-1.204.372-1.207.965-.003.626.456.826,1.294,1.226l1.166.533c1.215.583,2.528,1.349,2.518,3.324-.014,2.403-1.994,3.429-3.938,3.419-1.827-.011-3.123-.923-3.81-1.849Z"/><path class="uuid-cc631e34-8936-4c92-99e7-2d0c3b97463f" d="m236.593,181.592l.061-11.031c0-.147.1-.247.248-.246l3.539.02c2.783.015,4.092,1.57,4.079,3.81-.012,2.239-1.337,3.763-4.12,3.748l-1.186-.007-.02,3.721c0,.148-.101.247-.249.246l-2.106-.012c-.148,0-.247-.1-.246-.248Zm3.754-6.005c.873.004,1.681-.271,1.688-1.457.006-1.202-.799-1.486-1.672-1.49l-1.119-.007-.016,2.947,1.119.007Z"/><path class="uuid-cc631e34-8936-4c92-99e7-2d0c3b97463f" d="m247.804,181.652l.06-11.031c0-.147.101-.246.248-.245l2.107.012c.148,0,.247.101.246.248l-.061,11.031c0,.148-.101.247-.248.246l-2.107-.012c-.148,0-.247-.101-.245-.249Z"/><path class="uuid-cc631e34-8936-4c92-99e7-2d0c3b97463f" d="m263.7,170.708l-.06,11.031c0,.148-.101.247-.249.246l-2.453-.014c-.131,0-.229-.051-.295-.167l-3.781-7.149-.038,7.047c0,.148-.101.246-.248.246l-2.107-.012c-.148,0-.247-.101-.245-.249l.06-11.031c0-.147.101-.246.248-.245l2.454.014c.131,0,.229.051.295.166l3.781,7.15.038-7.047c0-.147.101-.247.248-.246l2.107.012c.148,0,.246.101.245.248Z"/><path class="uuid-cc631e34-8936-4c92-99e7-2d0c3b97463f" d="m267.136,180.376c-.081-.1-.08-.231.019-.346l1.144-1.278c.082-.098.215-.147.362-.031.753.745,1.377,1.111,2.249,1.116.84.005,1.435-.321,1.438-1.046.004-.676-.489-.893-1.212-1.226l-1.396-.666c-1.216-.551-2.363-1.429-2.354-3.224.012-2.156,1.648-3.316,3.657-3.306,1.366.008,2.499.557,3.449,1.55.098.1.113.247.014.362l-1.094,1.312c-.082.114-.23.163-.346.08-.738-.629-1.279-.912-1.954-.916-.758-.004-1.204.372-1.208.965-.003.626.457.826,1.295,1.225l1.166.534c1.215.583,2.527,1.348,2.518,3.323-.014,2.403-1.995,3.43-3.938,3.419-1.828-.01-3.124-.922-3.811-1.848Z"/><line class="uuid-63f95f31-2d61-4138-82bf-689019d315c2" x1="226.809" y1="137.244" x2="267.091" y2="137.465"/><path class="uuid-eecd6d9b-c15b-457d-a12c-4e92032ae6d6" d="m879.574,79.585c-.798-.004-.798.013-1.596.008s-.796-.257-1.593-.261-.799.086-1.598.082-.796-.198-1.594-.202-.798.286-1.595.282-.796-.01-1.592-.014-.795-.159-1.592-.163-.797.017-1.594.013-.798-.081-1.596-.085-.799-.061-1.598-.065-.798.033-1.596.028-.798.073-1.595.068-.799.199-1.596.195-.798-.218-1.597-.223-.799.051-1.598.047-.797-.14-1.595-.144-.8.255-1.599.251-.799-.03-1.599-.035c-.799-.004-.799.009-1.597.005s-.799-.09-1.599-.094-.798-.26-1.597-.264-.802.393-1.602.389-.797-.167-1.594-.171-.797-.199-1.594-.203c-.8-.004-.802.254-1.602.249s-.799.039-1.598.035c-.8-.004-.798-.324-1.598-.329s-.802.149-1.603.144-.8.045-1.6.041-.801-.213-1.602-.217-.805.355-1.608.35-.803-.006-1.606-.011c-.535-.003-1.065-.186-1.574-.278-.524-.095-1.094-.083-1.582-.264-.497-.184-.801-.771-1.252-1.035-.455-.267-.966-.423-1.365-.762s-.684-.781-1.02-1.185-.639-.806-.901-1.264c-.259-.454-.73-.82-.909-1.318-.175-.49-.174-1.049-.263-1.574-.086-.51.074-1.035.076-1.571.004-.792-.115-.793-.111-1.585s-.184-.793-.18-1.584.12-.789.124-1.579-.205-.792-.2-1.583.417-.79.421-1.583-.405-.794-.401-1.585c.004-.79.064-.79.068-1.58s.316-.788.32-1.578c.004-.79-.065-.79-.061-1.581.004-.791-.043-.791-.038-1.582.004-.792.121-.791.125-1.583s-.084-.793-.08-1.586-.185-.793-.181-1.584.109-.791.113-1.582.101-.791.105-1.582-.242-.794-.238-1.587.334-.791.338-1.583c.004-.792-.321-.794-.316-1.586s.335-.791.34-1.583-.034-.794-.029-1.587-.321-.794-.316-1.587-.019-.794-.015-1.587.043-.793.047-1.586.266-.792.271-1.586.077-.791.081-1.583-.127-.792-.123-1.584c.004-.794.14-.793.145-1.588s-.051-.793-.047-1.586.053-.794.057-1.587.044-.795.048-1.589-.077-.794-.073-1.588-.288-.797-.283-1.593.182-.796.187-1.593-.069-.797-.065-1.594c.003-.541.035-1.093.171-1.591.141-.515.373-1.021.636-1.471.267-.456.656-.846,1.029-1.216s.916-.494,1.375-.757c.453-.259.84-.645,1.356-.78.499-.13,1.024-.016,1.565-.013.795.004.797-.238,1.592-.233s.794.26,1.589.265.794-.115,1.587-.111.795-.078,1.59-.073.796-.022,1.592-.018.794.127,1.589.131.793.124,1.587.128.795-.38,1.589-.375.792.224,1.586.228.794-.009,1.588-.004.794.187,1.59.192.797-.123,1.593-.118.795.007,1.59.011.794.078,1.589.082.795-.09,1.59-.086.797-.137,1.593-.133.796.092,1.592.097.796-.095,1.591-.091.796-.066,1.592-.062.797.019,1.593.023.794.316,1.59.32.799-.323,1.595-.319.796-.02,1.593-.015.795.388,1.592.393.797-.373,1.592-.369.794.144,1.589.148.798-.005,1.595,0,.796.035,1.592.04.798-.131,1.595-.127.797.145,1.596.149.798-.141,1.595-.137.798.124,1.597.128.799.23,1.599.234.801-.193,1.601-.189c.535.003,1.063.048,1.572.14.524.095,1.087.093,1.575.273.497.184.942.521,1.393.785.455.267.984.471,1.383.81s.613.891.949,1.296.719.781.98,1.239c.259.454.588.904.767,1.403.175.49.247,1.04.336,1.565.086.51.046,1.051.043,1.587-.004.793-.109.792-.113,1.584s.281.795.276,1.589-.112.795-.116,1.59-.269.792-.274,1.586.282.795.277,1.588-.111.792-.115,1.585-.059.792-.063,1.585.036.794.032,1.587.076.795.072,1.59.117.796.113,1.591-.171.793-.176,1.587-.008.794-.012,1.587.086.795.081,1.589-.07.795-.074,1.59.079.796.075,1.591-.208.793-.212,1.588.129.796.124,1.591.078.796.074,1.592-.152.794-.156,1.589.195.797.19,1.593-.109.795-.114,1.591-.233.795-.238,1.591-.055.794-.059,1.588.325.796.32,1.59-.165.796-.17,1.593-.1.795-.105,1.59.152.797.147,1.594.146.798.142,1.596.019.796.015,1.593-.284.797-.288,1.595-.05.799-.054,1.599.264.801.26,1.6c-.003.535-.345,1.033-.437,1.543-.095.524.072,1.118-.109,1.606-.184.497-.688.845-.953,1.296-.267.455-.526.894-.866,1.294s-.602.885-1.006,1.221c-.403.335-.944.473-1.402.735-.454.259-.893.527-1.391.705-.49.175-.986.323-1.51.412-.51.086-1.028.359-1.563.356Z"/><path class="uuid-cc631e34-8936-4c92-99e7-2d0c3b97463f" d="m841.214,55.29c.144.073.248.203.285.359l.12.489c.407-.233.872-.354,1.347-.351h.188c.301.002.545.25.544.551v.188c-.004.475-.129.938-.363,1.343l.487.126c.156.037.286.145.356.288.071.144.073.311.011.458-.234.54-.67.907-1.169,1.071l.499.505c.21.213.208.561-.004.771-.529.522-1.21.798-1.899.824.27.647.409,1.345.405,2.059-.008,1.399-.571,2.737-1.567,3.722l-3.483,3.446c-.995.983-2.34,1.533-3.739,1.525s-2.737-.572-3.722-1.566l-1.27-1.284,1.163-1.151,1.272,1.287c.68.687,1.603,1.074,2.564,1.08.963.005,1.891-.373,2.576-1.052l3.484-3.448c.686-.68,1.073-1.603,1.078-2.565.006-.963-.371-1.89-1.051-2.574l-1.272-1.288c-.679-.686-1.603-1.073-2.564-1.078-.963-.005-1.89.371-2.576,1.051l-3.483,3.444c-.687.679-1.074,1.602-1.079,2.564-.006.963.372,1.89,1.051,2.576l-1.163,1.154c-.985-.995-1.534-2.34-1.526-3.739s.571-2.738,1.566-3.722l3.48-3.442c.995-.983,2.34-1.533,3.739-1.525.713.004,1.408.151,2.053.427.034-.688.318-1.366.847-1.889.213-.211.561-.209.771.004l.499.504c.173-.497.544-.929,1.088-1.158.147-.06.314-.056.457.017Zm-10.833,9.874l.702.709.711-.702c.213-.21.561-.208.771.005.21.212.208.561-.005.771l-1.098,1.086c-.213.21-.562.208-.771-.005l-1.087-1.098c-.21-.213-.208-.562.005-.771.213-.211.561-.209.771.005Zm1.944,2.74c.213-.21.561-.208.771.005l.702.711.711-.703c.212-.211.561-.209.771.004.21.213.208.561-.005.771l-1.098,1.086c-.213.211-.562.209-.771-.004l-1.087-1.099c-.21-.213-.208-.561.005-.771Zm.801-5.456l.703.71.71-.702c.213-.211.562-.209.771.004.211.212.209.561-.004.771l-1.099,1.087c-.213.211-.561.209-.771-.004l-1.086-1.1c-.211-.212-.209-.561.004-.771s.562-.208.771.005Zm3.419,3.455l.71-.702c.213-.211.562-.209.771.004.211.213.209.562-.004.771l-1.099,1.086c-.213.211-.561.209-.771-.004l-1.086-1.098c-.211-.213-.209-.562.004-.771.213-.211.562-.209.771.004l.703.71Z"/><path class="uuid-cc631e34-8936-4c92-99e7-2d0c3b97463f" d="m827.403,33.267l.034-6.215c0-.084.057-.14.14-.139l2.255.012c1.159.007,1.796.761,1.791,1.661-.004.695-.424,1.148-.843,1.351.63.17,1.258.703,1.253,1.648-.006,1.096-.762,1.842-2.329,1.834l-2.162-.012c-.083,0-.139-.057-.139-.141Zm2.215-1.139c.547.003.92-.227.923-.765.003-.547-.367-.754-.915-.757l-.76-.004-.009,1.521.761.004Zm-.106-2.663c.445.003.725-.171.728-.645.002-.445-.275-.604-.721-.607l-.64-.003-.007,1.252.64.003Z"/><path class="uuid-cc631e34-8936-4c92-99e7-2d0c3b97463f" d="m833.67,30.221c.011-1.883,1.521-3.341,3.358-3.33,1.846.01,3.341,1.483,3.331,3.366-.011,1.875-1.521,3.332-3.368,3.322-1.836-.011-3.331-1.483-3.321-3.358Zm5.195.028c.006-1.094-.787-1.915-1.845-1.92-1.049-.006-1.86.806-1.866,1.899-.006,1.076.797,1.907,1.845,1.913,1.059.005,1.86-.816,1.866-1.893Z"/><path class="uuid-cc631e34-8936-4c92-99e7-2d0c3b97463f" d="m847.636,27.162l-.034,6.215c0,.084-.056.14-.14.139l-1.382-.008c-.074,0-.13-.028-.167-.094l-2.13-4.029-.022,3.971c0,.084-.056.14-.14.14l-1.188-.007c-.083,0-.139-.057-.138-.141l.033-6.215c0-.084.057-.139.141-.139l1.382.008c.074,0,.13.028.167.094l2.13,4.029.021-3.971c0-.084.057-.14.14-.139l1.188.006c.084,0,.139.057.139.141Z"/><path class="uuid-cc631e34-8936-4c92-99e7-2d0c3b97463f" d="m849.717,30.986l.021-3.812c0-.084.057-.14.141-.14l1.188.007c.083,0,.139.057.138.141l-.021,3.794c-.004.788.364,1.245,1.041,1.249.668.004,1.051-.449,1.056-1.237l.021-3.794c0-.084.057-.14.141-.14l1.188.007c.083,0,.139.057.138.141l-.021,3.812c-.01,1.763-1.062,2.656-2.529,2.648-1.475-.008-2.509-.913-2.499-2.676Z"/><path class="uuid-cc631e34-8936-4c92-99e7-2d0c3b97463f" d="m856.653,32.647c-.047-.056-.046-.13.01-.194l.645-.721c.047-.055.121-.083.204-.018.425.42.775.627,1.268.63.473.002.808-.182.811-.59.002-.381-.276-.504-.683-.691l-.787-.375c-.685-.31-1.332-.805-1.326-1.816.007-1.215.929-1.869,2.061-1.862.771.004,1.408.313,1.943.873.056.057.064.14.009.205l-.616.738c-.047.064-.131.092-.195.045-.416-.354-.721-.515-1.102-.517-.427-.002-.678.21-.68.544-.002.353.257.466.729.69l.657.301c.685.328,1.425.76,1.419,1.873-.008,1.354-1.124,1.933-2.219,1.927-1.03-.006-1.76-.521-2.146-1.042Z"/><line class="uuid-08765e09-7a78-49c5-aa39-052fe4e193ae" x1="827.926" y1="18.554" x2="850.616" y2="18.678"/><g class="uuid-42bb29d8-4728-4bac-8f49-df5c6dfb7025"><path class="uuid-eecd6d9b-c15b-457d-a12c-4e92032ae6d6" d="m292.166,249.715c-.792-.741-1.111-1.772-1.054-2.719.059-.958.501-1.944,1.408-2.581,1.369-.95,4.615-2.839,8.825-2.583.649.04,1.224.106,1.725.188-.021-.508-.017-1.085.022-1.734.257-4.21,2.527-7.203,3.636-8.447.742-.823,1.785-1.142,2.731-1.083.947.058,1.933.5,2.572,1.375.705.973,2.016,3.037,2.49,5.597-1.14.396-2.187.951-3.141,1.668-.069-2.236-1.278-4.273-2.032-5.311h-.01c-.01-.012-.039-.023-.091-.027-.041-.002-.073.006-.084.005-.897,1-2.598,3.303-2.788,6.433-.093,1.513.052,2.369.16,2.789.042.168.088.264.105.306.485.671.387,1.625-.247,2.197-.635.571-1.595.553-2.21-.021-.03-.022-.13-.07-.291-.142-.403-.168-1.236-.405-2.75-.498-3.129-.191-5.622,1.217-6.723,1.987,0,.01-.013.041-.015.082-.003.051.005.083.015.094v.01c.928.873,2.812,2.321,5.023,2.663-.816.849-1.496,1.83-2.026,2.903-2.484-.781-4.373-2.333-5.253-3.151Zm9.944,20.269c.11-1.812.86-3.439,2.03-4.66-2.889-1.427-4.778-4.487-4.571-7.894.277-4.55,4.187-8.011,8.736-7.733.639.039,1.253.148,1.841.319-.097-.605-.132-1.228-.093-1.866.277-4.55,4.188-8.011,8.737-7.734,3.408.208,6.215,2.456,7.28,5.496,1.354-1.013,3.06-1.56,4.872-1.449,4.097.25,7.21,3.767,6.961,7.863-.115,1.894-.932,3.581-2.175,4.817,2.497,1.433,4.104,4.208,3.917,7.275-.119,1.957-.947,3.693-2.205,4.991,2.963,1.399,4.934,4.506,4.722,7.975-.276,4.55-4.187,8.011-8.736,7.733-3.47-.211-6.313-2.543-7.344-5.654-1.44,1.09-3.266,1.702-5.221,1.583-3.067-.187-5.626-2.12-6.746-4.771-1.378,1.083-3.151,1.688-5.046,1.573-4.097-.25-7.21-3.767-6.96-7.864Zm9.822-9.321c.977-1.475,1.091-3.358.302-4.941-.789-1.582-2.363-2.624-4.129-2.731-1.766-.108-3.453.735-4.43,2.21-.976,1.475-1.09,3.358-.302,4.941.791,1.583,2.363,2.624,4.129,2.731,1.766.107,3.455-.735,4.43-2.21Zm-4.687,13.213c1.229.813,2.799.909,4.118.251,1.318-.658,2.187-1.97,2.276-3.441.089-1.471-.613-2.878-1.842-3.691-1.229-.813-2.799-.909-4.118-.251-1.318.658-2.187,1.97-2.275,3.44-.09,1.471.612,2.879,1.841,3.692Zm8.312-21.096c1.476.976,3.359,1.09,4.942.301,1.582-.79,2.623-2.364,2.73-4.129s-.734-3.454-2.209-4.43c-1.476-.976-3.359-1.091-4.942-.301-1.582.79-2.623,2.364-2.73,4.129s.734,3.454,2.209,4.43Zm1.718,12.504c1.475.975,3.359,1.09,4.941.301,1.583-.79,2.624-2.364,2.731-4.129s-.734-3.454-2.21-4.43c-1.475-.976-3.359-1.09-4.941-.301-1.583.79-2.624,2.363-2.731,4.128s.734,3.454,2.21,4.43Zm7.848,10.441c.895-1.352,1-3.079.276-4.529s-2.166-2.405-3.784-2.503-3.166.673-4.062,2.025c-.895,1.352-1,3.079-.276,4.529.726,1.451,2.168,2.405,3.786,2.504s3.166-.673,4.06-2.026Zm8.809-21.575c.814-1.229.91-2.799.251-4.118-.656-1.319-1.969-2.187-3.439-2.276-1.471-.09-2.879.613-3.691,1.842-.813,1.229-.909,2.799-.251,4.118.657,1.319,1.97,2.187,3.44,2.276,1.471.089,2.879-.613,3.69-1.842Zm1.677,12.294c.895-1.352,1-3.079.275-4.529-.724-1.451-2.167-2.405-3.785-2.504s-3.165.673-4.061,2.026c-.894,1.352-.999,3.079-.275,4.529s2.166,2.405,3.784,2.504,3.166-.674,4.062-2.026Zm2.447,13.168c.978-1.475,1.092-3.359.302-4.941-.789-1.583-2.363-2.624-4.128-2.731-1.766-.107-3.454.735-4.43,2.21-.977,1.475-1.091,3.358-.302,4.941.79,1.583,2.363,2.624,4.129,2.731,1.765.108,3.454-.734,4.429-2.21Z"/></g><path class="uuid-eb131076-0e45-4b38-8df9-fbe205a2f2a5" d="m617.002,93.295s3.35-.37,4.472,3.312"/><path class="uuid-eb131076-0e45-4b38-8df9-fbe205a2f2a5" d="m463.132,81.276s3.241.933,2.88,4.773"/><path class="uuid-eb131076-0e45-4b38-8df9-fbe205a2f2a5" d="m507.503,197.324s.059-3.373,3.861-4.021"/><path class="uuid-df108eea-0489-462e-9d56-7c8685287205" d="m629.038,96.735s1.801,2.823-1.032,5.443"/><path class="uuid-3f6e8cf1-34d7-4574-b81c-5b11bd481018" d="m676.799,52.001c-.166,3.468-.154,7,.677,10.347.266,1.06.685,2.083,1.255,2.705,1.312,1.291,2.868-.306,4.27-1.134,2.093-1.397,4.29-3.16,7.01-3.428,5.547-.255,4.631,6.495,5.35,10.011.202.643.374,1.424.998,1.106.556-.213,1.738-1.455,2.26-1.904,1.525-1.543,4.508-2.96,6.368-.991,1.465,1.594,1.685,3.656,2.276,5.539.352,1.272-1.526,1.844-1.932.576-.149-1.576-.427-3.542-1.755-4.431-.331-.159-.54-.119-.779-.004-2.197,1.156-5.833,5.749-8.598,2.718-1.794-2.658-.94-6.19-2.347-8.796-.405-.666-.734-.872-1.434-.666-1.723.619-3.572,2.401-5.373,3.437-11.034,6.584-10.631-8.196-10.243-15.184.078-1.323,2.051-1.239,1.997.099h0Z"/><path class="uuid-8455dea6-a11c-41b1-8352-d00a2e55a1ae" d="m564.535,64.945c-3.515-1.599-10.253-5.064-13.762-2.896-1.73,1.989-.205,6.339-.164,9.073.412,3.831-1.819,5.878-5.606,5.049-1.766-.308-3.267-1.326-4.931-1.756-.776-.187-1.631-.166-1.89.3-.171.308-.56.42-.869.248-1.1-.851.791-1.772,1.501-1.758,2.254-.037,4.479.613,6.604,1.12,2.829.856,4.234-.008,3.776-3.069-.329-2.587-1.548-5.173-1.43-7.957.305-4.114,4.298-4.501,7.483-3.502,3.523.957,6.677,2.507,9.846,4.027.738.365.192,1.496-.557,1.122h0Z"/><path class="uuid-df108eea-0489-462e-9d56-7c8685287205" d="m616.997,80.649s-1.028-3.21,2.36-5.049"/><path class="uuid-eb131076-0e45-4b38-8df9-fbe205a2f2a5" d="m641.306,81.84s1.506,3.015-1.561,5.341"/><path class="uuid-df108eea-0489-462e-9d56-7c8685287205" d="m682.969,92.151s2.371,2.395.184,5.57"/><path class="uuid-df108eea-0489-462e-9d56-7c8685287205" d="m565.385,95.851s-.506,3.332-4.359,3.473"/><path class="uuid-cec74c73-2ad9-4aa9-9c6e-2fa821be4da6" d="m658.807,31.335s-3.874-1.571-2.932-6.259"/><path class="uuid-3f6e8cf1-34d7-4574-b81c-5b11bd481018" d="m485.747,129.809c-1.634-3.352,1.744-7.038,1.728-10.221.015-.138-.019-.204.002-.203,0,.038.126.196.2.141.036-.138-.213-.209-.337-.267-1.528-.436-3.322-.072-4.976-.179-2.679.085-4.731-2.24-3.663-4.856.574-1.236,1.218-2.197,1.43-3.384.247-1.339,2.249-1.003,2.034.349-.03.169-.103.324-.201.451-1.01,1.193-.643,2.893-.481,4.184-.133,1.372,1.5,1.213,2.51.994,1.159-.246,2.341-.633,3.601-.735,2.3-.273,4.145,1.894,3.606,4.088-.706,2.587-2.607,3.9-3.502,6.243-.311.782-.614,1.703-.207,2.414.651,1.159-1.085,2.148-1.744.979h0Z"/><path class="uuid-3f6e8cf1-34d7-4574-b81c-5b11bd481018" d="m596.096,48.71c.139-.194-.027-.693-.501-1.156-.266-.215-.684-.362-.893-.642-.443-.591-.159-1.645-.399-2.352-.074-.421-.24-.779-.612-1.132-.357-.346-.661-.874-.35-1.459.508-.785.773-1.192.679-2.089.001-1.96,2.923-2.012,2.987-.047.012.737-.514,1.358-1.215,1.491-.394.137-.024.462.222.578.34.163.2.368.078.729-.338,1.3,1.639,1.485,1.956,2.532.138.38.058.901.063,1.381.109,1.03.264,2.15-.293,3.187-.663,1.265-2.517.168-1.721-1.023h0Z"/><path class="uuid-df108eea-0489-462e-9d56-7c8685287205" d="m447.021,116.005s-3.33-.521-3.453-4.375"/><path class="uuid-df108eea-0489-462e-9d56-7c8685287205" d="m507.332,68.188s-1.57-2.983,1.448-5.382"/><path class="uuid-3f6e8cf1-34d7-4574-b81c-5b11bd481018" d="m716.892,153.208c1.569-1.499,7.339-7.543,4.582-9.291-2.247-1.315-5.204-1.076-7.482-2.669-2.233-1.636-.6-5.21.913-6.409.484-.457.986-.878,1.311-1.368.346-.472.462-1.037.248-1.159-.406-.232-.546-.749-.314-1.154.328-.619,1.309-.531,1.528.126.366.801.329,1.647-.004,2.355-.117.361-.98,2.031-1.148,2.408-.578,1.197-1.46,2.125-1.752,2.942-.132.385-.093.736.25,1.015,2.895,1.792,8.078-.57,9.756,3.54,1.147,3.682-4.653,8.326-6.831,10.749-.711.703-1.784-.382-1.055-1.082h0Z"/><path class="uuid-df108eea-0489-462e-9d56-7c8685287205" d="m725.391,90.44s3.334-.495,4.6,3.147"/><line class="uuid-6a403749-b748-4baa-b5d1-69991d3f4fb5" x1="614.003" y1="188.977" x2="612.644" y2="237.878"/><line class="uuid-7346e06c-bd2e-425c-992a-83594c26b06c" x1="708.636" y1="302.627" x2="441.489" y2="302.627"/><path class="uuid-48ce4ea1-a2b4-4f11-884d-df9eb011c912" d="m441.829,286.78l-.734-7.204-10.133-99.428s-.679-5.094,5.433-5.094,78.446-1.019,78.446-1.019c0,0,.695-4.075-7.463-4.075h-70.443s-9.916-.573-10.322,11.599c-.406,12.172,9.659,97.716,9.659,97.716,0,0-.217,4.109,5.556,7.505Z"/><path class="uuid-bef5e192-537b-4e84-b3f1-1978862be9ff" d="m536.802,287.233l-3.622-108.217s.226-4.528,5.66-4.528,79.918.226,79.918.226c0,0,.906-3.849-11.093-4.302-11.999-.453-69.277-.226-69.277-.226,0,0-9.961.906-9.961,12.905s3.259,96.184,3.259,96.184c0,0,2.175,6.147,5.118,7.958Z"/><path class="uuid-86810248-8e2d-427d-8e7e-1c0fdba9b954" d="m630.756,287.006l5.66-106.859s1.358-5.66,5.66-5.66h79.465s-1.783-4.528-8.476-4.528h-70.443s-11.932.559-11.899,11.599c.033,11.04-3.627,97.716-3.627,97.716,0,0-.188,4.335,3.66,7.731Z"/><line class="uuid-76de39f7-b06a-49f9-8012-5de5590bbce1" x1="550.385" y1="208.673" x2="554.008" y2="208.673"/><path class="uuid-76de39f7-b06a-49f9-8012-5de5590bbce1" d="m563.516,210.484s11.32-7.018,22.866.226"/><path class="uuid-76de39f7-b06a-49f9-8012-5de5590bbce1" d="m488.523,195.259s.17,5.433-5.943,9.339"/><path class="uuid-76de39f7-b06a-49f9-8012-5de5590bbce1" d="m458.242,262.555s-4.075,4.528-4.075,14.263"/></svg>