<?xml version="1.0" encoding="UTF-8"?><svg id="uuid-7adeb307-c596-4895-8b21-b868631a3616" xmlns="http://www.w3.org/2000/svg" viewBox="0 0 32 32"><defs><style>.uuid-e6c57256-cf8f-4cd4-a2ff-ad647179a498{fill:#24c7b7;stroke-width:0px;}</style></defs><path class="uuid-e6c57256-cf8f-4cd4-a2ff-ad647179a498" d="m4,11.934c0-3.108,2.518-5.625,5.625-5.625h6.375v-1.036c0-.464.375-.839.839-.839.188,0,.366.061.516.178l2.851,2.217c.188.145.295.37.295.604s-.107.459-.295.604l-2.851,2.217c-.146.113-.328.178-.516.178-.464,0-.839-.375-.839-.839v-1.036h-6.375c-1.865,0-3.375,1.509-3.375,3.375s1.51,3.375,3.375,3.375h12.75c3.107,0,5.625,2.517,5.625,5.625,0,2.789-2.029,5.1-4.688,5.545-.427,1.139-1.523,1.955-2.812,1.955-1.654,0-3-1.346-3-3s1.346-3,3-3c1.214,0,2.264.722,2.732,1.763,1.449-.38,2.518-1.697,2.518-3.263,0-1.866-1.51-3.375-3.375-3.375h-12.75c-3.107,0-5.625-2.517-5.625-5.625Zm5.779,12.375h1.721v-1.036c0-.464.375-.839.839-.839.188,0,.366.061.516.178l2.851,2.218c.188.145.295.37.295.604s-.107.459-.295.604l-2.851,2.217c-.146.112-.328.179-.516.179-.464,0-.839-.375-.839-.84v-1.035h-1.721c-.445,1.102-1.523,1.875-2.779,1.875-1.655,0-3-1.346-3-3s1.345-3,3-3c1.261,0,2.339.773,2.779,1.875Zm-1.654,1.125c0-.621-.504-1.125-1.125-1.125s-1.125.504-1.125,1.125.504,1.125,1.125,1.125,1.125-.504,1.125-1.125Zm12.375,1.125c.621,0,1.125-.504,1.125-1.125s-.504-1.125-1.125-1.125-1.125.504-1.125,1.125.504,1.125,1.125,1.125Zm1.5-19.125c0-1.072.572-2.062,1.5-2.598.928-.536,2.072-.536,3,0,.928.536,1.5,1.526,1.5,2.598s-.572,2.062-1.5,2.598c-.928.536-2.072.536-3,0-.928-.536-1.5-1.526-1.5-2.598Zm4.125,0c0-.621-.504-1.125-1.125-1.125s-1.125.504-1.125,1.125.504,1.125,1.125,1.125,1.125-.504,1.125-1.125Z"/></svg>