<?xml version="1.0" encoding="UTF-8"?><svg id="uuid-5f7be64b-a7e9-47fc-988b-adb7770ef1e7" xmlns="http://www.w3.org/2000/svg" viewBox="0 0 32 32"><defs><style>.uuid-a4e71293-096a-4896-b8ef-55662e7241c4{fill:#24c7b7;stroke-width:0px;}</style></defs><path class="uuid-a4e71293-096a-4896-b8ef-55662e7241c4" d="m4,20.933h1.5v6.001h-1.5c-1.654,0-3-1.346-3-3.001s1.346-3,3-3Zm6-15h1.5v6h-1.5c-1.654,0-3-1.345-3-3s1.346-3,3-3Zm1.875,13.5c1.312-.75,2.625-1.5,4.875-1.5,2.644,0,8.25.75,8.25,4.5s-6,6.001-10.5,6.001c-2.986,0-7.5-1.5-7.5-1.5v-6.001c2.25,0,3.562-.75,4.875-1.5Zm2.625,6.751c1.932,0,4.209-.498,5.93-1.355,1.852-.928,2.32-1.847,2.32-2.396,0-.44-.239-1.008-1.683-1.552-1.378-.524-3.136-.698-4.317-.698-1.627,0-2.508.487-3.76,1.205l-.032.019c-.966.549-2.114,1.205-3.708,1.547v2.302c.281.079.596.159.924.243,1.472.371,3.121.686,4.326.686Zm-1.5-16.501v-3.75s4.514-1.5,7.5-1.5c4.5,0,10.5,2.25,10.5,6s-5.606,4.5-8.25,4.5c-2.25,0-3.562-.75-4.875-1.5s-2.625-1.5-4.875-1.5v-2.25Zm2.25-2.071v2.301c1.594.338,2.742.994,3.708,1.547l.032.02c1.252.717,2.133,1.204,3.76,1.204,1.177,0,2.939-.178,4.317-.698,1.443-.544,1.683-1.111,1.683-1.552,0-.548-.469-1.467-2.32-2.396-1.721-.857-3.998-1.354-5.93-1.354-1.205,0-2.854.314-4.326.685-.328.084-.643.164-.924.244Z"/></svg>