<?xml version="1.0" encoding="UTF-8"?><svg id="uuid-50b60934-f453-45e2-9bc5-801f02a6f704" xmlns="http://www.w3.org/2000/svg" viewBox="0 0 32 32"><defs><style>.uuid-2ab35fd9-ca5a-41c7-9e73-938c61826f57{fill:#24c7b7;stroke-width:0px;}</style></defs><path class="uuid-2ab35fd9-ca5a-41c7-9e73-938c61826f57" d="m1,7.808c0-1.866,1.51-3.375,3.375-3.375h12.75c1.865,0,3.375,1.509,3.375,3.375v8.25c0,1.866-1.51,3.375-3.375,3.375h-5.658l-4.219,2.812c-.347.229-.787.253-1.152.057-.366-.197-.596-.577-.596-.994v-1.875h-1.125c-1.865,0-3.375-1.509-3.375-3.375V7.808Zm3.375-1.125c-.623,0-1.125.501-1.125,1.125v8.25c0,.624.502,1.125,1.125,1.125h2.25c.623,0,1.125.502,1.125,1.125v.9l2.752-1.838c.183-.122.402-.188.623-.188h6c.623,0,1.125-.501,1.125-1.125V7.808c0-.624-.502-1.125-1.125-1.125H4.375Zm3.558,2.255c.258-.722.942-1.205,1.706-1.205h1.937c1.134,0,2.048.919,2.048,2.049,0,.736-.394,1.411-1.031,1.776l-1.092.628v.014c0,.413-.338.75-.75.75s-.75-.337-.75-.75v-.445c0-.267.146-.516.375-.651l1.472-.844c.169-.099.276-.281.276-.478,0-.305-.248-.549-.548-.549h-1.937c-.131,0-.248.084-.295.207l-.014.042c-.141.389-.567.595-.957.455-.389-.141-.595-.567-.454-.956l.014-.042Zm1.753,6.183c-.026-.396.171-.774.51-.98.34-.206.766-.206,1.104,0,.34.206.536.584.51.98.026.396-.17.774-.51.98-.339.206-.765.206-1.104,0-.339-.206-.536-.584-.51-.98Zm3.314,5.812h2.25v1.125c0,.624.502,1.125,1.125,1.125h4.5c.221,0,.44.065.623.188l2.752,1.838v-.9c0-.623.502-1.125,1.125-1.125h2.25c.623,0,1.125-.501,1.125-1.125v-8.25c0-.624-.502-1.125-1.125-1.125h-5.625v-2.25h5.625c1.865,0,3.375,1.509,3.375,3.375v8.25c0,1.866-1.51,3.375-3.375,3.375h-1.125v1.876c0,.417-.229.797-.596.993-.365.197-.811.174-1.152-.056l-4.219-2.813h-4.158c-1.865,0-3.375-1.509-3.375-3.375v-1.125Z"/></svg>