<?xml version="1.0" encoding="UTF-8"?><svg id="uuid-14e88b13-d060-4afc-9e2e-cf590a029953" xmlns="http://www.w3.org/2000/svg" viewBox="0 0 32 32"><defs><style>.uuid-4604a1e8-6b31-41e2-a8c5-6a02f0bc9511{fill:#24c7b7;stroke-width:0px;}</style></defs><path class="uuid-4604a1e8-6b31-41e2-a8c5-6a02f0bc9511" d="m13.759,7.462l-2.396,2.395c-.718.197-1.383.558-1.945,1.055l-1.247,1.111c-.479.427-1.102.661-1.744.661h-.928v6c.956.028,1.865.417,2.545,1.097l1.669,1.669.328.328,1.266,1.266c.291.29.769.29,1.06,0,.08-.08.141-.174.174-.272.131-.36.436-.633.811-.717s.769.028,1.041.305l.506.497c.544.544,1.425.544,1.964,0,.253-.253.39-.577.403-.909.019-.413.263-.778.638-.957.375-.178.811-.141,1.144.099.44.314,1.055.272,1.448-.122.44-.44.44-1.152,0-1.589l-3.553-3.553-1.679,1.547c-1.279,1.181-3.243,1.2-4.547.042-1.485-1.322-1.519-3.628-.074-4.992l3.285-3.103c1.285-1.209,2.981-1.884,4.749-1.884,1.692,0,3.328.624,4.589,1.744l1.411,1.256h5.573c.412,0,.75.337.75.75v9.75c0,.829-.67,1.5-1.5,1.5h-1.5c-.553,0-1.041-.3-1.299-.75h-3.979c-.159.313-.37.614-.633.876-.802.802-1.912,1.116-2.953.942-.169.343-.398.661-.685.947-1.279,1.279-3.281,1.406-4.706.38-1.177.975-2.93.914-4.031-.192l-1.261-1.266-.328-.328-1.669-1.669c-.258-.258-.595-.408-.956-.436,0,.824-.675,1.495-1.5,1.495h-1.5c-.829,0-1.5-.671-1.5-1.5v-9.75c0-.413.338-.75.75-.75h4.678c.094,0,.184-.033.249-.094l1.242-1.106c1.308-1.158,2.99-1.8,4.739-1.8h.482c.206,0,.417.009.619.028ZM3.999,20.184c0-.414-.336-.75-.75-.75s-.75.336-.75.75.336.75.75.75.75-.336.75-.75Zm22.5-.75v-6.75h-2.25c-.276,0-.544-.103-.745-.286l-1.729-1.537c-.854-.76-1.955-1.177-3.099-1.177-1.19,0-2.335.455-3.202,1.271l-3.285,3.103c-.483.459-.474,1.233.023,1.673.436.389,1.097.38,1.523-.014l3.37-3.112c.454-.422,1.167-.394,1.589.065s.394,1.167-.065,1.589l-.038.037,3.488,3.487c.469.469.773,1.046.909,1.646h3.511v.005Zm2.25,1.5c.414,0,.75-.336.75-.75s-.336-.75-.75-.75-.75.336-.75.75.336.75.75.75Z"/></svg>