<?xml version="1.0" encoding="UTF-8"?><svg id="uuid-094e8edf-8d36-4ad3-bc91-d18de6733c5c" xmlns="http://www.w3.org/2000/svg" viewBox="0 0 32 32"><defs><style>.uuid-88400c95-8704-411d-a901-f0043552c7aa{fill:#24c7b7;stroke-width:0px;}</style></defs><path class="uuid-88400c95-8704-411d-a901-f0043552c7aa" d="m6.25,7.433v12h11.25v3H3.25c-1.242,0-2.25-1.008-2.25-2.25,0-.412.337-.75.75-.75h2.25V7.433c0-1.654,1.345-3,3-3h15c1.654,0,3,1.346,3,3v1.5h-2.25v-1.5c0-.412-.338-.75-.75-.75H7c-.412,0-.75.338-.75.75Zm15,3h7.5c1.242,0,2.25,1.008,2.25,2.25v13.501c0,1.242-1.008,2.25-2.25,2.25h-7.5c-1.242,0-2.25-1.008-2.25-2.25v-13.501c0-1.242,1.008-2.25,2.25-2.25Zm0,15.751h7.5v-13.501h-7.5v13.501Z"/></svg>