<?xml version="1.0" encoding="UTF-8"?><svg id="uuid-2b8292e8-ce13-470d-b38d-482c31b12c89" xmlns="http://www.w3.org/2000/svg" viewBox="0 0 32 32"><defs><style>.uuid-075cb82d-c4e3-4eb7-8d9e-7a21299084a7{fill:#24c7b7;stroke-width:0px;}</style></defs><path class="uuid-075cb82d-c4e3-4eb7-8d9e-7a21299084a7" d="m1,11.933c0-.474.295-.896.74-1.06l13.148-4.748c.356-.127.731-.192,1.111-.192s.755.065,1.111.192l13.148,4.748c.445.164.74.586.74,1.06s-.295.9-.74,1.06l-13.148,4.753c-.356.127-.731.192-1.111.192s-.755-.065-1.111-.192l-7.945-2.868c-1.289,1.092-2.1,2.681-2.188,4.415.276.619.478,1.289.628,1.945.3,1.289.502,3.089.099,5.096-.038.202-.16.38-.333.487-.174.108-.385.146-.581.094l-3-.75c-.244-.061-.441-.238-.525-.479-.084-.238-.042-.501.107-.703.403-.553.75-1.152,1.055-1.762.539-1.078,1.046-2.457,1.046-3.788,0-.028,0-.056.005-.084.065-1.922.839-3.703,2.113-5.049l-3.628-1.308c-.445-.164-.74-.586-.74-1.06Zm15.005-3.75c-.117,0-.234.019-.347.062l-10.22,3.688,2.105.76c.234-.112.474-.216.717-.31l7.481-2.803c.389-.146.82.051.966.44.146.389-.052.82-.44.966l-6.601,2.475,5.986,2.161c.112.042.229.061.347.061s.234-.019.347-.061l10.219-3.689-10.219-3.688c-.112-.043-.229-.062-.347-.062h.005Zm8.278,8.56l.717,6.815c0,1.655-4.031,3.376-9,3.376s-9-1.721-9-3.376l.717-6.811,2.18.787-.595,5.648c.225.159.6.375,1.153.591,1.326.516,3.295.909,5.545.909s4.219-.394,5.541-.914c.553-.216.928-.427,1.152-.591l-.595-5.648,2.18-.787h.005Zm-15.197,6.216c.006-.013.02-.02.034-.018.014.002.024.013.026.026.01.011.012.025.006.038-.007.013-.021.02-.034.018-.015-.003-.025-.014-.027-.027-.01-.01-.012-.025-.005-.037Zm13.795.058c-.013,0-.025-.007-.031-.019-.006-.011-.004-.024.004-.034.005-.012.016-.02.028-.021.013,0,.024.007.03.018.006.012.005.025-.003.035-.005.012-.016.02-.028.021Z"/></svg>