<?xml version="1.0" encoding="UTF-8"?><svg id="uuid-0a7312a0-77e4-46d6-b052-3fd8e5891eb7" xmlns="http://www.w3.org/2000/svg" viewBox="0 0 130 130"><defs><style>.uuid-56a902ba-3996-46ed-b9f8-2254e2b4e03b{fill:#0b3c3a;stroke-width:0px;}</style></defs><path class="uuid-56a902ba-3996-46ed-b9f8-2254e2b4e03b" d="m11,96.735c0,3.318,2.682,6,6,6h6v6h-6c-6.618,0-12-5.382-12-12s5.382-12,12-12h6v6h-6c-3.318,0-6,2.681-6,6Zm36-54v6h-6c-6.618,0-12-5.382-12-12s5.382-12,12-12h6v6h-6c-3.318,0-6,2.681-6,6s2.682,6,6,6h6Zm1.5,36c5.25-3,10.5-6,19.5-6,10.575,0,33,3,33,18s-24,24-42,24c-11.943,0-30-6-30-6v-24c9,0,14.25-3,19.5-6Zm10.5,30c8.156,0,17.719-2.062,25.068-5.737,7.669-3.844,10.932-8.307,10.932-12.263,0-3.675-2.513-6.675-8.662-9.019-5.981-2.27-13.426-2.981-18.338-2.981-7.35,0-11.438,2.306-16.519,5.193l-.094.057c-4.294,2.456-9.225,5.269-16.388,6.318v14.006c1.669.488,3.713,1.051,5.981,1.613,5.925,1.462,12.825,2.812,18.019,2.812Zm-6-66v-18s18.057-6,30-6c18,0,42,9,42,24s-22.425,18-33,18c-9,0-14.25-3-19.5-6s-10.5-6-19.5-6v-6Zm11.981-15.169c-2.269.562-4.331,1.125-5.981,1.612v13.969c7.182,1.05,12.094,3.862,16.388,6.319l.094.056c5.081,2.906,9.169,5.213,16.519,5.213,4.912,0,12.356-.713,18.338-2.981,6.149-2.344,8.662-5.344,8.662-9.019,0-3.956-3.244-8.419-10.932-12.263-7.35-3.675-16.912-5.737-25.068-5.737-5.193,0-12.094,1.331-18.019,2.812v.019Z"/></svg>