<?xml version="1.0" encoding="UTF-8"?><svg id="uuid-f2053844-a227-4def-97a9-9a43ce8b8a53" xmlns="http://www.w3.org/2000/svg" viewBox="0 0 130 130"><defs><style>.uuid-6021adfd-1f6c-4e67-b624-1712f5efc1c1{fill:#0b3c3a;stroke-width:0px;}</style></defs><path class="uuid-6021adfd-1f6c-4e67-b624-1712f5efc1c1" d="m23,30.735v42h48v6H11.356c1.031,3.469,4.237,6,8.043,6h51.6v6H19.4c-7.95,0-14.4-6.45-14.4-14.4,0-1.987,1.612-3.6,3.6-3.6h8.4V30.735c0-6.619,5.381-12,12-12h60c6.619,0,12,5.381,12,12v6h-6v-6c0-3.319-2.682-6-6-6H29c-3.319,0-6,2.681-6,6Zm63,12h30c4.969,0,9,4.031,9,9v54c0,4.969-4.031,9-9,9h-30c-4.969,0-9-4.031-9-9v-54c0-4.969,4.031-9,9-9Zm-3,63c0,1.649,1.35,3,3,3h30c1.65,0,3-1.351,3-3v-54c0-1.65-1.35-3-3-3h-30c-1.65,0-3,1.35-3,3v54Z"/></svg>