<?xml version="1.0" encoding="UTF-8"?><svg id="uuid-4ff0909a-aa8e-4842-87ab-ce69864a113b" xmlns="http://www.w3.org/2000/svg" viewBox="0 0 130 130"><defs><style>.uuid-0706a842-b246-46ca-b7b7-6b29ef423395{fill:#0b3c3a;stroke-width:0px;}</style></defs><path class="uuid-0706a842-b246-46ca-b7b7-6b29ef423395" d="m26,87.734c0,4.969-4.031,9-9,9h-3c-4.969,0-9-4.031-9-9v-39c0-3.319,2.681-6,6-6h15.019v36.094c3.075.281,5.981,1.594,8.213,3.75l5.756,5.569.057-.057,7.48,7.463c2.438,2.438,6.375,2.55,8.963.243.601-.544,1.069-1.162,1.425-1.837.45-.844,1.275-1.426,2.213-1.575.938-.15,1.894.169,2.568.844l1.52,1.519c2.456,2.456,6.487,2.344,8.793-.263,1.088-1.237,1.594-2.774,1.52-4.294-.057-1.125.524-2.193,1.5-2.737.975-.544,2.175-.524,3.112.094,2.231,1.425,5.193,1.257,7.237-.562,2.588-2.287,2.7-6.281.263-8.719l-16.219-16.219-8.344,7.688c-4.744,4.369-12.038,4.444-16.875.15-5.513-4.894-5.645-13.463-.281-18.525l14.888-14.062c4.462-4.219,10.368-6.562,16.519-6.562,5.662,0,11.138,1.987,15.469,5.644l6.188,5.194v7.163c-.601-.056-1.182-.3-1.65-.694l-8.399-7.069c-3.244-2.737-7.351-4.237-11.606-4.237-4.612,0-9.038,1.763-12.394,4.913l-14.888,14.062c-2.794,2.644-2.738,7.106.149,9.675,2.513,2.25,6.338,2.212,8.812-.075l14.27-13.163c1.219-1.125,3.112-1.05,4.237.168s1.05,3.113-.169,4.238l-1.519,1.406,16.05,16.05c1.312,1.312,2.25,2.868,2.831,4.5h10.294v-35.775h15c3.318,0,6,2.681,6,6v39c0,4.969-4.031,9-9,9h-3c-4.969,0-9-4.031-9-9v-3.188h-9.787c-.45,2.588-1.744,5.044-3.863,6.938-2.943,2.625-6.844,3.525-10.443,2.775-.506,1.519-1.312,2.962-2.438,4.219-4.331,4.856-11.644,5.362-16.575,1.368-.131.15-.281.281-.431.413-4.95,4.425-12.507,4.219-17.213-.487l-4.557-4.557-8.644-8.362c-1.106-1.088-2.531-1.781-4.05-2.025v2.906Zm-15-39v39c0,1.65,1.35,3,3,3h3c1.649,0,3-1.35,3-3v-39h-9Zm45.112-18l-6.6,6.6c-3.113.769-6.038,2.231-8.531,4.331l-7.594,6.375c-.395.337-.882.562-1.388.656v-7.331l5.118-4.312c4.856-4.069,11.007-6.319,17.363-6.319h1.631Zm53.888,18v39c0,1.65,1.35,3,3,3h3c1.65,0,3-1.35,3-3v-39h-9Z"/></svg>