<?xml version="1.0" encoding="UTF-8"?><svg id="uuid-ef7212bd-996c-4b3c-8bca-ec1bcc594746" xmlns="http://www.w3.org/2000/svg" viewBox="0 0 130 130"><defs><style>.uuid-b7946ae8-0d92-46fd-b318-228addfb63a6{fill:#0b3c3a;stroke-width:0px;}</style></defs><path class="uuid-b7946ae8-0d92-46fd-b318-228addfb63a6" d="m81.8,28.334c.75.562,1.2,1.462,1.2,2.4s-.45,1.837-1.2,2.4l-12,9c-1.331.994-3.206.731-4.2-.6-.993-1.331-.73-3.206.601-4.2l4.8-3.6h-33c-8.288,0-15,6.712-15,15s6.712,15,15,15h54c11.606,0,21,9.394,21,21,0,10.688-7.987,19.52-18.338,20.832-1.274,5.269-6.019,9.169-11.662,9.169-6.619,0-12-5.382-12-12.001s5.381-12,12-12c5.513,0,10.162,3.713,11.568,8.775,7.051-1.219,12.432-7.369,12.432-14.775,0-8.287-6.713-15-15-15h-54c-11.606,0-21-9.394-21-21s9.394-21,21-21h33l-4.8-3.6c-1.331-.994-1.594-2.869-.601-4.2.994-1.332,2.869-1.594,4.2-.6l12,9Zm-28.8,71.4l-4.8-3.6c-1.332-.994-1.594-2.869-.6-4.2s2.869-1.594,4.2-.6l12,9c.75.562,1.2,1.462,1.2,2.399s-.45,1.838-1.2,2.4l-12,9c-1.331.994-3.206.731-4.2-.6s-.731-3.206.6-4.2l4.8-3.6h-12.375c-1.331,5.175-6.038,9-11.625,9-6.619,0-12-5.382-12-12.001s5.381-12,12-12c5.587,0,10.294,3.825,11.625,9h12.375Zm-24,9.001c3.313,0,6-2.687,6-6.001s-2.687-6-6-6-6,2.687-6,6,2.687,6.001,6,6.001Zm59.99-5.991c.006-3.313-2.677-6.004-5.99-6.01-3.313-.005-6.004,2.677-6.01,5.991-.005,3.313,2.678,6.004,5.991,6.01,3.313.005,6.004-2.678,6.009-5.991Zm1.617-66.01c-2.144-3.713-2.144-8.287,0-12s6.105-6,10.393-6,8.249,2.287,10.393,6,2.144,8.287,0,12-6.105,6-10.393,6-8.249-2.287-10.393-6Zm4.393-6c0,3.313,2.687,6,6,6s6-2.687,6-6-2.687-6-6-6-6,2.687-6,6Z"/></svg>