<svg id="Layer_1" data-name="Layer 1" xmlns="http://www.w3.org/2000/svg" viewBox="0 0 162 162"><defs><style>.cls-1{fill:none;stroke:#00cfb6;stroke-linecap:round;stroke-linejoin:round;stroke-width:10px;}.cls-2{fill:#007175;}</style></defs><circle class="cls-1" cx="81" cy="81" r="74.711"/><path class="cls-2" d="M74.621,51.307V46.58A1.581,1.581,0,0,0,73.045,45H44.677A1.58,1.58,0,0,0,43.1,46.58v4.727H32.07a1.581,1.581,0,0,0-1.576,1.576v5.989c0,5.939,6.727,12.332,15.72,14.046,2.7,5.7,6.708,8.687,10.283,9.593v8.2h-6.3a3.939,3.939,0,0,0-3.94,3.94.79.79,0,0,0,.788.788h23.64a.79.79,0,0,0,.788-.788,3.939,3.939,0,0,0-3.94-3.94h-6.3v-8.2c3.575-.916,7.584-3.89,10.283-9.593,8.973-1.7,15.72-8.1,15.72-14.046V52.883a1.581,1.581,0,0,0-1.576-1.576Zm-39.4,7.565V56.035H43.1A45.462,45.462,0,0,0,44.313,67.54C38.886,65.678,35.222,61.738,35.222,58.872ZM58.861,78.1c-5.22,0-11.032-7.723-11.032-21.276V49.731H69.893v7.092C69.893,70.662,63.9,78.1,58.861,78.1ZM82.5,58.872c0,2.866-3.664,6.806-9.091,8.668a45.506,45.506,0,0,0,1.212-11.505H82.5Z"/><path class="cls-2" d="M118.9,80.676V75.948a1.58,1.58,0,0,0-1.575-1.576H88.955a1.581,1.581,0,0,0-1.576,1.576v4.728H76.348a1.58,1.58,0,0,0-1.576,1.576V88.24c0,5.94,6.727,12.332,15.72,14.046,2.7,5.7,6.708,8.687,10.283,9.593v8.195h-6.3a3.939,3.939,0,0,0-3.94,3.94.79.79,0,0,0,.788.788h23.64a.79.79,0,0,0,.788-.788,3.94,3.94,0,0,0-3.94-3.94h-6.3v-8.195c3.575-.916,7.584-3.89,10.283-9.593,8.973-1.7,15.72-8.1,15.72-14.046V82.252a1.58,1.58,0,0,0-1.576-1.576ZM79.5,88.24V85.4h7.879a45.459,45.459,0,0,0,1.212,11.5C83.164,95.046,79.5,91.106,79.5,88.24Zm23.639,19.227c-5.22,0-11.032-7.722-11.032-21.276V79.1h22.064v7.091C114.171,100.03,108.182,107.467,103.139,107.467ZM126.778,88.24c0,2.866-3.664,6.806-9.091,8.668A45.5,45.5,0,0,0,118.9,85.4h7.88Z"/><path class="cls-2" d="M65.072,58.239l-3.781-.548L59.6,54.267a.825.825,0,0,0-1.48,0l-1.69,3.424-3.781.548a.828.828,0,0,0-.461,1.411l2.735,2.666-.645,3.763a.829.829,0,0,0,1.2.871l3.38-1.777,3.38,1.777a.83.83,0,0,0,1.2-.871L62.8,62.316l2.735-2.666A.828.828,0,0,0,65.072,58.239Z"/></svg>