<?xml version="1.0" encoding="UTF-8"?><svg id="uuid-c847e3f9-66e1-4dc4-bf2e-b6913caa87e2" xmlns="http://www.w3.org/2000/svg" viewBox="0 0 162 162"><defs><style>.uuid-4a5680cd-5e00-44ac-a575-c8d8a9bf6b7f{stroke-width:6.29px;}.uuid-4a5680cd-5e00-44ac-a575-c8d8a9bf6b7f,.uuid-8fd9981e-0d08-4cb2-97ad-b8a2381c434c,.uuid-90ab0fcc-185c-43d3-9e36-abca461cacf2,.uuid-4b585657-4fb5-4bfb-9226-03568c07a5f8,.uuid-b1c81b16-de00-4f56-a8c0-868815e0c231,.uuid-15fe210a-0a20-4572-a732-a75ace610abf,.uuid-86499621-dbc1-417b-992c-1a060d7192b1{fill:none;}.uuid-4a5680cd-5e00-44ac-a575-c8d8a9bf6b7f,.uuid-90ab0fcc-185c-43d3-9e36-abca461cacf2,.uuid-4b585657-4fb5-4bfb-9226-03568c07a5f8,.uuid-b1c81b16-de00-4f56-a8c0-868815e0c231,.uuid-86499621-dbc1-417b-992c-1a060d7192b1{stroke-linecap:round;stroke-linejoin:round;}.uuid-4a5680cd-5e00-44ac-a575-c8d8a9bf6b7f,.uuid-90ab0fcc-185c-43d3-9e36-abca461cacf2,.uuid-4b585657-4fb5-4bfb-9226-03568c07a5f8,.uuid-15fe210a-0a20-4572-a732-a75ace610abf,.uuid-86499621-dbc1-417b-992c-1a060d7192b1{stroke:#007175;}.uuid-8fd9981e-0d08-4cb2-97ad-b8a2381c434c,.uuid-9e4c5938-973e-426d-b967-cc5a4b335887,.uuid-611dd0b3-7847-4aa4-a753-ca378dd65aed{stroke-width:0px;}.uuid-90ab0fcc-185c-43d3-9e36-abca461cacf2{stroke-width:7.511px;}.uuid-4b585657-4fb5-4bfb-9226-03568c07a5f8{stroke-width:5.633px;}.uuid-b1c81b16-de00-4f56-a8c0-868815e0c231{stroke:#00cfb6;stroke-width:10px;}.uuid-15fe210a-0a20-4572-a732-a75ace610abf{stroke-miterlimit:10;}.uuid-86499621-dbc1-417b-992c-1a060d7192b1{stroke-width:4.694px;}.uuid-9e4c5938-973e-426d-b967-cc5a4b335887{fill:#fff;}.uuid-611dd0b3-7847-4aa4-a753-ca378dd65aed{fill:#007175;}</style></defs><circle class="uuid-b1c81b16-de00-4f56-a8c0-868815e0c231" cx="81" cy="81" r="74.711"/><circle class="uuid-b1c81b16-de00-4f56-a8c0-868815e0c231" cx="81" cy="81" r="74.711"/><line class="uuid-15fe210a-0a20-4572-a732-a75ace610abf" x1="81" y1="40.455" x2="81" y2="34.045"/><circle class="uuid-8fd9981e-0d08-4cb2-97ad-b8a2381c434c" cx="81" cy="81.015" r="5"/><circle class="uuid-9e4c5938-973e-426d-b967-cc5a4b335887" cx="81" cy="81.015" r="2.74"/><circle class="uuid-4a5680cd-5e00-44ac-a575-c8d8a9bf6b7f" cx="81" cy="82.605" r="37.748"/><line class="uuid-90ab0fcc-185c-43d3-9e36-abca461cacf2" x1="81" y1="42.041" x2="81" y2="35.631"/><line class="uuid-90ab0fcc-185c-43d3-9e36-abca461cacf2" x1="75.15" y1="35.351" x2="86.85" y2="35.351"/><line class="uuid-4b585657-4fb5-4bfb-9226-03568c07a5f8" x1="107.536" y1="55.809" x2="112.381" y2="50.963"/><line class="uuid-4b585657-4fb5-4bfb-9226-03568c07a5f8" x1="54.282" y1="55.809" x2="49.436" y2="50.963"/><line class="uuid-86499621-dbc1-417b-992c-1a060d7192b1" x1="81" y1="63.634" x2="81" y2="76.605"/><line class="uuid-86499621-dbc1-417b-992c-1a060d7192b1" x1="59.942" y1="61.547" x2="77" y2="78.605"/><path class="uuid-611dd0b3-7847-4aa4-a753-ca378dd65aed" d="m81,74.786c-4.318,0-7.819,3.502-7.818,7.82,0,4.318,3.502,7.819,7.82,7.818,4.318,0,7.818-3.501,7.818-7.819-.005-4.317-3.503-7.815-7.82-7.819Zm0,10.555c-1.511,0-2.736-1.225-2.736-2.736s1.225-2.736,2.736-2.736,2.736,1.225,2.736,2.736-1.225,2.736-2.736,2.736h0Z"/></svg>