<svg id="Layer_1" data-name="Layer 1" xmlns="http://www.w3.org/2000/svg" viewBox="0 0 162 162"><defs><style>.cls-1,.cls-2{fill:none;stroke-linecap:round;stroke-linejoin:round;}.cls-1{stroke:#00cfb6;stroke-width:10px;}.cls-2{stroke:#007175;stroke-width:5.392px;}</style></defs><circle class="cls-1" cx="81" cy="81" r="74.711"/><line class="cls-2" x1="35.734" y1="81.91" x2="35.734" y2="89.49"/><path class="cls-2" d="M112.45,65.248c8.054,4.193,18.012,8.411,18.012,8.411s3.126,18.3-16.824,32.791L90.376,92.639"/><path class="cls-2" d="M99.715,82.258l-6.86,7.9s-5.133,6.189-17.27,6.169c-6.364-.011-30.591,0-30.591,0S38.48,97.371,29.36,84.6l28.053-11.85a7.591,7.591,0,0,0,3.443-2.906l3.664-5.734A4.872,4.872,0,0,1,67.494,62l26.488-6.318a9.209,9.209,0,0,1,4.64.767"/><line class="cls-2" x1="71.869" y1="70.756" x2="72.517" y2="70.561"/><path class="cls-2" d="M92.419,63.5s3.908-9.12,13.549-9.12H122.16l-11.2,12.544"/><path class="cls-2" d="M57.413,72.753s10.512,4.554,10.512,23.576"/></svg>