<svg id="Layer_1" data-name="Layer 1" xmlns="http://www.w3.org/2000/svg" viewBox="0 0 162 162"><defs><style>.cls-1{fill:#007175;stroke:#007175;stroke-miterlimit:10;stroke-width:0.25px;}.cls-2{fill:none;stroke:#ffdc00;stroke-linecap:round;stroke-linejoin:round;stroke-width:10px;}</style></defs><path class="cls-1" d="M114.576,76.2a11.991,11.991,0,1,0-11.992-11.991A11.988,11.988,0,0,0,114.576,76.2Zm0-19.186a7.2,7.2,0,1,1-7.195,7.2A7.2,7.2,0,0,1,114.576,57.017ZM81,81A16.788,16.788,0,1,0,64.212,64.212,16.78,16.78,0,0,0,81,81Zm0-28.779A11.991,11.991,0,1,1,69.009,64.212,12.007,12.007,0,0,1,81,52.221ZM117.573,81h-5.995a10.838,10.838,0,0,0-6.161,1.934,20.335,20.335,0,0,1,3.808,3.357,5.954,5.954,0,0,1,2.353-.494h5.995c3.628,0,6.6,3.222,6.6,7.194a2.4,2.4,0,1,0,4.8,0C128.965,86.381,123.854,81,117.573,81ZM47.424,76.2A11.991,11.991,0,1,0,35.433,64.212,11.988,11.988,0,0,0,47.424,76.2Zm0-19.186a7.2,7.2,0,1,1-7.194,7.2A7.2,7.2,0,0,1,47.424,57.017ZM93.006,84C88,84,86.756,85.8,81,85.8S74,84,68.994,84a16.518,16.518,0,0,0-13.835,7.03,17.172,17.172,0,0,0-2.938,9.638v6.715a7.2,7.2,0,0,0,7.2,7.195h43.168a7.2,7.2,0,0,0,7.195-7.195v-6.715a17.172,17.172,0,0,0-2.938-9.638A16.52,16.52,0,0,0,93.006,84Zm11.977,23.383a2.406,2.406,0,0,1-2.4,2.4H59.416a2.406,2.406,0,0,1-2.4-2.4v-6.715a12.453,12.453,0,0,1,2.114-6.955,11.731,11.731,0,0,1,9.848-4.917c4.107,0,5.576,1.8,12.021,1.8s7.914-1.8,12.006-1.8a11.731,11.731,0,0,1,9.848,4.917,12.453,12.453,0,0,1,2.114,6.955v6.715Zm-48.4-24.447A10.91,10.91,0,0,0,50.422,81H44.427c-6.281,0-11.392,5.381-11.392,11.991a2.4,2.4,0,1,0,4.8,0c0-3.972,2.968-7.194,6.6-7.194h5.995a5.954,5.954,0,0,1,2.353.494,20.818,20.818,0,0,1,3.808-3.357Z"/><circle class="cls-2" cx="81" cy="81" r="74.711"/></svg>