<svg id="Layer_1" data-name="Layer 1" xmlns="http://www.w3.org/2000/svg" viewBox="0 0 162 162"><defs><style>.cls-1{fill:#007175;}.cls-2{fill:none;stroke:#00cfb6;stroke-linecap:round;stroke-linejoin:round;stroke-width:10px;}</style></defs><path class="cls-1" d="M121,68a42.055,42.055,0,1,0-40,55.081A42.066,42.066,0,0,0,121,68Zm-7.3,29.475-16,1.968L94.676,95.22,100.4,77.555l4.9-1.527,11.811,11.03A37.338,37.338,0,0,1,113.7,97.477ZM44.957,87.024,56.734,76.011l4.9,1.527,5.752,17.6-3.071,4.276L48.334,97.443a34.26,34.26,0,0,1-3.377-10.419ZM78.3,56.361v5.583L63.725,72.515,58.38,70.853,55.325,54.919A36.629,36.629,0,0,1,64.149,48.5Zm25.352,14.492-5.345,1.662L83.731,61.944V56.361l14.187-7.874a36.546,36.546,0,0,1,8.823,6.432l-3.088,15.934ZM67.1,76.792l13.914-10.1L94.948,76.809,89.671,93.1H72.43ZM117.619,80.1l-8.672-8.095L111.2,60.417A35.987,35.987,0,0,1,117.619,80.1ZM91.384,45.908,81.016,51.661,70.665,45.925C82.8,42.328,91.367,45.908,91.384,45.908ZM50.845,60.315l2.24,11.691-8.671,8.061a36.573,36.573,0,0,1,4-15.714,35.92,35.92,0,0,1,2.426-4.038Zm1.273,43.1,11.658,1.425,4.955,10.64A36.427,36.427,0,0,1,52.118,103.416Zm23.4,13.8-6.8-14.593,2.952-4.107h18.7l2.936,4.107L86.5,117.212A34.531,34.531,0,0,1,75.518,117.212ZM93.3,115.481l4.955-10.64,11.709-1.442A36.269,36.269,0,0,1,93.3,115.481Z"/><circle class="cls-2" cx="81" cy="81" r="74.711"/></svg>