<svg id="Layer_1" data-name="Layer 1" xmlns="http://www.w3.org/2000/svg" viewBox="0 0 162 162"><defs><style>.cls-1{fill:#007175;}.cls-2{fill:none;stroke:#00cfb6;stroke-linecap:round;stroke-linejoin:round;stroke-width:10px;}</style></defs><path class="cls-1" d="M108.2,48.324h-7.419V39.668a1.239,1.239,0,0,0-1.236-1.236H97.075a1.24,1.24,0,0,0-1.237,1.236v8.656H66.162V39.668a1.24,1.24,0,0,0-1.237-1.236H62.452a1.239,1.239,0,0,0-1.236,1.236v8.656H53.8a7.421,7.421,0,0,0-7.419,7.419v54.406a7.421,7.421,0,0,0,7.419,7.419H108.2a7.421,7.421,0,0,0,7.419-7.419V55.743A7.421,7.421,0,0,0,108.2,48.324Zm2.473,61.825a2.48,2.48,0,0,1-2.473,2.473H53.8a2.48,2.48,0,0,1-2.473-2.473V68.108h59.352Zm0-46.987H51.324V55.743A2.48,2.48,0,0,1,53.8,53.27H108.2a2.48,2.48,0,0,1,2.473,2.473ZM58.743,92.838h44.514a2.48,2.48,0,0,0,2.473-2.473V75.527a2.48,2.48,0,0,0-2.473-2.473H58.743a2.48,2.48,0,0,0-2.473,2.473V90.365A2.48,2.48,0,0,0,58.743,92.838ZM61.216,78h39.568v9.892H61.216Z"/><circle class="cls-2" cx="81" cy="81" r="74.711"/></svg>