<svg id="Layer_1" data-name="Layer 1" xmlns="http://www.w3.org/2000/svg" viewBox="0 0 162 162"><defs><style>.cls-1,.cls-2,.cls-3,.cls-4{fill:none;}.cls-1,.cls-3{stroke:#ffdb18;stroke-miterlimit:10;}.cls-1,.cls-2,.cls-3{stroke-width:10px;}.cls-2{stroke:#00cfb7;}.cls-2,.cls-3,.cls-4{stroke-linecap:round;}.cls-2,.cls-4{stroke-linejoin:round;}.cls-4{stroke:#007174;stroke-width:5px;}.cls-5{fill:#007174;}</style></defs><path class="cls-1" d="M81,155.711A74.711,74.711,0,0,0,133.838,28.18"/><path class="cls-2" d="M133.838,28.18A74.711,74.711,0,1,0,28.18,133.838"/><path class="cls-3" d="M28.18,133.838A74.482,74.482,0,0,0,81,155.711"/><polyline class="cls-4" points="74.374 68.264 66.97 75.668 41.783 50.48 49.186 43.076 105.616 99.343 112.86 106.741 120.264 99.338 95.076 74.15 87.672 81.554"/><polyline class="cls-4" points="74.379 81.558 81.782 88.962 56.594 114.149 49.191 106.746 109.458 46.316 112.856 43.072 105.453 35.668 80.265 60.856 87.668 68.261"/><line class="cls-4" x1="96.817" y1="119.807" x2="89.491" y2="83.741"/><line class="cls-4" x1="68.818" y1="102.608" x2="65.324" y2="119.807"/><polyline class="cls-4" points="94.32 120.024 94.32 131.101 68.062 131.101 68.062 120.024"/><path class="cls-5" d="M74.885,82.338,51.163,106.061l6.3,6.3L81.182,88.635ZM62.761,104.163a2.5,2.5,0,1,1-3.535-3.536L72.308,87.546a2.5,2.5,0,1,1,3.535,3.536Z"/><path class="cls-5" d="M105.681,36.773,81.959,60.5l6.3,6.3,23.723-23.723ZM103.87,48.068,90.017,61.921a2.5,2.5,0,0,1-3.535-3.535l13.853-13.853a2.5,2.5,0,0,1,3.535,3.535Z"/><line class="cls-4" x1="80.528" y1="107.386" x2="80.528" y2="111.079"/><path class="cls-5" d="M48.075,43.157l-6.3,6.3L66.5,74.177l6.3-6.3ZM66.582,70.146a2.489,2.489,0,0,1-1.767-.732l-13.7-13.7a2.5,2.5,0,0,1,3.535-3.535l13.7,13.705a2.5,2.5,0,0,1-1.768,4.267Z"/><path class="cls-5" d="M95.64,75.953l-6.3,6.3,24.722,24.723,6.3-6.3ZM111.826,97.9a2.5,2.5,0,0,1-3.535,0L93.975,83.588a2.5,2.5,0,0,1,3.535-3.535l14.316,14.316A2.5,2.5,0,0,1,111.826,97.9Z"/></svg>