<svg id="Layer_1" data-name="Layer 1" xmlns="http://www.w3.org/2000/svg" viewBox="0 0 162 162"><defs><style>.cls-1,.cls-5,.cls-6,.cls-7{fill:none;}.cls-1,.cls-3,.cls-4{stroke:#007174;}.cls-1,.cls-3,.cls-4,.cls-6,.cls-7{stroke-linecap:round;}.cls-1,.cls-3,.cls-4,.cls-6{stroke-linejoin:round;}.cls-1,.cls-4{stroke-width:5px;}.cls-2,.cls-3{fill:#007174;}.cls-3{stroke-width:2.094px;}.cls-4{fill:#00cfb7;}.cls-5,.cls-7{stroke:#ffdb18;stroke-miterlimit:10;}.cls-5,.cls-6,.cls-7{stroke-width:10px;}.cls-6{stroke:#00cfb7;}</style></defs><rect class="cls-1" x="80.064" y="72.579" width="37.196" height="49.325"/><path class="cls-2" d="M92.162,90.1l.07,1.625a3.423,3.423,0,0,1-.726,2.293h7.638v2.819H86.758V94.014h1.076q.841-.21.842-2.094L88.618,90.1H86.723V87.335h1.8l-.081-2.655a4.893,4.893,0,0,1,1.444-3.731,5.392,5.392,0,0,1,3.866-1.368A5.5,5.5,0,0,1,97.647,80.9a4.627,4.627,0,0,1,1.416,3.562H95.706a2.1,2.1,0,0,0-.509-1.52,1.928,1.928,0,0,0-1.456-.527,1.64,1.64,0,0,0-1.281.573,2.486,2.486,0,0,0-.508,1.7l.105,2.655h3.614V90.1Z"/><line class="cls-1" x1="88.834" y1="112.389" x2="109.087" y2="112.389"/><rect class="cls-1" x="42.706" y="42.171" width="37.196" height="49.325"/><path class="cls-2" d="M54.8,59.688l.07,1.626a3.423,3.423,0,0,1-.725,2.292h7.638v2.819H49.4V63.606h1.076q.843-.21.843-2.093l-.059-1.825H49.365v-2.76h1.8l-.082-2.655a4.89,4.89,0,0,1,1.445-3.731A5.386,5.386,0,0,1,56.4,49.173a5.5,5.5,0,0,1,3.895,1.316,4.629,4.629,0,0,1,1.415,3.562H58.349a2.1,2.1,0,0,0-.509-1.521A1.933,1.933,0,0,0,56.384,52a1.64,1.64,0,0,0-1.281.573,2.484,2.484,0,0,0-.509,1.7l.1,2.655h3.614v2.76Z"/><line class="cls-1" x1="51.477" y1="81.982" x2="71.729" y2="81.982"/><polygon class="cls-3" points="109.641 48.394 115.494 54.246 109.642 60.099 109.641 48.394"/><line class="cls-4" x1="110.247" y1="54.246" x2="90.627" y2="54.246"/><polygon class="cls-3" points="50.602 115.458 44.749 109.606 50.602 103.754 50.602 115.458"/><line class="cls-4" x1="49.997" y1="109.606" x2="69.617" y2="109.606"/><path class="cls-5" d="M81,155.711A74.711,74.711,0,0,0,133.838,28.18"/><path class="cls-6" d="M133.838,28.18A74.711,74.711,0,1,0,28.18,133.838"/><path class="cls-7" d="M28.18,133.838A74.482,74.482,0,0,0,81,155.711"/></svg>