<svg id="Layer_1" data-name="Layer 1" xmlns="http://www.w3.org/2000/svg" viewBox="0 0 162 162"><defs><style>.cls-1,.cls-2{fill:#007174;}.cls-2,.cls-3,.cls-4{stroke:#007174;}.cls-2,.cls-3,.cls-4,.cls-6,.cls-7{stroke-linecap:round;}.cls-2,.cls-3,.cls-4,.cls-6{stroke-linejoin:round;}.cls-2{stroke-width:3.296px;}.cls-3,.cls-5,.cls-6,.cls-7{fill:none;}.cls-3{stroke-width:6.702px;}.cls-4{fill:#00cfb7;stroke-width:5.789px;}.cls-5,.cls-7{stroke:#ffdb18;stroke-miterlimit:10;}.cls-5,.cls-6,.cls-7{stroke-width:10px;}.cls-6{stroke:#00cfb7;}</style></defs><path class="cls-1" d="M62.293,61.221h2.484q2.953,0,2.953-2.89a2.5,2.5,0,0,0-.7-1.836,2.664,2.664,0,0,0-1.984-.711,2.853,2.853,0,0,0-1.82.609,1.859,1.859,0,0,0-.774,1.516H57.184a5.386,5.386,0,0,1,1-3.2,6.6,6.6,0,0,1,2.773-2.2,9.479,9.479,0,0,1,3.9-.789,9.312,9.312,0,0,1,5.969,1.735A5.765,5.765,0,0,1,73,58.221,4.812,4.812,0,0,1,72.1,61a6.406,6.406,0,0,1-2.618,2.117A6.11,6.11,0,0,1,72.324,65.1a5.244,5.244,0,0,1,1.031,3.305,5.872,5.872,0,0,1-2.343,4.875,9.736,9.736,0,0,1-6.157,1.828,10.084,10.084,0,0,1-4.148-.852,6.493,6.493,0,0,1-2.9-2.359,6.13,6.13,0,0,1-.985-3.43h5.3a2.371,2.371,0,0,0,.844,1.813,2.979,2.979,0,0,0,2.078.765,3.121,3.121,0,0,0,2.219-.773A2.589,2.589,0,0,0,68.09,68.3a3.022,3.022,0,0,0-.86-2.437,3.593,3.593,0,0,0-2.375-.719H62.293Z"/><polygon class="cls-2" points="31.302 83.5 40.513 74.29 49.723 83.5 31.302 83.5"/><polygon class="cls-2" points="131.723 76.5 122.513 85.71 113.302 76.5 131.723 76.5"/><path class="cls-3" d="M122.5,81A41.5,41.5,0,0,0,81,39.5"/><path class="cls-1" d="M100.152,106.8H94.871V89.987L89.684,91.5v-4l9.984-3.453h.484Z"/><path class="cls-3" d="M39.5,81A41.5,41.5,0,0,0,81,122.5"/><line class="cls-4" x1="97.215" y1="63.836" x2="64.011" y2="97.04"/><path class="cls-5" d="M81,155.711A74.711,74.711,0,0,0,133.838,28.18"/><path class="cls-6" d="M133.838,28.18A74.711,74.711,0,1,0,28.18,133.838"/><path class="cls-7" d="M28.18,133.838A74.482,74.482,0,0,0,81,155.711"/></svg>