<?xml version="1.0" encoding="UTF-8"?><svg id="uuid-d43bfd68-148b-46e9-a454-f3c52eee02cc" xmlns="http://www.w3.org/2000/svg" viewBox="0 0 162 162"><defs><style>.uuid-bed7448e-85d3-4c7d-b168-0e32265065da{fill:#0e7174;}.uuid-61b7522e-3b7e-46ee-a058-58c923fe0192{stroke-width:4.49px;}.uuid-61b7522e-3b7e-46ee-a058-58c923fe0192,.uuid-14417fdd-2566-4940-877c-49c06c0053c8,.uuid-4b9c53dc-756f-490c-ba02-b51c87f4cdb7,.uuid-40bbeb2f-01df-48fb-9db9-31e4b7fe9fca,.uuid-b96cb744-3f02-4023-8c39-fee7437b81f5{fill:none;stroke-miterlimit:10;}.uuid-61b7522e-3b7e-46ee-a058-58c923fe0192,.uuid-40bbeb2f-01df-48fb-9db9-31e4b7fe9fca,.uuid-b96cb744-3f02-4023-8c39-fee7437b81f5{stroke:#0e7174;}.uuid-14417fdd-2566-4940-877c-49c06c0053c8{stroke:#00cfb7;}.uuid-14417fdd-2566-4940-877c-49c06c0053c8,.uuid-4b9c53dc-756f-490c-ba02-b51c87f4cdb7{stroke-width:10px;}.uuid-4b9c53dc-756f-490c-ba02-b51c87f4cdb7{stroke:#ffdb18;}.uuid-40bbeb2f-01df-48fb-9db9-31e4b7fe9fca{stroke-width:4.12px;}.uuid-b96cb744-3f02-4023-8c39-fee7437b81f5{stroke-width:4.3px;}</style></defs><g><path class="uuid-14417fdd-2566-4940-877c-49c06c0053c8" d="m133.84,28.18c-13.52-13.53-32.2-21.89-52.84-21.89C39.74,6.29,6.29,39.74,6.29,81c0,20.64,8.37,39.32,21.89,52.84"/><path class="uuid-4b9c53dc-756f-490c-ba02-b51c87f4cdb7" d="m28.18,133.84c13.52,13.51,32.19,21.87,52.82,21.87,41.26,0,74.71-33.45,74.71-74.71,0-20.63-8.36-39.3-21.87-52.82"/></g><g><rect class="uuid-61b7522e-3b7e-46ee-a058-58c923fe0192" x="56.09" y="29.84" width="50.46" height="102.31" rx="25.23" ry="25.23"/><rect class="uuid-b96cb744-3f02-4023-8c39-fee7437b81f5" x="64.62" y="38.45" width="33.4" height="85.11" rx="16.7" ry="16.7"/><rect class="uuid-40bbeb2f-01df-48fb-9db9-31e4b7fe9fca" x="73.15" y="47.05" width="16.34" height="67.9" rx="8.17" ry="8.17"/></g><path class="uuid-bed7448e-85d3-4c7d-b168-0e32265065da" d="m111.84,36.88c0-2.09,1.6-3.69,3.71-3.69s3.71,1.6,3.71,3.69-1.6,3.71-3.71,3.71-3.71-1.6-3.71-3.71Zm1.9,13.96c-.24-.16-.3-.38-.16-.6l11.04-16.54c.14-.22.35-.27.57-.11l1.79,1.19c.24.16.3.38.16.6l-11.04,16.54c-.13.22-.35.27-.57.11l-1.79-1.19Zm2.6-13.96c0-.43-.33-.81-.79-.81s-.79.38-.79.81c0,.46.33.84.79.84s.79-.38.79-.84Zm5.1,11.85c0-2.09,1.6-3.69,3.71-3.69s3.71,1.6,3.71,3.69-1.6,3.71-3.71,3.71-3.71-1.6-3.71-3.71Zm4.5,0c0-.43-.33-.81-.79-.81s-.79.38-.79.81c0,.46.33.84.79.84s.79-.38.79-.84Z"/></svg>