<svg id="Layer_1" data-name="Layer 1" xmlns="http://www.w3.org/2000/svg" viewBox="0 0 162 162"><defs><style>.cls-1{fill:none;stroke:#ffdc00;stroke-linejoin:round;stroke-width:10px;}.cls-1,.cls-2{stroke-linecap:round;}.cls-2{fill:#007175;stroke:#007175;stroke-miterlimit:10;}</style></defs><circle class="cls-1" cx="81" cy="81" r="74.711"/><path class="cls-2" d="M125.649,76.8H114.107V65.261a1.052,1.052,0,0,0-1.049-1.049h-2.1a1.052,1.052,0,0,0-1.049,1.049V76.8H98.368a1.052,1.052,0,0,0-1.049,1.049v2.1A1.052,1.052,0,0,0,98.368,81H109.91V92.542a1.052,1.052,0,0,0,1.049,1.049h2.1a1.052,1.052,0,0,0,1.049-1.049V81h11.542a1.052,1.052,0,0,0,1.049-1.049v-2.1A1.052,1.052,0,0,0,125.649,76.8ZM83.889,85.2c-3.764,0-5.574,2.1-11.752,2.1s-7.974-2.1-11.751-2.1a17.631,17.631,0,0,0-17.627,17.627v5.456a6.3,6.3,0,0,0,6.3,6.3H95.221a6.3,6.3,0,0,0,6.3-6.3v-5.456A17.631,17.631,0,0,0,83.889,85.2Zm13.43,23.083a2.1,2.1,0,0,1-2.1,2.1H49.054a2.1,2.1,0,0,1-2.1-2.1v-5.456a13.439,13.439,0,0,1,13.43-13.43c2.571,0,5.128,2.1,11.751,2.1s9.181-2.1,11.752-2.1a13.439,13.439,0,0,1,13.43,13.43ZM72.137,81A16.788,16.788,0,1,0,55.35,64.212,16.786,16.786,0,0,0,72.137,81Zm0-29.379A12.591,12.591,0,1,1,59.546,64.212,12.611,12.611,0,0,1,72.137,51.621Z"/></svg>