<?xml version="1.0" encoding="UTF-8"?><svg id="uuid-029476cf-e18b-46b0-8ff9-3a1c20930869" xmlns="http://www.w3.org/2000/svg" viewBox="0 0 162 162"><defs><style>.uuid-32db1f14-1b2e-458f-9273-1a87ef4a0431{fill:#00cfb7;}.uuid-c273840c-1bec-4b75-9371-9fd37eb15c50{fill:none;stroke:#00cfb7;stroke-linecap:round;stroke-miterlimit:10;stroke-width:9.6px;}</style></defs><circle class="uuid-c273840c-1bec-4b75-9371-9fd37eb15c50" cx="81" cy="81" r="74.71"/><path class="uuid-32db1f14-1b2e-458f-9273-1a87ef4a0431" d="m85,49.45c2.86-.02,5.71.32,8.48,1.01,1.63.42,3.23.92,4.81,1.5,1.25.47,1.89,1.86,1.42,3.11-.01.03-.02.06-.04.09l-1.52,3.65c-.49,1.19-1.83,1.78-3.03,1.34-1.15-.43-2.32-.82-3.54-1.17-1.92-.55-3.9-.84-5.9-.84-2.06-.09-4.08.61-5.65,1.94-1.46,1.3-2.19,3.46-2.19,6.5v6.95c0,1.33,1.08,2.41,2.41,2.41h11.29c1.33,0,2.41,1.08,2.41,2.41h0v2.86c0,1.33-1.08,2.41-2.41,2.41h-11.29c-1.33,0-2.41,1.08-2.41,2.41h0v4.59c0,3.15-.3,5.77-1.39,7.52-.69,1.33-1.73,2.44-3.01,3.2h26.62c1.33,0,2.41,1.08,2.41,2.41h0v4.38c0,1.33-1.08,2.41-2.41,2.41h-38.12c-1.33,0-2.41-1.08-2.41-2.41h0v-4.6c-.02-.95.51-1.83,1.36-2.25,1.62-.74,3.08-1.79,4.29-3.09,1.41-1.55,2.11-4.03,2.11-7.47v-4.68c0-1.33-1.08-2.41-2.41-2.41h-2.77c-1.33,0-2.41-1.08-2.41-2.41h0v-2.86c0-1.33,1.08-2.41,2.41-2.41h2.77c1.33,0,2.41-1.08,2.41-2.41h0v-7.29c-.14-3.33.67-6.64,2.32-9.53,1.5-2.43,3.71-4.35,6.33-5.48,2.87-1.22,5.96-1.82,9.07-1.77Z"/></svg>