<svg id="Illustration" xmlns="http://www.w3.org/2000/svg" xmlns:xlink="http://www.w3.org/1999/xlink" viewBox="0 0 60 70"><defs><style>.cls-1,.cls-6,.cls-7{fill:none;}.cls-2{fill:#003e3f;}.cls-3{fill:#ffdb18;stroke:#ffdb18;}.cls-3,.cls-6{stroke-miterlimit:10;stroke-width:4px;}.cls-4{clip-path:url(#clip-path);}.cls-5,.cls-9{opacity:0.15;}.cls-5{fill:url(#New_Pattern_Swatch_11);}.cls-6{stroke:#29e0cb;}.cls-7{stroke:#003e3f;stroke-linecap:round;stroke-linejoin:round;stroke-width:2px;}.cls-8{clip-path:url(#clip-path-2);}.cls-9{fill:url(#New_Pattern_Swatch_11-3);}</style><clipPath id="clip-path"><circle class="cls-1" cx="25.3" cy="8.35" r="7.76"/></clipPath><pattern id="New_Pattern_Swatch_11" data-name="New Pattern Swatch 11" width="2" height="2" patternTransform="translate(20.04 48.85)" patternUnits="userSpaceOnUse" viewBox="0 0 2 2"><rect class="cls-1" width="2" height="2"/><circle class="cls-2" cx="0.52" cy="0.5" r="0.5"/><circle class="cls-1" cx="1.49" cy="0.5" r="0.5"/><circle class="cls-1" cx="0.52" cy="1.5" r="0.5"/><circle class="cls-1" cx="1.49" cy="1.5" r="0.5"/></pattern><clipPath id="clip-path-2"><circle class="cls-1" cx="52.08" cy="25.88" r="7.76"/></clipPath><pattern id="New_Pattern_Swatch_11-3" data-name="New Pattern Swatch 11" width="2" height="2" patternTransform="translate(20.82 50.39)" patternUnits="userSpaceOnUse" viewBox="0 0 2 2"><rect class="cls-1" width="2" height="2"/><circle class="cls-2" cx="0.52" cy="0.5" r="0.5"/><circle class="cls-1" cx="1.49" cy="0.5" r="0.5"/><circle class="cls-1" cx="0.52" cy="1.5" r="0.5"/><circle class="cls-1" cx="1.49" cy="1.5" r="0.5"/></pattern></defs><circle class="cls-3" cx="25.3" cy="8.35" r="5.76"/><g class="cls-4"><path class="cls-5" d="M19.54,2.58a6.71,6.71,0,0,0,1.67,4.51c1.78,1.78,5.93,1.53,7.66,3.26a9.8,9.8,0,0,1,2.32,3.88L25.3,19.55,16.79,17,15.46,4.81Z"/></g><circle class="cls-3" cx="52.08" cy="25.88" r="5.76"/><circle class="cls-6" cx="7.97" cy="42.86" r="5.76"/><path class="cls-7" d="M37.17,8.31c.83,0,.83,0,1.67,0s.83,0,1.67,0h6.7a5.26,5.26,0,0,1,1.64.26,5.39,5.39,0,0,1,1.51.72,5.55,5.55,0,0,1,1.18,1.19,5.5,5.5,0,0,1,.73,1.5,5.56,5.56,0,0,1,.23,1.64h0"/><path class="cls-7" d="M40.3,26.19c-.78,0-.78-.06-1.56-.06s-.78.06-1.56.06-.79.08-1.57.08-.78-.12-1.56-.12-.79,0-1.57,0-.78.06-1.57.06-.78-.11-1.56-.11-.78.07-1.57.07-.78,0-1.56,0H24.65c-.78,0-.78,0-1.56,0H20c-.78,0-.78.11-1.56.11s-.79,0-1.57,0-.79-.07-1.58-.07-.78,0-1.57,0a5.63,5.63,0,0,0-1.49.18,5.6,5.6,0,0,0-1.33.69,5.73,5.73,0,0,0-1.21.85,5.13,5.13,0,0,0-1.53,2.53,5.73,5.73,0,0,0-.23,1.5"/><circle class="cls-6" cx="36.96" cy="60.58" r="5.76"/><path class="cls-7" d="M19.74,43.17c.82,0,.82.09,1.64.09s.82-.07,1.65-.07.82,0,1.64,0h1.64c.83,0,.83,0,1.65,0s.83,0,1.65,0,.82,0,1.65,0a6,6,0,0,1,1.47.25,6,6,0,0,1,1.39.55,5.84,5.84,0,0,1,1.2.89,5.58,5.58,0,0,1,.86,1.22,5.39,5.39,0,0,1,.61,1.36A6,6,0,0,1,37,48.92"/><path class="cls-2" d="M25,10.72a.7.7,0,0,1-.49.2.71.71,0,0,1-.48-.2L23.27,10c-.36-.36-.35-.37-.71-.73s-.37-.35-.73-.7a.69.69,0,0,1,0-1,.66.66,0,0,1,.94,0l.84.84c.42.42.25.81.84.83s.38-.39.77-.77L26,7.76,26.75,7l.77-.76.78-.76a.68.68,0,0,1,1,0,.7.7,0,0,1,0,1c-.35.36-.38.33-.74.69l-.7.72-.71.72c-.36.36-.38.35-.73.71s-.35.37-.71.73S25.31,10.36,25,10.72Z"/><path class="cls-2" d="M51.5,29a.68.68,0,0,1-1,0l-.72-.72c-.35-.36-.34-.37-.7-.73s-.37-.34-.73-.7a.68.68,0,0,1,0-.95.64.64,0,0,1,.93,0l.84.83c.42.42.26.81.85.84s.38-.39.76-.77.38-.38.77-.77l.76-.77.77-.76c.38-.39.39-.38.77-.76a.68.68,0,0,1,1,0,.7.7,0,0,1,0,1c-.36.36-.38.33-.74.69l-.71.72c-.36.36-.35.37-.71.72l-.73.71c-.36.36-.34.37-.7.74Z"/><line class="cls-7" x1="52.53" y1="15.2" x2="52.53" y2="13.66"/><g class="cls-8"><path class="cls-9" d="M46.32,20.12A6.65,6.65,0,0,0,48,24.63c1.78,1.77,5.92,1.52,7.66,3.26A9.7,9.7,0,0,1,58,31.77l-5.88,5.32-8.52-2.55-1.33-12.2Z"/></g></svg>