<svg id="Illustration" xmlns="http://www.w3.org/2000/svg" xmlns:xlink="http://www.w3.org/1999/xlink" viewBox="0 0 54 70"><defs><style>.cls-1{fill:none;}.cls-2{fill:#003e3f;}.cls-3{fill:#29e0cb;}.cls-4,.cls-5,.cls-7{opacity:0.15;}.cls-4{fill:url(#New_Pattern_Swatch_11);}.cls-5{fill:url(#New_Pattern_Swatch_11-3);}.cls-6{fill:#ffdb18;}.cls-7{fill:url(#New_Pattern_Swatch_11-7);}</style><pattern id="New_Pattern_Swatch_11" data-name="New Pattern Swatch 11" width="2" height="2" patternTransform="translate(38.32 26.36)" patternUnits="userSpaceOnUse" viewBox="0 0 2 2"><rect class="cls-1" width="2" height="2"/><circle class="cls-2" cx="0.52" cy="0.5" r="0.5"/><circle class="cls-1" cx="1.49" cy="0.5" r="0.5"/><circle class="cls-1" cx="0.52" cy="1.5" r="0.5"/><circle class="cls-1" cx="1.49" cy="1.5" r="0.5"/></pattern><pattern id="New_Pattern_Swatch_11-3" data-name="New Pattern Swatch 11" width="2" height="2" patternTransform="translate(38.32 27.36)" patternUnits="userSpaceOnUse" viewBox="0 0 2 2"><rect class="cls-1" width="2" height="2"/><circle class="cls-2" cx="0.52" cy="0.5" r="0.5"/><circle class="cls-1" cx="1.49" cy="0.5" r="0.5"/><circle class="cls-1" cx="0.52" cy="1.5" r="0.5"/><circle class="cls-1" cx="1.49" cy="1.5" r="0.5"/></pattern><pattern id="New_Pattern_Swatch_11-7" data-name="New Pattern Swatch 11" width="2" height="2" patternTransform="translate(38.32 24.39)" patternUnits="userSpaceOnUse" viewBox="0 0 2 2"><rect class="cls-1" width="2" height="2"/><circle class="cls-2" cx="0.52" cy="0.5" r="0.5"/><circle class="cls-1" cx="1.49" cy="0.5" r="0.5"/><circle class="cls-1" cx="0.52" cy="1.5" r="0.5"/><circle class="cls-1" cx="1.49" cy="1.5" r="0.5"/></pattern></defs><rect class="cls-3" x="0.39" y="10.55" width="44.03" height="9" rx="2.3"/><rect class="cls-3" x="0.39" y="24.63" width="44.03" height="9" rx="2.3"/><rect class="cls-4" x="0.39" y="39.15" width="44.03" height="9" rx="2.3"/><rect class="cls-5" x="0.39" y="53.23" width="44.03" height="9" rx="2.3"/><circle class="cls-6" cx="47.57" cy="10.59" r="6.1"/><path class="cls-2" d="M47.28,12.47a.49.49,0,0,1-.34.14.44.44,0,0,1-.33-.15l-.5-.5-.5-.5c-.25-.26-.26-.25-.51-.5a.47.47,0,0,1,0-.66.45.45,0,0,1,.65,0c.3.3.3.29.59.59s.18.56.59.58.27-.27.53-.54L48,10.4l.53-.54.54-.53.54-.53a.47.47,0,0,1,.67,0,.51.51,0,0,1,0,.69c-.25.24-.27.23-.52.48s-.25.25-.49.5l-.5.5c-.25.25-.26.24-.51.5s-.24.26-.49.51Z"/><circle class="cls-6" cx="47.57" cy="26" r="6.1"/><path class="cls-2" d="M47.28,27.88a.49.49,0,0,1-.34.14.44.44,0,0,1-.33-.15l-.5-.49-.5-.51c-.25-.26-.26-.25-.51-.5a.47.47,0,0,1,0-.66.46.46,0,0,1,.65,0c.3.3.3.29.59.59s.18.56.59.58.27-.27.53-.54l.54-.53.53-.54.54-.53.54-.53a.47.47,0,0,1,.67,0,.51.51,0,0,1,0,.69c-.25.24-.27.23-.52.48s-.25.25-.49.5l-.5.5c-.25.25-.26.24-.51.5s-.24.26-.49.51Z"/><path class="cls-4" d="M.39,26.92v4.41a2.3,2.3,0,0,0,2.3,2.3H28a10.21,10.21,0,0,0-5.56-4.5,11.1,11.1,0,0,1-5.88-4.5H2.69A2.29,2.29,0,0,0,.39,26.92Z"/><path class="cls-7" d="M.39,13v4.4a2.3,2.3,0,0,0,2.3,2.3H28a10.21,10.21,0,0,0-5.56-4.5,11.05,11.05,0,0,1-5.88-4.5H2.69A2.3,2.3,0,0,0,.39,13Z"/><path class="cls-2" d="M7.29,15.05a2,2,0,0,0-1.08-1.92,2.21,2.21,0,0,0-1.11-.32A2.19,2.19,0,0,0,4,13.15a2.25,2.25,0,0,0-.85.77,2.27,2.27,0,0,0-.3,1.13,2.19,2.19,0,0,0,.34,1.09A2.25,2.25,0,0,0,4,17a2.23,2.23,0,0,0,2.2,0A2.08,2.08,0,0,0,7,16.16,2.19,2.19,0,0,0,7.29,15.05Z"/><path class="cls-2" d="M7.35,29.13A2.27,2.27,0,0,0,7.05,28a2.22,2.22,0,0,0-.82-.82,2.26,2.26,0,0,0-1.13-.29A2.19,2.19,0,0,0,4,27.23a2.18,2.18,0,0,0-.84.78,2.36,2.36,0,0,0,0,2.23A2.11,2.11,0,0,0,4,31a2.2,2.2,0,0,0,1.09.35,2.24,2.24,0,0,0,1.12-.31A2.11,2.11,0,0,0,7,30.22,2.2,2.2,0,0,0,7.35,29.13Z"/><path class="cls-2" d="M7.33,43.79a2.27,2.27,0,0,0-.26-1.13,2.3,2.3,0,0,0-.85-.79,2.22,2.22,0,0,0-3.06.8,2.15,2.15,0,0,0,0,2.24,2.18,2.18,0,0,0,.84.78A2.19,2.19,0,0,0,5.1,46a2.21,2.21,0,0,0,1.11-.32,2.2,2.2,0,0,0,.83-.8A2.22,2.22,0,0,0,7.33,43.79Z"/><path class="cls-2" d="M7.37,57.87A2.27,2.27,0,0,0,7,56.76,2.15,2.15,0,0,0,6.2,56a2.22,2.22,0,0,0-1.1-.37A2.26,2.26,0,0,0,4,55.94a2.33,2.33,0,0,0-.85.8,2.27,2.27,0,0,0-.26,1.13,2.25,2.25,0,0,0,1.1,2,2.26,2.26,0,0,0,2.25,0A2.3,2.3,0,0,0,7,59,2.26,2.26,0,0,0,7.37,57.87Z"/></svg>