<svg id="Illustration" xmlns="http://www.w3.org/2000/svg" xmlns:xlink="http://www.w3.org/1999/xlink" viewBox="0 0 55 70"><defs><style>.cls-1,.cls-7{fill:none;}.cls-2{fill:#003e3f;}.cls-3{fill:#29e0cb;}.cls-4{fill:#ffdb18;}.cls-5{fill:#fff;}.cls-6{opacity:0.15;fill:url(#New_Pattern_Swatch_11);}.cls-7{stroke:#003e3f;stroke-linecap:round;stroke-linejoin:round;stroke-width:0.3px;stroke-dasharray:0.3 1.2;}</style><pattern id="New_Pattern_Swatch_11" data-name="New Pattern Swatch 11" width="2" height="2" patternTransform="translate(42.29 27.96)" patternUnits="userSpaceOnUse" viewBox="0 0 2 2"><rect class="cls-1" width="2" height="2"/><circle class="cls-2" cx="0.52" cy="0.5" r="0.5"/><circle class="cls-1" cx="1.49" cy="0.5" r="0.5"/><circle class="cls-1" cx="0.52" cy="1.5" r="0.5"/><circle class="cls-1" cx="1.49" cy="1.5" r="0.5"/></pattern></defs><rect class="cls-3" x="0.5" y="14.22" width="44.03" height="44.03" rx="2.3"/><rect class="cls-4" x="29.97" y="32.57" width="9.89" height="9.05" rx="0.9"/><rect class="cls-5" x="4.95" y="32.57" width="9.89" height="9.05" rx="0.9"/><rect class="cls-5" x="17.46" y="32.57" width="9.89" height="9.05" rx="0.9"/><path class="cls-2" d="M39,53.14c-.51,0-.51-.09-1-.09s-.51.12-1,.12-.51-.15-1-.15-.51,0-1,0-.51,0-1,0-.51.09-1,.09-.51-.08-1-.08h-1a.85.85,0,0,1-.88-.86c0-.52,0-.52,0-1s-.09-.52-.09-1,.12-.52.12-1-.1-.52-.1-1,.16-.52.16-1S30,46.48,30,46s0-.52,0-1a.77.77,0,0,1,.82-.82c.5,0,.5-.09,1-.09s.51-.06,1-.06h1c.51,0,.51.05,1,.05s.51.06,1,.06h3a.82.82,0,0,1,.83.87c0,.52,0,.52,0,1s.08.51.08,1-.08.52-.08,1,.05.52.05,1-.08.52-.08,1,.11.52.11,1,0,.52,0,1A1,1,0,0,1,39,53.14Z"/><rect class="cls-5" x="4.95" y="44.02" width="9.89" height="9.05" rx="0.9"/><rect class="cls-5" x="17.46" y="44.02" width="9.89" height="9.05" rx="0.9"/><path class="cls-6" d="M34.92,58.05H2.87a2.3,2.3,0,0,1-2.3-2.29V16.52a2.3,2.3,0,0,1,2.3-2.3H16.7c0,10.37-.23,21.45,5.82,26.08S34.92,45.41,34.92,58.05Z"/><rect class="cls-5" x="4.95" y="18.83" width="34.92" height="10.73" rx="0.9"/><path class="cls-2" d="M28.56,20.87a3.8,3.8,0,0,1,.92.11,4.11,4.11,0,0,1,.53.17.25.25,0,0,1,.15.34l-.17.4a.26.26,0,0,1-.33.15l-.38-.13a2.43,2.43,0,0,0-.65-.09A.89.89,0,0,0,28,22a.91.91,0,0,0-.24.71v.75a.27.27,0,0,0,.26.27h1.23a.25.25,0,0,1,.26.26v.31a.26.26,0,0,1-.26.26H28a.26.26,0,0,0-.26.26v.5a1.58,1.58,0,0,1-.15.82.85.85,0,0,1-.33.35h2.9a.26.26,0,0,1,.26.26v.48a.26.26,0,0,1-.26.26H26.05a.26.26,0,0,1-.26-.26v-.5a.29.29,0,0,1,.14-.25,1.52,1.52,0,0,0,.47-.33,1.17,1.17,0,0,0,.23-.82v-.51a.26.26,0,0,0-.26-.26h-.3a.27.27,0,0,1-.27-.26V24a.26.26,0,0,1,.27-.26h.3a.27.27,0,0,0,.26-.27V22.7a2,2,0,0,1,.25-1,1.55,1.55,0,0,1,.69-.6A2.57,2.57,0,0,1,28.56,20.87Z"/><path class="cls-2" d="M22.78,20.87a3.75,3.75,0,0,1,1.45.28.25.25,0,0,1,.15.34l-.17.4a.26.26,0,0,1-.33.15l-.38-.13a2.41,2.41,0,0,0-.64-.09.9.9,0,0,0-.62.21.91.91,0,0,0-.24.71v.75a.27.27,0,0,0,.26.27h1.23a.26.26,0,0,1,.27.26v.31a.27.27,0,0,1-.27.26H22.26a.26.26,0,0,0-.26.26v.5a1.58,1.58,0,0,1-.15.82.85.85,0,0,1-.33.35h2.9a.26.26,0,0,1,.26.26v.48a.26.26,0,0,1-.26.26H20.27a.26.26,0,0,1-.26-.26v-.5a.27.27,0,0,1,.15-.25,1.47,1.47,0,0,0,.46-.33,1.17,1.17,0,0,0,.23-.82v-.51a.26.26,0,0,0-.26-.26h-.3a.26.26,0,0,1-.26-.26V24a.25.25,0,0,1,.26-.26h.3a.26.26,0,0,0,.26-.27V22.7a1.93,1.93,0,0,1,.26-1,1.45,1.45,0,0,1,.69-.6A2.52,2.52,0,0,1,22.78,20.87Z"/><path class="cls-2" d="M17.13,20.87a3.8,3.8,0,0,1,.92.11,4.11,4.11,0,0,1,.53.17.26.26,0,0,1,.15.34l-.17.4a.26.26,0,0,1-.33.15l-.38-.13a2.43,2.43,0,0,0-.65-.09.89.89,0,0,0-.61.21.91.91,0,0,0-.24.71v.75a.27.27,0,0,0,.26.27h1.23a.25.25,0,0,1,.26.26v.31a.26.26,0,0,1-.26.26H16.61a.26.26,0,0,0-.26.26v.5a1.58,1.58,0,0,1-.15.82.85.85,0,0,1-.33.35h2.9a.26.26,0,0,1,.26.26v.48a.26.26,0,0,1-.26.26H14.62a.26.26,0,0,1-.26-.26v-.5a.29.29,0,0,1,.14-.25,1.52,1.52,0,0,0,.47-.33,1.22,1.22,0,0,0,.23-.82v-.51a.26.26,0,0,0-.26-.26h-.3a.27.27,0,0,1-.27-.26V24a.26.26,0,0,1,.27-.26h.3a.27.27,0,0,0,.26-.27V22.7a1.93,1.93,0,0,1,.25-1,1.55,1.55,0,0,1,.69-.6A2.57,2.57,0,0,1,17.13,20.87Z"/><circle class="cls-4" cx="44.72" cy="15.72" r="9.84"/><path class="cls-2" d="M45.1,10.51a4.75,4.75,0,0,1,1.29.16,5.34,5.34,0,0,1,.74.23.37.37,0,0,1,.21.48l-.23.56a.37.37,0,0,1-.47.2L46.11,12a3.11,3.11,0,0,0-.9-.13,1.3,1.3,0,0,0-.87.29,1.28,1.28,0,0,0-.33,1v1.06a.36.36,0,0,0,.37.37H46.1a.38.38,0,0,1,.37.37v.43a.37.37,0,0,1-.37.37H44.38a.37.37,0,0,0-.37.37v.7a2.28,2.28,0,0,1-.21,1.14,1.2,1.2,0,0,1-.46.49H47.4a.37.37,0,0,1,.36.37v.67a.36.36,0,0,1-.36.36H41.59a.36.36,0,0,1-.37-.36v-.71a.38.38,0,0,1,.21-.34,2.13,2.13,0,0,0,.65-.47,1.65,1.65,0,0,0,.32-1.14v-.71a.37.37,0,0,0-.37-.37h-.42a.37.37,0,0,1-.37-.37v-.43a.38.38,0,0,1,.37-.37H42a.36.36,0,0,0,.37-.37V13.07a2.66,2.66,0,0,1,.36-1.45,2.07,2.07,0,0,1,1-.84A3.4,3.4,0,0,1,45.1,10.51Z"/><path class="cls-7" d="M53.06,15.72a8.33,8.33,0,0,0-8.34-8.33c-11,.44-11,16.23,0,16.67a8.34,8.34,0,0,0,8.34-8.34Z"/></svg>