<svg id="Illustration" xmlns="http://www.w3.org/2000/svg" xmlns:xlink="http://www.w3.org/1999/xlink" viewBox="0 0 57 70"><defs><style>.cls-1,.cls-4,.cls-7{fill:none;}.cls-2{fill:#003e3f;}.cls-3{fill:#ffdb18;}.cls-4,.cls-7{stroke:#003e3f;stroke-linecap:round;stroke-linejoin:round;}.cls-4{stroke-width:1.15px;}.cls-5{fill:#29e0cb;}.cls-6{opacity:0.15;fill:url(#New_Pattern_Swatch_11);}.cls-7{stroke-width:2px;}</style><pattern id="New_Pattern_Swatch_11" data-name="New Pattern Swatch 11" width="2" height="2" patternTransform="translate(62.82 27.36)" patternUnits="userSpaceOnUse" viewBox="0 0 2 2"><rect class="cls-1" width="2" height="2"/><circle class="cls-2" cx="0.52" cy="0.5" r="0.5"/><circle class="cls-1" cx="1.49" cy="0.5" r="0.5"/><circle class="cls-1" cx="0.52" cy="1.5" r="0.5"/><circle class="cls-1" cx="1.49" cy="1.5" r="0.5"/></pattern></defs><path class="cls-3" d="M24.18,9.86H3a2.3,2.3,0,0,0-2.29,2.3V22.55a2.31,2.31,0,0,0,.66,1.62h0l5.41,5.41a.52.52,0,0,0,.89-.37V24.85H24.18a2.3,2.3,0,0,0,2.29-2.3V12.16A2.3,2.3,0,0,0,24.18,9.86Z"/><path class="cls-4" d="M4.46,14l1.4,0c.7,0,.7,0,1.4,0l1.4,0h1.4l1.4,0h2.81l1.4,0"/><path class="cls-4" d="M18.49,14h1.4l1.4,0H22.7"/><path class="cls-4" d="M13,17.35H8.75c-.72,0-.72,0-1.43,0H5.89c-.71,0-.71,0-1.43,0"/><path class="cls-5" d="M54.17,20.8H14.73a2.29,2.29,0,0,0-2.29,2.29v21a2.29,2.29,0,0,0,2.29,2.29H45.05v7.92a.9.9,0,0,0,1.53.63l9.19-9.2a2.29,2.29,0,0,0,.7-1.64v-21A2.29,2.29,0,0,0,54.17,20.8Z"/><path class="cls-6" d="M33.81,33.6a13.06,13.06,0,0,1-8-12.8H14.73a2.29,2.29,0,0,0-2.29,2.29v21a2.29,2.29,0,0,0,2.29,2.29h26.6S42.66,37.42,33.81,33.6Z"/><path class="cls-3" d="M24.18,43.66H3A2.3,2.3,0,0,0,.69,46v10.4A2.3,2.3,0,0,0,1.35,58h0l5.41,5.41A.52.52,0,0,0,7.65,63V58.65H24.18a2.3,2.3,0,0,0,2.29-2.29V46A2.3,2.3,0,0,0,24.18,43.66Z"/><path class="cls-7" d="M40.88,26.36H42.3c.72,0,.72,0,1.43,0s.71,0,1.42,0,.71,0,1.43,0h4.28"/><path class="cls-7" d="M17.38,26.31c.74,0,.74.08,1.48.08s.73-.1,1.47-.1.74.06,1.48.06.73,0,1.47,0h1.47c.73,0,.73,0,1.47,0s.74,0,1.48,0,.73,0,1.47,0,.74,0,1.48,0,.74,0,1.47,0,.74,0,1.48,0,.74,0,1.48,0,.74-.05,1.48-.05"/><path class="cls-7" d="M25.7,32.15c.73,0,.73,0,1.46,0h1.47c.73,0,.73,0,1.46,0s.74,0,1.47,0,.73.08,1.46.08.73-.11,1.46-.11.74.07,1.47.07.73,0,1.47,0h1.46c.74,0,.74,0,1.47,0s.73,0,1.47,0,.73,0,1.47,0,.73,0,1.47,0,.74,0,1.47,0"/><path class="cls-7" d="M17.38,32.1l1.42,0h2.85"/><path class="cls-7" d="M17.38,37.86c.72,0,.72,0,1.44,0s.72-.06,1.44-.06H21.7c.72,0,.72.06,1.44.06h1.44c.72,0,.72,0,1.45,0h2.88c.73,0,.73,0,1.45,0s.72.06,1.45.06"/><path class="cls-4" d="M4.41,47.56h4.2"/><path class="cls-4" d="M11.43,47.53l1.4,0h2.8c.7,0,.7,0,1.4,0s.7,0,1.4,0h4.21"/><path class="cls-4" d="M4.41,50.89H7.05c.66,0,.66-.06,1.31-.06s.67,0,1.33,0h2.64c.66,0,.66,0,1.33,0s.66,0,1.32,0,.66,0,1.32,0,.67,0,1.33,0H19"/></svg>