<svg id="Illustration" xmlns="http://www.w3.org/2000/svg" xmlns:xlink="http://www.w3.org/1999/xlink" viewBox="0 0 58 70"><defs><style>.cls-1{fill:none;}.cls-2{fill:#29e0cb;}.cls-3{fill:#003e3f;}.cls-4{fill:#00cfb7;}.cls-5{fill:#ffdb18;}.cls-6{clip-path:url(#clip-path);}.cls-11,.cls-13,.cls-15,.cls-17,.cls-7,.cls-9{opacity:0.15;}.cls-7{fill:url(#New_Pattern_Swatch_11);}.cls-8{clip-path:url(#clip-path-2);}.cls-9{fill:url(#New_Pattern_Swatch_11-3);}.cls-10{clip-path:url(#clip-path-3);}.cls-11{fill:url(#New_Pattern_Swatch_11-5);}.cls-12{clip-path:url(#clip-path-4);}.cls-13{fill:url(#New_Pattern_Swatch_11-7);}.cls-14{clip-path:url(#clip-path-5);}.cls-15{fill:url(#New_Pattern_Swatch_11-9);}.cls-16{clip-path:url(#clip-path-6);}.cls-17{fill:url(#New_Pattern_Swatch_11-11);}</style><clipPath id="clip-path"><circle class="cls-1" cx="8.99" cy="23.9" r="8.5"/></clipPath><pattern id="New_Pattern_Swatch_11" data-name="New Pattern Swatch 11" width="2" height="2" patternTransform="translate(61.8 27.44)" patternUnits="userSpaceOnUse" viewBox="0 0 2 2"><rect class="cls-1" width="2" height="2"/><circle class="cls-3" cx="0.52" cy="0.5" r="0.5"/><circle class="cls-1" cx="1.49" cy="0.5" r="0.5"/><circle class="cls-1" cx="0.52" cy="1.5" r="0.5"/><circle class="cls-1" cx="1.49" cy="1.5" r="0.5"/></pattern><clipPath id="clip-path-2"><circle class="cls-2" cx="30.65" cy="14.02" r="8.5"/></clipPath><pattern id="New_Pattern_Swatch_11-3" data-name="New Pattern Swatch 11" width="2" height="2" patternTransform="translate(63.46 25.56)" patternUnits="userSpaceOnUse" viewBox="0 0 2 2"><rect class="cls-1" width="2" height="2"/><circle class="cls-3" cx="0.52" cy="0.5" r="0.5"/><circle class="cls-1" cx="1.49" cy="0.5" r="0.5"/><circle class="cls-1" cx="0.52" cy="1.5" r="0.5"/><circle class="cls-1" cx="1.49" cy="1.5" r="0.5"/></pattern><clipPath id="clip-path-3"><circle class="cls-1" cx="49.17" cy="29.16" r="8.5"/></clipPath><pattern id="New_Pattern_Swatch_11-5" data-name="New Pattern Swatch 11" width="2" height="2" patternTransform="translate(63.99 26.7)" patternUnits="userSpaceOnUse" viewBox="0 0 2 2"><rect class="cls-1" width="2" height="2"/><circle class="cls-3" cx="0.52" cy="0.5" r="0.5"/><circle class="cls-1" cx="1.49" cy="0.5" r="0.5"/><circle class="cls-1" cx="0.52" cy="1.5" r="0.5"/><circle class="cls-1" cx="1.49" cy="1.5" r="0.5"/></pattern><clipPath id="clip-path-4"><circle class="cls-1" cx="27.32" cy="37.35" r="8.5"/></clipPath><pattern id="New_Pattern_Swatch_11-7" data-name="New Pattern Swatch 11" width="2" height="2" patternTransform="translate(62.14 26.89)" patternUnits="userSpaceOnUse" viewBox="0 0 2 2"><rect class="cls-1" width="2" height="2"/><circle class="cls-3" cx="0.52" cy="0.5" r="0.5"/><circle class="cls-1" cx="1.49" cy="0.5" r="0.5"/><circle class="cls-1" cx="0.52" cy="1.5" r="0.5"/><circle class="cls-1" cx="1.49" cy="1.5" r="0.5"/></pattern><clipPath id="clip-path-5"><circle class="cls-2" cx="8.99" cy="50.64" r="8.5"/></clipPath><pattern id="New_Pattern_Swatch_11-9" data-name="New Pattern Swatch 11" width="2" height="2" patternTransform="translate(61.8 28.18)" patternUnits="userSpaceOnUse" viewBox="0 0 2 2"><rect class="cls-1" width="2" height="2"/><circle class="cls-3" cx="0.52" cy="0.5" r="0.5"/><circle class="cls-1" cx="1.49" cy="0.5" r="0.5"/><circle class="cls-1" cx="0.52" cy="1.5" r="0.5"/><circle class="cls-1" cx="1.49" cy="1.5" r="0.5"/></pattern><clipPath id="clip-path-6"><circle class="cls-2" cx="40.68" cy="55.3" r="8.5"/></clipPath><pattern id="New_Pattern_Swatch_11-11" data-name="New Pattern Swatch 11" width="2" height="2" patternTransform="translate(63.49 28.84)" patternUnits="userSpaceOnUse" viewBox="0 0 2 2"><rect class="cls-1" width="2" height="2"/><circle class="cls-3" cx="0.52" cy="0.5" r="0.5"/><circle class="cls-1" cx="1.49" cy="0.5" r="0.5"/><circle class="cls-1" cx="0.52" cy="1.5" r="0.5"/><circle class="cls-1" cx="1.49" cy="1.5" r="0.5"/></pattern></defs><circle class="cls-4" cx="30.65" cy="14.02" r="8.5"/><circle class="cls-5" cx="8.99" cy="23.9" r="8.5"/><circle class="cls-5" cx="49.17" cy="29.16" r="8.5"/><circle class="cls-5" cx="27.32" cy="37.35" r="8.5"/><circle class="cls-4" cx="8.99" cy="50.64" r="8.5"/><circle class="cls-4" cx="40.68" cy="55.3" r="8.5"/><g class="cls-6"><path class="cls-7" d="M1.27,15.4A9.7,9.7,0,0,0,3.72,22c2.6,2.6,8.66,2.24,11.19,4.77a14.22,14.22,0,0,1,3.39,5.68L9.7,40.23-2.76,36.49-4.71,18.66Z"/></g><circle class="cls-2" cx="30.65" cy="14.02" r="8.5"/><g class="cls-8"><path class="cls-9" d="M22.93,5.52a9.76,9.76,0,0,0,2.45,6.59c2.6,2.6,8.66,2.24,11.19,4.77A14.32,14.32,0,0,1,40,22.56l-8.61,7.79L18.9,26.61,17,8.78Z"/></g><g class="cls-10"><path class="cls-11" d="M41.45,20.66a9.76,9.76,0,0,0,2.45,6.59c2.6,2.6,8.66,2.24,11.2,4.77a14.37,14.37,0,0,1,3.39,5.68l-8.61,7.79L37.43,41.75l-2-17.83Z"/></g><g class="cls-12"><path class="cls-13" d="M19.6,28.86a9.74,9.74,0,0,0,2.45,6.58c2.6,2.61,8.66,2.24,11.2,4.78a14.3,14.3,0,0,1,3.39,5.67L28,53.68,15.58,49.94,13.63,32.11Z"/></g><circle class="cls-2" cx="8.99" cy="50.64" r="8.5"/><g class="cls-14"><path class="cls-15" d="M1.27,42.15a9.72,9.72,0,0,0,2.45,6.59c2.6,2.6,8.66,2.23,11.19,4.77a14.16,14.16,0,0,1,3.39,5.67L9.7,67-2.76,63.24-4.71,45.4Z"/></g><circle class="cls-2" cx="40.68" cy="55.3" r="8.5"/><g class="cls-16"><path class="cls-17" d="M33,46.8a9.7,9.7,0,0,0,2.45,6.59C38,56,44.07,55.63,46.6,58.16A14.22,14.22,0,0,1,50,63.84l-8.6,7.79L28.93,67.89,27,50.06Z"/></g><path class="cls-3" d="M44.83,59.11a.62.62,0,0,1-.61.61H41.85c-.59,0-.59,0-1.19,0s-.59,0-1.19,0-.59,0-1.19,0H37.09a.55.55,0,0,1-.57-.57,3.05,3.05,0,0,1,.15-1,3.22,3.22,0,0,1,.45-.91,3.37,3.37,0,0,1,.73-.73,3.22,3.22,0,0,1,.9-.47,3.4,3.4,0,0,1,1-.15h.89c.44,0,.44,0,.89,0a3.16,3.16,0,0,1,1,.17,3.13,3.13,0,0,1,.89.5,3.28,3.28,0,0,1,.72.72,3.24,3.24,0,0,1,.48.9A3.34,3.34,0,0,1,44.83,59.11Zm-.93-.31a2.37,2.37,0,0,0-.41-1,2.42,2.42,0,0,0-.84-.75,2.39,2.39,0,0,0-1.1-.27c-.45,0-.45,0-.89,0s-.45,0-.89,0a2.32,2.32,0,0,0-2.37,2.09c.51.19.55,0,1.09,0h3.24a6.61,6.61,0,0,1,1.09,0C43.37,58.87,43.39,59,43.9,58.8Zm-5.63-6.23a2.38,2.38,0,0,1,2.39-2.39,2.39,2.39,0,0,1,1.18.34,2.45,2.45,0,0,1,.89.86,2.39,2.39,0,0,1,0,2.37,2.36,2.36,0,0,1-.86.86,2.28,2.28,0,0,1-1.18.33,2.37,2.37,0,0,1-1.19-.31,2.42,2.42,0,0,1-1.2-2.06Zm.92,0a1.46,1.46,0,0,0,2.51,1,1.49,1.49,0,0,0-1-2.53,1.56,1.56,0,0,0-1.07.42A1.5,1.5,0,0,0,39.19,52.57Z"/><path class="cls-3" d="M13.14,54.4a.67.67,0,0,1-.66.66H10.14c-.58,0-.58,0-1.17,0s-.58,0-1.17,0-.59,0-1.17,0L5.45,55a.6.6,0,0,1-.62-.62,3.36,3.36,0,0,1,.23-1.23,3.2,3.2,0,0,1,.69-1,3.27,3.27,0,0,1,2.28-1H9c.47,0,.47,0,.94,0a3.36,3.36,0,0,1,1.24.2,3.42,3.42,0,0,1,1,.71,3.2,3.2,0,0,1,.66,1.07A3.16,3.16,0,0,1,13.14,54.4ZM6.58,47.92a2.32,2.32,0,0,1,.32-1.2,2.34,2.34,0,0,1,.87-.87A2.44,2.44,0,0,1,9,45.53a2.29,2.29,0,0,1,1.18.34,2.34,2.34,0,0,1,.89.85,2.4,2.4,0,0,1,.3,1.2A2.34,2.34,0,0,1,11,49.09a2.35,2.35,0,0,1-2,1.19A2.3,2.3,0,0,1,7.78,50a2.34,2.34,0,0,1-.87-.87A2.38,2.38,0,0,1,6.58,47.92Z"/><path class="cls-3" d="M31.48,41.16a.62.62,0,0,1-.61.61H28.49l-1.18,0c-.6,0-.6,0-1.19,0H24.93c-.6,0-.6,0-1.19,0a.56.56,0,0,1-.58-.57,3.38,3.38,0,0,1,.15-1,3.25,3.25,0,0,1,.46-.91,3.08,3.08,0,0,1,.72-.72,3.15,3.15,0,0,1,.91-.47,3.1,3.1,0,0,1,1-.16h.89c.45,0,.45,0,.9,0a3.39,3.39,0,0,1,1,.16,3.27,3.27,0,0,1,.89.51,3.08,3.08,0,0,1,.73.71,3,3,0,0,1,.47.9A3.11,3.11,0,0,1,31.48,41.16Zm-.93-.31a2.27,2.27,0,0,0-.42-1,2.42,2.42,0,0,0-.84-.75,2.38,2.38,0,0,0-1.09-.27l-.9,0c-.44,0-.44,0-.89,0a2.26,2.26,0,0,0-1.1.26,2.49,2.49,0,0,0-.87.74,2.55,2.55,0,0,0-.39,1.09c.5.19.54,0,1.09,0h3.24a6.61,6.61,0,0,1,1.09,0C30,40.92,30,41,30.55,40.85Zm-5.64-6.23a2.41,2.41,0,0,1,.32-1.19,2.37,2.37,0,0,1,.88-.87,2.31,2.31,0,0,1,1.19-.32,2.38,2.38,0,0,1,1.19.33,2.42,2.42,0,0,1,.88.86,2.39,2.39,0,0,1,.3,1.19,2.25,2.25,0,0,1-.33,1.18,2.39,2.39,0,0,1-.86.87A2.34,2.34,0,0,1,27.3,37a2.4,2.4,0,0,1-1.19-.31,2.48,2.48,0,0,1-1.2-2.06Zm.92,0a1.46,1.46,0,0,0,.44,1,1.42,1.42,0,0,0,1,.44,1.52,1.52,0,0,0,1.05-.43,1.53,1.53,0,0,0,.45-1.05,1.47,1.47,0,0,0-.45-1,1.46,1.46,0,0,0-2.52,1Z"/><path class="cls-3" d="M53.33,32.92a.67.67,0,0,1-.66.66H50.33c-.59,0-.59,0-1.17,0s-.59,0-1.17,0-.59,0-1.18,0H45.64a.61.61,0,0,1-.63-.62,3.14,3.14,0,0,1,.24-1.23,3.19,3.19,0,0,1,.69-1.05,3.23,3.23,0,0,1,1-.7,3.37,3.37,0,0,1,1.23-.25H50.1a3.2,3.2,0,0,1,1.24.21,3.25,3.25,0,0,1,1,.71,3.39,3.39,0,0,1,.66,1.06A3.35,3.35,0,0,1,53.33,32.92Zm-6.57-6.49A2.36,2.36,0,0,1,48,24.36a2.36,2.36,0,0,1,3.56,2.07,2.41,2.41,0,0,1-1.19,2,2.39,2.39,0,0,1-3.57-2Z"/><path class="cls-3" d="M34.8,17.83a.62.62,0,0,1-.6.61H31.82c-.59,0-.59,0-1.18,0s-.6,0-1.19,0-.6,0-1.19,0H27.07a.56.56,0,0,1-.58-.57,3.38,3.38,0,0,1,.15-1,3.22,3.22,0,0,1,.45-.91,3.61,3.61,0,0,1,.73-.73,3,3,0,0,1,.91-.46,3.1,3.1,0,0,1,1-.16h.89c.45,0,.45,0,.89,0a3.46,3.46,0,0,1,1,.17,3.39,3.39,0,0,1,.89.5,3.28,3.28,0,0,1,.72.72,3.24,3.24,0,0,1,.48.9A3.39,3.39,0,0,1,34.8,17.83Zm-.92-.31a2.38,2.38,0,0,0-.42-1,2.42,2.42,0,0,0-.84-.75,2.39,2.39,0,0,0-1.1-.27c-.44,0-.44,0-.89,0s-.45,0-.89,0a2.41,2.41,0,0,0-1.11.25,2.49,2.49,0,0,0-.86.75,2.56,2.56,0,0,0-.4,1.09c.51.19.55,0,1.09,0h3.25a6.49,6.49,0,0,1,1.08,0C33.34,17.59,33.37,17.71,33.88,17.52Zm-5.64-6.23a2.36,2.36,0,0,1,1.2-2.07,2.29,2.29,0,0,1,2.37,0,2.45,2.45,0,0,1,.89.86,2.39,2.39,0,0,1,0,2.37,2.36,2.36,0,0,1-.86.86,2.28,2.28,0,0,1-1.18.33,2.39,2.39,0,0,1-2.39-2.37Zm.92,0a1.46,1.46,0,0,0,2.51,1,1.49,1.49,0,1,0-2.51-1Z"/><path class="cls-3" d="M13.14,27.71a.62.62,0,0,1-.61.61H10.16c-.59,0-.59,0-1.19,0s-.59,0-1.18,0-.6,0-1.2,0H5.4a.55.55,0,0,1-.57-.57,3.38,3.38,0,0,1,.15-1,3.22,3.22,0,0,1,.45-.91,3.37,3.37,0,0,1,.73-.73,3,3,0,0,1,.91-.46,3,3,0,0,1,1-.16H9c.44,0,.44,0,.89,0a3.46,3.46,0,0,1,1,.17,3.39,3.39,0,0,1,.89.5,3.51,3.51,0,0,1,.72.72,3.24,3.24,0,0,1,.48.9A3.39,3.39,0,0,1,13.14,27.71Zm-.93-.31a2.37,2.37,0,0,0-.41-1,2.42,2.42,0,0,0-.84-.75,2.39,2.39,0,0,0-1.1-.27c-.45,0-.45,0-.89,0s-.45,0-.89,0A2.41,2.41,0,0,0,7,25.59a2.49,2.49,0,0,0-.86.75,2.44,2.44,0,0,0-.4,1.09c.51.19.55,0,1.09,0H10a6.61,6.61,0,0,1,1.09,0C11.68,27.47,11.7,27.59,12.21,27.4ZM6.58,21.17A2.38,2.38,0,0,1,7.77,19.1,2.44,2.44,0,0,1,9,18.78a2.39,2.39,0,0,1,1.18.34A2.45,2.45,0,0,1,11,20a2.39,2.39,0,0,1,0,2.37,2.36,2.36,0,0,1-.86.86A2.28,2.28,0,0,1,9,23.54a2.37,2.37,0,0,1-1.19-.31,2.42,2.42,0,0,1-1.2-2.06Zm.92,0a1.46,1.46,0,0,0,2.51,1,1.49,1.49,0,0,0-1-2.53,1.52,1.52,0,0,0-1.07.43A1.46,1.46,0,0,0,7.5,21.17Z"/></svg>