<svg id="illustration" xmlns="http://www.w3.org/2000/svg" xmlns:xlink="http://www.w3.org/1999/xlink" viewBox="0 0 1150 420"><defs><style>.cls-1,.cls-11,.cls-12,.cls-14,.cls-17,.cls-18,.cls-19,.cls-20,.cls-21,.cls-22,.cls-25,.cls-26,.cls-27,.cls-28,.cls-29,.cls-3,.cls-30,.cls-31,.cls-37,.cls-38,.cls-43,.cls-6,.cls-8{fill:none;}.cls-2,.cls-40,.cls-41{fill:#003e3f;}.cls-3,.cls-8{stroke:#7de4ff;}.cls-21,.cls-22,.cls-25,.cls-26,.cls-3,.cls-6,.cls-8{stroke-miterlimit:10;}.cls-21,.cls-22,.cls-29,.cls-3,.cls-6{stroke-width:2px;}.cls-4{fill:#7de4ff;}.cls-5{fill:#fff;}.cls-6{stroke:#ffbddf;}.cls-7{fill:#ffbddf;}.cls-8{stroke-width:2.506px;}.cls-9{fill:#ffd938;}.cls-10{fill:#007173;}.cls-11,.cls-12,.cls-14,.cls-17,.cls-18,.cls-20,.cls-27{stroke:#007173;}.cls-11,.cls-12,.cls-14,.cls-17,.cls-18,.cls-19,.cls-20,.cls-21,.cls-22,.cls-25,.cls-26,.cls-27,.cls-28,.cls-29,.cls-30,.cls-31,.cls-35,.cls-36,.cls-37,.cls-38,.cls-39,.cls-40,.cls-41,.cls-42,.cls-43{stroke-linecap:round;}.cls-11,.cls-12,.cls-14,.cls-17,.cls-18,.cls-19,.cls-20,.cls-27,.cls-28,.cls-29,.cls-30,.cls-31,.cls-35,.cls-36,.cls-37,.cls-38,.cls-39,.cls-40,.cls-41,.cls-42,.cls-43{stroke-linejoin:round;}.cls-11{stroke-width:0.711px;stroke-dasharray:0.719 2.875;}.cls-12{stroke-width:0.517px;stroke-dasharray:0.523 2.091;}.cls-13{fill:#00ccb7;}.cls-14{stroke-width:0.447px;stroke-dasharray:0.452 1.808;}.cls-15{opacity:0.5;}.cls-16{fill:#00cfb7;}.cls-17{stroke-width:0.367px;stroke-dasharray:0.37 1.481;}.cls-18{stroke-width:0.952px;stroke-dasharray:0.962 3.848;}.cls-19,.cls-29,.cls-30,.cls-31,.cls-35,.cls-36,.cls-37,.cls-38,.cls-39,.cls-40,.cls-41,.cls-42,.cls-43{stroke:#003e3f;}.cls-19{stroke-width:1.664px;}.cls-20{stroke-width:0.392px;stroke-dasharray:0.396 1.583;}.cls-21{stroke:#54f4d3;}.cls-22,.cls-25{stroke:#ffd813;}.cls-23{fill:#4af0d2;}.cls-24{fill:#ffd813;}.cls-25{stroke-width:2.48px;}.cls-26{stroke:#4af0d2;stroke-width:3px;}.cls-27{stroke-width:0.388px;stroke-dasharray:0.392 1.569;}.cls-28{stroke:#00cfb7;stroke-width:8px;}.cls-31,.cls-42{stroke-width:1.5px;}.cls-32{fill:#dbf8f5;}.cls-33{fill:url(#Dots_Small_-_Teal_Darker);}.cls-34,.cls-36,.cls-42{fill:#f3e9d5;}.cls-35{fill:#f4ebd9;stroke-width:1.2px;}.cls-36{stroke-width:1.4px;}.cls-37{stroke-width:1.84px;}.cls-38,.cls-40{stroke-width:1.024px;}.cls-39{stroke-width:1.3px;fill:url(#Dots_Small_-_Teal_Darker_3);}.cls-41{stroke-width:1.417px;}.cls-43{stroke-width:1.22px;}</style><pattern id="Dots_Small_-_Teal_Darker" data-name="Dots Small - Teal Darker" width="2" height="2" patternTransform="matrix(-1, 0, 0, 1, 6.516, -106.332)" patternUnits="userSpaceOnUse" viewBox="0 0 2 2"><rect class="cls-1" width="2" height="2"/><circle class="cls-2" cx="0.515" cy="0.5" r="0.5"/><circle class="cls-1" cx="1.485" cy="0.5" r="0.5"/><circle class="cls-1" cx="0.515" cy="1.5" r="0.5"/><circle class="cls-1" cx="1.485" cy="1.5" r="0.5"/></pattern><pattern id="Dots_Small_-_Teal_Darker_3" data-name="Dots Small - Teal Darker 3" width="2" height="2" patternTransform="translate(-6.197 22.989) scale(0.787)" patternUnits="userSpaceOnUse" viewBox="0 0 2 2"><rect class="cls-1" width="2" height="2"/><circle class="cls-2" cx="0.245" cy="0.243" r="0.243"/><circle class="cls-2" cx="1.228" cy="0.243" r="0.243"/><circle class="cls-2" cx="0.245" cy="1.234" r="0.243"/><circle class="cls-2" cx="1.228" cy="1.234" r="0.243"/><circle class="cls-1" cx="1.485" cy="0.5" r="0.5"/><circle class="cls-1" cx="0.515" cy="1.5" r="0.5"/><circle class="cls-1" cx="1.485" cy="1.5" r="0.5"/></pattern></defs><path class="cls-3" d="M833.166,201.431c-1.492,0-1.492.246-2.984.246s-1.493-.214-2.985-.214-1.491.195-2.983.195-1.49-.066-2.979-.066-1.491-.181-2.982-.181-1.493-.074-2.986-.074-1.491,0-2.982,0-1.492.061-2.985.061-1.492.037-2.984.037-1.493.178-2.986.178-1.493-.105-2.985-.105-1.493-.033-2.987-.033-1.493-.118-2.987-.118-1.494-.039-2.988-.039-1.492.132-2.984.132-1.494.053-2.987.053-1.494.055-2.988.055-1.5-.011-2.989-.011-1.5.1-2.993.1-1.5-.194-2.994-.194a4.58,4.58,0,0,1-2.315-.761,4.64,4.64,0,0,1-1.8-1.633,4.851,4.851,0,0,1-.806-2.377c0-1.523.333-1.523.333-3.045s-.306-1.524-.306-3.048.207-1.525.207-3.05-.241-1.524-.241-3.047.176-1.526.176-3.051-.109-1.525-.109-3.049.142-1.526.142-3.052-.016-1.525-.016-3.05-.224-1.526-.224-3.052.123-1.527.123-3.053.111-1.526.111-3.053-.044-1.525-.044-3.049.1-1.527.1-3.053-.328-1.527-.328-3.053.309-1.527.309-3.055-.212-1.529-.212-3.058.061-1.53.061-3.059a4.742,4.742,0,0,1,.749-2.367,4.576,4.576,0,0,1,1.8-1.613,4.524,4.524,0,0,1,2.3-.777c1.492,0,1.492-.187,2.984-.187s1.493.1,2.985.1,1.491.135,2.983.135,1.49.043,2.979.043,1.491.029,2.982.029,1.493.007,2.986.007,1.491,0,2.982,0,1.492-.081,2.985-.081,1.492.06,2.984.06,1.493-.125,2.986-.125,1.493.019,2.985.019,1.493.091,2.987.091,1.493-.278,2.987-.278,1.494.3,2.988.3,1.492-.024,2.984-.024,1.494.011,2.987.011,1.494.022,2.988.022,1.494-.014,2.989-.014,1.5-.121,2.993-.121,1.5-.2,2.994-.2a4.967,4.967,0,0,1,2.413.791,4.753,4.753,0,0,1,1.64,1.84,4.61,4.61,0,0,1,.7,2.34c0,1.522-.068,1.522-.068,3.045s.283,1.523.283,3.047-.245,1.525-.245,3.05.076,1.524.076,3.048-.1,1.525-.1,3.05.068,1.525.068,3.049.171,1.526.171,3.052-.127,1.525-.127,3.051.024,1.525.024,3.051-.076,1.527-.076,3.053.237,1.527.237,3.053-.367,1.525-.367,3.049.061,1.527.061,3.053-.1,1.527-.1,3.054.359,1.527.359,3.054-.292,1.529-.292,3.059.015,1.529.015,3.059a4.084,4.084,0,0,1-2.355,4.025A4.573,4.573,0,0,1,833.166,201.431Z"/><path class="cls-4" d="M833.473,139.957c-1.508,0-1.508.246-3.015.246s-1.508-.214-3.016-.214-1.506.195-3.013.195-1.5-.066-3.01-.066-1.506-.181-3.013-.181-1.508-.074-3.016-.074-1.506,0-3.012,0-1.508.061-3.016.061-1.508.037-3.015.037-1.509.178-3.017.178-1.508-.1-3.016-.1S798.806,140,797.3,140s-1.509-.118-3.018-.118-1.509-.039-3.018-.039-1.508.132-3.015.132-1.509.053-3.018.053-1.509.055-3.019.055-1.509-.011-3.019-.011-1.512.1-3.024.1-1.512-.195-3.025-.195a4.242,4.242,0,0,0-4.535,4.519c0,1.711.171,1.711.171,3.423s-1.413,2.274-.282,3.559c1,1.13,1.661-.237,3.168-.237s1.5.208,3.011.208,1.507-.242,3.013-.242,1.506.177,3.012.177,1.507-.11,3.013-.11,1.5.142,3.01.142,1.5-.015,3.008-.015,1.5-.224,3.01-.224,1.507.123,3.013.123,1.5.111,3.01.111,1.507-.044,3.014-.044,1.5.095,3.011.095,1.508-.327,3.015-.327,1.506.308,3.013.308,1.507-.211,3.014-.211,1.508.06,3.016.06,1.507.116,3.015.116,1.506.137,3.012.137,1.508-.162,3.016-.162,1.508-.186,3.016-.186,1.508.1,3.016.1,1.511.135,3.022.135,2.123,1.13,3.123,0c1.132-1.283.063-1.8.063-3.512s.007-1.712.007-3.423a4.81,4.81,0,0,0-1.368-3.3A4.7,4.7,0,0,0,833.473,139.957Z"/><circle class="cls-5" cx="775.597" cy="145.584" r="1.973"/><circle class="cls-5" cx="781.642" cy="145.584" r="1.973"/><path class="cls-4" d="M790.308,187.5a6.515,6.515,0,1,1-6.515-6.514A6.515,6.515,0,0,1,790.308,187.5Zm-12.138.471a5.6,5.6,0,0,0,.8,2.452l2.174-.017.56-.772L780.845,187l-.9-.292Zm.729-3.276a5.624,5.624,0,0,0-.719,2.2l1.175-.839Zm2.705-2.4a5.66,5.66,0,0,0-2.081,1.522l.688,2.062.895.29,2.252-1.631V183.6Zm-1.987,8.991a5.654,5.654,0,0,0,1.867,1.36l-.434-1.371Zm4.176-5.991-2.1,1.518.8,2.452h2.593l.8-2.452ZM782.5,193a5.48,5.48,0,0,0,2.58,0l.655-2.078-.567-.78h-2.756l-.567.78Zm2.452-11.018a5.64,5.64,0,0,0-2.324,0l1.162.859Zm1.526,4.195.894-.29.689-2.062a5.672,5.672,0,0,0-2.082-1.522l-1.754,1.3v.946Zm2.133,4.253a5.6,5.6,0,0,0,.8-2.452l-1.773-1.265-.9.292-.857,2.643.555.765Zm-2.078.853-.434,1.371a5.654,5.654,0,0,0,1.867-1.36Zm2.87-4.378a5.624,5.624,0,0,0-.719-2.2l-.456,1.364Z"/><path class="cls-6" d="M883.047,242.334c-1.492,0-1.492.245-2.984.245s-1.493-.213-2.985-.213-1.491.194-2.982.194-1.49-.066-2.98-.066-1.491-.181-2.982-.181-1.493-.074-2.985-.074-1.491,0-2.982,0-1.493.06-2.986.06-1.492.038-2.984.038-1.493.177-2.986.177-1.493-.1-2.985-.1-1.493-.033-2.986-.033-1.494-.119-2.988-.119-1.494-.039-2.988-.039-1.492.132-2.984.132-1.493.054-2.987.054-1.494.055-2.988.055-1.494-.011-2.989-.011-1.5.1-2.993.1-1.5-.194-2.994-.194a4.58,4.58,0,0,1-2.315-.761,4.638,4.638,0,0,1-1.8-1.633,4.846,4.846,0,0,1-.807-2.378c0-1.522.333-1.522.333-3.045s-.306-1.523-.306-3.047.207-1.525.207-3.051-.241-1.523-.241-3.047.176-1.525.176-3.051-.109-1.524-.109-3.049.142-1.526.142-3.052-.016-1.525-.016-3.05-.224-1.526-.224-3.052.124-1.526.124-3.052.111-1.527.111-3.053-.045-1.525-.045-3.05.1-1.526.1-3.053-.328-1.526-.328-3.053.309-1.527.309-3.054-.212-1.529-.212-3.059.061-1.529.061-3.059a4.741,4.741,0,0,1,.749-2.366,6.028,6.028,0,0,1,4.1-2.391c1.492,0,1.492-.186,2.985-.186s1.492.1,2.984.1,1.492.136,2.983.136,1.49.042,2.98.042,1.491.03,2.981.03,1.493.006,2.986.006,1.491,0,2.982,0S845.7,181,847.2,181s1.492.06,2.984.06,1.493-.124,2.987-.124,1.492.018,2.984.018,1.494.091,2.987.091,1.493-.278,2.987-.278,1.494.3,2.988.3,1.492-.024,2.984-.024,1.494.011,2.987.011,1.494.022,2.988.022,1.5-.015,2.989-.015,1.5-.121,2.993-.121,1.5-.2,2.994-.2a4.957,4.957,0,0,1,2.413.792,4.75,4.75,0,0,1,1.64,1.839,4.6,4.6,0,0,1,.7,2.34c0,1.523-.068,1.523-.068,3.045s.283,1.524.283,3.047-.245,1.526-.245,3.051.076,1.524.076,3.047-.1,1.526-.1,3.051.068,1.524.068,3.049.172,1.526.172,3.052-.127,1.525-.127,3.05.023,1.526.023,3.052-.076,1.526-.076,3.053.237,1.526.237,3.053-.367,1.524-.367,3.049.061,1.526.061,3.053-.1,1.527-.1,3.053.359,1.527.359,3.054-.292,1.53-.292,3.059.015,1.53.015,3.059a4.082,4.082,0,0,1-2.355,4.025A4.561,4.561,0,0,1,883.047,242.334Z"/><path class="cls-7" d="M883.354,180.86c-1.508,0-1.508.245-3.015.245s-1.508-.213-3.015-.213-1.507.195-3.014.195-1.5-.067-3.01-.067-1.506-.181-3.013-.181-1.508-.074-3.016-.074-1.506,0-3.012,0-1.508.061-3.016.061-1.508.037-3.015.037-1.508.177-3.017.177-1.508-.1-3.016-.1-1.508-.033-3.017-.033-1.509-.118-3.018-.118-1.509-.04-3.018-.04-1.507.133-3.015.133-1.509.053-3.018.053-1.509.055-3.019.055-1.509-.011-3.019-.011-1.512.1-3.024.1-1.512-.194-3.024-.194a4.24,4.24,0,0,0-4.535,4.518c0,1.712.17,1.712.17,3.423s-1.413,2.275-.282,3.559c1,1.131,1.661-.236,3.168-.236s1.506.207,3.011.207,1.507-.241,3.013-.241,1.506.176,3.012.176,1.507-.109,3.013-.109,1.5.142,3.01.142,1.5-.016,3.008-.016,1.5-.224,3.01-.224,1.507.124,3.013.124,1.5.111,3.01.111,1.507-.045,3.014-.045,1.506.1,3.011.1,1.508-.328,3.015-.328,1.506.309,3.013.309,1.507-.212,3.014-.212,1.508.061,3.016.061,1.507.115,3.015.115,1.506.138,3.012.138,1.508-.162,3.016-.162,1.508-.187,3.016-.187,1.508.1,3.016.1,1.511.136,3.022.136,2.123,1.129,3.123,0c1.132-1.283.063-1.8.063-3.513s.007-1.711.007-3.423a4.807,4.807,0,0,0-1.368-3.295A4.7,4.7,0,0,0,883.354,180.86Z"/><circle class="cls-5" cx="825.479" cy="186.486" r="1.973"/><circle class="cls-5" cx="831.523" cy="186.486" r="1.973"/><path class="cls-7" d="M840.189,228.407a6.515,6.515,0,1,1-6.515-6.515A6.514,6.514,0,0,1,840.189,228.407Zm-12.137.471a5.588,5.588,0,0,0,.8,2.452l2.174-.018.56-.771-.861-2.636-.9-.293Zm.729-3.276a5.6,5.6,0,0,0-.72,2.2l1.175-.839Zm2.7-2.4a5.674,5.674,0,0,0-2.081,1.521l.689,2.063.894.29,2.253-1.632V224.5Zm-1.987,8.99a5.671,5.671,0,0,0,1.867,1.361l-.434-1.372Zm4.176-5.99-2.1,1.517.8,2.453h2.593l.795-2.452Zm-1.289,7.7a5.476,5.476,0,0,0,2.579,0l.655-2.077-.567-.78H832.3l-.567.78Zm2.451-11.017a5.595,5.595,0,0,0-2.324,0l1.162.859Zm1.526,4.195.894-.29.689-2.063a5.669,5.669,0,0,0-2.082-1.521l-1.754,1.3v.945Zm2.133,4.253a5.6,5.6,0,0,0,.8-2.452l-1.773-1.266-.9.293-.857,2.643.556.764Zm-2.078.852-.434,1.372a5.671,5.671,0,0,0,1.867-1.361Zm2.87-4.378a5.6,5.6,0,0,0-.719-2.2l-.456,1.363Z"/><path class="cls-8" d="M365.842,203.677c-1.839,0-1.839.308-3.678.308s-1.839-.267-3.677-.267-1.839.244-3.678.244-1.839-.083-3.678-.083-1.839-.227-3.678-.227-1.839-.093-3.678-.093-1.839,0-3.678,0-1.836.076-3.673.076-1.839.047-3.678.047-1.838.222-3.676.222-1.839-.131-3.679-.131-1.839-.041-3.677-.041-1.84-.148-3.679-.148-1.84-.049-3.68-.049-1.841.165-3.681.165-1.84.067-3.68.067-1.84.069-3.68.069-1.84-.014-3.68-.014-1.84.128-3.681.128-1.843-.243-3.687-.243-1.843-.177-3.686-.177a4.559,4.559,0,0,1-3.355-1.233,4.887,4.887,0,0,1-1.6-3.355c0-1.872.418-1.872.418-3.745s-.384-1.872-.384-3.745.26-1.873.26-3.745-.3-1.872-.3-3.745.221-1.87.221-3.74-.137-1.873-.137-3.745.178-1.872.178-3.743-.02-1.873-.02-3.746-.28-1.872-.28-3.744.154-1.873.154-3.746.139-1.874.139-3.748-.055-1.874-.055-3.748.119-1.873.119-3.747-.41-1.874-.41-3.747.387-1.873.387-3.747-.266-1.874-.266-3.748.077-1.877.077-3.754.144-1.877.144-3.754a5.27,5.27,0,0,1,4.716-4.746c1.839,0,1.839-.234,3.678-.234s1.838.128,3.677.128,1.839.17,3.678.17,1.838.053,3.677.053,1.839.037,3.679.037,1.839.009,3.677.009,1.839,0,3.678,0,1.837-.1,3.674-.1,1.839.075,3.678.075,1.837-.155,3.675-.155,1.84.023,3.68.023,1.838.114,3.677.114,1.839-.349,3.678-.349,1.841.372,3.681.372,1.84-.031,3.68-.031,1.841.014,3.681.014,1.84.028,3.679.028,1.84-.018,3.68-.018,1.841-.152,3.681-.152,1.844-.247,3.687-.247,1.843.183,3.687.183a4.669,4.669,0,0,1,3.287,1.544,4.586,4.586,0,0,1,1.457,3.288c0,1.872-.085,1.872-.085,3.745s.355,1.872.355,3.745-.308,1.873-.308,3.745.095,1.872.095,3.745-.122,1.87-.122,3.74.085,1.873.085,3.745.215,1.872.215,3.743-.159,1.873-.159,3.746.03,1.872.03,3.745-.1,1.873-.1,3.745.3,1.874.3,3.748-.46,1.874-.46,3.748.077,1.873.077,3.747-.123,1.874-.123,3.747.449,1.873.449,3.747-.365,1.874-.365,3.748.019,1.877.019,3.754.112,1.877.112,3.754a5.133,5.133,0,0,1-4.76,4.738Z"/><path class="cls-4" d="M365.012,126.643c-1.889,0-1.889.308-3.778.308s-1.889-.267-3.779-.267-1.889.244-3.778.244-1.89-.083-3.78-.083-1.889-.227-3.778-.227-1.889-.093-3.779-.093-1.887,0-3.774,0-1.889.076-3.779.076-1.888.047-3.776.047-1.89.222-3.78.222-1.889-.131-3.778-.131-1.89-.041-3.78-.041-1.891-.148-3.781-.148S314,126.5,312.11,126.5s-1.891.165-3.781.165-1.89.067-3.781.067-1.89.069-3.781.069-1.89-.014-3.781-.014-1.894.128-3.788.128-1.894-.243-3.788-.243a5.314,5.314,0,0,0-5.683,5.662c0,2.145.213,2.145.213,4.289s-1.77,2.85-.353,4.46c1.248,1.417,2.082-.3,3.97-.3s1.887.26,3.773.26,1.888-.3,3.776-.3,1.887.221,3.774.221,1.888-.137,3.776-.137,1.887.178,3.775.178,1.888-.02,3.776-.02,1.887-.28,3.775-.28,1.888.155,3.775.155,1.886.139,3.771.139,1.888-.056,3.775-.056,1.887.12,3.774.12,1.888-.411,3.776-.411,1.888.387,3.775.387,1.888-.265,3.776-.265,1.889.076,3.778.076,1.889.145,3.778.145,1.889.172,3.778.172,1.889-.2,3.777-.2,1.889-.234,3.778-.234,1.889.128,3.778.128,1.893.17,3.785.17,2.66,1.415,3.912,0c1.418-1.608.079-2.257.079-4.4s.008-2.144.008-4.289a6.031,6.031,0,0,0-1.713-4.13A5.9,5.9,0,0,0,365.012,126.643Z"/><circle class="cls-5" cx="292.487" cy="133.694" r="2.472"/><circle class="cls-5" cx="300.062" cy="133.694" r="2.472"/><path class="cls-4" d="M310.919,186.227a8.163,8.163,0,1,1-8.163-8.163A8.163,8.163,0,0,1,310.919,186.227Zm-15.208.59a7.018,7.018,0,0,0,1,3.072l2.724-.022.7-.967-1.079-3.3-1.13-.367Zm.914-4.105a7.023,7.023,0,0,0-.9,2.759l1.473-1.051Zm3.388-3.006a7.1,7.1,0,0,0-2.607,1.906l.863,2.585,1.12.364,2.823-2.045v-1.185Zm-2.489,11.265a7.1,7.1,0,0,0,2.339,1.7l-.543-1.719Zm5.232-7.506-2.624,1.9,1,3.073h3.249l1-3.073Zm-1.615,9.643a6.858,6.858,0,0,0,3.231,0l.822-2.6-.712-.978H301.03l-.711.978Zm3.071-13.8a7.045,7.045,0,0,0-2.911,0l1.455,1.076Zm1.912,5.257,1.119-.364.864-2.585a7.107,7.107,0,0,0-2.608-1.906l-2.2,1.625v1.185Zm2.673,5.328a7,7,0,0,0,1-3.072l-2.221-1.586-1.129.367-1.074,3.311.7.958Zm-2.605,1.068-.543,1.719a7.086,7.086,0,0,0,2.339-1.7Zm3.6-5.486a7.007,7.007,0,0,0-.9-2.759l-.57,1.708Z"/><ellipse class="cls-9" cx="280.216" cy="294.496" rx="19.659" ry="27.295" transform="translate(-56.682 67.013) rotate(-12.395)"/><path class="cls-9" d="M278.271,269.15c6.02,0,11.353,11.793,13.76,22.75,2.529,11.5,2.373,24.811-3.943,26.845-2.447.789-5.721,1.508-8.122,2.036a12.769,12.769,0,0,1-2.737.3c-8.9,0-17.637-9.226-20.325-21.459a31.494,31.494,0,0,1,1.383-19.062c2.3-5.324,6.093-8.811,10.688-9.82a75.452,75.452,0,0,1,8.8-1.561,4.78,4.78,0,0,1,.491-.026m0-1.676a6.4,6.4,0,0,0-.66.034,76.862,76.862,0,0,0-9,1.593c-10.6,2.33-16.578,16.155-13.342,30.878,2.921,13.293,12.352,22.775,21.962,22.775a14.418,14.418,0,0,0,3.1-.336c2.47-.543,5.749-1.263,8.276-2.078,7.924-2.552,7.548-17.506,5.067-28.8-2.3-10.482-7.749-24.066-15.4-24.066Z"/><path class="cls-10" d="M277.856,280.221a7.584,7.584,0,0,1,2.614-.136,11.894,11.894,0,0,1,1.566.305,1.178,1.178,0,0,1,.7,1.229l-.121,1.609c-.04.522-.383.858-.781.751a11.518,11.518,0,0,0-1.158-.251,4.851,4.851,0,0,0-1.833.038,2.118,2.118,0,0,0-1.505,1.171,4.387,4.387,0,0,0-.063,2.826l.631,2.873c.121.549.54.925.936.838l3.36-.739c.4-.087.815.288.935.838l.26,1.18a.913.913,0,0,1-.5,1.153l-3.359.738a.913.913,0,0,0-.5,1.154l.417,1.9a8.326,8.326,0,0,1,.269,3.195,3.182,3.182,0,0,1-.606,1.518l7.921-1.74c.4-.087.814.288.935.838l.4,1.807a.913.913,0,0,1-.5,1.153l-11.341,2.492c-.4.087-.814-.288-.935-.838l-.418-1.9a1.145,1.145,0,0,1,.2-1.02,4.5,4.5,0,0,0,1-1.558,5.935,5.935,0,0,0-.051-3.222l-.424-1.931c-.121-.55-.54-.925-.936-.838l-.824.181c-.4.087-.815-.288-.936-.838l-.259-1.18a.913.913,0,0,1,.5-1.153l.824-.181c.4-.087.619-.6.5-1.153l-.662-3.011a9.877,9.877,0,0,1-.175-4.09,5.037,5.037,0,0,1,1.385-2.678A5.17,5.17,0,0,1,277.856,280.221Z"/><path class="cls-11" d="M296.483,290.921c-2.742-12.473-12.247-20.983-21.23-19.009-21.314,5.862-11.871,48.787,9.926,45.169,8.984-1.975,14.045-13.687,11.3-26.16Z"/><ellipse class="cls-9" cx="87.457" cy="165.828" rx="19.859" ry="14.303" transform="matrix(0.315, -0.949, 0.949, 0.315, -97.468, 196.654)"/><path class="cls-9" d="M86.306,146.316a9.369,9.369,0,0,1,2.957.474,55.032,55.032,0,0,1,6.086,2.3c4.126,1.919,3.132,11.459.462,19.51-2.545,7.675-7.113,15.42-11.583,15.42a3.852,3.852,0,0,1-.865-.1c-1.827-.417-4.144-1.186-5.836-1.747-3.244-1.075-5.727-3.885-6.99-7.911a22.91,22.91,0,0,1,.437-13.9c2.7-8.14,9.147-14.047,15.332-14.047m0-1.22c-6.627,0-13.54,5.986-16.49,14.883-3.451,10.41-.171,20.865,7.327,23.351,1.746.579,4.064,1.348,5.948,1.778a5.042,5.042,0,0,0,1.137.13c5.445,0,10.264-8.787,12.741-16.257,2.527-7.622,4.2-18.532-1.1-21a55.766,55.766,0,0,0-6.222-2.351,10.542,10.542,0,0,0-3.336-.535Z"/><path class="cls-10" d="M91.289,156.023a5.55,5.55,0,0,1,1.686.887,8.707,8.707,0,0,1,.866.773.859.859,0,0,1-.018,1.03l-.674.961c-.219.311-.559.394-.768.179a8.558,8.558,0,0,0-.631-.587,3.532,3.532,0,0,0-1.16-.658,1.544,1.544,0,0,0-1.377.172,3.2,3.2,0,0,0-1.09,1.745l-.674,2.03a.665.665,0,0,0,.274.872l2.375.788a.664.664,0,0,1,.274.872l-.277.834c-.128.389-.46.629-.74.536l-2.375-.787c-.28-.093-.612.147-.741.535l-.444,1.341a6.062,6.062,0,0,1-1.02,2.1,2.323,2.323,0,0,1-.943.724l5.6,1.856a.665.665,0,0,1,.274.872l-.424,1.278c-.129.389-.46.629-.74.536l-8.019-2.659a.664.664,0,0,1-.274-.872l.446-1.344a.834.834,0,0,1,.5-.563,3.3,3.3,0,0,0,1.2-.6,4.328,4.328,0,0,0,1.166-2.034l.453-1.365a.664.664,0,0,0-.274-.872l-.583-.193a.664.664,0,0,1-.273-.872l.276-.835c.129-.388.461-.628.741-.536l.583.194c.28.093.611-.147.74-.536l.706-2.129a7.189,7.189,0,0,1,1.411-2.623,3.667,3.667,0,0,1,1.862-1.16A3.763,3.763,0,0,1,91.289,156.023Z"/><path class="cls-12" d="M98.959,169.641c2.924-8.819.145-17.676-6.208-19.782-15.508-4.26-25.565,26.1-10.588,31.938,6.351,2.106,13.871-3.337,16.8-12.156Z"/><ellipse class="cls-13" cx="302.534" cy="69.232" rx="17.167" ry="12.363" transform="translate(117.172 318.151) rotate(-66.216)"/><path class="cls-13" d="M302.321,52.308a8.179,8.179,0,0,1,3.326.688,47.448,47.448,0,0,1,5.052,2.478c3.391,1.99,1.753,10.118-1.2,16.827-2.706,6.14-7.13,12.335-10.912,12.335a3.364,3.364,0,0,1-1.056-.171c-1.539-.51-3.469-1.361-4.878-1.983-5.706-2.515-7.432-11.176-3.848-19.306,2.821-6.4,8.381-10.868,13.521-10.868m0-1.055c-5.461,0-11.392,4.481-14.486,11.5-3.824,8.675-1.86,17.941,4.388,20.7,1.455.642,3.386,1.493,4.971,2.018a4.373,4.373,0,0,0,1.388.225c4.554,0,9.215-6.924,11.877-12.964,2.8-6.352,5.132-15.6.773-18.161a48.241,48.241,0,0,0-5.16-2.534,9.235,9.235,0,0,0-3.751-.778Z"/><path class="cls-10" d="M306.636,61.109a4.8,4.8,0,0,1,1.377.9,7.509,7.509,0,0,1,.682.737.742.742,0,0,1-.1.885l-.659.771c-.214.25-.513.294-.675.091a7.227,7.227,0,0,0-.5-.556,3.049,3.049,0,0,0-.944-.662,1.336,1.336,0,0,0-1.2.035,2.768,2.768,0,0,0-1.081,1.412l-.746,1.692a.573.573,0,0,0,.164.773l1.979.873a.574.574,0,0,1,.164.773l-.307.695c-.143.324-.447.5-.681.4l-1.979-.872c-.233-.1-.538.076-.681.4l-.493,1.117a5.234,5.234,0,0,1-1.049,1.722,2,2,0,0,1-.871.546l4.666,2.057a.574.574,0,0,1,.164.773l-.47,1.065c-.142.324-.447.5-.681.4l-6.681-2.945a.575.575,0,0,1-.164-.773l.494-1.121a.721.721,0,0,1,.48-.443,2.829,2.829,0,0,0,1.085-.421,3.738,3.738,0,0,0,1.17-1.654l.5-1.138a.575.575,0,0,0-.164-.773l-.486-.214a.574.574,0,0,1-.164-.773l.307-.7c.142-.324.447-.5.681-.4l.485.215c.234.1.539-.077.681-.4l.783-1.774a6.2,6.2,0,0,1,1.429-2.141,3.173,3.173,0,0,1,1.7-.846A3.253,3.253,0,0,1,306.636,61.109Z"/><path class="cls-14" d="M312.117,73.457c3.24-7.349,1.576-15.2-3.717-17.533-13-4.938-24.138,20.36-11.732,26.616,5.292,2.333,12.209-1.733,15.449-9.083Z"/><g class="cls-15"><path class="cls-16" d="M909.256,103.5a21.987,21.987,0,1,1,20.91,28.8A21.992,21.992,0,0,1,909.256,103.5Zm1.765,6.326,4.533-4.233-1.179-6.058A18.813,18.813,0,0,0,911.021,109.821Zm2.05,9.084,8.365,1.029,1.579-2.209-2.989-9.235-2.564-.8-6.175,5.767A19.519,19.519,0,0,0,913.071,118.905Zm10.663,9.412-2.59-5.562L915.022,122A18.955,18.955,0,0,0,923.734,128.317Zm-5.412-23.331,2.795.869,7.621-5.527V97.409l-7.417-4.116a19.1,19.1,0,0,0-4.613,3.362Zm19.11,3.1-7.275-5.278-7.283,5.287,2.759,8.517h9.013Zm-4.4,21.132,3.558-7.629-1.544-2.147h-9.776l-1.535,2.147,3.558,7.629A18.024,18.024,0,0,0,933.031,129.222Zm-8.295-37.277,5.421,3.007,5.412-3A17.356,17.356,0,0,0,924.736,91.945Zm6.84,5.464v2.919l7.621,5.527,2.794-.869,1.6-8.331a19.168,19.168,0,0,0-4.613-3.354Zm13.689,24.6-6.1.746-2.59,5.562A19.038,19.038,0,0,0,945.265,122.009Zm3.744-8.569-6.157-5.758-2.564.8-3.007,9.2,1.606,2.237,8.356-1.03A17.907,17.907,0,0,0,949.009,113.44ZM945.93,99.476l-1.171,6.112,4.534,4.214a19.118,19.118,0,0,0-2.094-8.215A18.8,18.8,0,0,0,945.93,99.476Z"/></g><path class="cls-4" d="M214.986,317.52a13.253,13.253,0,0,1-2.951,8.308,1.167,1.167,0,0,1-1.825-1.454,10.933,10.933,0,0,0,2.443-6.854,11.08,11.08,0,1,0-22.159,0,10.933,10.933,0,0,0,2.443,6.854,1.166,1.166,0,1,1-1.824,1.454,13.248,13.248,0,0,1-2.951-8.308,13.412,13.412,0,1,1,26.824,0Zm-5.318,11.85a1.165,1.165,0,0,1-.35,1.291l-6.578,5.482v4.119a1.166,1.166,0,1,1-2.332,0v-4.119l-6.579-5.482a1.167,1.167,0,0,1,.747-2.062h14A1.166,1.166,0,0,1,209.668,329.37Zm-4.318,1.562H197.8l3.777,3.148ZM200.408,318.1a1.165,1.165,0,0,1,1.166-1.166,1.168,1.168,0,0,0,1.166-1.167,1.167,1.167,0,0,1,2.333,0,3.5,3.5,0,0,1-3.5,3.5A1.165,1.165,0,0,1,200.408,318.1Zm0,7a1.165,1.165,0,0,1,1.166-1.166,1.167,1.167,0,0,0,1.166-1.166,1.167,1.167,0,0,1,2.333,0,3.5,3.5,0,0,1-3.5,3.5A1.165,1.165,0,0,1,200.408,325.1Zm10.5-7a3.5,3.5,0,0,1-3.5,3.5,1.167,1.167,0,0,1,0-2.333,1.167,1.167,0,0,0,1.166-1.166,1.167,1.167,0,0,1,2.333,0Z"/><ellipse class="cls-13" cx="1036.197" cy="150.198" rx="10.134" ry="14.071" transform="matrix(0.961, -0.277, 0.277, 0.961, -1.075, 292.781)"/><path class="cls-13" d="M1037.286,136.41c4.485,0,9,4.365,10.733,10.379,2.017,7-.338,13.843-5.249,15.259a39.028,39.028,0,0,1-4.481,1.1,2.466,2.466,0,0,1-.41.034c-3.044,0-6.112-5.832-7.674-11.252-1.682-5.834-2.043-12.686,1.138-13.942,1.232-.486,2.891-.965,4.111-1.316a6.6,6.6,0,0,1,1.832-.258m0-.864a7.473,7.473,0,0,0-2.071.291c-1.253.362-2.916.841-4.189,1.344-3.991,1.575-3.3,9.257-1.652,14.985,1.5,5.219,4.667,11.876,8.5,11.876a3.334,3.334,0,0,0,.552-.046,39.391,39.391,0,0,0,4.578-1.118c5.378-1.55,7.992-8.861,5.84-16.328-1.88-6.52-6.772-11-11.563-11Z"/><path class="cls-10" d="M1034.687,143.151a3.9,3.9,0,0,1,1.346-.091,6.262,6.262,0,0,1,.81.144.608.608,0,0,1,.372.628l-.05.831c-.016.269-.19.445-.4.393a5.968,5.968,0,0,0-.6-.12,2.5,2.5,0,0,0-.944.034,1.094,1.094,0,0,0-.767.616,2.265,2.265,0,0,0-.01,1.458l.349,1.475c.066.282.285.472.489.424l1.725-.407c.2-.048.423.142.489.424l.143.606a.471.471,0,0,1-.247.6l-1.726.407a.471.471,0,0,0-.247.6l.23.974a4.28,4.28,0,0,1,.164,1.644,1.643,1.643,0,0,1-.3.788l4.068-.961c.2-.048.423.142.489.425l.22.928a.47.47,0,0,1-.248.6l-5.825,1.376c-.2.048-.422-.142-.489-.424l-.231-.977a.592.592,0,0,1,.1-.527,2.334,2.334,0,0,0,.5-.811,3.068,3.068,0,0,0-.052-1.661l-.234-.992c-.067-.282-.286-.472-.489-.424l-.424.1c-.2.048-.422-.142-.489-.424l-.143-.607a.47.47,0,0,1,.248-.6l.423-.1a.47.47,0,0,0,.248-.6l-.365-1.547a5.075,5.075,0,0,1-.123-2.107,2.6,2.6,0,0,1,.692-1.392A2.666,2.666,0,0,1,1034.687,143.151Z"/><path class="cls-17" d="M1027.947,152.577c1.824,6.326,7,10.389,11.551,9.075,10.77-3.722,4.49-25.492-6.6-22.908-4.556,1.314-6.771,7.507-4.948,13.833Z"/><ellipse class="cls-9" cx="870.842" cy="322.725" rx="36.537" ry="26.314" transform="translate(272.5 1033.009) rotate(-70.223)"/><path class="cls-9" d="M877.439,289.414a7.136,7.136,0,0,1,1.763.223c3.34.852,7.566,2.37,10.654,3.48,5.917,2.126,10.354,7.407,12.493,14.87,2.214,7.726,1.7,16.8-1.441,25.542-5.321,14.8-17,25.142-28.395,25.142a17.267,17.267,0,0,1-5.858-1.01,101.46,101.46,0,0,1-11.1-4.507c-7.5-3.719-5.233-21.219.046-35.9a77.919,77.919,0,0,1,9.772-19.162c2.9-3.956,7.353-8.673,12.064-8.673m0-2.244c-9.925,0-19.088,15.8-23.948,29.32-5,13.9-8.569,33.894,1.069,38.674a103.171,103.171,0,0,0,11.336,4.609,19.485,19.485,0,0,0,6.617,1.141c12.042,0,24.753-10.62,30.507-26.626,6.825-18.99,1.272-38.368-12.4-43.283-3.186-1.144-7.414-2.664-10.858-3.542a9.346,9.346,0,0,0-2.318-.293Z"/><path class="cls-10" d="M878.382,305.6a10.176,10.176,0,0,1,2.972,1.856,15.933,15.933,0,0,1,1.485,1.536,1.578,1.578,0,0,1-.173,1.887l-1.367,1.672c-.444.542-1.079.648-1.433.224a15.335,15.335,0,0,0-1.078-1.162,6.5,6.5,0,0,0-2.039-1.365,2.841,2.841,0,0,0-2.55.13,5.887,5.887,0,0,0-2.237,3.053l-1.511,3.636a1.221,1.221,0,0,0,.384,1.636l4.252,1.767a1.222,1.222,0,0,1,.384,1.637l-.621,1.493c-.289.7-.93,1.091-1.431.883l-4.252-1.766c-.5-.208-1.142.187-1.431.883l-1,2.4a11.186,11.186,0,0,1-2.155,3.712,4.277,4.277,0,0,1-1.829,1.2l10.023,4.164a1.221,1.221,0,0,1,.384,1.637l-.95,2.287c-.289.7-.93,1.092-1.431.883l-14.353-5.963a1.222,1.222,0,0,1-.384-1.637l1-2.406a1.539,1.539,0,0,1,1-.966,6.008,6.008,0,0,0,2.288-.945,7.945,7.945,0,0,0,2.415-3.573l1.016-2.444a1.221,1.221,0,0,0-.384-1.637l-1.043-.434a1.222,1.222,0,0,1-.384-1.637l.621-1.493c.289-.7.929-1.091,1.431-.883l1.043.434c.5.208,1.142-.188,1.431-.883l1.584-3.812a13.219,13.219,0,0,1,2.945-4.62,6.749,6.749,0,0,1,3.574-1.877A6.919,6.919,0,0,1,878.382,305.6Z"/><path class="cls-18" d="M849.862,315.186c-5.782,16.087-1.078,32.5,10.509,36.668,28.328,8.543,48.22-46.827,20.941-58.258-11.587-4.164-25.667,5.5-31.45,21.59Z"/><line class="cls-19" x1="742.212" y1="230.744" x2="742.212" y2="238.987"/><line class="cls-19" x1="742.212" y1="202.016" x2="742.212" y2="208.898"/><line class="cls-19" x1="731.969" y1="220.501" x2="723.726" y2="220.501"/><line class="cls-19" x1="760.697" y1="220.501" x2="753.815" y2="220.501"/><line class="cls-19" x1="734.969" y1="227.744" x2="729.14" y2="233.573"/><line class="cls-19" x1="755.283" y1="207.43" x2="750.416" y2="212.297"/><line class="cls-19" x1="734.969" y1="213.258" x2="729.14" y2="207.43"/><line class="cls-19" x1="755.283" y1="233.573" x2="750.416" y2="228.706"/><ellipse class="cls-9" cx="828.973" cy="49.533" rx="10.827" ry="15.033" transform="translate(23.314 250.939) rotate(-17.455)"/><path class="cls-9" d="M829.958,34.777c4.724,0,9.584,4.546,11.554,10.811,2.335,7.422,0,14.794-5.214,16.432a41.494,41.494,0,0,1-4.757,1.286,2.646,2.646,0,0,1-.5.048c-2.342,0-5.855-3.655-8.423-11.821-1.946-6.188-2.508-13.5.857-14.92,1.306-.552,3.068-1.107,4.356-1.512a7.055,7.055,0,0,1,2.127-.324m0-.924a7.98,7.98,0,0,0-2.4.367c-1.328.418-3.092.973-4.439,1.543-4.222,1.786-3.289,9.972-1.378,16.047,1.729,5.5,5.24,12.467,9.3,12.467a3.609,3.609,0,0,0,.674-.064,42.275,42.275,0,0,0,4.861-1.312c5.7-1.8,8.308-9.67,5.817-17.59-2.148-6.826-7.379-11.458-12.435-11.458Z"/><path class="cls-10" d="M827.179,42.045a4.189,4.189,0,0,1,1.436-.132,6.718,6.718,0,0,1,.869.133.653.653,0,0,1,.413.662l-.032.888c-.01.288-.192.481-.414.43a6.24,6.24,0,0,0-.642-.112,2.684,2.684,0,0,0-1.008.06,1.168,1.168,0,0,0-.8.678,2.416,2.416,0,0,0,.028,1.557l.41,1.567c.078.3.317.5.533.44l1.832-.479c.216-.057.455.14.534.44l.168.644a.5.5,0,0,1-.249.645l-1.832.48a.5.5,0,0,0-.249.646l.27,1.034a4.578,4.578,0,0,1,.218,1.753,1.748,1.748,0,0,1-.3.848l4.321-1.131c.216-.056.454.141.533.441l.258.986a.5.5,0,0,1-.249.645l-6.187,1.62c-.216.056-.454-.141-.533-.441l-.271-1.037a.632.632,0,0,1,.088-.566,2.486,2.486,0,0,0,.514-.879,3.274,3.274,0,0,0-.1-1.772l-.276-1.053c-.079-.3-.317-.5-.533-.441l-.45.118c-.216.056-.455-.141-.533-.441l-.169-.644a.5.5,0,0,1,.249-.645l.45-.118a.5.5,0,0,0,.249-.645l-.43-1.643a5.46,5.46,0,0,1-.186-2.247,2.783,2.783,0,0,1,.7-1.5A2.847,2.847,0,0,1,827.179,42.045Z"/><path class="cls-20" d="M820.224,52.286c2.11,6.71,7.738,10.917,12.57,9.4,11.407-4.253,4.14-27.343-7.642-24.3-4.832,1.521-7.039,8.193-4.928,14.9Z"/><path class="cls-21" d="M555.824,132.09a4.309,4.309,0,0,1,5.086-2.256"/><path class="cls-21" d="M410.072,101.559a4.32,4.32,0,0,1,2.88,4.773"/><path class="cls-21" d="M482.411,59.629a4.313,4.313,0,0,1-5.035,2.39"/><path class="cls-21" d="M436.43,208.186a4.321,4.321,0,0,1,3.862-4.021"/><path class="cls-22" d="M581.278,147.628a4.264,4.264,0,0,1,4.226,3.582"/><path class="cls-23" d="M559.723,87.2a35.933,35.933,0,0,0-9.7,3.667,6.5,6.5,0,0,0-2.221,1.99c-.851,1.631,1.13,2.654,2.332,3.753,1.946,1.594,4.274,3.181,5.324,5.7,1.863,5.23-4.86,6.325-8.014,8.039-.556.381-1.253.774-.766,1.278a14.422,14.422,0,0,0,2.481,1.605c1.92,1.009,4.148,3.449,2.806,5.8-1.1,1.867-3,2.679-4.633,3.794a1.008,1.008,0,0,1-1.115-1.68c1.464-.6,3.263-1.442,3.726-2.971a.785.785,0,0,0-.224-.746c-1.747-1.764-7.2-3.9-5.109-7.431,2.019-2.492,5.646-2.706,7.728-4.812.518-.582.62-.957.218-1.566-1.1-1.467-3.339-2.716-4.856-4.136-9.518-8.633,4.736-12.56,11.533-14.229a1,1,0,0,1,.489,1.939Z"/><path class="cls-24" d="M505.51,127.442c-3.515-1.6-10.254-5.064-13.762-2.9-2.84,3.307,3,12.238-2.808,14.121a8.655,8.655,0,0,1-5.519-.849c-1.193-.467-3.311-1.667-4.265-.607a.638.638,0,0,1-1.116-.62c.772-1.008,2.139-.993,3.212-.829a42.543,42.543,0,0,1,5.141,1.059c1.336.331,3.059.749,3.655-.782.806-3.372-1.56-6.706-1.309-10.244.305-4.114,4.3-4.5,7.482-3.5a57.664,57.664,0,0,1,9.846,4.027.626.626,0,0,1-.557,1.122Z"/><path class="cls-22" d="M533.291,154.235a4.322,4.322,0,0,1-3.228-4.543"/><path class="cls-21" d="M579.156,107.9a4.31,4.31,0,0,1,3.877,3.992"/><path class="cls-22" d="M599.91,112.433a4.322,4.322,0,0,1,.184,5.57"/><path class="cls-22" d="M526.309,119.035a4.322,4.322,0,0,1-4.359,3.473"/><path class="cls-25" d="M569.54,52.948a5.36,5.36,0,0,1-2.933-6.259"/><path class="cls-23" d="M426.8,166.987c-1.634-3.352,1.744-7.038,1.729-10.221.015-.138-.019-.2,0-.2,0,.038.126.2.2.141.036-.137-.213-.208-.337-.267-1.528-.435-3.323-.072-4.976-.179-2.679.084-4.731-2.24-3.662-4.856a14.408,14.408,0,0,0,1.43-3.384,1.031,1.031,0,1,1,1.833.8c-1.01,1.194-.644,2.894-.482,4.185-.132,1.372,1.5,1.213,2.51.994a27.975,27.975,0,0,1,3.6-.735,3.339,3.339,0,0,1,3.606,4.089c-.709,2.592-2.608,3.9-3.5,6.242a2.886,2.886,0,0,0-.207,2.415,1,1,0,1,1-1.745.979Z"/><path class="cls-26" d="M502.357,109.407c1.226-2.128-3.374-5.881-2.053-8.355"/><path class="cls-22" d="M393.961,136.288a4.321,4.321,0,0,1-3.453-4.375"/><path class="cls-22" d="M448.306,130.685a4.321,4.321,0,0,1,1.448-5.382"/><ellipse class="cls-13" cx="337.877" cy="315.299" rx="14.899" ry="10.729" transform="translate(-48.481 568.877) rotate(-76.298)"/><path class="cls-13" d="M336.418,300.753a6.955,6.955,0,0,1,1.653.2,41.054,41.054,0,0,1,4.694,1.351c3.2,1.185,3.034,8.38,1.527,14.562-2.064,8.457-5.485,12.242-7.959,12.242a2.85,2.85,0,0,1-.421-.031c-1.394-.2-3.172-.636-4.47-.953-5.257-1.284-8.047-8.423-6.22-15.914,1.62-6.638,6.328-11.456,11.2-11.456m0-.915c-5.182,0-10.344,5.021-12.084,12.154-1.951,8,1.135,15.614,6.891,17.02,1.341.327,3.121.761,4.555.97a3.851,3.851,0,0,0,.553.04c4.223,0,7.413-7.062,8.847-12.94,1.428-5.853,2.016-14.113-2.1-15.637a41.945,41.945,0,0,0-4.8-1.382,7.833,7.833,0,0,0-1.87-.225Z"/><path class="cls-10" d="M340.149,307.735a4.166,4.166,0,0,1,1.314.561,6.537,6.537,0,0,1,.694.526.641.641,0,0,1,.049.771l-.446.76c-.144.246-.394.328-.563.18a6.377,6.377,0,0,0-.507-.4,2.662,2.662,0,0,0-.907-.422,1.157,1.157,0,0,0-1.019.212,2.4,2.4,0,0,0-.71,1.371l-.38,1.559a.5.5,0,0,0,.257.636l1.824.445a.5.5,0,0,1,.257.636l-.156.64c-.073.3-.306.5-.521.446l-1.824-.445c-.215-.053-.448.147-.521.445l-.251,1.03a4.572,4.572,0,0,1-.636,1.631,1.742,1.742,0,0,1-.661.6l4.3,1.05a.5.5,0,0,1,.258.635l-.24.982c-.073.3-.306.5-.521.445l-6.156-1.5a.5.5,0,0,1-.258-.635l.252-1.033a.628.628,0,0,1,.343-.452,2.448,2.448,0,0,0,.863-.524,3.25,3.25,0,0,0,.749-1.591l.255-1.049a.5.5,0,0,0-.257-.635l-.447-.11a.5.5,0,0,1-.258-.635l.157-.641c.072-.3.306-.5.521-.445l.447.109c.215.053.448-.147.521-.445l.4-1.636a5.39,5.39,0,0,1,.9-2.046,2.745,2.745,0,0,1,1.322-.98A2.817,2.817,0,0,1,340.149,307.735Z"/><path class="cls-27" d="M346.708,317.455c1.652-6.772-.962-13.228-5.839-14.418-11.855-2.247-17.534,21.062-5.983,24.525,4.876,1.19,10.169-3.335,11.822-10.107Z"/><path class="cls-28" d="M568.988,99.927H459.415a40.421,40.421,0,0,0-40.421,40.421v86.84a40.421,40.421,0,0,0,40.421,40.421H584.794a5.355,5.355,0,0,1,5.354,5.355V307.43a4.623,4.623,0,0,0,7.893,3.269L638.02,270.72a10.62,10.62,0,0,1,7.509-3.111h23.359a40.421,40.421,0,0,0,40.421-40.421V169.953"/><ellipse class="cls-29" cx="655.159" cy="105.629" rx="34.917" ry="12.969" transform="translate(226.181 611.957) rotate(-58.886)"/><path class="cls-29" d="M720.659,124.058c3.4,2.051,1.906,10.75-3.332,19.43s-12.241,14.053-15.639,12"/><path class="cls-30" d="M723.434,137.471c1.548.934.868,4.9-1.518,8.85s-5.575,6.4-7.123,5.467"/><path class="cls-29" d="M674.851,77.507s19.531,30.725,46.009,46.706"/><path class="cls-31" d="M715.657,126.044q.909.6,1.83,1.171"/><path class="cls-31" d="M709.945,122.005q1.59,1.2,3.227,2.352"/><path class="cls-31" d="M691.786,105.425a150.334,150.334,0,0,0,15.25,14.306"/><path class="cls-31" d="M682.368,94.534c1.757,2.19,3.724,4.548,5.878,6.991"/><path class="cls-29" d="M665.33,141.241c11.493,2.85,24.982,7.353,36.587,14.358"/><path class="cls-29" d="M639.152,136.653s6.292.514,15.547,2.268"/><path class="cls-31" d="M668.251,98.771a12.969,12.969,0,1,0-13.4,22.207"/><path class="cls-29" d="M676.957,149.1a40.728,40.728,0,0,1,9.629,3.449,2.2,2.2,0,0,1,.417,3.645c-2.524,2.1-6.549,5.353-9.862,7.6a80.754,80.754,0,0,1-8.129,4.8,4.836,4.836,0,0,1-4.208.112l-8.2-3.706a1.443,1.443,0,0,1-.144-2.557c2.837-1.68,7.578-4.532,10.779-6.694a57.976,57.976,0,0,0,7.37-5.972A2.6,2.6,0,0,1,676.957,149.1Z"/><line class="cls-31" x1="630.801" y1="91.316" x2="602.601" y2="74.296"/><line class="cls-31" x1="642.614" y1="76.447" x2="626.795" y2="47.556"/><line class="cls-31" x1="622.159" y1="109.503" x2="589.225" y2="108.98"/><path class="cls-32" d="M460.679,260.824c.665.443,4.656,14.188,4.656,14.188l25.273.444.144-13.778Z"/><polygon class="cls-32" points="515.437 261.267 515.216 274.347 540.71 273.682 544.701 261.932 515.437 261.267"/><path class="cls-16" d="M532.064,238.211s-3.325,0-13.3,5.542-21.948,8.646-26.382,3.769-14.632-9.533-15.962-9.533l2.273-5.154,49.548-.166Z"/><path class="cls-33" d="M532.064,238.211s-3.325,0-13.3,5.542-21.948,8.646-26.382,3.769-14.632-9.533-15.962-9.533l2.273-5.154,49.548-.166Z"/><path class="cls-31" d="M515.784,295.343c.464,9.06.984,15.805.984,15.805s7.591,4.16,13.648.064l12.618-44.292s6.323-15.74-2.79-22.556c-2.964-2.217-9.343-4.38-9.343-4.38"/><path class="cls-31" d="M518.886,254.631c-2.79,2.974-3.724,9.1-3.781,12.622-.06,3.684-.029,7.65.058,11.638l.261,8.475c.055,1.41.114,2.8.175,4.155"/><path class="cls-16" d="M476.863,203.405c-.077.192,2.6,9.816,2.826,14.632.268,5.7-1.33,16.959-1.33,16.959l50.713-2a42.1,42.1,0,0,1-2.162-14.465c.113-2.142,2.739-12.789,2.937-15.565S479.7,196.268,476.863,203.405Z"/><path class="cls-34" d="M484.844,225.519l-6.651,3.824,3.658,7.15s6.263,4.407,11.456,4.53l6.8-11.5-2.72-5.069s-4.7,1.484-5.811,2.473S484.844,225.519,484.844,225.519Z"/><path class="cls-34" d="M507.773,226.805s4.782,5.642,14.537-.122l7.981,3.325-3.991,7.981L510.245,243.5l-4.7-7.542Z"/><path class="cls-16" d="M478.359,177.476l-7.482,4.212-10.318,37.044s-1.439,8.232,2.718,10.892l20.757,8.308s-4.258-5.262,2.349-11.5L475.2,218.208l3.492-9.815.831-4.646Z"/><path class="cls-16" d="M530.956,178.363s2.681-.512,5.563,3.922,11.592,37.456,11.592,37.456,2.588,8.669-3.965,11.631-20.177,7.8-20.177,7.8,3.883-6.279-2.989-11.821l11.292-8.09-4.7-12.528Z"/><path class="cls-16" d="M500.193,171.849a50.433,50.433,0,0,0-22.32,6.4c-12.779,7.367-.908,23.755,1.207,26.927a27.047,27.047,0,0,0,23.228,12.364c.7,0,1.4-.03,2.094-.075.692.045,1.389.075,2.093.075,14.274,0,19.686-10.07,21.8-13.242,2-3,10.394-20.879,5.426-24.522a42.3,42.3,0,0,0-25.112-7.93Z"/><path class="cls-35" d="M518.524,165.5c3.316-2.086,6.018.794,4.447,5.376-1.651,4.816-5.343,2.882-5.343,2.882"/><path class="cls-35" d="M489.068,165.5c-3.316-2.086-6.018.794-4.447,5.376,1.651,4.816,5.343,2.882,5.343,2.882"/><path class="cls-34" d="M510.8,151.365l-6.262-6.718-8.025,6.718c-1.415,2.454-5.618,4.994-6.344,8.887-1.766,9.47-.705,21.031,7.017,24.143a17.158,17.158,0,0,0,12.942,0c7.481-3.015,8.71-13.96,7.173-23.252C516.6,156.9,512.323,154.005,510.8,151.365Z"/><path class="cls-36" d="M517.768,165.424a37,37,0,0,1-.117,5.846c-.618,5.984-3.107,10.828-7.885,13.748-2.3,1.407-2.351,2.49-6.151,2.49s-4.01-1.173-6.286-2.621c-4.767-3.032-7.158-8.2-7.608-14.68a40.921,40.921,0,0,1,.063-6.263"/><line class="cls-37" x1="497.428" y1="169.977" x2="497.488" y2="170.564"/><line class="cls-37" x1="508.345" y1="170.093" x2="508.223" y2="170.671"/><path class="cls-38" d="M507.5,168.139a8.514,8.514,0,0,1,5.933,0"/><path class="cls-38" d="M500.394,177.467s1.3,1.507,2.695,1.332a5.159,5.159,0,0,0,2.955-1.243"/><path class="cls-38" d="M499.7,181.434s2.66,2.661,7.134.966"/><path class="cls-38" d="M499.727,168.052a7.468,7.468,0,0,0-6.064-.262"/><path class="cls-39" d="M514.129,156.238c1.545.331,3.967,4.139,3.636,11.751,0,0,1.727-8.559.293-14.075-1.423-5.474-3.165-11.093-14.707-11.562v-.013c-.045,0-.087,0-.131.006s-.086,0-.131-.006v.013c-11.529.469-12.462,6.088-13.885,11.562-1.434,5.516.545,14.491.545,14.491-.331-7.612,1.906-11.731,3.3-12.167"/><path class="cls-40" d="M491.843,157.309c.118.151.685-.984,1.3-.965a3.569,3.569,0,0,1,1.214.317c.121.049.266-1.5.4-1.441.116.048.22,1.7.349,1.748a17.45,17.45,0,0,0,3.737,1.049c.154.026.377-1.272.54-1.248.147.022.234,1.365.39,1.384.587.071,1.232.124,1.946.15.142,0,.287-1.6.435-1.6.128,0,.26,1.616.393,1.617q.521,0,1.087-.01a22.938,22.938,0,0,0,5.507-.434c.222-.049.118-1.371.319-1.424s.692,1.168.867,1.114c2.073-.636,2.9-1.415,3.8-1.223a2.348,2.348,0,0,1,1.15.8,8.161,8.161,0,0,0,2.785-3.225,5,5,0,0,0-.219-2.716c-1.464-4.637-4.19-8.553-14.488-8.846v-.013c-.045,0-.087,0-.131.006s-.086,0-.131-.006v.013c-11.434.293-13.223,6.577-13.79,10.853A28.191,28.191,0,0,0,491.843,157.309Z"/><path class="cls-31" d="M480.521,205.068s-.64,4.437-5.3,12.585"/><path class="cls-31" d="M467.447,231.513c-1.143-.492-2.144-.891-2.923-1.15-5.551-1.851-3.965-11.631-3.965-11.631s2.255-11.518,4.741-20.657c1.331-4.9,2.73-9.684,3.883-12.841a12.319,12.319,0,0,1,1.694-3.546c2.643-2.643,11.218-5.61,11.218-5.61"/><path class="cls-31" d="M472.689,233.924a91.861,91.861,0,0,0,14.164,5.174"/><path class="cls-41" d="M507.225,215.92h-9.758c-1.126,0-1.968,1.181-1.883,2.614l.964,16.361a2.069,2.069,0,0,0,1.872,2.032l8.391.155a1.944,1.944,0,0,0,1.854-1.985l.552-16.532A2.328,2.328,0,0,0,507.225,215.92Z"/><path class="cls-31" d="M526.744,205.9s.166,2.663,5.441,13.049"/><path class="cls-31" d="M540.183,192.126c-1.913-5.874-3.666-10.64-4.571-11.546-2.644-2.643-11.371-5.3-11.371-5.3"/><path class="cls-31" d="M519.483,240.689s19.112-7.467,24.663-9.317c2.722-.908,3.728-3.723,4.046-6.356"/><path class="cls-42" d="M489.474,240.158a15.432,15.432,0,0,0,5.738.925,29.225,29.225,0,0,0,4.461-1.388s6.462-2.614,8.425-4.659c2.379-2.478,2.578-4.262,2.677-5.055s-1.487-5.848-2.677-6.146-6.145.793-7.533,1.487-5.055,3.073-5.055,3.073"/><path class="cls-42" d="M491.494,227.015a12.472,12.472,0,0,1,3.718-2.288"/><path class="cls-42" d="M514.872,231.831c-3.569.529-7.269-.132-9.516,0s-5.815.265-6.873-.528-3.172-1.454-3.436.132-.793,7.533,1.19,9.119,6.872,3.04,8.987,3.3,7.269-.925,8.723-1.057a24.3,24.3,0,0,0,5.022-1.85"/><path class="cls-43" d="M482.971,249.335a8.856,8.856,0,0,0-2.34-.926"/><path class="cls-31" d="M466.9,278.166c3.693,10.8,7.472,22.092,8.025,25.335a58.143,58.143,0,0,1,.969,7.128s7.612,4.615,14.413.764c0,0,.1-4.779.219-11.384l.226-13.966c.156-11.172.24-22.26,0-24.365-.5-4.485-1.336-5.981-2.749-7.727"/><path class="cls-31" d="M466.169,243.637s-9.054,5.367-5.933,14.97c1.036,3.187,2.9,8.588,4.956,14.585"/><line class="cls-43" x1="476.696" y1="238.987" x2="470.729" y2="240.465"/><path class="cls-31" d="M491.273,263a78.719,78.719,0,0,0,11.528.932,83.855,83.855,0,0,0,11.75-.932"/><path class="cls-31" d="M528.24,337.918c2.145,2.305,4.874,4.374,10.808,2.826,3.824-1,.7-8.418-.832-10.308s-5.9-10.96-6.764-13.2"/><path class="cls-31" d="M517,315.5s-1.215,1.949.952,5.041c.332.475.758,1.17,1.247,2.015"/><path class="cls-31" d="M474.7,337.585c-1.246,1.184-3.159,3.326-8.646,1.829-3.741-1.02-1.888-7.322.217-10.177,2.677-3.63,5.622-8.238,7.177-10.724.689-1.1,1.1-1.784,1.1-1.784"/><path class="cls-31" d="M490.041,313.926s.95,3.6-2.467,7.806"/><circle class="cls-32" cx="497.851" cy="218.367" r="1.12"/><line class="cls-42" x1="510.493" y1="227.794" x2="513.336" y2="229.278"/><path class="cls-31" d="M538.494,218.815s-2-.443-5.764.665c0,0-8.158,6.208-14.7,9.182"/><path class="cls-31" d="M469.516,216.821a11.666,11.666,0,0,1,5.185.722s7.063,6.554,13.606,9.527"/><path class="cls-43" d="M480.188,239.486s7.926,5.431,12.193,8.036,9.422,4.1,20.063-.72,13.3-6.319,13.3-6.319"/><path class="cls-43" d="M465.556,264.149s5.986,2,10.42.665"/><line class="cls-43" x1="534.725" y1="266.588" x2="540.045" y2="266.809"/><line class="cls-43" x1="527.243" y1="201.742" x2="525.247" y2="210.056"/><line class="cls-43" x1="479.855" y1="200.08" x2="481.684" y2="209.557"/><line class="cls-31" x1="485.342" y1="238.488" x2="490.829" y2="240.65"/><path class="cls-33" d="M481.74,206.509s-2.439,12.858,21.948,12.858c21.282,0,23.277-12.637,23.277-12.637l1.109,4.656s-1.33,8.646-.887,11.085-9.533,6.65-9.533,6.65h-5.542l-3.547-5.542-10.028-.273s-6.156,6.813-13.693,2.213-5.1-4.6-5.1-4.6a38.61,38.61,0,0,0-1.552-10.42l2.328-5.431Z"/><path class="cls-43" d="M522.92,229.177s3.543,2.51,1.33,9.145"/><path class="cls-43" d="M484.511,228.179a9.1,9.1,0,0,0-1.5,8.48"/><circle class="cls-16" cx="598.24" cy="157.847" r="21.948"/><circle class="cls-16" cx="598.24" cy="216.071" r="21.948"/><path class="cls-33" d="M664.748,115.947l39.739,39.738s-.831.416-6.152-2.078-21.865-9.727-29.347-11.722-28.765-5.238-28.765-5.238S650.116,135.234,664.748,115.947Z"/><path class="cls-2" d="M599.809,165.207a1.9,1.9,0,0,1-2.685,0l-8.393-8.393a1.9,1.9,0,1,1,2.685-2.685l7.05,7.051L618.643,141a1.9,1.9,0,0,1,2.686,2.685Z"/><path class="cls-2" d="M599.809,223.734a1.9,1.9,0,0,1-2.685,0l-8.393-8.392a1.9,1.9,0,1,1,2.685-2.685l7.05,7.05,20.177-20.177a1.9,1.9,0,0,1,2.686,2.685Z"/></svg>