<svg viewBox="0 0 1150 420" xmlns="http://www.w3.org/2000/svg" xmlns:xlink="http://www.w3.org/1999/xlink"><clipPath id="a"><path d="m627.644 98.245-16.5-1.78a2.881 2.881 0 0 1 -.189.4l-3.691 5.639a2.934 2.934 0 0 1 -2.772 1.312l-20.057-2.164-3.332-.36-20.039-2.163a2.938 2.938 0 0 1 -2.439-1.9l-2.489-6.7-16.523-1.783a9.877 9.877 0 0 0 -10.881 8.761l-22.7 210.3a9.877 9.877 0 0 0 8.761 10.881l88.033 9.5a9.879 9.879 0 0 0 10.881-8.761l22.7-210.3a9.88 9.88 0 0 0 -8.763-10.882z"/></clipPath><clipPath id="b"><path d="m607.795 328.641-96.463-10.411a5.638 5.638 0 0 1 -5-6.211l23.605-217.728a5.639 5.639 0 0 1 6.211-5l19.006 2.051 4.908 7.786 46.2 3.375 3.756-6.24 22.593 2.437a5.639 5.639 0 0 1 5 6.211l-23.605 218.729a5.639 5.639 0 0 1 -6.211 5.001z"/></clipPath><pattern id="c" height="2" patternTransform="matrix(1.705 .184 -.184 1.705 47.041 -28.052)" patternUnits="userSpaceOnUse" viewBox="0 0 2 2" width="2"><path d="m0 0h2v2h-2z" fill="none"/><circle cx=".515" cy=".5" fill="#007173" r=".5"/><circle cx="1.485" cy=".5" fill="none" r=".5"/><circle cx=".515" cy="1.5" fill="none" r=".5"/><circle cx="1.485" cy="1.5" fill="none" r=".5"/></pattern><clipPath id="d"><path d="m627.644 98.494-16.5-1.781a2.881 2.881 0 0 1 -.189.4l-3.691 5.639a2.934 2.934 0 0 1 -2.772 1.312l-19.134-2.164-3.333-.36-20.039-2.163c-1.106-.119-2.975-.854-3.363-1.9l-1.564-6.7-16.523-1.783c-5.424-.586-11.221 3.337-11.806 8.761l-22.7 210.3a9.877 9.877 0 0 0 8.761 10.881l88.033 9.5a9.879 9.879 0 0 0 10.881-8.761l22.7-210.3a9.878 9.878 0 0 0 -8.761-10.881z"/></clipPath><path d="m367.007 164.551 25.925-25.926h-131a11.307 11.307 0 0 1 0-22.613h131l-25.925-25.926a11.305 11.305 0 1 1 15.993-15.986l45.226 45.226a11.3 11.3 0 0 1 0 15.989l-45.226 45.224a11.305 11.305 0 1 1 -15.988-15.988z" fill="#b9f2eb"/><path d="m731.569 352.166 25.931-25.926h-131a11.307 11.307 0 1 1 0-22.613h131l-25.931-25.927a11.306 11.306 0 0 1 15.988-15.989l45.227 45.227a11.3 11.3 0 0 1 0 15.988l-45.227 45.227a11.305 11.305 0 0 1 -15.988-15.988z" fill="#b9f2eb"/><path d="m531.29 254.826c-1.011 0-1.011-.04-2.023-.046s-1.009-.3-2.021-.309-1.013.273-2.025.268-1.013 0-2.025 0l-2.025-.011c-1.011 0-1.011-.147-2.023-.152s-1.01-.175-2.022-.181-1.012-.059-2.024-.064-1.014.187-2.027.181-1.012.049-2.025.044-1.012.059-2.024.054-1.013.138-2.026.133-1.009-.1-2.018-.1-1.009-.144-2.02-.149-1.012.184-2.024.178-1.011-.455-2.023-.46-1.013.293-2.025.288-1.01-.079-2.021-.085-1.012.176-2.023.17-1.012-.191-2.025-.2-1.013.091-2.025.086-1.011-.145-2.023-.151-1.012-.135-2.024-.141-1.016.373-2.03.367-1.012-.058-2.024-.063-1.012-.3-2.026-.3-1.015.286-2.028.281-1.014.026-2.028.02-1.013-.154-2.026-.159-1.014-.08-2.028-.086-1.013-.148-2.027-.154-1.014.354-2.026.349-1.012-.291-2.026-.3-1.015 0-2.03 0-1.015.051-2.03.046-1.016.173-2.031.168-1.016-.243-2.032-.248-1.019.277-2.036.272a5.685 5.685 0 0 1 -2.116-.4c-.652-.274-1.068-.943-1.558-1.438a5.358 5.358 0 0 1 -1.326-1.613 5.6 5.6 0 0 1 -.527-2.082c0-1.009-.038-1.009-.032-2.018s.382-1.006.388-2.015-.195-1.011-.189-2.02.322-1.008.327-2.018-.492-1.013-.487-2.022.413-1.007.419-2.017.06-1.009.066-2.018-.029-1.01-.023-2.019-.263-1.011-.263-2.022-.108-1.01-.1-2.019-.038-1.01-.032-2.02.148-1.009.153-2.019.043-1.006.049-2.013.031-1.008.036-2.015-.161-1.01-.155-2.02.094-1.009.1-2.02-.057-1.009-.052-2.018.008-1.008.014-2.016.089-1.008.094-2.017.349-1.008.354-2.019-.24-1.011-.234-2.021-.229-1.011-.223-2.02.4-1.008.4-2.017.026-1.011.031-2.022-.287-1.012-.281-2.022.212-1.01.217-2.021.141-1.01.146-2.02-.032-1.012-.026-2.024-.44-1.013-.434-2.024.516-1.008.522-2.02-.446-1.014-.44-2.025.466-1.007.472-2.017-.061-1.012-.056-2.023-.1-1.012-.089-2.025.064-1.012.069-2.024-.309-1.014-.3-2.027.167-1.013.172-2.028-.151-1.015-.145-2.029a5.327 5.327 0 0 1 .628-1.983 5.586 5.586 0 0 1 2.831-2.775 5.413 5.413 0 0 1 1.983-.684l1.974.01c.987 0 .987.03 1.973.035s.987.016 1.974.022.985.353 1.972.359.99-.347 1.978-.342.988-.019 1.975-.014.985.47 1.972.475.988-.173 1.975-.167.989-.28 1.977-.274.986.312 1.975.318.988-.239 1.976-.233.986.213 1.973.218.988.027 1.976.032.984.031 1.969.037.986-.032 1.972-.027.988-.186 1.975-.18.986.373 1.974.378.99-.484 1.976-.479.985.165 1.972.171.987-.084 1.973-.079.986.4 1.974.406.988-.012 1.976-.007.988-.088 1.975-.083.987.079 1.975.084.991-.287 1.98-.282.988 0 1.975.009.988.258 1.977.263.99-.272 1.978-.267.99-.079 1.979-.074.987.375 1.976.38.991-.293 1.98-.287.989.034 1.978.039.987.216 1.974.221.99-.092 1.979-.087.99-.01 1.98 0 .99.059 1.98.064.992-.247 1.982-.242.991.243 1.983.249.992.047 1.984.053a5.044 5.044 0 0 1 1.954.582c.653.275 1.516.275 2.006.77a5.877 5.877 0 0 1 1.175 1.84 5.817 5.817 0 0 1 .445 2.137c-.006 1.007-.514 1.005-.52 2.012s.016 1.008.01 2.015.006 1.008 0 2.016.383 1.011.378 2.02-.268 1.007-.273 2.015-.094 1.008-.1 2.016.03 1.008.025 2.016.1 1.009.091 2.017.259 1.011.253 2.02-.493 1-.5 2.014.3 1.01.3 2.018.011 1.008 0 2.017-.24 1-.246 2.01.229 1.007.223 2.014-.172 1.007-.178 2.015.1 1.009.1 2.018.241 1.009.235 2.017-.493 1-.5 2.011.217 1.008.211 2.016-.215 1.008-.22 2.017-.042 1.008-.048 2.017.22 1.009.214 2.017-.232 1.007-.237 2.016.036 1.01.031 2.02.007 1.008 0 2.017.073 1.01.068 2.02.079 1.01.073 2.019-.138 1.01-.144 2.02-.069 1.009-.074 2.019.021 1.01.016 2.02.067 1.01.062 2.021.253 1.009.247 2.018-.021 1.01-.027 2.019-.074 1.011-.079 2.022-.223 1.01-.229 2.021.258 1.012.252 2.024.166 1.014.161 2.027-.109 1.012-.115 2.025a5.5 5.5 0 0 1 -.51 2.067 5.355 5.355 0 0 1 -1.27 1.66 5.3 5.3 0 0 1 -1.7 1.19 5.5 5.5 0 0 1 -2.04.582z" fill="#00cfb7"/><path d="m468.844 245.763a10.656 10.656 0 1 1 10.2-13.892 10.663 10.663 0 0 1 -10.2 13.892zm-8.169-14.917a9.268 9.268 0 0 0 -1.036 3.974l2.207-2.029-.551-2.964a9.164 9.164 0 0 0 -.62 1.019zm-.067 8.379 4.045.521.784-1.079-1.437-4.467-1.24-.394-3 2.772a8.654 8.654 0 0 0 .848 2.647zm5.14 4.6-1.24-2.7-2.95-.377a9.234 9.234 0 0 0 4.19 3.073zm-1.068-16.966a9.282 9.282 0 0 0 -2.243 1.612l.752 4.039 1.351.429 3.7-2.657.008-1.414zm2.035 11.3 4.366.024 1.359-4.117-3.514-2.58-3.537 2.537zm3.529 6.125 1.743-3.685-.737-1.044-4.735-.026-.754 1.036 1.7 3.7a8.7 8.7 0 0 0 2.783.018zm-3.91-18.072 2.613 1.467 2.633-1.443a8.407 8.407 0 0 0 -5.246-.025zm9.122 2.327a9.259 9.259 0 0 0 -2.225-1.64l-3.6 1.974-.008 1.414 3.676 2.7 1.356-.414zm.75 12.28-2.967.35-1.269 2.687a9.187 9.187 0 0 0 4.236-3.038zm1.831-4.127-2.975-2.809-1.244.38-1.473 4.464.76 1.074 4.054-.476a9.46 9.46 0 0 0 .878-2.634zm-1.458-6.754-.588 2.931 2.185 2.062a9.117 9.117 0 0 0 -1.597-4.994z" fill="#003e3f"/><path d="m459.106 196.193.043-7.872a.167.167 0 0 1 .177-.175l4.195.023a.166.166 0 0 1 .175.177l-.007 1.293a.165.165 0 0 1 -.177.175l-2.512-.014-.009 1.551 2.362.013a.166.166 0 0 1 .175.177l-.007 1.293a.166.166 0 0 1 -.177.175l-2.364-.009-.017 3.208a.167.167 0 0 1 -.178.175l-1.5-.008a.168.168 0 0 1 -.179-.182z" fill="#003e3f"/><path d="m471.982 196.44-1.61-.009a.224.224 0 0 1 -.211-.118l-1.665-2.724h-.423l-.014 2.655a.168.168 0 0 1 -.178.176l-1.5-.009a.166.166 0 0 1 -.175-.177l.043-7.872a.166.166 0 0 1 .177-.175l2.527.014c1.985.011 2.919 1.12 2.91 2.718a2.432 2.432 0 0 1 -1.564 2.459l1.805 2.853c.078.128.019.21-.122.209zm-3.9-4.5h.8c.623 0 1.2-.193 1.2-1.039s-.57-1.06-1.192-1.064h-.8z" fill="#003e3f"/><path d="m474.5 196.277.043-7.872a.167.167 0 0 1 .177-.175l4.242.024a.165.165 0 0 1 .175.177l-.007 1.292a.167.167 0 0 1 -.177.176l-2.562-.015-.008 1.61 2.408.013a.168.168 0 0 1 .176.177l-.007 1.293a.167.167 0 0 1 -.178.175l-2.408-.013-.009 1.68 2.549.014a.176.176 0 0 1 .187.177l-.007 1.293a.176.176 0 0 1 -.189.175l-4.23-.023a.167.167 0 0 1 -.175-.178z" fill="#003e3f"/><path d="m481.686 196.317.043-7.872a.166.166 0 0 1 .177-.175l4.242.023a.166.166 0 0 1 .175.177l-.007 1.292a.168.168 0 0 1 -.177.176l-2.562-.014-.008 1.61 2.408.013a.166.166 0 0 1 .176.176l-.007 1.293a.167.167 0 0 1 -.178.175l-2.408-.013-.009 1.68 2.549.014a.176.176 0 0 1 .187.177l-.007 1.293a.176.176 0 0 1 -.189.175l-4.23-.023a.166.166 0 0 1 -.175-.177z" fill="#003e3f"/><path d="m492.33 196.375.043-7.872a.166.166 0 0 1 .177-.175l2.855.015a2.077 2.077 0 0 1 2.268 2.1 1.877 1.877 0 0 1 -1.067 1.71 2.079 2.079 0 0 1 1.587 2.089c-.008 1.386-.965 2.332-2.95 2.321l-2.738-.015a.165.165 0 0 1 -.175-.173zm2.8-1.442c.693 0 1.165-.287 1.169-.969s-.465-.954-1.158-.958h-.964l-.01 1.927zm-.13-3.372c.564 0 .918-.219.921-.818 0-.564-.349-.765-.913-.768h-.81l-.009 1.586z" fill="#003e3f"/><path d="m500.483 196.42.043-7.873a.166.166 0 0 1 .177-.175l4.242.024a.166.166 0 0 1 .175.177l-.007 1.292a.168.168 0 0 1 -.177.176l-2.562-.015-.008 1.61 2.408.013a.166.166 0 0 1 .175.177l-.007 1.293a.165.165 0 0 1 -.177.175l-2.409-.013-.009 1.68 2.55.014a.176.176 0 0 1 .187.177l-.007 1.293a.176.176 0 0 1 -.189.175l-4.23-.023a.167.167 0 0 1 -.175-.177z" fill="#003e3f"/><path d="m509.177 196.467.035-6.4-1.563-.009a.165.165 0 0 1 -.175-.177l.007-1.292a.167.167 0 0 1 .177-.176l4.994.028a.176.176 0 0 1 .187.177l-.007 1.292a.178.178 0 0 1 -.189.176l-1.563-.009-.035 6.4a.167.167 0 0 1 -.177.175l-1.5-.008a.176.176 0 0 1 -.191-.177z" fill="#003e3f"/><path d="m459.754 177.513 28.748.157" fill="none" stroke="#003e3f" stroke-linecap="round" stroke-linejoin="round" stroke-width="1.305"/><path d="m433.185 254.826c-1.011 0-1.011-.04-2.022-.046s-1.01-.3-2.022-.309-1.013.273-2.025.268-1.012 0-2.025 0l-2.024-.011c-1.012 0-1.011-.147-2.023-.152s-1.011-.175-2.023-.181-1.012-.059-2.024-.064-1.014.187-2.027.181-1.012.049-2.024.044-1.013.059-2.025.054-1.013.138-2.025.133-1.009-.1-2.019-.1-1.009-.144-2.019-.149-1.013.184-2.025.178-1.01-.455-2.023-.46-1.013.293-2.024.288-1.011-.079-2.021-.085-1.013.176-2.024.17-1.012-.191-2.024-.2-1.014.091-2.026.086-1.011-.145-2.023-.151-1.012-.135-2.024-.141-1.016.373-2.029.367-1.013-.058-2.025-.063-1.012-.3-2.026-.3-1.015.286-2.028.281-1.014.026-2.028.02-1.013-.154-2.026-.159-1.014-.08-2.028-.086-1.013-.148-2.027-.154-1.014.354-2.026.349-1.012-.291-2.026-.3-1.015 0-2.029 0-1.016.051-2.031.046-1.016.173-2.031.168-1.015-.243-2.032-.248-1.019.277-2.035.272a5.686 5.686 0 0 1 -2.117-.4c-.652-.274-1.068-.943-1.558-1.438a5.373 5.373 0 0 1 -1.326-1.613 5.6 5.6 0 0 1 -.527-2.082c0-1.009-.038-1.009-.032-2.018s.383-1.006.388-2.015-.194-1.011-.189-2.02.322-1.008.328-2.018-.493-1.013-.487-2.022.412-1.007.418-2.017.061-1.009.066-2.018-.028-1.01-.023-2.019-.264-1.012-.259-2.023-.107-1.01-.1-2.019-.038-1.01-.032-2.02.148-1.009.153-2.019.043-1.006.049-2.013.031-1.008.036-2.015-.16-1.01-.155-2.02.094-1.009.1-2.02-.057-1.009-.052-2.018.009-1.008.014-2.016.089-1.008.094-2.017.349-1.008.354-2.019-.24-1.011-.234-2.021-.228-1.011-.223-2.02.395-1.008.4-2.017.026-1.011.031-2.022-.287-1.012-.281-2.022.212-1.01.217-2.021.141-1.01.146-2.02-.031-1.012-.026-2.024-.439-1.013-.434-2.024.517-1.008.522-2.02-.445-1.014-.44-2.025.466-1.007.472-2.017-.061-1.012-.056-2.023-.095-1.012-.089-2.025.064-1.012.07-2.024-.31-1.014-.3-2.027.167-1.013.172-2.028-.151-1.015-.145-2.029a5.345 5.345 0 0 1 .628-1.983 5.586 5.586 0 0 1 2.831-2.775 5.413 5.413 0 0 1 1.983-.684l1.974.01c.987 0 .987.03 1.974.035s.986.016 1.973.022.985.353 1.972.359.99-.347 1.978-.342.988-.019 1.975-.014.985.47 1.972.475.988-.173 1.975-.167.989-.28 1.977-.274.987.312 1.975.318.989-.239 1.976-.233.986.213 1.974.218.987.027 1.975.032.985.031 1.97.037.985-.032 1.971-.027.988-.186 1.975-.18.986.373 1.974.378.99-.484 1.976-.479.986.165 1.972.171.987-.084 1.973-.079.986.4 1.975.406.988-.012 1.976-.007.987-.088 1.974-.083.988.079 1.976.084.99-.287 1.979-.282.988 0 1.976.009.987.258 1.976.263.99-.272 1.978-.267.99-.079 1.98-.074.986.375 1.975.38.991-.293 1.98-.287.989.034 1.979.039.986.216 1.974.221.989-.092 1.978-.087.99-.01 1.98 0 .99.059 1.98.064.992-.247 1.982-.242.991.243 1.983.249.992.047 1.984.053a5.054 5.054 0 0 1 1.955.582c.652.275 1.515.275 2 .77a5.877 5.877 0 0 1 1.175 1.84 5.817 5.817 0 0 1 .445 2.137c-.005 1.007-.514 1.005-.52 2.012s.016 1.008.011 2.015 0 1.008 0 2.016.382 1.011.377 2.02-.267 1.007-.273 2.015-.094 1.008-.1 2.016.03 1.008.025 2.016.1 1.009.091 2.017.259 1.011.253 2.02-.493 1-.5 2.014.306 1.01.3 2.018.011 1.008.006 2.017-.241 1-.246 2.01.228 1.007.222 2.014-.172 1.007-.177 2.015.1 1.009.1 2.018.241 1.009.236 2.017-.493 1-.5 2.011.217 1.008.211 2.016-.214 1.008-.22 2.017-.042 1.008-.048 2.017.22 1.009.214 2.017-.232 1.007-.237 2.016.037 1.01.031 2.02.007 1.008 0 2.017.073 1.01.068 2.02.079 1.01.074 2.019-.139 1.01-.145 2.02-.068 1.009-.074 2.019.022 1.01.016 2.02.068 1.01.062 2.021.253 1.009.247 2.018-.021 1.01-.027 2.019-.074 1.011-.079 2.022-.223 1.01-.228 2.021.257 1.012.252 2.024.165 1.014.16 2.027-.109 1.012-.115 2.025a5.517 5.517 0 0 1 -.509 2.067 5.358 5.358 0 0 1 -1.271 1.66 5.289 5.289 0 0 1 -1.7 1.19 5.5 5.5 0 0 1 -2.047.583z" fill="#ffd938"/><path d="m381.453 235.165a10.656 10.656 0 1 1 -10.6-10.714 10.665 10.665 0 0 1 10.6 10.714zm-19.9-.646a2.773 2.773 0 0 1 1.4-.4 6.757 6.757 0 0 0 6.956-6.885 2.8 2.8 0 0 1 .407-1.389 9.275 9.275 0 0 0 -8.767 8.674zm7.853 9.754a1.393 1.393 0 0 0 .914-1.31 8.133 8.133 0 0 1 8.338-8.251 1.407 1.407 0 0 0 1.32-.9 9.287 9.287 0 0 0 -7.79-7.875 1.385 1.385 0 0 0 -.91 1.305 8.132 8.132 0 0 1 -8.338 8.252 1.4 1.4 0 0 0 -1.32.9 9.29 9.29 0 0 0 7.78 7.879zm10.643-8.578a2.8 2.8 0 0 1 -1.394.392 6.754 6.754 0 0 0 -6.955 6.883 2.824 2.824 0 0 1 -.412 1.4 9.275 9.275 0 0 0 8.757-8.67z" fill="#003e3f"/><path d="m361 196.193.042-7.872a.168.168 0 0 1 .178-.175l2.855.016a2.078 2.078 0 0 1 2.268 2.1 1.876 1.876 0 0 1 -1.067 1.71 2.077 2.077 0 0 1 1.586 2.089c-.007 1.386-.964 2.333-2.95 2.321l-2.737-.014a.167.167 0 0 1 -.175-.175zm2.8-1.441c.693 0 1.164-.288 1.168-.969s-.464-.954-1.158-.958l-.963-.006-.011 1.927zm-.135-3.373c.564 0 .918-.218.921-.817 0-.564-.348-.766-.912-.769h-.811l-.008 1.586z" fill="#003e3f"/><path d="m368.941 192.336a4.236 4.236 0 1 1 4.207 4.253 4.215 4.215 0 0 1 -4.207-4.253zm6.58.036a2.351 2.351 0 1 0 -2.363 2.4 2.33 2.33 0 0 0 2.363-2.4z" fill="#003e3f"/><path d="m386.633 188.461-.043 7.872a.167.167 0 0 1 -.178.175l-1.75-.009a.223.223 0 0 1 -.211-.119l-2.7-5.1-.028 5.029a.165.165 0 0 1 -.177.175l-1.5-.008a.167.167 0 0 1 -.175-.178l.043-7.872a.166.166 0 0 1 .177-.175l1.751.01a.223.223 0 0 1 .211.119l2.7 5.1.027-5.029a.167.167 0 0 1 .177-.175l1.5.008a.168.168 0 0 1 .176.177z" fill="#003e3f"/><path d="m389.273 193.305.026-4.829a.167.167 0 0 1 .177-.176l1.5.009a.165.165 0 0 1 .175.177l-.026 4.806c0 1 .461 1.576 1.319 1.581s1.331-.568 1.336-1.567l.027-4.805a.167.167 0 0 1 .177-.176l1.5.009a.165.165 0 0 1 .175.177l-.026 4.829a3.023 3.023 0 0 1 -3.2 3.354c-1.863-.01-3.172-1.157-3.16-3.389z" fill="#003e3f"/><path d="m398.061 195.409a.182.182 0 0 1 .013-.247l.815-.911a.172.172 0 0 1 .259-.022 2.182 2.182 0 0 0 1.6.795c.6 0 1.024-.229 1.027-.746 0-.482-.349-.636-.865-.874l-1-.475a2.423 2.423 0 0 1 -1.679-2.3 2.355 2.355 0 0 1 2.609-2.359 3.322 3.322 0 0 1 2.461 1.106.184.184 0 0 1 .011.258l-.781.936a.177.177 0 0 1 -.247.058 2.1 2.1 0 0 0 -1.395-.654c-.54 0-.859.265-.861.688 0 .447.326.59.923.875l.833.38a2.464 2.464 0 0 1 -1.014 4.812 3.368 3.368 0 0 1 -2.709-1.32z" fill="#003e3f"/><path d="m361.649 177.513 28.748.157" fill="none" stroke="#003e3f" stroke-linecap="round" stroke-linejoin="round" stroke-width="1.305"/><g opacity=".61"><path d="m237.107 254.826c-1.011 0-1.011-.04-2.022-.046s-1.01-.3-2.022-.309-1.013.273-2.025.268-1.012 0-2.025 0l-2.024-.011c-1.012 0-1.011-.147-2.023-.152s-1.011-.175-2.023-.181-1.012-.059-2.024-.064-1.014.187-2.027.181-1.012.049-2.024.044-1.013.059-2.025.054-1.013.138-2.025.133-1.009-.1-2.019-.1-1.009-.144-2.019-.149-1.013.184-2.025.178-1.01-.455-2.023-.46-1.013.293-2.024.288-1.011-.079-2.021-.085-1.012.176-2.024.17-1.011-.191-2.024-.2-1.014.091-2.026.086-1.011-.145-2.023-.151-1.012-.135-2.024-.141-1.016.373-2.029.367-1.013-.058-2.025-.063-1.012-.3-2.026-.3-1.014.286-2.028.281-1.014.026-2.028.02-1.013-.154-2.026-.159-1.013-.08-2.027-.086-1.014-.148-2.028-.154-1.014.354-2.026.349-1.012-.291-2.026-.3-1.015 0-2.029 0-1.016.051-2.03.046-1.017.173-2.032.168-1.015-.243-2.032-.248-1.018.277-2.035.272a5.69 5.69 0 0 1 -2.117-.4c-.652-.274-1.068-.943-1.558-1.438a5.373 5.373 0 0 1 -1.326-1.613 5.6 5.6 0 0 1 -.527-2.082c.006-1.009-.038-1.009-.032-2.018s.383-1.006.388-2.015-.194-1.011-.189-2.02.322-1.008.328-2.018-.493-1.013-.487-2.022.412-1.007.418-2.017.061-1.009.066-2.018-.028-1.01-.023-2.019-.264-1.012-.259-2.023-.107-1.01-.1-2.019-.038-1.01-.032-2.02.148-1.009.153-2.019.043-1.006.049-2.013.031-1.008.036-2.015-.16-1.01-.155-2.02.095-1.009.1-2.02-.057-1.009-.051-2.018.008-1.008.013-2.016.089-1.008.095-2.017.348-1.008.354-2.019-.24-1.011-.235-2.021-.228-1.011-.223-2.02.395-1.008.4-2.017.026-1.011.032-2.022-.288-1.012-.282-2.022.212-1.01.217-2.021.141-1.01.147-2.02-.032-1.012-.027-2.024-.439-1.013-.434-2.024.517-1.008.522-2.02-.445-1.014-.44-2.025.467-1.007.472-2.017-.061-1.012-.055-2.023-.095-1.012-.09-2.025.064-1.012.07-2.024-.309-1.014-.3-2.027.167-1.013.172-2.028-.151-1.015-.145-2.029a5.345 5.345 0 0 1 .628-1.983 5.583 5.583 0 0 1 2.832-2.775 5.4 5.4 0 0 1 1.982-.684l1.974.01c.987 0 .987.03 1.974.035s.986.016 1.973.022.985.353 1.973.359.989-.347 1.977-.342.988-.019 1.976-.014.984.47 1.971.475.988-.173 1.976-.167.989-.28 1.976-.274.987.312 1.975.318.989-.239 1.976-.233.986.213 1.974.218.987.027 1.975.032.985.031 1.97.037.985-.032 1.971-.027.988-.186 1.975-.18.986.373 1.975.378.989-.484 1.976-.479.985.165 1.971.171.987-.084 1.974-.079.986.4 1.974.406.988-.012 1.976-.007.987-.088 1.974-.083.988.079 1.976.084.99-.287 1.979-.282.988 0 1.976.009.987.258 1.976.263.99-.272 1.979-.267.989-.079 1.979-.074.986.375 1.975.38.991-.293 1.98-.287.989.034 1.979.039.986.216 1.974.221.989-.092 1.978-.087.99-.01 1.98 0 .99.059 1.98.064.992-.247 1.983-.242.99.243 1.982.249.992.047 1.984.053a5.044 5.044 0 0 1 1.955.582c.652.275 1.516.275 2.006.77a6.052 6.052 0 0 1 1.619 3.977c0 1.007-.514 1.005-.519 2.012s.015 1.008.01 2.015 0 1.008 0 2.016.382 1.011.377 2.02-.267 1.007-.273 2.015-.094 1.008-.1 2.016.031 1.008.025 2.016.1 1.009.091 2.017.259 1.011.253 2.02-.493 1-.5 2.014.305 1.01.3 2.018.011 1.008.006 2.017-.241 1-.246 2.01.228 1.007.222 2.014-.172 1.007-.177 2.015.1 1.009.1 2.018.241 1.009.236 2.017-.493 1-.5 2.011.217 1.008.212 2.016-.215 1.008-.221 2.017-.042 1.008-.048 2.017.22 1.009.214 2.017-.231 1.007-.237 2.016.037 1.01.031 2.02.007 1.008 0 2.017.072 1.01.067 2.02.079 1.01.074 2.019-.139 1.01-.145 2.02-.068 1.009-.074 2.019.022 1.01.016 2.02.068 1.01.062 2.021.253 1.009.247 2.018-.021 1.01-.027 2.019-.074 1.011-.079 2.022-.223 1.01-.228 2.021.257 1.012.252 2.024.166 1.014.16 2.027-.109 1.012-.115 2.025a5.5 5.5 0 0 1 -.509 2.067 5.358 5.358 0 0 1 -1.271 1.66 5.289 5.289 0 0 1 -1.7 1.19 5.5 5.5 0 0 1 -2.051.583z" fill="none" stroke="#ffd938" stroke-miterlimit="10" stroke-width="2"/><g fill="#ffd938"><path d="m188.831 231.925a2.059 2.059 0 0 1 -1.407 1.945l-1.1.368a2.061 2.061 0 0 1 -2.378-.82l-.62-.941-.012 2.17a4.942 4.942 0 0 1 -1.394 3.413l-.037 6.711a1.374 1.374 0 0 1 -1.382 1.367l-2.75-.014a1.376 1.376 0 0 1 -1.367-1.383l.03-5.523-3.6-.82-.842 2.3.912 3.682a1.375 1.375 0 0 1 -1.343 1.705l-2.471-.013a1.376 1.376 0 0 1 -1.332-1.061l-.887-3.78a2.75 2.75 0 0 1 .042-1.406l.962-3.187a4.259 4.259 0 0 1 -1.039-2.808 4.171 4.171 0 0 1 .078-.729 2.055 2.055 0 0 0 -1.46 1.951l-.013 2.406a.344.344 0 0 1 -.346.342h-.687a.343.343 0 0 1 -.342-.345l.013-2.406a3.436 3.436 0 0 1 3.4-3.414 4.26 4.26 0 0 1 3.651-2.048l6.043.033a5.505 5.505 0 0 1 5.53-5.47l4.777.026a1.375 1.375 0 0 1 1.368 1.383 2.744 2.744 0 0 1 -.368 1.36 1.422 1.422 0 0 1 .388.972zm-1.375-.007.02-4.034-.87-1.069a1.376 1.376 0 0 0 .85-1.264l-4.778-.026a4.125 4.125 0 0 0 -4.147 4.1l-.008 1.375-7.417-.041a2.892 2.892 0 0 0 -1.684 5.256l-1.209 4.007a1.365 1.365 0 0 0 -.019.695l.887 3.781 2.472.013-1.012-4.089 1.4-3.837 5.855 1.335-.036 6.626 2.749.014.04-7.313a3.592 3.592 0 0 0 1.391-2.81l.023-4.306 2.059.7 1.073 1.628a.691.691 0 0 0 .792.274l1.1-.369a.688.688 0 0 0 .469-.646zm-2.043-3.628a.688.688 0 1 1 -.683-.691.687.687 0 0 1 .683.691z"/><path d="m164.924 196.193.043-7.872a.166.166 0 0 1 .177-.175l4.194.023a.168.168 0 0 1 .176.177l-.007 1.293a.167.167 0 0 1 -.178.175l-2.514-.014-.009 1.551 2.362.013a.166.166 0 0 1 .175.177l-.007 1.293a.166.166 0 0 1 -.177.175l-2.359-.009-.018 3.208a.166.166 0 0 1 -.177.175l-1.5-.008a.167.167 0 0 1 -.181-.182z"/><path d="m177.8 196.44-1.609-.009a.223.223 0 0 1 -.211-.118l-1.665-2.724h-.424l-.014 2.655a.168.168 0 0 1 -.177.176l-1.5-.009a.165.165 0 0 1 -.175-.177l.043-7.872a.165.165 0 0 1 .177-.175l2.526.014c1.986.011 2.919 1.12 2.911 2.718a2.434 2.434 0 0 1 -1.565 2.459l1.806 2.853c.077.128.017.21-.123.209zm-3.9-4.5h.8c.622 0 1.2-.193 1.2-1.039s-.569-1.06-1.192-1.064h-.8z"/><path d="m180.314 196.277.042-7.872a.168.168 0 0 1 .178-.175l4.241.024a.165.165 0 0 1 .175.177l-.007 1.292a.167.167 0 0 1 -.177.176l-2.561-.015-.009 1.61 2.409.013a.167.167 0 0 1 .175.177l-.007 1.293a.166.166 0 0 1 -.177.175l-2.409-.013-.009 1.68 2.55.014a.177.177 0 0 1 .187.177l-.007 1.293a.176.176 0 0 1 -.189.175l-4.23-.023a.167.167 0 0 1 -.175-.178z"/><path d="m187.5 196.317.043-7.872a.167.167 0 0 1 .178-.175l4.241.023a.165.165 0 0 1 .175.177l-.007 1.292a.167.167 0 0 1 -.177.176l-2.561-.014-.009 1.61 2.409.013a.166.166 0 0 1 .175.176l-.007 1.293a.166.166 0 0 1 -.177.175l-2.409-.013-.009 1.68 2.55.014a.177.177 0 0 1 .187.177l-.008 1.293a.175.175 0 0 1 -.189.175l-4.229-.023a.167.167 0 0 1 -.176-.177z"/><path d="m198.147 196.375.043-7.872a.167.167 0 0 1 .177-.175l2.856.015a2.077 2.077 0 0 1 2.267 2.1 1.876 1.876 0 0 1 -1.066 1.71 2.078 2.078 0 0 1 1.586 2.089c-.008 1.386-.965 2.332-2.95 2.321l-2.737-.015a.167.167 0 0 1 -.176-.173zm2.8-1.442c.694 0 1.165-.287 1.169-.969s-.465-.954-1.158-.958l-.958-.006-.011 1.927zm-.134-3.372c.564 0 .918-.219.921-.818 0-.564-.348-.765-.912-.768h-.811l-.008 1.586z"/><path d="m206.3 196.42.043-7.873a.168.168 0 0 1 .178-.175l4.241.024a.165.165 0 0 1 .175.177l-.007 1.292a.167.167 0 0 1 -.177.176l-2.561-.015-.009 1.61 2.409.013a.167.167 0 0 1 .175.177l-.007 1.293a.166.166 0 0 1 -.177.175l-2.409-.013-.009 1.68 2.549.014a.176.176 0 0 1 .187.177l-.007 1.293a.175.175 0 0 1 -.189.175l-4.229-.023a.168.168 0 0 1 -.176-.177z"/><path d="m214.994 196.467.035-6.4-1.562-.009a.167.167 0 0 1 -.176-.177l.007-1.292a.168.168 0 0 1 .178-.176l4.993.028a.175.175 0 0 1 .187.177l-.007 1.292a.177.177 0 0 1 -.189.176l-1.563-.009-.035 6.4a.166.166 0 0 1 -.177.175l-1.5-.008a.176.176 0 0 1 -.191-.177z"/></g><path d="m165.571 177.513 28.748.157" fill="none" stroke="#ffd938" stroke-linecap="round" stroke-linejoin="round" stroke-width="1.305"/></g><g opacity=".66"><path d="m335.212 254.826c-1.011 0-1.011-.04-2.023-.046s-1.009-.3-2.021-.309-1.013.273-2.025.268-1.012 0-2.025 0l-2.025-.011c-1.011 0-1.011-.147-2.022-.152s-1.011-.175-2.023-.181-1.012-.059-2.024-.064-1.014.187-2.027.181-1.012.049-2.025.044-1.012.059-2.024.054-1.013.138-2.026.133-1.008-.1-2.018-.1-1.009-.144-2.019-.149-1.013.184-2.025.178-1.01-.455-2.023-.46-1.013.293-2.024.288-1.011-.079-2.022-.085-1.012.176-2.023.17-1.012-.191-2.025-.2-1.013.091-2.025.086-1.011-.145-2.023-.151-1.012-.135-2.024-.141-1.016.373-2.03.367-1.012-.058-2.024-.063-1.012-.3-2.026-.3-1.015.286-2.028.281-1.014.026-2.028.02-1.013-.154-2.026-.159-1.014-.08-2.028-.086-1.013-.148-2.027-.154-1.014.354-2.026.349-1.012-.291-2.026-.3-1.015 0-2.03 0-1.015.051-2.03.046-1.016.173-2.031.168-1.016-.243-2.032-.248-1.019.277-2.035.272a5.686 5.686 0 0 1 -2.117-.4c-.652-.274-1.068-.943-1.558-1.438a5.358 5.358 0 0 1 -1.326-1.613 5.6 5.6 0 0 1 -.527-2.082c0-1.009-.038-1.009-.032-2.018s.383-1.006.388-2.015-.194-1.011-.189-2.02.322-1.008.328-2.018-.493-1.013-.487-2.022.412-1.007.418-2.017.06-1.009.066-2.018-.029-1.01-.023-2.019-.264-1.012-.259-2.023-.107-1.01-.1-2.019-.038-1.01-.032-2.02.148-1.009.153-2.019.043-1.006.049-2.013.031-1.008.036-2.015-.161-1.01-.155-2.02.094-1.009.1-2.02-.057-1.009-.052-2.018.008-1.008.014-2.016.089-1.008.094-2.017.349-1.008.354-2.019-.24-1.011-.234-2.021-.228-1.011-.223-2.02.4-1.008.4-2.017.026-1.011.031-2.022-.287-1.012-.281-2.022.212-1.01.217-2.021.141-1.01.146-2.02-.032-1.012-.026-2.024-.44-1.013-.434-2.024.517-1.008.522-2.02-.445-1.014-.44-2.025.466-1.007.472-2.017-.061-1.012-.056-2.023-.1-1.012-.089-2.025.064-1.012.07-2.024-.31-1.014-.3-2.027.167-1.013.172-2.028-.151-1.015-.145-2.029a5.345 5.345 0 0 1 .628-1.983 5.586 5.586 0 0 1 2.831-2.775 5.413 5.413 0 0 1 1.983-.684l1.974.01c.987 0 .987.03 1.973.035s.987.016 1.974.022.985.353 1.972.359.99-.347 1.978-.342.988-.019 1.975-.014.985.47 1.972.475.988-.173 1.975-.167.989-.28 1.977-.274.986.312 1.975.318.988-.239 1.976-.233.986.213 1.974.218.987.027 1.975.032.985.031 1.969.037.986-.032 1.972-.027.988-.186 1.975-.18.986.373 1.974.378.99-.484 1.976-.479.986.165 1.972.171.987-.084 1.973-.079.986.4 1.974.406.989-.012 1.976-.007.988-.088 1.975-.083.988.079 1.975.084.988-.282 1.974-.282.988 0 1.975.009.988.258 1.977.263.99-.272 1.978-.267.99-.079 1.979-.074.987.375 1.976.38.991-.293 1.98-.287.989.034 1.978.039.987.216 1.974.221.99-.092 1.979-.087.99-.01 1.98 0 .99.059 1.98.064.992-.247 1.982-.242.991.243 1.983.249.992.047 1.984.053a5.054 5.054 0 0 1 1.955.582c.652.275 1.515.275 2 .77a5.877 5.877 0 0 1 1.175 1.84 5.817 5.817 0 0 1 .445 2.137c0 1.007-.514 1.005-.52 2.012s.016 1.008.01 2.015.006 1.008 0 2.016.383 1.011.378 2.02-.267 1.007-.273 2.015-.094 1.008-.1 2.016.03 1.008.025 2.016.1 1.009.091 2.017.259 1.011.253 2.02-.493 1-.5 2.014.305 1.01.3 2.018.011 1.008.006 2.017-.241 1-.246 2.01.228 1.007.222 2.014-.172 1.007-.177 2.015.1 1.009.1 2.018.241 1.009.235 2.017-.492 1-.5 2.011.217 1.008.211 2.016-.215 1.008-.22 2.017-.042 1.008-.048 2.017.22 1.009.214 2.017-.227 1.002-.227 2.012.036 1.01.031 2.02.007 1.008 0 2.017.073 1.01.068 2.02.079 1.01.073 2.019-.138 1.01-.144 2.02-.069 1.009-.074 2.019.021 1.01.016 2.02.067 1.01.062 2.021.253 1.009.247 2.018-.021 1.01-.027 2.019-.074 1.011-.079 2.022-.223 1.01-.228 2.021.257 1.012.251 2.024.166 1.014.161 2.027-.109 1.012-.115 2.025a5.517 5.517 0 0 1 -.509 2.067 5.373 5.373 0 0 1 -1.271 1.66 5.289 5.289 0 0 1 -1.7 1.19 5.5 5.5 0 0 1 -2.05.587z" fill="none" stroke="#00cfb7" stroke-miterlimit="10" stroke-width="2"/><g fill="#00cfb7"><path d="m272.766 245.763a10.656 10.656 0 1 1 10.2-13.892 10.661 10.661 0 0 1 -10.2 13.892zm-8.166-14.917a9.253 9.253 0 0 0 -1.035 3.974l2.206-2.029-.551-2.964a9.317 9.317 0 0 0 -.62 1.019zm-.067 8.379 4.045.521.784-1.079-1.432-4.463-1.24-.394-3 2.772a8.711 8.711 0 0 0 .84 2.643zm5.14 4.6-1.24-2.7-2.95-.377a9.234 9.234 0 0 0 4.187 3.073zm-1.073-16.97a9.282 9.282 0 0 0 -2.243 1.612l.752 4.039 1.351.429 3.706-2.657.007-1.414zm2.035 11.3 4.366.024 1.359-4.117-3.514-2.58-3.537 2.537zm3.53 6.125 1.742-3.685-.737-1.044-4.735-.026-.754 1.036 1.7 3.7a8.7 8.7 0 0 0 2.786.022zm-3.911-18.072 2.613 1.467 2.633-1.443a8.407 8.407 0 0 0 -5.244-.021zm9.122 2.327a9.259 9.259 0 0 0 -2.225-1.64l-3.6 1.974-.007 1.414 3.676 2.7 1.356-.414zm.75 12.28-2.967.35-1.269 2.687a9.187 9.187 0 0 0 4.238-3.034zm1.832-4.127-2.976-2.809-1.244.38-1.472 4.464.759 1.074 4.054-.476a9.463 9.463 0 0 0 .881-2.63zm-1.459-6.754-.588 2.931 2.185 2.062a9.117 9.117 0 0 0 -1.596-4.99z"/><path d="m271.918 188.37-.042 7.872a.167.167 0 0 1 -.178.175l-1.5-.008a.177.177 0 0 1 -.187-.177l.025-4.489-.144.481-1.573 4.033a.214.214 0 0 1 -.212.141l-1.316-.008a.215.215 0 0 1 -.211-.142l-1.517-4.05-.15-.518-.024 4.524a.167.167 0 0 1 -.177.175l-1.5-.008a.168.168 0 0 1 -.176-.178l.043-7.872a.168.168 0 0 1 .178-.175l1.715.009a.2.2 0 0 1 .2.119l2.294 5.958 2.359-5.933a.213.213 0 0 1 .212-.116l1.715.009a.167.167 0 0 1 .166.178z"/><path d="m274.375 192.355a4.236 4.236 0 1 1 4.206 4.253 4.215 4.215 0 0 1 -4.206-4.253zm6.579.035a2.35 2.35 0 1 0 -2.363 2.4 2.329 2.329 0 0 0 2.363-2.4z"/><path d="m292.066 188.48-.043 7.872a.165.165 0 0 1 -.177.175l-1.751-.009a.223.223 0 0 1 -.21-.119l-2.7-5.1-.028 5.029a.167.167 0 0 1 -.177.176l-1.5-.009a.165.165 0 0 1 -.175-.177l.043-7.872a.165.165 0 0 1 .177-.175l1.751.009a.224.224 0 0 1 .21.119l2.7 5.1.028-5.029a.166.166 0 0 1 .177-.175l1.5.008a.166.166 0 0 1 .175.177z"/><path d="m294.748 196.367.043-7.872a.168.168 0 0 1 .178-.176l4.241.024a.166.166 0 0 1 .175.177l-.007 1.293a.166.166 0 0 1 -.177.175l-2.561-.014-.009 1.61 2.409.013a.166.166 0 0 1 .175.177l-.007 1.292a.166.166 0 0 1 -.177.175l-2.409-.013-.009 1.68 2.549.014a.176.176 0 0 1 .187.178l-.007 1.292a.175.175 0 0 1 -.189.175l-4.229-.023a.167.167 0 0 1 -.176-.177z"/><path d="m308.267 188.6-2.42 4.216-.02 3.607a.177.177 0 0 1 -.189.176l-1.5-.009a.165.165 0 0 1 -.175-.177l.02-3.619-2.374-4.231c-.07-.129-.022-.211.119-.21l1.562.008a.223.223 0 0 1 .211.119l1.419 2.64 1.448-2.624a.239.239 0 0 1 .224-.117l1.562.009c.137.004.184.087.113.212z"/><path d="m262.951 210.292.043-7.872a.168.168 0 0 1 .177-.176l2.855.016a2.077 2.077 0 0 1 2.268 2.1 1.873 1.873 0 0 1 -1.066 1.71 2.078 2.078 0 0 1 1.586 2.089c-.008 1.386-.964 2.333-2.95 2.321l-2.737-.014a.167.167 0 0 1 -.176-.174zm2.8-1.442c.694 0 1.165-.287 1.169-.969s-.465-.954-1.158-.958h-.963l-.011 1.926zm-.134-3.373c.564 0 .918-.218.921-.817 0-.564-.348-.766-.912-.769h-.811l-.008 1.586z"/><path d="m277.812 210.549-1.574-.008a.189.189 0 0 1 -.2-.143l-.346-1.106-2.961-.017-.359 1.1a.186.186 0 0 1 -.2.14l-1.563-.008c-.129 0-.2-.084-.151-.2l2.769-7.869a.23.23 0 0 1 .223-.14l1.6.009a.234.234 0 0 1 .223.142l2.682 7.9c.045.119-.013.201-.143.2zm-2.639-2.9-.935-2.978-.968 2.967z"/><path d="m279.467 206.481a4.2 4.2 0 0 1 4.265-4.218 3.949 3.949 0 0 1 2.895 1.238.156.156 0 0 1 0 .234l-.946.994a.17.17 0 0 1 -.246.022 2.535 2.535 0 0 0 -1.7-.667 2.415 2.415 0 0 0 -.026 4.829 2.536 2.536 0 0 0 1.707-.649.172.172 0 0 1 .247.025l.934 1a.156.156 0 0 1 0 .235 3.96 3.96 0 0 1 -2.909 1.206 4.193 4.193 0 0 1 -4.221-4.249z"/><path d="m295.846 210.648-1.751-.01a.223.223 0 0 1 -.21-.107l-2.1-3.043-.852 1.053-.01 1.9a.167.167 0 0 1 -.177.176l-1.5-.009a.165.165 0 0 1 -.175-.177l.043-7.872a.166.166 0 0 1 .177-.175l1.5.008a.166.166 0 0 1 .175.177l-.018 3.431 2.581-3.5a.257.257 0 0 1 .212-.093l1.833.01c.153 0 .164.107.093.212l-2.733 3.416 3.019 4.388c.081.121.034.216-.107.215z"/></g><path d="m263.676 177.513 28.748.157" fill="none" stroke="#00cfb7" stroke-linecap="round" stroke-linejoin="round" stroke-width="1.305"/></g><path d="m686.364 220.15a5.942 5.942 0 0 1 4.627 1.731c1.621 1.751 3.507 4.224 4.888 6.034 5.578 7.312 1.64 19.726-8.777 27.672-5.25 4-11.506 6.3-17.163 6.3-5.105 0-9.312-1.829-11.848-5.153a70.437 70.437 0 0 1 -4.758-6.8c-2.963-4.986 4.94-14.315 13.538-20.873 5.65-4.31 13.738-8.915 19.493-8.915m0-1.554c-6.056 0-14.267 4.527-20.436 9.233-8.14 6.209-17.74 16.5-13.931 22.9a71.409 71.409 0 0 0 4.86 6.948c2.939 3.853 7.7 5.763 13.082 5.763a30.57 30.57 0 0 0 18.105-6.619c11.117-8.48 15.179-21.845 9.072-29.852-1.423-1.864-3.311-4.34-4.984-6.147a7.515 7.515 0 0 0 -5.768-2.229z" fill="#00cfb7"/><ellipse cx="673.676" cy="237.986" fill="#00cfb7" rx="25.316" ry="18.233" transform="matrix(.79510316 -.60647421 .60647421 .79510316 -6.297 457.335)"/><path d="m662.593 245.554a7.064 7.064 0 0 1 -1.137-2.145 11.264 11.264 0 0 1 -.356-1.436 1.091 1.091 0 0 1 .76-1.071l1.4-.528c.454-.171.872-.014.937.364a10.749 10.749 0 0 0 .242 1.071 4.5 4.5 0 0 0 .749 1.527 1.967 1.967 0 0 0 1.573.808 4.075 4.075 0 0 0 2.4-1.053l2.169-1.654a.847.847 0 0 0 .338-1.115l-1.935-2.536a.847.847 0 0 1 .339-1.115l.891-.68a.848.848 0 0 1 1.165-.032l1.935 2.537a.846.846 0 0 0 1.164-.032l1.432-1.093a7.751 7.751 0 0 1 2.581-1.476 2.958 2.958 0 0 1 1.514-.084l-4.561-5.98a.847.847 0 0 1 .339-1.115l1.364-1.041a.848.848 0 0 1 1.165-.032l6.531 8.563a.847.847 0 0 1 -.338 1.115l-1.436 1.095a1.063 1.063 0 0 1 -.936.23 4.178 4.178 0 0 0 -1.7-.228 5.513 5.513 0 0 0 -2.69 1.3l-1.458 1.113a.846.846 0 0 0 -.338 1.115l.474.622a.847.847 0 0 1 -.338 1.115l-.891.679a.847.847 0 0 1 -1.165.032l-.475-.622a.845.845 0 0 0 -1.164.032l-2.274 1.734a9.167 9.167 0 0 1 -3.371 1.747 4.682 4.682 0 0 1 -2.794-.117 4.8 4.8 0 0 1 -2.105-1.614z" fill="#007173"/><path d="m664.308 225.7c-9.418 7.184-12.859 18.506-7.685 25.289s17 6.459 26.421-.725 12.858-18.506 7.685-25.289-17.003-6.455-26.421.725z" style="fill:none;stroke-linecap:round;stroke-linejoin:round;stroke:#007173;stroke-width:.66;stroke-dasharray:.667 2.666"/><ellipse cx="835.891" cy="200.317" fill="#ffd938" rx="18.751" ry="26.036" transform="matrix(.39493628 -.91870852 .91870852 .39493628 321.732 889.144)"/><path d="m822.3 185.181c4.757 0 11.54 1.7 18.147 4.536 10.323 4.437 20.553 11.957 18.616 17.983-.751 2.339-2.015 5.279-2.938 7.427-2.338 5.438-8.688 8.816-16.573 8.816a32.392 32.392 0 0 1 -12.652-2.709 30.04 30.04 0 0 1 -14-11.671c-2.847-4.743-3.441-9.622-1.671-13.74a72.333 72.333 0 0 1 3.688-7.7c1.122-1.954 3.609-2.945 7.39-2.945m0-1.6c-3.966 0-7.221 1.04-8.776 3.748a73.351 73.351 0 0 0 -3.771 7.862c-4.09 9.515 3.3 21.831 16.513 27.51a33.872 33.872 0 0 0 13.284 2.838c8.287 0 15.336-3.49 18.041-9.783.953-2.216 2.218-5.157 2.992-7.569 2.427-7.56-9.372-15.584-19.5-19.94-5.733-2.465-13.008-4.666-18.778-4.666z" fill="#ffd938"/><path d="m823.515 194.209a7.242 7.242 0 0 1 1.348-2.1 11.454 11.454 0 0 1 1.107-1.045 1.123 1.123 0 0 1 1.343.14l1.18.988c.382.321.452.774.147 1.023a10.881 10.881 0 0 0 -.837.758 4.616 4.616 0 0 0 -.99 1.441 2.022 2.022 0 0 0 .07 1.818 4.184 4.184 0 0 0 2.156 1.62l2.577 1.108a.871.871 0 0 0 1.17-.259l1.3-3.014a.871.871 0 0 1 1.17-.26l1.059.456c.493.212.769.672.617 1.027l-1.3 3.014c-.153.355.123.815.617 1.027l1.7.732a7.956 7.956 0 0 1 2.626 1.567 3.046 3.046 0 0 1 .84 1.314l3.055-7.106a.871.871 0 0 1 1.17-.259l1.621.7c.493.212.769.672.617 1.027l-4.378 10.174a.871.871 0 0 1 -1.17.259l-1.706-.733a1.1 1.1 0 0 1 -.679-.722 4.3 4.3 0 0 0 -.654-1.639 5.672 5.672 0 0 0 -2.525-1.752l-1.733-.745a.869.869 0 0 0 -1.169.26l-.318.74a.871.871 0 0 1 -1.17.259l-1.059-.455c-.493-.212-.769-.672-.617-1.028l.318-.739c.153-.356-.123-.816-.616-1.028l-2.7-1.161a9.431 9.431 0 0 1 -3.267-2.138 4.811 4.811 0 0 1 -1.306-2.563 4.939 4.939 0 0 1 .386-2.706z" fill="#007173"/><path d="m842.165 185.723c-11.191-4.811-23.072-2.177-26.538 5.883s2.8 18.5 13.99 23.306 23.073 2.177 26.538-5.884-2.799-18.494-13.99-23.305z" style="fill:none;stroke-linecap:round;stroke-linejoin:round;stroke:#007173;stroke-width:.678;stroke-dasharray:.685 2.742"/><path d="m654.431 39.123a83.315 83.315 0 0 0 -9.308 7.989 42.92 42.92 0 0 0 -3.85 4.537 11.387 11.387 0 0 0 -2.229 4.725 2.429 2.429 0 0 0 .3 1.666 3.439 3.439 0 0 0 1.2 1.063 22.62 22.62 0 0 0 4.824 1.739c1.875.54 3.9 1.043 5.992 1.8a24.834 24.834 0 0 1 3.21 1.394 12.852 12.852 0 0 1 3.279 2.387 8.131 8.131 0 0 1 1.4 1.952 7.184 7.184 0 0 1 .676 2.426 7.856 7.856 0 0 1 -.963 4.359 22.12 22.12 0 0 1 -4.432 5.332 37.341 37.341 0 0 0 -4.147 4.366 4.04 4.04 0 0 0 -.907 1.947c.041.408.154.43.54.633a8.077 8.077 0 0 0 2.142.514l2.96.386a20.809 20.809 0 0 1 3.342.751 8.608 8.608 0 0 1 3.606 2.189 5.949 5.949 0 0 1 1.285 2.156 6.023 6.023 0 0 1 .249 2.366 10.1 10.1 0 0 1 -1.219 3.684 64.546 64.546 0 0 1 -3.676 5.6 1.766 1.766 0 0 1 -2.944-1.951 1.829 1.829 0 0 1 .288-.335 12.962 12.962 0 0 0 3.369-4.682 4.406 4.406 0 0 0 .333-2.318 1.4 1.4 0 0 0 -.852-1.056 22.439 22.439 0 0 0 -4.681-1.176c-1-.208-2.06-.418-3.182-.76a10.716 10.716 0 0 1 -3.63-1.773 5.192 5.192 0 0 1 -1.584-2.128 5.021 5.021 0 0 1 -.249-2.661 8.976 8.976 0 0 1 1.808-3.612 33.262 33.262 0 0 1 2.178-2.535c.708-.8 1.434-1.551 2.092-2.33a17.754 17.754 0 0 0 3.119-4.561 2.452 2.452 0 0 0 .154-1.7 1.84 1.84 0 0 0 -.866-.982 17.1 17.1 0 0 0 -4.643-1.682c-1.883-.489-3.907-.987-6.009-1.688a18.539 18.539 0 0 1 -6.466-3.463 8.571 8.571 0 0 1 -2.54-3.841 8.045 8.045 0 0 1 .01-4.49 14.292 14.292 0 0 1 1.554-3.445 24.01 24.01 0 0 1 1.99-2.809 46.768 46.768 0 0 1 4.547-4.7c3.144-2.922 6.494-5.5 9.825-8.075a1.752 1.752 0 1 1 2.145 2.77l-.018.014z" fill="#4af0d2"/><path d="m401.581 246.509c3.018-.3 6.037-.634 9.081-.873a60.663 60.663 0 0 1 9.323-.362 11.876 11.876 0 0 1 2.585.482 4.745 4.745 0 0 1 1.6.852 2.844 2.844 0 0 1 .859 1.235 2.379 2.379 0 0 1 .136.867 2.952 2.952 0 0 1 -.024.429l-.087.336a4.107 4.107 0 0 1 -1.055 1.7 10.558 10.558 0 0 1 -1.059.918 23.189 23.189 0 0 1 -2.091 1.316c-2.8 1.481-5.6 2.621-8.376 3.829-1.372.62-2.737 1.254-4.024 1.966a16.488 16.488 0 0 0 -1.821 1.129 4.02 4.02 0 0 0 -.7.593.385.385 0 0 0 -.1.119c-.006.02-.068.082-.039.059s0-.017.032-.119-.033-.222-.048-.328a.342.342 0 0 0 -.092-.137c-.044-.036-.017-.036-.035-.052s-.063-.027 0-.014l.109.033.19.032a6.874 6.874 0 0 0 .939.065c.686 0 1.412-.041 2.14-.1 1.464-.136 2.948-.346 4.441-.541a66.664 66.664 0 0 1 9.179-.751 16.86 16.86 0 0 1 2.49.187 7.358 7.358 0 0 1 1.449.377 3.268 3.268 0 0 1 .935.584c.084.074.164.152.241.232a2.364 2.364 0 0 1 .229.342 2.235 2.235 0 0 1 .27 1.582 2.267 2.267 0 0 1 -.189.6 2.427 2.427 0 0 1 -.241.444 2.775 2.775 0 0 1 -.251.352 7.442 7.442 0 0 1 -.993 1.014 21.369 21.369 0 0 1 -1.958 1.456c-1.3.871-2.606 1.65-3.871 2.451a25.028 25.028 0 0 0 -3.483 2.5 3.451 3.451 0 0 0 -.532.593c-.056.08-.059.12-.052.083.025-.051 0-.052.011-.15a.3.3 0 0 0 -.024-.118 1.11 1.11 0 0 0 -.128-.285c-.275-.376-.466-.32-.372-.33a1.733 1.733 0 0 0 .3.008 7.309 7.309 0 0 0 .954-.109c1.386-.236 2.868-.653 4.405-.912a21.509 21.509 0 0 1 2.4-.282 9.483 9.483 0 0 1 2.741.2 4.184 4.184 0 0 1 1.715.864 3.012 3.012 0 0 1 1.033 2.212 3.919 3.919 0 0 1 -.473 1.819 8.777 8.777 0 0 1 -.719 1.161c-.967 1.341-1.941 2.392-2.644 3.545a4.673 4.673 0 0 0 -.835 3.391 3.194 3.194 0 0 0 .724 1.425 5.585 5.585 0 0 0 1.486 1.108c1.185.636 2.624 1.126 4.07 1.814a13.469 13.469 0 0 1 4.137 2.908 12.008 12.008 0 0 1 2.758 4.511 18.985 18.985 0 0 1 .208 9.784c-.624 3.088-1.59 6-2.47 8.942a.877.877 0 1 1 -1.68-.5c.007-.023.016-.048.025-.07a27.558 27.558 0 0 0 1.851-8.647 16.729 16.729 0 0 0 -1.443-8.088c-1.1-2.349-3-3.828-5.328-5.481-1.163-.839-2.47-1.643-3.8-2.7a11.363 11.363 0 0 1 -1.928-1.851 6.517 6.517 0 0 1 -1.208-2.628 6.764 6.764 0 0 1 .034-2.824 9.817 9.817 0 0 1 .934-2.467 45.548 45.548 0 0 1 2.493-3.926 5.67 5.67 0 0 0 .43-.791c.1-.223.117-.407.1-.355a.4.4 0 0 0 .068.241c.017.021-.109-.046-.318-.087a16.436 16.436 0 0 0 -3.885.141c-1.458.154-2.945.327-4.564.438-.406.021-.83.048-1.309.029a4.813 4.813 0 0 1 -.831-.095 2.1 2.1 0 0 1 -1.344-.847 1.835 1.835 0 0 1 -.247-.539 3.348 3.348 0 0 1 -.064-.4 2.154 2.154 0 0 1 .059-.709 3.025 3.025 0 0 1 .425-.938 6.015 6.015 0 0 1 .967-1.1 33.763 33.763 0 0 1 3.85-2.826c1.274-.84 2.539-1.657 3.729-2.5a18.586 18.586 0 0 0 1.647-1.294 4.62 4.62 0 0 0 .579-.616.442.442 0 0 0 .074-.111c.02-.032.042-.065.026-.054 0 0 .009-.011-.019.061a1.454 1.454 0 0 0 0 .225 1.3 1.3 0 0 0 .088.275.7.7 0 0 0 .083.1.114.114 0 0 0 .026.047c.1.06-.014.021-.029 0a4.247 4.247 0 0 0 -.753-.148 15.111 15.111 0 0 0 -2.036-.053c-2.871.1-5.886.4-8.911.562-1.519.081-3.047.139-4.605.146-.782 0-1.569-.01-2.393-.081a8.851 8.851 0 0 1 -1.31-.206l-.361-.1c-.129-.042-.282-.114-.419-.173a1.931 1.931 0 0 1 -.483-.306 1.323 1.323 0 0 1 -.247-.234 2.5 2.5 0 0 1 -.236-.381 1.612 1.612 0 0 1 -.148-.872 1.99 1.99 0 0 1 .2-.654 2.21 2.21 0 0 1 .268-.415 1.877 1.877 0 0 1 .272-.311 4.939 4.939 0 0 1 .524-.471c.172-.148.342-.271.511-.39.676-.482 1.358-.873 2.026-1.268 1.348-.774 2.69-1.493 4.021-2.228 2.634-1.5 5.3-2.955 7.707-4.56a20.271 20.271 0 0 0 1.676-1.205 7.776 7.776 0 0 0 .642-.579c.14-.148.258-.372.161-.182a.178.178 0 0 0 0 .065.723.723 0 0 0 -.025.147 1.246 1.246 0 0 0 .06.312.733.733 0 0 0 .209.325 1.673 1.673 0 0 0 -.4-.186 10.657 10.657 0 0 0 -1.846-.448 60.781 60.781 0 0 0 -8.8-.719c-3-.009-6.018.068-9.027.255a.876.876 0 0 1 -.142-1.746z" fill="#ffd813"/><path d="m699.216 113.445s5.334 2.533 3.622 9.067" fill="none" stroke="#ffd813" stroke-linecap="round" stroke-miterlimit="10" stroke-width="3.504"/><path d="m717.72 143.025s2.412-5.389 8.983-3.825" fill="none" stroke="#54f4d3" stroke-linecap="round" stroke-miterlimit="10" stroke-width="3.504"/><path d="m650.642 186.2s5.656-1.7 8.771 4.289" fill="none" stroke="#54f4d3" stroke-linecap="round" stroke-miterlimit="10" stroke-width="3.504"/><path d="m360.906 131.949s4.457-3.88 9.76.3" fill="none" stroke="#54f4d3" stroke-linecap="round" stroke-miterlimit="10" stroke-width="3.504"/><path d="m510.161 258.1s-5.9-.324-6.786-7.023" fill="none" stroke="#54f4d3" stroke-linecap="round" stroke-miterlimit="10" stroke-width="3.504"/><path d="m426.363 329.16s-5.9-.324-6.786-7.024" fill="none" stroke="#54f4d3" stroke-linecap="round" stroke-miterlimit="10" stroke-width="3.504"/><path d="m458.539 97.22s6.615 3.143 4.492 11.246" fill="none" stroke="#ffd813" stroke-linecap="round" stroke-miterlimit="10" stroke-width="4.346"/><path d="m481.866 277.278s-.554-5.878 5.935-7.752" fill="none" stroke="#ffd813" stroke-linecap="round" stroke-miterlimit="10" stroke-width="3.504"/><path d="m688.379 336.871s-.554-5.879 5.935-7.753" fill="none" stroke="#ffd813" stroke-linecap="round" stroke-miterlimit="10" stroke-width="3.504"/><path d="m429.746 202.529s-.553-5.879 5.935-7.753" fill="none" stroke="#ffd813" stroke-linecap="round" stroke-miterlimit="10" stroke-width="3.504"/><path d="m802.1 155.284s-.554-5.878 5.935-7.752" fill="none" stroke="#ffd813" stroke-linecap="round" stroke-miterlimit="10" stroke-width="3.504"/><path d="m481.866 130.265s-.554-5.879 5.935-7.753" fill="none" stroke="#ffd813" stroke-linecap="round" stroke-miterlimit="10" stroke-width="3.504"/><ellipse cx="659.154" cy="160.17" fill="#ffd938" rx="29.426" ry="40.857" transform="matrix(.93695915 -.34943891 .34943891 .93695915 -14.417 240.426)"/><path d="m651.956 122.943c4.017 0 8.607 3.393 13.274 9.813 5.407 7.437 9.144 16.4 10.89 21.087 6.161 16.519 8.723 36.274-.21 40.614-3.467 1.685-8.172 3.439-11.61 4.722a19.357 19.357 0 0 1 -6.781 1.208c-12.657 0-25.749-11.4-31.839-27.733-3.631-9.736-4.324-19.873-1.95-28.542 2.292-8.373 7.182-14.337 13.77-16.794a113.3 113.3 0 0 1 12.731-4.165 7.251 7.251 0 0 1 1.725-.21m0-2.509a9.7 9.7 0 0 0 -2.325.283 115.224 115.224 0 0 0 -13.007 4.25c-15.227 5.679-21.179 27.421-13.3 48.563 6.6 17.7 20.805 29.366 34.19 29.366a21.808 21.808 0 0 0 7.658-1.367c3.546-1.322 8.254-3.078 11.829-4.815 11.208-5.445 7.513-27.53 1.465-43.748-5.389-14.451-15.67-32.532-26.515-32.532z" fill="#ffd938"/><path d="m652.661 139.508a11.361 11.361 0 0 1 3.845-.75 17.8 17.8 0 0 1 2.386.123 1.764 1.764 0 0 1 1.3 1.675l.158 2.41c.051.781-.387 1.352-1 1.276a17.326 17.326 0 0 0 -1.768-.128 7.283 7.283 0 0 0 -2.709.44 3.174 3.174 0 0 0 -1.985 2.052 6.571 6.571 0 0 0 .5 4.2l1.538 4.124c.3.79.994 1.258 1.563 1.046l4.824-1.8c.568-.212 1.268.256 1.562 1.045l.632 1.7a1.365 1.365 0 0 1 -.5 1.813l-4.824 1.8a1.366 1.366 0 0 0 -.5 1.814l1.015 2.723a12.472 12.472 0 0 1 1.07 4.678 4.768 4.768 0 0 1 -.579 2.378l11.373-4.241c.568-.212 1.268.256 1.562 1.045l.968 2.595a1.367 1.367 0 0 1 -.5 1.814l-16.285 6.073c-.568.212-1.268-.256-1.562-1.046l-1.019-2.73a1.718 1.718 0 0 1 .083-1.554 6.741 6.741 0 0 0 1.15-2.518 8.9 8.9 0 0 0 -.752-4.764l-1.034-2.773c-.294-.789-.994-1.257-1.563-1.045l-1.184.441c-.568.212-1.268-.256-1.562-1.045l-.632-1.695a1.366 1.366 0 0 1 .5-1.813l1.184-.442a1.366 1.366 0 0 0 .5-1.813l-1.613-4.325a14.782 14.782 0 0 1 -1.118-6.024 7.55 7.55 0 0 1 1.491-4.26 7.732 7.732 0 0 1 3.485-2.499z" fill="#007173"/><ellipse cx="659.154" cy="160.17" rx="24.929" ry="34.613" style="fill:none;stroke-linecap:round;stroke-linejoin:round;stroke:#007173;stroke-width:1.065;stroke-dasharray:1.076 4.303" transform="matrix(.93696525 -.34942255 .34942255 .93696525 -14.417 240.423)"/><ellipse cx="759.892" cy="254.844" fill="#ffd938" rx="40.857" ry="29.426" transform="matrix(.82697265 -.56224216 .56224216 .82697265 -11.802 471.34)"/><path d="m780.91 227.193c3.787 0 6.5 1.054 8.3 3.222 2.461 2.967 5.285 7.12 7.347 10.154 8.345 12.274.908 31.931-16.578 43.82-8.248 5.608-17.585 8.7-26.29 8.7-9.138 0-16.438-3.337-20.557-9.395a113.345 113.345 0 0 1 -7.073-11.375c-4.336-8.3 9.221-22.633 23.652-32.445 13.748-9.347 25.131-12.677 31.2-12.677m0-2.509c-9.66 0-22.65 6.34-32.61 13.111-13.663 9.29-30.038 25.021-24.464 35.682a115.235 115.235 0 0 0 7.221 11.624c4.741 6.973 13.09 10.493 22.632 10.493 8.848 0 18.722-3.026 27.7-9.13 18.66-12.687 26.38-33.867 17.243-47.306-2.128-3.13-4.953-7.285-7.49-10.345-2.42-2.917-6.008-4.129-10.232-4.129z" fill="#ffd938"/><path d="m741.367 266.066a11.388 11.388 0 0 1 -1.643-3.557 17.869 17.869 0 0 1 -.448-2.347 1.764 1.764 0 0 1 1.318-1.659l2.3-.726c.747-.236 1.406.054 1.478.668a17.174 17.174 0 0 0 .3 1.747 7.259 7.259 0 0 0 1.072 2.526 3.172 3.172 0 0 0 2.464 1.441 6.575 6.575 0 0 0 3.963-1.485l3.641-2.475a1.366 1.366 0 0 0 .643-1.767l-2.894-4.257a1.367 1.367 0 0 1 .644-1.767l1.5-1.017a1.367 1.367 0 0 1 1.88.051l2.894 4.258a1.367 1.367 0 0 0 1.88.051l2.4-1.634a12.48 12.48 0 0 1 4.289-2.153 4.773 4.773 0 0 1 2.447 0l-6.824-10.038a1.365 1.365 0 0 1 .644-1.766l2.29-1.558a1.367 1.367 0 0 1 1.879.051l9.772 14.373a1.367 1.367 0 0 1 -.644 1.767l-2.409 1.638a1.721 1.721 0 0 1 -1.529.289 6.744 6.744 0 0 0 -2.719-.518 8.9 8.9 0 0 0 -4.449 1.863l-2.448 1.664a1.366 1.366 0 0 0 -.643 1.767l.71 1.045a1.365 1.365 0 0 1 -.644 1.766l-1.5 1.017a1.366 1.366 0 0 1 -1.88-.051l-.71-1.045a1.367 1.367 0 0 0 -1.88-.051l-3.811 2.593a14.781 14.781 0 0 1 -5.585 2.518 7.543 7.543 0 0 1 -4.493-.434 7.738 7.738 0 0 1 -3.255-2.788z" fill="#007173"/><ellipse cx="759.892" cy="254.844" rx="34.613" ry="24.929" style="fill:none;stroke-linecap:round;stroke-linejoin:round;stroke:#007173;stroke-width:1.065;stroke-dasharray:1.076 4.303" transform="matrix(.82697265 -.56224216 .56224216 .82697265 -11.802 471.338)"/><g clip-path="url(#a)"><path d="m627.644 98.245-16.5-1.78a2.881 2.881 0 0 1 -.189.4l-3.691 5.639a2.934 2.934 0 0 1 -2.772 1.312l-20.057-2.164-3.332-.36-20.039-2.163a2.938 2.938 0 0 1 -2.439-1.9l-2.489-6.7-16.523-1.783a9.877 9.877 0 0 0 -10.881 8.761l-22.7 210.3a9.877 9.877 0 0 0 8.761 10.881l88.033 9.5a9.879 9.879 0 0 0 10.881-8.761l22.7-210.3a9.88 9.88 0 0 0 -8.763-10.882z" fill="#00cfb7"/></g><g clip-path="url(#a)"><path d="m514.589 222.53-8.555 85.27a9.877 9.877 0 0 0 8.761 10.881l88.033 9.5a9.879 9.879 0 0 0 10.881-8.761l13.368-129.866z" fill="#ffd938"/></g><path d="m604.11 336.047-2.871-.388-2.901-.123-2.851-.604-2.909-.047-2.867-.436-2.875-.365-2.865-.475-2.91-.038-2.86-.506-2.902-.13-2.875-.371-2.881-.324-2.859-.526-2.905-.08-2.87-.411-2.904-.065-2.877-.34-2.892-.227-2.878-.331-2.864-.487-2.888-.25-2.875-.4-2.903-.115-2.883-.318-2.846-.683h-2.918l-2.885-.286-2.88-.358-2.884-.33-2.861-.54-2.902-.209-2.894-.287-2.915-.824-2.856-1.001-2.606-1.599-2.196-2.152-1.74-2.549-.741-2.99-.816-2.931.02-3.058.498-2.827.287-2.849.037-2.877.726-2.803-.133-2.897.368-2.842.398-2.838.409-2.837.137-2.862.467-2.826.45-2.827.127-2.862.24-2.85.191-2.856.323-2.843.538-2.82.316-2.847.285-2.851.421-2.837.29-2.849.257-2.852-.012-2.879.366-2.839.338-2.841.511-2.824.238-2.854.245-2.855.584-2.821-.026-2.885.346-2.844.461-2.83.334-2.843.259-2.853.151-2.865.531-2.826.172-2.865.208-2.859.249-2.854.594-2.817.312-2.849.381-2.843-.135-2.898.498-2.828.491-2.829.409-2.839-.117-2.898.723-2.805-.055-2.889.472-2.833.174-2.866.507-2.828.044-2.88.248-2.858.703-2.808-.06-2.892.669-2.812.12-2.871.539-2.824.352-2.843-.124-2.896.468-2.835.284-2.851.365-2.847.347-2.847.374-2.846.025-2.883.296-2.854.355-2.85.494-2.834.346-2.848.354-2.849.107-2.877.492-2.836-.02-2.895.366-2.854.973-2.903 1.147-2.779 1.547-2.611 2.216-2.085 2.629-1.491 2.664-1.516 3.041-.38 3.031.111 2.902.101 2.871.399 2.878.358 2.895.177 2.87.402 2.87.42 2.901.132 2.884.281 2.862.488 2.871.42 2.889.237 2.892.224 2.906.094 2.833.751 2.883.282 2.902.085 2.855.544 2.918-.012 2.875.356 2.88.34 2.894.192 2.842.703 2.921-.042 2.89.258 2.883.328 2.846.679 2.905.094 2.904.134 2.891.262 2.849.657 2.906.173 2.9.223 2.946.808 2.88 1.016 2.307 1.998 2.223 2.041 1.755 2.484 1.151 2.825.708 2.986-.356 3.044-.359 2.842-.305 2.847.065 2.888-.303 2.849-.383 2.841-.604 2.816-.349 2.844.049 2.886-.563 2.816-.241 2.851-.024 2.873-.523 2.819-.519 2.82-.056 2.87-.484 2.826-.184 2.859-.17 2.862-.257 2.854-.584 2.82-.184 2.86-.311 2.846-.117 2.865-.638 2.81.027 2.881-.363 2.839-.631 2.812.099 2.892-.746 2.804-.321 2.847.034 2.885-.384 2.838-.345 2.842-.494 2.827.057 2.888-.681 2.809-.204 2.862-.113 2.87-.468 2.83-.233 2.856-.282 2.852-.313 2.85-.151 2.868-.671 2.809-.212 2.859-.129 2.87-.412 2.84-.339 2.847-.485 2.83.011 2.885-.475 2.834-.432 2.837-.031 2.88-.327 2.85-.466 2.834-.448 2.837.067 2.891-.359 2.845-.483 2.831-.426 2.834-.172 2.864-.065 2.879-.428 2.836-.579 2.823-.149 2.868-.456 2.838.061 2.892-.35 2.849-.321 2.853-.222 2.864-.682 2.811.011 2.889-.268 2.859-.738 2.809.092 2.904-.682 2.82-.315 3.034-1.452 2.682-1.416 2.72-2.219 2.131-2.568 1.689-2.939.85-2.943.76z" fill="none" stroke="#003e3f" stroke-linecap="round" stroke-linejoin="round" stroke-width="2.3"/><g clip-path="url(#b)"><path d="m531.4 68.431c20.353-1.174 51.3-6.823 44.27 32.309s-32.2 83.551-29.777 123.2c2.233 36.573 10.462 83.533 82.783 78.041 73.376-5.572-16.618 70.684-16.618 70.684l-177.816-28.74 70.947-272.142z" fill="url(#c)" opacity=".75"/></g><g clip-path="url(#d)" fill="none" stroke="#007173" stroke-width="2"><path d="m657.193 318.416-2.604.638-2.506.968-2.555.799-2.638.515-2.564.77-2.55.826-2.592.674-2.522.913-2.543.841-2.655.47-2.461 1.12-2.617.593-2.631.551-2.56.783-2.476 1.053-2.549.807-2.663.438-2.497 1.001-2.561.77-2.639.519-2.583.714-2.503.979-2.653.48-2.498.997-2.536.881-2.668.427-2.555.812-2.502.997-2.554.802-2.556.806-2.599.673-2.597.681-2.64.538-2.589.724-2.579.76-1.651-.857-.982-2.435-.545-2.565-.938-2.454-.465-2.592-.872-2.471-.995-2.435-.388-2.618-1.044-2.421-.528-2.577-1.065-2.417-.418-2.61-.822-2.49-.969-2.447-.432-2.607-.913-2.46-.553-2.569-.66-2.541-1.187-2.385-.401-2.618-1.066-2.426-.734-2.525 1.288-1.73 2.509-.96 2.622-.575 2.456-1.132 2.566-.76 2.686-.357 2.449-1.169 2.582-.709 2.547-.827 2.631-.543 2.613-.611 2.582-.71 2.513-.947 2.569-.759 2.56-.787 2.49-1.002 2.617-.579 2.62-.583 2.549-.822 2.513-.938 2.621-.575 2.488-1.037 2.617-.593 2.611-.622 2.593-.675 2.486-1.051 2.583-.713 2.532-.891 2.573-.757 2.644-.5 2.549-.83 2.585-.721 2.511-.968 2.676-.418 2.512-.986 2.547-.865 2.03 1.165.514 2.573.648 2.535.972 2.443.551 2.568 1.049 2.417.817 2.488.518 2.58.872 2.472.762 2.508.618 2.549.567 2.566.94 2.455.553 2.57.757 2.511.718 2.517.904 2.465.826 2.492.525 2.581.694 2.532 1.158 2.399.436 2.612z" stroke-miterlimit="10"/><path d="m611.687 270.502-1.261-2.274-1.404-2.2-1.964-1.718-2.156-1.431-2.204-1.415-2.521-.721-2.602-.168-2.6-.095-2.599.346-2.352 1.055-2.223 1.246-2.191 1.355-1.772 1.88-1.408 2.159-1.196 2.287-.586 2.51-.255 2.542-.238 2.577.833 2.455" stroke-linecap="round" stroke-linejoin="round"/><g stroke-miterlimit="10"><path d="m493.849 89.401 2.533-.878 2.539-.856 2.523-.904 2.66-.443 2.482-1.046 2.609-.626 2.586-.698 2.52-.915 2.615-.6 2.582-.716 2.499-.992 2.564-.773 2.574-.741 2.615-.598 2.622-.559 2.45-1.143 2.661-.446 2.484-1.043 2.649-.475 2.578-.721 2.545-.847 2.525-.902 2.534-.883 2.559-.791 2.671-.424 2.592-.682 2.499-1.005 2.548-.842 2.54-.847 2.694-.34 2.455-1.162 2.659-.469 2.61-.638 2.547-.867 2.597-.699 1.744.877.766 2.499.915 2.456.66 2.536.85 2.478.457 2.593 1.044 2.421.445 2.602.886 2.468.792 2.498.771 2.504.831 2.488.581 2.561.892 2.47.825 2.491.464 2.592.798 2.497.935 2.459.601 2.559.623 2.553.954 2.459.786 2.509-1.223 1.873-2.565.771-2.548.825-2.592.674-2.52.912-2.543.841-2.655.471-2.461 1.119-2.616.593-2.63.55-2.561.784-2.48 1.055-2.554.808-2.664.438-2.496 1.001-2.56.769-2.635.518-2.581.714-2.503.979-2.648.478-2.497.997-2.534.881-2.666.426-2.555.812-2.499.996-2.558.803-2.556.806-2.597.673-2.596.68-2.632.536-2.582.721-2.573.759-2.559.809-2.503 1.002-2.636.566-2.52.958-1.698-1.156-.872-2.468-.994-2.432-.388-2.616-1.044-2.422-.526-2.572-1.065-2.415-.418-2.61-.821-2.487-.969-2.446-.43-2.604-.915-2.464-.553-2.569-.659-2.539-1.186-2.384-.399-2.611-1.064-2.419-.733-2.519-.329-2.639-.945-2.457-.561-2.576-1.119-2.41z"/><path d="m540.416 134.652.87 2.392.994 2.376 1.567 2.053 1.994 1.628 2.027 1.576 2.284 1.211 2.489.707 2.569.206 2.587.163 2.524-.59 2.394-.945 2.176-1.344 2.237-1.297 1.555-2.066 1.566-2.025 1.171-2.29.58-2.503.506-2.519-.018-2.581-.702-2.48"/><path d="m592.003 206.582-.171-2.565-.006-2.585-.789-2.462-1.037-2.37-1.501-2.109-1.771-1.882-2.18-1.376-2.162-1.379-2.45-.77-2.51-.512-2.574-.287-2.569.371-2.443.844-2.367 1.026-2.03 1.59-1.804 1.809-1.532 2.032-1.451 2.126-.869 2.432-.281 2.56-.222 2.558.226 2.575.765 2.473 1.228 2.267 1.27 2.258 1.866 1.799 2.096 1.494 2.311 1.092 2.307 1.17 2.579.18 2.551.216 2.56-.263 2.414-.879 2.388-.95 2.156-1.419 1.7-1.936 1.546-2.022 1.238-2.223 1.018-2.356z"/><path d="m629.075 328.013-2.514.586-2.421.898-2.416.92-2.481.698-2.537.514-2.487.684-2.512.582-2.405.955-2.525.56-2.426.895-2.433.872-2.498.67-2.513.619-1.695-1.06-.893-2.376-.751-2.42-.586-2.462-1.001-2.343-.637-2.454-.599-2.465-.957-2.361-.41-2.526-.781-2.417 1.022-1.761 2.457-.778 2.471-.727 2.403-.967 2.52-.566 2.445-.824 2.485-.692 2.528-.527 2.459-.772 2.44-.848 2.499-.647 2.428-.892 2.456-.809 2.471-.762 1.889 1.23.716 2.429.906 2.373.577 2.465.619 2.456.754 2.419.851 2.391.501 2.496.839 2.399.816 2.406z"/><path d="m562.572 95.496-2.496.648-2.509.599-2.424.895-2.506.613-2.419.91-2.509.612-2.438.83-2.454.792-2.431.875-2.562.436-2.482.708-2.418.94-2.502.656-1.68-1.086-1.004-2.343-.698-2.435-.805-2.398-.765-2.413-.636-2.454-.641-2.453-.574-2.473-.888-2.385-.909-2.379 1.209-2.173 2.536-.513 2.484-.684 2.516-.583 2.405-.955 2.523-.559 2.425-.895 2.426-.87 2.491-.668 2.507-.617 2.524-.566 2.423-.908 2.469-.766 2.518-.601 2.029.864.636 2.452.599 2.465.956 2.353.407 2.519.78 2.411.641 2.453.766 2.417.718 2.435.956 2.365z"/></g></g><path d="m627.647 98.219-2.731-.439-2.776-.04-2.733-.448-2.745-.337-2.739-.441-2.791.127-.083.285-1.747 2.884-2.109 2.647-2.704 1.367-2.87-.252-2.855-.37-2.862-.317-2.853-.414-2.888-.096-2.843-.562-2.874-.261-3.325-.432-2.863-.292-2.851-.376-2.872-.207-2.854-.384-2.884-.108-2.874-.246-2.871-.269-2.311-2.051-1.467-3.269-.991-3.551-2.88-.282-2.782-.027-2.713-.662-2.768-.162-2.769-.195-2.78-.092-3.089-.162-2.828 1.275-2.379 1.934-1.73 2.539-.996 2.955.016 2.914-.323 2.879-.613 2.848-.133 2.899-.551 2.854-.193 2.892.002 2.912-.455 2.859-.192 2.887-.345 2.87-.302 2.875-.265 2.88-.729 2.831-.08 2.901-.311 2.879-.545 2.856-.162 2.896-.025 2.91-.312 2.877-.304 2.877-.62 2.843-.121 2.897-.346 2.873-.153 2.895-.778 2.83.089 2.925-.227 2.89-.474 2.861-.155 2.895-.399 2.868-.415 2.867-.496 2.86.077 2.924-.404 2.871-.312 2.88-.552 2.854-.307 2.879-.086 2.905-.495 2.863-.377 2.874-.117 2.902-.55 2.854-.036 2.911-.223 2.893-.419 2.87-.342 2.878-.358 2.877-.136 2.902-.526 2.858-.06 2.909-.318 2.883-.667 2.844-.264 2.888-.004 2.916-.451 2.867-.389 2.873-.122 2.899-.604 2.849-.047 2.912-.436 2.867-.366 2.879-.475 2.864-.038 2.915-.507 2.862-.13 2.905-.372 2.879-.324 2.885-.525 2.86-.082 2.911-.411 2.875-.067 2.914-.34 2.889-.229 2.9.128 3.021.925 2.915 1.974 2.355 2.525 1.758 3.005.609 2.837.314 2.8.678 2.871-.005 2.84.281 2.833.353 2.837.325 2.813.535 2.85.203 2.842.282 2.815.52 2.861.111 2.855.157 2.844.245 2.844.248 2.788.74 2.864.048 2.842.295 2.816.497 2.842.286 2.868.036 2.796.725 2.887-.134 2.835.368 2.832.397 2.831.409 2.858.136 2.824.467 2.827.45 2.863.127 2.855.24 2.86.192 3.037-.132 2.956-.883 2.432-1.947 1.686-2.617.924-2.989.293-2.881.261-2.886-.008-2.915.37-2.873.342-2.876.514-2.858.241-2.886.248-2.881.587-2.845-.023-2.91.349-2.87.464-2.858.337-2.873.262-2.882.154-2.895.534-2.857.176-2.895.211-2.89.252-2.883.598-2.846.315-2.876.383-2.868-.132-2.925.501-2.858.494-2.86.412-2.871-.113-2.926.726-2.834-.052-2.918.475-2.86.177-2.893.511-2.858.046-2.91.252-2.888.706-2.838-.058-2.919.673-2.84.123-2.901.543-2.857.355-2.877-.12-2.927.471-2.863.287-2.884.369-2.877.35-2.878.377-2.873.028-2.913.3-2.884.357-2.877.497-2.862.35-2.879.357-2.878.109-2.905.495-2.863-.017-2.917.368-2.875.673-2.839.28-2.884.116-2.905.374-2.874.505-2.863-.096-2.927.503-2.864.391-2.875.101-2.908.4-2.876.358-2.881.177-2.898.403-2.876.421-2.875.132-2.906.283-2.895.488-2.873-.044-3.129-1.186-2.902-2.016-2.366-2.678-1.495z" fill="none" stroke="#003e3f" stroke-linecap="round" stroke-linejoin="round" stroke-width="2.3"/><path d="m584.2 295.415a2.148 2.148 0 0 1 -2.217-1.545l-8.746-30.077-8.816 30.115a2.139 2.139 0 0 1 -2.207 1.507h-7.814a2.148 2.148 0 0 1 -2.217-1.545l-13.114-43.993a1.891 1.891 0 0 1 .223-1.712 1.808 1.808 0 0 1 1.523-.689h7.685a1.941 1.941 0 0 1 2.1 1.584l8.056 29.049 8.907-29.139a2 2 0 0 1 2.072-1.494h7.154a1.993 1.993 0 0 1 2.064 1.47l8.915 29.163 8.066-29.109a1.97 1.97 0 0 1 2.079-1.52h7.679a1.812 1.812 0 0 1 1.523.689 1.9 1.9 0 0 1 .222 1.714l-13.125 44.034a2.138 2.138 0 0 1 -2.205 1.5z" fill="#dbf8f5"/><path d="m605.592 248.476c.722 0 .984.459.787 1.115l-13.126 44.036a1.178 1.178 0 0 1 -1.246.788h-7.807a1.179 1.179 0 0 1 -1.247-.788l-9.713-33.4-9.778 33.4a1.181 1.181 0 0 1 -1.248.788h-7.814a1.179 1.179 0 0 1 -1.247-.788l-13.126-44.036c-.2-.656.066-1.115.788-1.115h7.685c.525 0 1.05.2 1.116.787l8.991 32.42 9.91-32.42a1.008 1.008 0 0 1 1.115-.787h7.154a1.009 1.009 0 0 1 1.116.787l9.909 32.42 8.991-32.42a1.009 1.009 0 0 1 1.116-.787h7.679m0-2h-7.679a3 3 0 0 0 -3.054 2.291l-7.146 25.769-7.9-25.858-.007-.024-.008-.024a2.979 2.979 0 0 0 -3.013-2.154h-7.154a2.981 2.981 0 0 0 -3.013 2.154l-.008.024-.007.024-7.9 25.858-7.125-25.692a2.927 2.927 0 0 0 -3.075-2.368h-7.678a2.806 2.806 0 0 0 -2.325 1.092 2.867 2.867 0 0 0 -.379 2.6l13.116 44a3.164 3.164 0 0 0 3.173 2.247h7.809a3.162 3.162 0 0 0 3.175-2.253l7.845-26.8 7.791 26.8a3.161 3.161 0 0 0 3.175 2.256h7.81a3.162 3.162 0 0 0 3.172-2.248l13.117-44a2.867 2.867 0 0 0 -.379-2.595 2.808 2.808 0 0 0 -2.325-1.092z" fill="#ffd938"/><rect fill="#dbf8f5" height="47.939" rx="1.984" width="11.385" x="616.468" y="247.476"/><path d="m625.868 248.476a.93.93 0 0 1 .985.984v43.971a.93.93 0 0 1 -.985.984h-7.416a.93.93 0 0 1 -.984-.984v-43.971a.93.93 0 0 1 .984-.984zm0-2h-7.416a2.919 2.919 0 0 0 -2.984 2.984v43.971a2.919 2.919 0 0 0 2.984 2.984h7.416a2.919 2.919 0 0 0 2.985-2.984v-43.971a2.919 2.919 0 0 0 -2.985-2.984z" fill="#ffd938"/><path d="m667.87 295.415a2.235 2.235 0 0 1 -2.05-1.16l-14.538-26.809v25.985a1.919 1.919 0 0 1 -1.985 1.984h-7.416a1.918 1.918 0 0 1 -1.984-1.984v-43.971a1.918 1.918 0 0 1 1.984-1.984h8.729a2.233 2.233 0 0 1 2.049 1.16l14.541 26.809v-25.985a1.919 1.919 0 0 1 1.984-1.984h7.416a1.919 1.919 0 0 1 1.985 1.984v43.971a1.919 1.919 0 0 1 -1.985 1.984z" fill="#dbf8f5"/><path d="m676.6 248.476a.93.93 0 0 1 .985.984v43.971a.93.93 0 0 1 -.985.984h-8.73a1.249 1.249 0 0 1 -1.181-.656l-16.407-30.259v29.927a.93.93 0 0 1 -.985.984h-7.416a.93.93 0 0 1 -.984-.984v-43.967a.93.93 0 0 1 .984-.984h8.729a1.248 1.248 0 0 1 1.181.656l16.409 30.254v-29.926a.93.93 0 0 1 .984-.984zm0-2h-7.416a2.919 2.919 0 0 0 -2.984 2.984v22.04l-12.649-23.325a3.246 3.246 0 0 0 -2.939-1.7h-8.729a2.919 2.919 0 0 0 -2.984 2.984v43.971a2.919 2.919 0 0 0 2.984 2.984h7.417a2.919 2.919 0 0 0 2.985-2.984v-22.042l12.648 23.324a3.247 3.247 0 0 0 2.94 1.7h8.727a2.919 2.919 0 0 0 2.985-2.984v-43.968a2.919 2.919 0 0 0 -2.985-2.984z" fill="#ffd938"/><path d="m498.242 159.4a2.148 2.148 0 0 1 -2.217-1.545l-8.745-30.077-8.816 30.116a2.14 2.14 0 0 1 -2.207 1.506h-7.81a2.147 2.147 0 0 1 -2.216-1.544l-13.115-43.994a1.9 1.9 0 0 1 .223-1.712 1.812 1.812 0 0 1 1.523-.689h7.679a1.943 1.943 0 0 1 2.1 1.584l8.056 29.05 8.907-29.139a2 2 0 0 1 2.072-1.5h7.153a2 2 0 0 1 2.065 1.471l8.914 29.163 8.074-29.114a1.971 1.971 0 0 1 2.08-1.52h7.678a1.808 1.808 0 0 1 1.523.689 1.894 1.894 0 0 1 .223 1.714l-13.129 44.041a2.137 2.137 0 0 1 -2.2 1.5z" fill="#dbf8f5"/><path d="m519.637 112.461c.722 0 .985.459.788 1.116l-13.125 44.036a1.178 1.178 0 0 1 -1.247.787h-7.81a1.177 1.177 0 0 1 -1.246-.787l-9.713-33.4-9.784 33.4a1.178 1.178 0 0 1 -1.247.787h-7.81a1.179 1.179 0 0 1 -1.247-.787l-13.125-44.036c-.2-.657.065-1.116.787-1.116h7.679c.525 0 1.05.2 1.116.787l8.991 32.42 9.909-32.42a1.01 1.01 0 0 1 1.116-.787h7.153a1.009 1.009 0 0 1 1.116.787l9.91 32.42 8.991-32.42a1.009 1.009 0 0 1 1.116-.787h7.678m0-2h-7.678a3 3 0 0 0 -3.054 2.291l-7.146 25.769-7.9-25.858-.008-.024-.007-.023a2.981 2.981 0 0 0 -3.014-2.155h-7.153a2.981 2.981 0 0 0 -3.013 2.154l-.008.024-.007.024-7.9 25.858-7.125-25.692a2.927 2.927 0 0 0 -3.075-2.368h-7.679a2.808 2.808 0 0 0 -2.325 1.092 2.869 2.869 0 0 0 -.378 2.6l13.116 44a3.161 3.161 0 0 0 3.172 2.247h7.81a3.161 3.161 0 0 0 3.174-2.253l7.845-26.8 7.791 26.8a3.163 3.163 0 0 0 3.175 2.255h7.81a3.162 3.162 0 0 0 3.173-2.247l13.117-44a2.87 2.87 0 0 0 -.38-2.595 2.806 2.806 0 0 0 -2.325-1.092z" fill="#00cfb7"/><rect fill="#dbf8f5" height="47.939" rx="1.984" width="11.385" x="530.514" y="111.461"/><path d="m539.914 112.461a.93.93 0 0 1 .985.984v43.971a.93.93 0 0 1 -.985.984h-7.414a.93.93 0 0 1 -.984-.984v-43.971a.93.93 0 0 1 .984-.984h7.416m0-2h-7.416a2.919 2.919 0 0 0 -2.984 2.984v43.971a2.919 2.919 0 0 0 2.984 2.984h7.416a2.919 2.919 0 0 0 2.985-2.984v-43.971a2.919 2.919 0 0 0 -2.985-2.984z" fill="#00cfb7"/><path d="m581.916 159.4a2.235 2.235 0 0 1 -2.05-1.159l-14.539-26.81v25.985a1.918 1.918 0 0 1 -1.984 1.984h-7.416a1.918 1.918 0 0 1 -1.984-1.984v-43.971a1.918 1.918 0 0 1 1.984-1.984h8.729a2.233 2.233 0 0 1 2.049 1.16l14.539 26.809v-25.985a1.918 1.918 0 0 1 1.984-1.984h7.416a1.919 1.919 0 0 1 1.985 1.984v43.971a1.919 1.919 0 0 1 -1.985 1.984z" fill="#dbf8f5"/><path d="m590.644 112.461a.93.93 0 0 1 .985.984v43.971a.93.93 0 0 1 -.985.984h-8.728a1.25 1.25 0 0 1 -1.182-.656l-16.407-30.254v29.926a.929.929 0 0 1 -.984.984h-7.416a.929.929 0 0 1 -.984-.984v-43.971a.93.93 0 0 1 .984-.984h8.729a1.249 1.249 0 0 1 1.181.656l16.407 30.255v-29.927a.93.93 0 0 1 .984-.984zm0-2h-7.416a2.919 2.919 0 0 0 -2.984 2.984v22.043l-12.644-23.324a3.246 3.246 0 0 0 -2.939-1.7h-8.729a2.919 2.919 0 0 0 -2.984 2.984v43.971a2.919 2.919 0 0 0 2.984 2.984h7.416a2.919 2.919 0 0 0 2.984-2.984v-22.046l12.644 23.327a3.246 3.246 0 0 0 2.94 1.7h8.728a2.919 2.919 0 0 0 2.985-2.984v-43.971a2.919 2.919 0 0 0 -2.985-2.984z" fill="#00cfb7"/><path d="m764.484 134.245a15.32 15.32 0 0 1 7.327 1.789 87.878 87.878 0 0 1 8.942 5.28c5.957 4.144 1.787 18.863-4.609 30.784-5.65 10.531-14.436 21.156-21.33 21.156a6.139 6.139 0 0 1 -2.421-.484c-2.755-1.156-6.185-3-8.693-4.342-10.139-5.441-12.083-21.619-4.333-36.064 5.815-10.838 15.908-18.119 25.117-18.119m0-1.945c-9.688 0-20.463 7.275-26.831 19.144-8.27 15.415-5.974 32.741 5.128 38.7 2.586 1.388 6.018 3.23 8.86 4.422a8.134 8.134 0 0 0 3.173.635c8.218 0 17.436-11.728 23.044-22.181 6.055-11.287 11.662-27.974 4.006-33.3a89.212 89.212 0 0 0 -9.134-5.4 17.274 17.274 0 0 0 -8.246-2.02z" fill="#00cfb7"/><ellipse cx="763.774" cy="165.46" fill="#00cfb7" rx="31.674" ry="22.814" transform="matrix(.47270457 -.88122096 .88122096 .47270457 256.931 760.303)"/><path d="m772.477 151.1a8.825 8.825 0 0 1 2.4 1.855 13.871 13.871 0 0 1 1.15 1.452 1.366 1.366 0 0 1 -.31 1.613l-1.322 1.326c-.429.43-.986.467-1.255.071a13.232 13.232 0 0 0 -.831-1.094 5.633 5.633 0 0 0 -1.643-1.352 2.458 2.458 0 0 0 -2.211-.106 5.106 5.106 0 0 0 -2.19 2.443l-1.613 3.007a1.059 1.059 0 0 0 .191 1.445l3.517 1.888a1.058 1.058 0 0 1 .192 1.445l-.663 1.235c-.309.576-.895.862-1.31.64l-3.517-1.888c-.415-.222-1 .064-1.31.64l-1.065 1.985a9.687 9.687 0 0 1 -2.176 3.019 3.7 3.7 0 0 1 -1.68.88l8.292 4.449a1.059 1.059 0 0 1 .191 1.445l-1.015 1.892c-.309.576-.895.862-1.31.64l-11.873-6.372a1.059 1.059 0 0 1 -.191-1.445l1.068-1.99a1.33 1.33 0 0 1 .946-.748 5.208 5.208 0 0 0 2.055-.62 6.888 6.888 0 0 0 2.388-2.876l1.085-2.022a1.059 1.059 0 0 0 -.191-1.445l-.864-.463a1.06 1.06 0 0 1 -.191-1.445l.663-1.236c.309-.576.895-.862 1.31-.639l.863.463c.414.222 1-.064 1.31-.64l1.691-3.153a11.472 11.472 0 0 1 2.942-3.733 5.851 5.851 0 0 1 3.243-1.314 6 6 0 0 1 3.234.748z" fill="#007173"/><ellipse cx="763.774" cy="165.461" rx="26.834" ry="19.327" style="fill:none;stroke-linecap:round;stroke-linejoin:round;stroke:#007173;stroke-width:.825;stroke-dasharray:.834 3.336" transform="matrix(.47268919 -.88122921 .88122921 .47268919 256.934 760.306)"/><g opacity=".3"><path d="m930.835 148.74c6.653 0 12.981 12.892 16.046 24.87 3.261 12.743 3.6 27.6-3.375 30.113-2.706.975-6.336 1.9-8.988 2.582a14.326 14.326 0 0 1 -3.54.444c-9.895 0-19.572-9.751-23.01-23.184-1.922-7.511-1.633-15.086.815-21.328 2.365-6.03 6.466-10.067 11.551-11.368a84.368 84.368 0 0 1 9.773-2.079 5.409 5.409 0 0 1 .728-.05m0-1.872a7.238 7.238 0 0 0 -.98.067 85.89 85.89 0 0 0 -9.988 2.121c-11.747 3-17.886 18.663-13.712 34.973 3.7 14.47 14.28 24.592 24.823 24.592a16.112 16.112 0 0 0 4-.5c2.736-.7 6.368-1.629 9.158-2.634 8.747-3.151 7.757-19.828 4.555-32.339-2.943-11.5-9.441-26.277-17.86-26.277z" fill="#00cfb7"/><ellipse cx="933.793" cy="176.958" fill="#00cfb7" rx="21.955" ry="30.483" transform="matrix(.96876087 -.24799672 .24799672 .96876087 -14.714 237.101)"/><path d="m930.613 161.115a8.5 8.5 0 0 1 2.912-.252 13.52 13.52 0 0 1 1.761.281 1.316 1.316 0 0 1 .83 1.345l-.074 1.8c-.024.583-.394.972-.843.867a12.933 12.933 0 0 0 -1.3-.235 5.42 5.42 0 0 0 -2.045.112 2.365 2.365 0 0 0 -1.636 1.364 4.914 4.914 0 0 0 .038 3.157l.814 3.182c.156.609.638 1.012 1.077.9l3.721-.952c.439-.113.921.29 1.077.9l.334 1.307a1.019 1.019 0 0 1 -.512 1.306l-3.721.952a1.019 1.019 0 0 0 -.512 1.306l.537 2.1a9.329 9.329 0 0 1 .424 3.556 3.557 3.557 0 0 1 -.619 1.717l8.774-2.244c.439-.112.92.29 1.076.9l.513 2a1.02 1.02 0 0 1 -.512 1.306l-12.563 3.214c-.439.112-.921-.29-1.077-.9l-.54-2.104a1.282 1.282 0 0 1 .184-1.146 5.032 5.032 0 0 0 1.053-1.776 6.635 6.635 0 0 0 -.18-3.594l-.547-2.139c-.156-.61-.638-1.012-1.077-.9l-.913.234c-.439.112-.921-.291-1.076-.9l-.335-1.307a1.019 1.019 0 0 1 .512-1.306l.913-.234a1.02 1.02 0 0 0 .513-1.306l-.854-3.336a11.036 11.036 0 0 1 -.352-4.557 5.631 5.631 0 0 1 1.444-3.043 5.777 5.777 0 0 1 2.781-1.575z" fill="#007173"/><ellipse cx="933.793" cy="176.958" rx="18.6" ry="25.824" style="fill:none;stroke-linecap:round;stroke-linejoin:round;stroke:#007173;stroke-width:.794;stroke-dasharray:.803 3.21" transform="matrix(.96876087 -.24799672 .24799672 .96876087 -14.714 237.101)"/></g><g opacity=".6"><path d="m903.652 236.1a5.855 5.855 0 0 1 4.75 1.827c1.477 1.73 3.175 4.15 4.414 5.917 5.021 7.157.811 18.8-9.385 25.954a27.92 27.92 0 0 1 -15.72 5.352c-5.235 0-9.453-1.9-11.876-5.358a66.516 66.516 0 0 1 -4.264-6.638c-2.626-4.849 5.234-13.412 13.649-19.316 5.332-3.741 12.973-7.738 18.432-7.738m0-1.478c-5.71 0-13.41 3.887-19.281 8.006-7.967 5.59-17.475 15-14.1 21.229a67.89 67.89 0 0 0 4.354 6.784c2.8 3.985 7.605 5.987 13.086 5.987a29.432 29.432 0 0 0 16.569-5.628c10.881-7.634 15.244-20.176 9.746-28.013-1.28-1.825-2.98-4.248-4.5-6.028a7.347 7.347 0 0 0 -5.873-2.345z" fill="#00cfb7"/><ellipse cx="891.345" cy="252.565" fill="#00cfb7" rx="24.066" ry="17.333" transform="matrix(.81855095 -.57443394 .57443394 .81855095 16.65 557.842)"/><path d="m880.532 259.335a6.737 6.737 0 0 1 -1-2.081 10.688 10.688 0 0 1 -.284-1.378 1.041 1.041 0 0 1 .762-.989l1.351-.448c.437-.145.828.02.876.381a10.118 10.118 0 0 0 .189 1.027 4.3 4.3 0 0 0 .653 1.478 1.869 1.869 0 0 0 1.464.828 3.878 3.878 0 0 0 2.322-.91l2.122-1.489a.805.805 0 0 0 .364-1.046l-1.742-2.483a.805.805 0 0 1 .364-1.046l.872-.611a.805.805 0 0 1 1.108.013l1.741 2.483a.805.805 0 0 0 1.108.014l1.4-.984a7.379 7.379 0 0 1 2.508-1.305 2.812 2.812 0 0 1 1.441-.022l-4.106-5.853a.805.805 0 0 1 .364-1.046l1.335-.937a.806.806 0 0 1 1.108.013l5.879 8.381a.8.8 0 0 1 -.364 1.046l-1.4.986a1.009 1.009 0 0 1 -.9.184 3.981 3.981 0 0 0 -1.606-.282 5.243 5.243 0 0 0 -2.6 1.136l-1.428 1a.807.807 0 0 0 -.364 1.047l.428.609a.805.805 0 0 1 -.364 1.046l-.872.612a.8.8 0 0 1 -1.107-.014l-.428-.609a.8.8 0 0 0 -1.107-.014l-2.226 1.562a8.713 8.713 0 0 1 -3.268 1.531 4.441 4.441 0 0 1 -2.649-.217 4.558 4.558 0 0 1 -1.944-1.613z" fill="#007173"/><ellipse cx="891.345" cy="252.565" rx="20.388" ry="14.684" style="fill:none;stroke-linecap:round;stroke-linejoin:round;stroke:#007173;stroke-width:.627;stroke-dasharray:.634 2.535" transform="matrix(.81855095 -.57443394 .57443394 .81855095 16.651 557.845)"/></g><g fill="none"><path d="m666.611 91.426v11.417" stroke="#003e3f" stroke-linecap="round" stroke-linejoin="round" stroke-width="2.305"/><path d="m666.611 51.632v9.532" stroke="#003e3f" stroke-linecap="round" stroke-linejoin="round" stroke-width="2.305"/><path d="m652.423 77.237h-11.418" stroke="#003e3f" stroke-linecap="round" stroke-linejoin="round" stroke-width="2.305"/><path d="m692.217 77.237h-9.533" stroke="#003e3f" stroke-linecap="round" stroke-linejoin="round" stroke-width="2.305"/><path d="m656.578 87.27-8.073 8.073" stroke="#003e3f" stroke-linecap="round" stroke-linejoin="round" stroke-width="2.305"/><path d="m684.717 59.131-6.741 6.741" stroke="#003e3f" stroke-linecap="round" stroke-linejoin="round" stroke-width="2.305"/><path d="m656.578 67.205-8.073-8.074" stroke="#003e3f" stroke-linecap="round" stroke-linejoin="round" stroke-width="2.305"/><path d="m684.717 95.343-6.741-6.741" stroke="#003e3f" stroke-linecap="round" stroke-linejoin="round" stroke-width="2.305"/><path d="m706.637 340.973v8.243" stroke="#003e3f" stroke-linecap="round" stroke-linejoin="round" stroke-width="1.664"/><path d="m706.637 312.245v6.882" stroke="#003e3f" stroke-linecap="round" stroke-linejoin="round" stroke-width="1.664"/><path d="m696.394 330.73h-8.243" stroke="#003e3f" stroke-linecap="round" stroke-linejoin="round" stroke-width="1.664"/><path d="m725.122 330.73h-6.882" stroke="#003e3f" stroke-linecap="round" stroke-linejoin="round" stroke-width="1.664"/><path d="m699.394 337.973-5.828 5.829" stroke="#003e3f" stroke-linecap="round" stroke-linejoin="round" stroke-width="1.664"/><path d="m719.708 317.659-4.866 4.866" stroke="#003e3f" stroke-linecap="round" stroke-linejoin="round" stroke-width="1.664"/><path d="m699.394 323.487-5.828-5.828" stroke="#003e3f" stroke-linecap="round" stroke-linejoin="round" stroke-width="1.664"/><path d="m719.708 343.801-4.866-4.866" stroke="#003e3f" stroke-linecap="round" stroke-linejoin="round" stroke-width="1.664"/></g></svg>