<?xml version="1.0" encoding="UTF-8"?><svg id="uuid-02c02d3a-ede1-4b4b-8a92-7a6f1ea1e4e9" xmlns="http://www.w3.org/2000/svg" xmlns:xlink="http://www.w3.org/1999/xlink" viewBox="0 0 1150 420"><defs><style>.uuid-9a6002ee-8c70-40c1-918f-a845c2f0e052,.uuid-db45534a-38d7-4de8-8e7e-958fdf750a48,.uuid-dae1bf49-7ad4-422d-bb43-7a03d12baaee,.uuid-e6f1c8cd-b92d-4a7b-b925-c549afb13010,.uuid-54f1b71b-cfa7-42dd-9657-9c228a272c0d,.uuid-5c17425a-3df7-41da-983e-086d37220b9b,.uuid-5b41781e-05a1-41de-adef-9d9ed52a36c3,.uuid-5ea330f2-0ef0-4114-ada5-32d13fb31211,.uuid-7685a481-b7e2-4b66-aa3a-02e53ddd7fcb,.uuid-c61fb23f-d008-46a0-96dc-60c32f9616f7,.uuid-f3697c48-79b8-463d-b2b6-d7078f4e7a5d,.uuid-96722409-8ab8-493e-a6ca-52104b782436,.uuid-125a7c44-57c1-43a5-925f-39128060ccf9,.uuid-5279c486-64bd-414d-a971-fa0bc90f6cab,.uuid-34a2d6aa-5374-4eb1-af86-59aeee111462,.uuid-2bb3601c-0b3e-4325-8e02-7ba1b48fdad8,.uuid-715c7064-e39f-4e76-be9a-8dce08577ca0,.uuid-f067fff0-e3e2-48f7-b975-1095630bc0ee,.uuid-c8dbfa07-6fcc-4ce2-ae39-e66eee291d4a,.uuid-a2e044d1-9e00-4a72-8d36-6d6a104d91c7,.uuid-7c961dff-f7d3-45ac-96f0-113a77c0fe12,.uuid-94a8ff31-641d-4158-b06c-913e7439330a,.uuid-1416e3cb-f6f8-466e-b783-04708c364312,.uuid-407aff36-17a1-40a7-90b2-1af9ead2af0c,.uuid-be8f12c6-1384-4673-87b4-69cc99550548,.uuid-9c483044-4baf-40e8-a85e-a90dbb58bda5{fill:none;}.uuid-5e802a10-4baf-454f-8d67-e8afc32099ee{fill:#aceeff;}.uuid-5e802a10-4baf-454f-8d67-e8afc32099ee,.uuid-db45534a-38d7-4de8-8e7e-958fdf750a48,.uuid-dae1bf49-7ad4-422d-bb43-7a03d12baaee,.uuid-19c1367a-3ca1-46cd-b762-e6cfeebb7a37,.uuid-a081f901-b602-483f-84f8-4f0a4be5794e,.uuid-be3a884a-c449-42f6-89c7-049de618bd2b,.uuid-e6f1c8cd-b92d-4a7b-b925-c549afb13010,.uuid-54f1b71b-cfa7-42dd-9657-9c228a272c0d,.uuid-5c17425a-3df7-41da-983e-086d37220b9b,.uuid-5b41781e-05a1-41de-adef-9d9ed52a36c3,.uuid-5ea330f2-0ef0-4114-ada5-32d13fb31211,.uuid-7685a481-b7e2-4b66-aa3a-02e53ddd7fcb,.uuid-c61fb23f-d008-46a0-96dc-60c32f9616f7,.uuid-cc93d3de-56ac-4eff-9b30-1b8e7d6b77f0,.uuid-f3697c48-79b8-463d-b2b6-d7078f4e7a5d,.uuid-96722409-8ab8-493e-a6ca-52104b782436,.uuid-814525a1-1128-490e-a6b5-383a25a9b26b,.uuid-b2644dce-5796-4550-9d56-deb0739db419,.uuid-125a7c44-57c1-43a5-925f-39128060ccf9,.uuid-5279c486-64bd-414d-a971-fa0bc90f6cab,.uuid-34a2d6aa-5374-4eb1-af86-59aeee111462,.uuid-2bb3601c-0b3e-4325-8e02-7ba1b48fdad8,.uuid-715c7064-e39f-4e76-be9a-8dce08577ca0,.uuid-f067fff0-e3e2-48f7-b975-1095630bc0ee,.uuid-a2e044d1-9e00-4a72-8d36-6d6a104d91c7,.uuid-7c961dff-f7d3-45ac-96f0-113a77c0fe12,.uuid-94a8ff31-641d-4158-b06c-913e7439330a,.uuid-26004008-a9d8-4a74-9e15-3eb32fa56342,.uuid-1416e3cb-f6f8-466e-b783-04708c364312,.uuid-407aff36-17a1-40a7-90b2-1af9ead2af0c,.uuid-321d5488-1664-4acf-b2b7-8725cc5a8d80,.uuid-d9a7f6cb-02d4-469e-bb93-4eb3d8aab474,.uuid-be8f12c6-1384-4673-87b4-69cc99550548,.uuid-9c483044-4baf-40e8-a85e-a90dbb58bda5{stroke-linecap:round;}.uuid-5e802a10-4baf-454f-8d67-e8afc32099ee,.uuid-db45534a-38d7-4de8-8e7e-958fdf750a48,.uuid-19c1367a-3ca1-46cd-b762-e6cfeebb7a37,.uuid-a081f901-b602-483f-84f8-4f0a4be5794e,.uuid-be3a884a-c449-42f6-89c7-049de618bd2b,.uuid-e6f1c8cd-b92d-4a7b-b925-c549afb13010,.uuid-54f1b71b-cfa7-42dd-9657-9c228a272c0d,.uuid-5c17425a-3df7-41da-983e-086d37220b9b,.uuid-5b41781e-05a1-41de-adef-9d9ed52a36c3,.uuid-5ea330f2-0ef0-4114-ada5-32d13fb31211,.uuid-7685a481-b7e2-4b66-aa3a-02e53ddd7fcb,.uuid-c61fb23f-d008-46a0-96dc-60c32f9616f7,.uuid-cc93d3de-56ac-4eff-9b30-1b8e7d6b77f0,.uuid-96722409-8ab8-493e-a6ca-52104b782436,.uuid-814525a1-1128-490e-a6b5-383a25a9b26b,.uuid-b2644dce-5796-4550-9d56-deb0739db419,.uuid-5279c486-64bd-414d-a971-fa0bc90f6cab,.uuid-34a2d6aa-5374-4eb1-af86-59aeee111462,.uuid-715c7064-e39f-4e76-be9a-8dce08577ca0,.uuid-f067fff0-e3e2-48f7-b975-1095630bc0ee,.uuid-c8dbfa07-6fcc-4ce2-ae39-e66eee291d4a,.uuid-a2e044d1-9e00-4a72-8d36-6d6a104d91c7,.uuid-7c961dff-f7d3-45ac-96f0-113a77c0fe12,.uuid-94a8ff31-641d-4158-b06c-913e7439330a,.uuid-26004008-a9d8-4a74-9e15-3eb32fa56342,.uuid-1416e3cb-f6f8-466e-b783-04708c364312,.uuid-407aff36-17a1-40a7-90b2-1af9ead2af0c,.uuid-321d5488-1664-4acf-b2b7-8725cc5a8d80,.uuid-d9a7f6cb-02d4-469e-bb93-4eb3d8aab474,.uuid-9c483044-4baf-40e8-a85e-a90dbb58bda5{stroke:#003e3f;}.uuid-5e802a10-4baf-454f-8d67-e8afc32099ee,.uuid-dae1bf49-7ad4-422d-bb43-7a03d12baaee,.uuid-19c1367a-3ca1-46cd-b762-e6cfeebb7a37,.uuid-a081f901-b602-483f-84f8-4f0a4be5794e,.uuid-be3a884a-c449-42f6-89c7-049de618bd2b,.uuid-5c17425a-3df7-41da-983e-086d37220b9b,.uuid-5ea330f2-0ef0-4114-ada5-32d13fb31211,.uuid-cc93d3de-56ac-4eff-9b30-1b8e7d6b77f0,.uuid-f3697c48-79b8-463d-b2b6-d7078f4e7a5d,.uuid-814525a1-1128-490e-a6b5-383a25a9b26b,.uuid-b2644dce-5796-4550-9d56-deb0739db419,.uuid-125a7c44-57c1-43a5-925f-39128060ccf9,.uuid-2bb3601c-0b3e-4325-8e02-7ba1b48fdad8,.uuid-f067fff0-e3e2-48f7-b975-1095630bc0ee,.uuid-7c961dff-f7d3-45ac-96f0-113a77c0fe12,.uuid-94a8ff31-641d-4158-b06c-913e7439330a,.uuid-26004008-a9d8-4a74-9e15-3eb32fa56342,.uuid-1416e3cb-f6f8-466e-b783-04708c364312,.uuid-407aff36-17a1-40a7-90b2-1af9ead2af0c,.uuid-321d5488-1664-4acf-b2b7-8725cc5a8d80,.uuid-d9a7f6cb-02d4-469e-bb93-4eb3d8aab474,.uuid-be8f12c6-1384-4673-87b4-69cc99550548,.uuid-9c483044-4baf-40e8-a85e-a90dbb58bda5{stroke-linejoin:round;}.uuid-5e802a10-4baf-454f-8d67-e8afc32099ee,.uuid-19c1367a-3ca1-46cd-b762-e6cfeebb7a37,.uuid-a081f901-b602-483f-84f8-4f0a4be5794e,.uuid-be3a884a-c449-42f6-89c7-049de618bd2b,.uuid-5ea330f2-0ef0-4114-ada5-32d13fb31211{stroke-width:1.802px;}.uuid-db45534a-38d7-4de8-8e7e-958fdf750a48{stroke-width:.677px;}.uuid-db45534a-38d7-4de8-8e7e-958fdf750a48,.uuid-e6f1c8cd-b92d-4a7b-b925-c549afb13010,.uuid-54f1b71b-cfa7-42dd-9657-9c228a272c0d,.uuid-5b41781e-05a1-41de-adef-9d9ed52a36c3,.uuid-7685a481-b7e2-4b66-aa3a-02e53ddd7fcb,.uuid-c61fb23f-d008-46a0-96dc-60c32f9616f7,.uuid-96722409-8ab8-493e-a6ca-52104b782436,.uuid-5279c486-64bd-414d-a971-fa0bc90f6cab,.uuid-34a2d6aa-5374-4eb1-af86-59aeee111462,.uuid-715c7064-e39f-4e76-be9a-8dce08577ca0,.uuid-c8dbfa07-6fcc-4ce2-ae39-e66eee291d4a,.uuid-a2e044d1-9e00-4a72-8d36-6d6a104d91c7{stroke-miterlimit:10;}.uuid-dae1bf49-7ad4-422d-bb43-7a03d12baaee{stroke-dasharray:0 0 .613 2.451;stroke-width:.607px;}.uuid-dae1bf49-7ad4-422d-bb43-7a03d12baaee,.uuid-f3697c48-79b8-463d-b2b6-d7078f4e7a5d,.uuid-125a7c44-57c1-43a5-925f-39128060ccf9,.uuid-2bb3601c-0b3e-4325-8e02-7ba1b48fdad8,.uuid-be8f12c6-1384-4673-87b4-69cc99550548{stroke:#007173;}.uuid-19c1367a-3ca1-46cd-b762-e6cfeebb7a37,.uuid-50b67aa7-a9d4-4aef-88ee-5ad21ac8a372,.uuid-814525a1-1128-490e-a6b5-383a25a9b26b,.uuid-26004008-a9d8-4a74-9e15-3eb32fa56342{fill:#fff;}.uuid-a081f901-b602-483f-84f8-4f0a4be5794e{fill:#ffd5eb;}.uuid-be3a884a-c449-42f6-89c7-049de618bd2b,.uuid-86103d50-da98-477e-b5fd-d84b06f0a1f4{fill:#ffbddf;}.uuid-e6f1c8cd-b92d-4a7b-b925-c549afb13010{stroke-width:.851px;}.uuid-54f1b71b-cfa7-42dd-9657-9c228a272c0d{stroke-width:1.721px;}.uuid-99586d1f-d540-45e0-8d62-a88cf39dec88{fill:url(#uuid-7e04aff7-10e4-43ad-befb-258a7413756c);}.uuid-99586d1f-d540-45e0-8d62-a88cf39dec88,.uuid-59afda23-9e66-44a2-862e-dd81fdd6a57e,.uuid-0922152e-27d0-4f29-a2e4-2aeab66baeda,.uuid-86910567-cb22-4b22-a225-9fb81e60ef5e,.uuid-b87d0b16-7a33-4527-b133-7e6d0bd1fce5{opacity:.5;}.uuid-5c17425a-3df7-41da-983e-086d37220b9b{stroke-width:1.278px;}.uuid-c744c200-2d34-4faf-8d3e-3fac173ec1f2,.uuid-cc93d3de-56ac-4eff-9b30-1b8e7d6b77f0,.uuid-b2644dce-5796-4550-9d56-deb0739db419,.uuid-321d5488-1664-4acf-b2b7-8725cc5a8d80,.uuid-d9a7f6cb-02d4-469e-bb93-4eb3d8aab474{fill:#003e3f;}.uuid-6f186e5b-0705-4c53-844a-bba8c12f7fb5{fill:#00ccb7;}.uuid-adef2de3-b5ed-4d72-bc2e-0ffede363f1f{fill:#007173;}.uuid-4807e0d1-b91a-40ae-9fe6-badaa5084e47{fill:#ffd938;}.uuid-84139123-f753-43e1-b7dd-b05baf776b29{fill:#7de4ff;}.uuid-3705d039-b02b-4aa2-b945-b69211b6134a{fill:#dc9cc1;}.uuid-6cc9c55c-1b5e-4a12-b5e6-ddda06378ee0{fill:#5ec4dc;}.uuid-5b41781e-05a1-41de-adef-9d9ed52a36c3{stroke-width:.388px;}.uuid-7685a481-b7e2-4b66-aa3a-02e53ddd7fcb{stroke-width:1.338px;}.uuid-c61fb23f-d008-46a0-96dc-60c32f9616f7{stroke-width:.339px;}.uuid-cc93d3de-56ac-4eff-9b30-1b8e7d6b77f0{stroke-width:1.584px;}.uuid-f3697c48-79b8-463d-b2b6-d7078f4e7a5d{stroke-dasharray:0 0 .503 2.011;stroke-width:.498px;}.uuid-59afda23-9e66-44a2-862e-dd81fdd6a57e{fill:url(#uuid-2ce50aea-2088-415b-9b5c-79fc69731b04);}.uuid-96722409-8ab8-493e-a6ca-52104b782436{stroke-width:.674px;}.uuid-814525a1-1128-490e-a6b5-383a25a9b26b{stroke-width:2.016px;}.uuid-b2644dce-5796-4550-9d56-deb0739db419{stroke-width:1.605px;}.uuid-125a7c44-57c1-43a5-925f-39128060ccf9{stroke-dasharray:0 0 .496 1.985;stroke-width:.491px;}.uuid-5279c486-64bd-414d-a971-fa0bc90f6cab{stroke-width:.978px;}.uuid-0922152e-27d0-4f29-a2e4-2aeab66baeda{fill:url(#uuid-e826adfb-9121-41c7-8717-a7e82780a532);}.uuid-86910567-cb22-4b22-a225-9fb81e60ef5e,.uuid-a8d65bba-5162-45c2-a3bf-edc230b1bde1{fill:url(#uuid-d4894e5b-0f3c-4b39-ba77-9357ace68a37);}.uuid-b87d0b16-7a33-4527-b133-7e6d0bd1fce5{fill:url(#uuid-35799ef4-305d-4e66-9b4e-749586d6a0bb);}.uuid-34a2d6aa-5374-4eb1-af86-59aeee111462{stroke-width:2.128px;}.uuid-2bb3601c-0b3e-4325-8e02-7ba1b48fdad8{stroke-dasharray:0 0 .454 1.816;stroke-width:.449px;}.uuid-715c7064-e39f-4e76-be9a-8dce08577ca0,.uuid-c8dbfa07-6fcc-4ce2-ae39-e66eee291d4a{stroke-width:2px;}.uuid-f067fff0-e3e2-48f7-b975-1095630bc0ee{stroke-width:1.883px;}.uuid-a2e044d1-9e00-4a72-8d36-6d6a104d91c7{stroke-width:.42px;}.uuid-7c961dff-f7d3-45ac-96f0-113a77c0fe12{stroke-width:1.926px;}.uuid-94a8ff31-641d-4158-b06c-913e7439330a{stroke-width:.431px;}.uuid-26004008-a9d8-4a74-9e15-3eb32fa56342{stroke-width:1.714px;}.uuid-1416e3cb-f6f8-466e-b783-04708c364312{stroke-width:1.342px;}.uuid-407aff36-17a1-40a7-90b2-1af9ead2af0c{stroke-width:1.796px;}.uuid-321d5488-1664-4acf-b2b7-8725cc5a8d80{stroke-width:1.421px;}.uuid-d9a7f6cb-02d4-469e-bb93-4eb3d8aab474{stroke-width:1.396px;}.uuid-be8f12c6-1384-4673-87b4-69cc99550548{stroke-dasharray:0 0 .666 2.663;stroke-width:.659px;}.uuid-9c483044-4baf-40e8-a85e-a90dbb58bda5{stroke-width:.268px;}</style><pattern id="uuid-d4894e5b-0f3c-4b39-ba77-9357ace68a37" x="0" y="0" width="2" height="2" patternTransform="translate(-216.91 3675.48)" patternUnits="userSpaceOnUse" viewBox="0 0 2 2"><rect class="uuid-9a6002ee-8c70-40c1-918f-a845c2f0e052" width="2" height="2"/><circle class="uuid-c744c200-2d34-4faf-8d3e-3fac173ec1f2" cx=".515" cy=".5" r=".5"/><circle class="uuid-9a6002ee-8c70-40c1-918f-a845c2f0e052" cx="1.485" cy=".5" r=".5"/><circle class="uuid-9a6002ee-8c70-40c1-918f-a845c2f0e052" cx=".515" cy="1.5" r=".5"/><circle class="uuid-9a6002ee-8c70-40c1-918f-a845c2f0e052" cx="1.485" cy="1.5" r=".5"/></pattern><pattern id="uuid-7e04aff7-10e4-43ad-befb-258a7413756c" patternTransform="translate(-14677.975 3676.935) rotate(-180) scale(1 -1)" xlink:href="#uuid-d4894e5b-0f3c-4b39-ba77-9357ace68a37"/><pattern id="uuid-e826adfb-9121-41c7-8717-a7e82780a532" patternTransform="translate(1222.118 2247.531) rotate(-10.241)" xlink:href="#uuid-d4894e5b-0f3c-4b39-ba77-9357ace68a37"/><pattern id="uuid-35799ef4-305d-4e66-9b4e-749586d6a0bb" patternTransform="translate(1222.118 2247.531) rotate(-10.241)" xlink:href="#uuid-d4894e5b-0f3c-4b39-ba77-9357ace68a37"/><pattern id="uuid-2ce50aea-2088-415b-9b5c-79fc69731b04" patternTransform="translate(1222.118 2247.531) rotate(-10.241)" xlink:href="#uuid-d4894e5b-0f3c-4b39-ba77-9357ace68a37"/></defs><path class="uuid-d9a7f6cb-02d4-469e-bb93-4eb3d8aab474" d="m785.424,257.314c1.245-15.871-10.612-29.745-26.482-30.99-15.87-1.245-29.745,10.611-30.99,26.482-.959,12.221,5.868,23.233,16.298,28.231,0,0,2.944,1.482,5.215,2.596,2.363,1.16,6.62,2.549,6.62,2.549l-1.124-2.372c15.648.943,29.232-10.804,30.463-26.497Z"/><circle class="uuid-d9a7f6cb-02d4-469e-bb93-4eb3d8aab474" cx="764.047" cy="258.519" r="28.824"/><circle class="uuid-19c1367a-3ca1-46cd-b762-e6cfeebb7a37" cx="764.047" cy="258.519" r="17.088"/><path class="uuid-19c1367a-3ca1-46cd-b762-e6cfeebb7a37" d="m637.727,216.566s54.756,26.381,94.219-2.665c0,0,6.299-.415,8.219,3.761,2.42,5.263-.939,8.793-.939,8.793,0,0-41.541,33.991-106.463,1.194"/><path class="uuid-814525a1-1128-490e-a6b5-383a25a9b26b" d="m714.05,193.731l-4.261,54.322c-.488,6.218,22.43,13.087,51.187,15.342,28.758,2.256,52.466-.956,52.953-7.174l4.261-54.322-104.141-8.168Z"/><ellipse class="uuid-19c1367a-3ca1-46cd-b762-e6cfeebb7a37" cx="766.054" cy="198.659" rx="11.293" ry="52.23" transform="translate(508.103 946.834) rotate(-85.515)"/><ellipse class="uuid-86910567-cb22-4b22-a225-9fb81e60ef5e" cx="766.054" cy="198.659" rx="11.293" ry="52.23" transform="translate(508.103 946.834) rotate(-85.515)"/><path class="uuid-19c1367a-3ca1-46cd-b762-e6cfeebb7a37" d="m693.55,227.35s3.576,1.694,3.764,5.27"/><path class="uuid-19c1367a-3ca1-46cd-b762-e6cfeebb7a37" d="m689.352,227.758s2.156,1.45,2.79,3.896"/><path class="uuid-50b67aa7-a9d4-4aef-88ee-5ad21ac8a372" d="m772.108,121.474c-28.758-2.256-53.803,18.001-55.939,45.244l-1.545,19.703c-.488,6.218,22.43,13.087,51.187,15.342,28.758,2.256,52.466-.956,52.953-7.174l1.545-19.703c2.137-27.243-19.444-51.157-48.201-53.412Z"/><path class="uuid-5ea330f2-0ef0-4114-ada5-32d13fb31211" d="m745.082,126.246c-3.997,1.847-7.714,4.17-11.063,6.898"/><path class="uuid-5ea330f2-0ef0-4114-ada5-32d13fb31211" d="m730.854,135.948c-8.285,7.98-13.738,18.688-14.686,30.77l-1.545,19.703c-.488,6.218,22.43,13.087,51.187,15.342,28.758,2.256,52.466-.956,52.953-7.174l1.545-19.703c2.137-27.243-19.444-51.157-48.201-53.412-4.97-.39-9.829-.107-14.478.768"/><rect class="uuid-84139123-f753-43e1-b7dd-b05baf776b29" x="180.401" y="200.971" width="77.351" height="68.602" rx="3.688" ry="3.688" transform="translate(-1.425 1.335) rotate(-.348)"/><path class="uuid-6cc9c55c-1b5e-4a12-b5e6-ddda06378ee0" d="m252.531,200.767l-67.325.409c-2.768.017-4.999,2.275-4.982,5.043l.046,7.639,77.35-.47-.046-7.639c-.017-2.768-2.275-4.999-5.043-4.982Z"/><circle class="uuid-50b67aa7-a9d4-4aef-88ee-5ad21ac8a372" cx="187.985" cy="207.385" r="2.201"/><circle class="uuid-50b67aa7-a9d4-4aef-88ee-5ad21ac8a372" cx="194.73" cy="207.344" r="2.201"/><path class="uuid-6cc9c55c-1b5e-4a12-b5e6-ddda06378ee0" d="m197.513,251.083l-1.08,1.062c-.124.125-.231.141-.357.002-.391-.525-.875-1.019-1.682-1.014-.854.005-1.44.552-1.435,1.39.004.698.427,1.146.756,1.749l2.343-.014c.155,0,.249.107.25.247l.007,1.07c0,.14-.091.233-.247.234l-1.956.012c-.041.885-.44,1.586-.996,2.117l3.973-.024c.14,0,.233.107.234.247l.009,1.536c0,.14-.091.234-.231.234l-6.518.04c-.14,0-.233-.092-.234-.231l-.011-1.785c.835-.393,1.576-1.064,1.57-2.042v-.078l-1.334.008c-.14,0-.233-.091-.234-.231l-.007-1.07c0-.14.091-.265.231-.266l.698-.004c-.313-.541-.612-1.175-.617-2.013-.011-1.846,1.454-3.283,3.549-3.295,1.645-.01,2.706.868,3.362,1.764.079.092.079.248-.044.357Z"/><path class="uuid-6cc9c55c-1b5e-4a12-b5e6-ddda06378ee0" d="m206.122,251.03l-1.08,1.062c-.124.125-.231.141-.357.002-.391-.525-.875-1.019-1.682-1.014-.854.005-1.44.552-1.435,1.39.004.698.426,1.146.756,1.749l2.343-.014c.155,0,.249.107.25.247l.007,1.07c0,.14-.091.233-.247.234l-1.956.012c-.041.885-.44,1.586-.996,2.117l3.973-.024c.14,0,.233.107.234.247l.009,1.536c0,.14-.091.233-.231.234l-6.518.04c-.14,0-.233-.092-.234-.231l-.011-1.785c.835-.393,1.577-1.065,1.57-2.042v-.078l-1.335.008c-.14,0-.233-.091-.234-.231l-.007-1.07c0-.14.091-.265.231-.266l.698-.004c-.313-.541-.612-1.175-.617-2.013-.011-1.846,1.454-3.283,3.549-3.296,1.645-.01,2.706.868,3.362,1.765.079.092.079.248-.044.357Z"/><rect class="uuid-6cc9c55c-1b5e-4a12-b5e6-ddda06378ee0" x="187.199" y="219.755" width="52.726" height="4.315" rx="1.015" ry="1.015" transform="translate(-1.179 1.141) rotate(-.305)"/><rect class="uuid-6cc9c55c-1b5e-4a12-b5e6-ddda06378ee0" x="187.241" y="227.757" width="23.339" height="4.315" rx="1.324" ry="1.324" transform="translate(-1.222 1.063) rotate(-.305)"/><path class="uuid-7685a481-b7e2-4b66-aa3a-02e53ddd7fcb" d="m180.313,220.794l-.097-15.899c-.012-2.037,1.629-3.698,3.666-3.711l69.973-.425c2.037-.012,3.698,1.629,3.711,3.666l.372,61.224c.012,2.037-1.629,3.698-3.666,3.711l-69.973.425c-2.037.012-3.698-1.629-3.711-3.666l-.17-28.005"/><rect class="uuid-84139123-f753-43e1-b7dd-b05baf776b29" x="246.792" y="218.705" width="99.437" height="88.189" rx="4.741" ry="4.741" transform="translate(-1.591 1.806) rotate(-.348)"/><path class="uuid-6cc9c55c-1b5e-4a12-b5e6-ddda06378ee0" d="m339.517,218.443l-86.548.526c-3.559.022-6.426,2.924-6.404,6.483l.06,9.821,99.435-.604-.06-9.821c-.022-3.559-2.924-6.426-6.483-6.404Z"/><circle class="uuid-50b67aa7-a9d4-4aef-88ee-5ad21ac8a372" cx="256.541" cy="226.95" r="2.83"/><circle class="uuid-50b67aa7-a9d4-4aef-88ee-5ad21ac8a372" cx="265.212" cy="226.898" r="2.83"/><path class="uuid-6cc9c55c-1b5e-4a12-b5e6-ddda06378ee0" d="m268.787,283.128l-1.388,1.365c-.159.161-.298.181-.459.002-.502-.674-1.125-1.309-2.162-1.303-1.097.007-1.85.709-1.843,1.786.005.897.547,1.473.971,2.248l3.011-.018c.199-.001.319.138.321.317l.008,1.376c0,.179-.118.3-.317.301l-2.513.015c-.052,1.137-.565,2.038-1.28,2.72l5.105-.031c.18-.001.3.138.301.317l.012,1.974c0,.18-.118.3-.298.301l-8.375.051c-.179,0-.3-.118-.301-.297l-.014-2.293c1.074-.505,2.026-1.369,2.019-2.625v-.1s-1.716.011-1.716.011c-.18,0-.3-.119-.301-.298l-.008-1.376c-.001-.18.117-.34.297-.341l.897-.005c-.403-.696-.787-1.511-.793-2.588-.014-2.374,1.869-4.219,4.562-4.236,2.114-.013,3.477,1.116,4.321,2.268.101.119.102.318-.057.458Z"/><path class="uuid-6cc9c55c-1b5e-4a12-b5e6-ddda06378ee0" d="m279.854,283.061l-1.388,1.364c-.159.161-.298.182-.459.003-.503-.675-1.125-1.309-2.162-1.303-1.097.007-1.85.709-1.843,1.787.005.897.547,1.472.971,2.248l3.012-.019c.199,0,.319.138.321.317l.008,1.376c0,.179-.118.3-.317.301l-2.513.015c-.052,1.137-.565,2.038-1.28,2.72l5.105-.031c.18,0,.3.138.301.317l.012,1.974c0,.18-.118.3-.298.301l-8.376.051c-.18,0-.3-.118-.301-.297l-.014-2.293c1.074-.505,2.026-1.368,2.019-2.625v-.1s-1.716.01-1.716.01c-.18,0-.3-.118-.301-.297l-.008-1.376c-.001-.18.117-.34.297-.341l.897-.005c-.403-.695-.787-1.511-.793-2.588-.014-2.374,1.869-4.219,4.562-4.236,2.114-.013,3.477,1.116,4.321,2.268.101.119.102.318-.057.459Z"/><path class="uuid-6cc9c55c-1b5e-4a12-b5e6-ddda06378ee0" d="m290.92,282.994l-1.388,1.364c-.159.161-.298.182-.459.003-.503-.675-1.125-1.309-2.162-1.303-1.097.006-1.85.709-1.843,1.786.005.897.547,1.472.971,2.248l3.012-.019c.199,0,.319.138.321.317l.008,1.376c0,.179-.118.3-.317.301l-2.513.016c-.052,1.137-.565,2.038-1.28,2.72l5.105-.031c.18,0,.3.138.301.318l.012,1.974c0,.18-.118.3-.298.301l-8.376.051c-.18,0-.3-.118-.301-.298l-.014-2.293c1.074-.505,2.026-1.368,2.019-2.625v-.1s-1.716.01-1.716.01c-.18.001-.3-.118-.301-.297l-.008-1.376c-.001-.18.117-.34.297-.341l.897-.005c-.403-.695-.787-1.511-.793-2.587-.014-2.374,1.869-4.22,4.562-4.236,2.114-.013,3.477,1.116,4.321,2.267.101.119.102.318-.057.459Z"/><rect class="uuid-6cc9c55c-1b5e-4a12-b5e6-ddda06378ee0" x="255.53" y="242.852" width="67.781" height="5.547" rx="1.304" ry="1.304" transform="translate(-1.305 1.545) rotate(-.305)"/><rect class="uuid-6cc9c55c-1b5e-4a12-b5e6-ddda06378ee0" x="255.585" y="253.139" width="30.002" height="5.547" rx="1.702" ry="1.702" transform="translate(-1.36 1.445) rotate(-.305)"/><path class="uuid-54f1b71b-cfa7-42dd-9657-9c228a272c0d" d="m316.357,218.584l24.862-.151c2.618-.016,4.754,2.094,4.77,4.712l.478,78.705c.016,2.618-2.094,4.754-4.712,4.77l-89.953.547c-2.618.016-4.754-2.094-4.77-4.712l-.478-78.705c-.016-2.618,2.094-4.754,4.712-4.77l15.852-.096"/><line class="uuid-54f1b71b-cfa7-42dd-9657-9c228a272c0d" x1="287.151" y1="218.761" x2="309.905" y2="218.623"/><path class="uuid-19c1367a-3ca1-46cd-b762-e6cfeebb7a37" d="m559.389,234.021s-54.756,26.381-94.219-2.665c0,0-6.299-.415-8.219,3.761-2.42,5.263.939,8.793.939,8.793,0,0,41.541,33.991,106.463,1.194"/><path class="uuid-19c1367a-3ca1-46cd-b762-e6cfeebb7a37" d="m498.931,244.549s-3.576,1.694-3.764,5.27"/><path class="uuid-19c1367a-3ca1-46cd-b762-e6cfeebb7a37" d="m507.763,245.213s-2.156,1.45-2.79,3.896"/><circle class="uuid-19c1367a-3ca1-46cd-b762-e6cfeebb7a37" cx="767.331" cy="228.291" r="13.363"/><ellipse class="uuid-6f186e5b-0705-4c53-844a-bba8c12f7fb5" cx="766.524" cy="367.904" rx="17.24" ry="12.416" transform="translate(172.389 976.11) rotate(-71.31)"/><path class="uuid-6f186e5b-0705-4c53-844a-bba8c12f7fb5" d="m769.402,352.129c.257,0,.516.03.771.09,1.583.372,3.589,1.05,5.057,1.546,2.811.95,4.951,3.402,6.027,6.903,1.114,3.625.953,7.909-.451,12.063-2.413,7.134-7.895,12.117-13.333,12.117-.897,0-1.775-.143-2.611-.426-1.703-.576-3.463-1.171-5.275-2.027-3.571-1.687-2.659-9.964-.299-16.939,2.243-6.634,6.241-13.328,10.116-13.328m0-1.059c-4.716,0-8.934,7.587-11.119,14.047-2.234,6.604-3.74,16.067.85,18.235,1.868.882,3.65,1.485,5.389,2.073.962.325,1.952.481,2.949.481,5.737,0,11.738-5.152,14.336-12.836,3.05-9.02.257-18.112-6.239-20.308-1.513-.511-3.521-1.191-5.154-1.574-.34-.08-.677-.118-1.013-.118h0Z"/><path class="uuid-adef2de3-b5ed-4d72-bc2e-0ffede363f1f" d="m769.929,359.755c.544.214,1.017.497,1.419.849.262.229.5.467.714.711.183.21.153.614-.065.892l-.63.801c-.204.26-.503.315-.674.119-.163-.188-.336-.367-.519-.539-.298-.278-.622-.487-.974-.626-.413-.162-.814-.134-1.202.084-.389.219-.731.705-1.028,1.46l-.68,1.728c-.13.331-.043.675.196.769l2.022.795c.238.094.326.438.196.769l-.279.71c-.13.331-.429.523-.667.429l-2.022-.795c-.238-.094-.537.098-.667.429l-.449,1.141c-.308.783-.617,1.413-.983,1.77-.269.262-.514.49-.852.583l4.766,1.875c.238.094.326.438.196.769l-.428,1.087c-.13.331-.429.523-.667.429l-6.824-2.685c-.238-.094-.326-.438-.196-.769l.45-1.144c.092-.235.271-.424.464-.465.391-.082.748-.238,1.071-.466.403-.285.772-.855,1.108-1.707l.457-1.162c.13-.331.043-.675-.196-.769l-.496-.195c-.238-.094-.326-.438-.196-.769l.279-.71c.13-.331.429-.523.667-.429l.496.195c.238.094.537-.098.667-.429l.713-1.812c.38-.965.829-1.7,1.348-2.206.519-.506,1.075-.812,1.669-.917.594-.106,1.193-.039,1.797.198Z"/><path class="uuid-2bb3601c-0b3e-4325-8e02-7ba1b48fdad8" d="m756.56,364.535c-2.584,7.641-.218,15.344,5.286,17.205,5.503,1.861,12.06-2.825,14.644-10.467,2.584-7.641.218-15.344-5.286-17.205-5.503-1.861-12.06,2.826-14.644,10.467Z"/><ellipse class="uuid-4807e0d1-b91a-40ae-9fe6-badaa5084e47" cx="340.853" cy="363.947" rx="13.755" ry="19.097" transform="translate(-146.206 257.121) rotate(-34.506)"/><path class="uuid-4807e0d1-b91a-40ae-9fe6-badaa5084e47" d="m334.26,347.778c2.652,0,7.797,2.979,13.568,11.375,4.668,6.791,8.072,15.458,4.514,18.44-1.381,1.157-3.316,2.487-4.729,3.458-1.565,1.076-3.407,1.621-5.476,1.621-5.272,0-11.178-3.636-15.047-9.264-2.751-4.003-4.216-8.52-4.124-12.72.089-4.057,1.63-7.317,4.338-9.178,1.641-1.128,3.338-2.294,5.3-3.333.506-.268,1.047-.398,1.654-.398m0-1.173c-.772,0-1.51.168-2.203.534-2.022,1.071-3.74,2.251-5.416,3.403-6.26,4.303-6.491,14.838-.517,23.529,4.253,6.187,10.505,9.773,16.013,9.773,2.229,0,4.336-.587,6.14-1.827,1.458-1.002,3.393-2.333,4.818-3.526,4.464-3.741.282-13.336-4.301-20.003-3.766-5.478-9.767-11.883-14.535-11.883h0Z"/><path class="uuid-adef2de3-b5ed-4d72-bc2e-0ffede363f1f" d="m335.564,355.316c.533-.367,1.086-.626,1.659-.777.373-.098.738-.17,1.096-.215.306-.038.659.24.779.612l.345,1.075c.112.348-.022.657-.309.692-.274.033-.545.081-.816.143-.44.101-.833.269-1.178.507-.405.278-.628.664-.668,1.155-.04.492.195,1.108.704,1.849l1.166,1.695c.223.325.593.457.827.297l1.983-1.363c.234-.161.604-.028.827.297l.479.697c.223.325.214.718-.019.879l-1.983,1.363c-.234.161-.242.554-.019.879l.77,1.12c.528.768.915,1.442,1.016,2,.074.409.132.776.007,1.144l4.675-3.214c.234-.161.604-.028.827.297l.733,1.067c.223.325.214.718-.019.879l-6.695,4.602c-.234.161-.604.028-.827-.297l-.772-1.122c-.158-.231-.221-.512-.139-.714.167-.41.246-.834.236-1.272-.012-.547-.306-1.238-.881-2.075l-.784-1.14c-.223-.325-.593-.457-.827-.297l-.487.335c-.234.161-.604.028-.827-.297l-.479-.697c-.223-.325-.214-.718.019-.879l.487-.335c.234-.161.242-.554.019-.879l-1.222-1.778c-.651-.946-1.047-1.814-1.19-2.605-.143-.79-.079-1.491.192-2.101.271-.61.703-1.119,1.296-1.527Z"/><ellipse class="uuid-f3697c48-79b8-463d-b2b6-d7078f4e7a5d" cx="340.853" cy="363.947" rx="11.653" ry="16.179" transform="translate(-146.205 257.119) rotate(-34.506)"/><ellipse class="uuid-6f186e5b-0705-4c53-844a-bba8c12f7fb5" cx="76.483" cy="270.171" rx="18.214" ry="25.292" transform="translate(-60.4 25.008) rotate(-13.37)"/><path class="uuid-6f186e5b-0705-4c53-844a-bba8c12f7fb5" d="m74.358,246.718c5.548,0,10.643,10.815,13.03,20.864,2.522,10.619,2.586,22.95-3.232,24.932-2.257.769-5.28,1.486-7.492,2.012-.892.212-1.811.319-2.732.319-8.162,0-16.315-8.413-18.964-19.568-1.486-6.259-1.137-12.538.983-17.681,2.048-4.968,5.507-8.257,9.742-9.262,2.565-.609,5.218-1.239,8.138-1.584.176-.021.353-.031.528-.031m0-1.553c-.235,0-.471.014-.71.042-3.009.356-5.694.993-8.315,1.615-9.787,2.323-15.105,15.223-11.877,28.814,2.89,12.167,11.649,20.763,20.475,20.763,1.033,0,2.066-.118,3.091-.361,2.28-.541,5.306-1.259,7.634-2.053,7.301-2.487,6.719-16.336,4.243-26.761-2.287-9.63-7.505-22.059-14.541-22.059h0Z"/><path class="uuid-adef2de3-b5ed-4d72-bc2e-0ffede363f1f" d="m74.073,256.982c.834-.198,1.641-.253,2.42-.167.508.057.993.143,1.456.258.396.099.7.611.669,1.128l-.087,1.492c-.028.484-.341.801-.712.707-.354-.089-.712-.161-1.076-.214-.592-.086-1.157-.065-1.698.063-.633.15-1.092.52-1.376,1.108-.284.589-.289,1.462-.014,2.62l.63,2.651c.121.508.515.849.88.762l3.101-.736c.365-.087.759.254.88.762l.259,1.089c.121.508-.078.989-.444,1.076l-3.101.736c-.365.087-.564.568-.444,1.076l.416,1.751c.285,1.201.442,2.219.3,2.956-.104.541-.208,1.021-.538,1.416l7.31-1.735c.365-.087.759.254.88.762l.396,1.668c.121.508-.078.989-.444,1.076l-10.467,2.484c-.365.087-.759-.254-.88-.762l-.417-1.755c-.086-.361-.029-.738.169-.948.402-.427.702-.913.899-1.459.246-.681.213-1.676-.097-2.984l-.423-1.783c-.121-.508-.515-.849-.88-.762l-.761.181c-.365.087-.759-.254-.88-.762l-.259-1.089c-.121-.508.078-.989.444-1.076l.761-.181c.365-.087.564-.568.444-1.076l-.66-2.78c-.351-1.48-.427-2.741-.226-3.786.201-1.044.614-1.879,1.241-2.503.626-.624,1.403-1.047,2.33-1.266Z"/><ellipse class="uuid-be8f12c6-1384-4673-87b4-69cc99550548" cx="76.483" cy="270.171" rx="15.43" ry="21.427" transform="translate(-60.399 25.007) rotate(-13.37)"/><ellipse class="uuid-4807e0d1-b91a-40ae-9fe6-badaa5084e47" cx="1061.613" cy="254.938" rx="13.575" ry="18.849" transform="translate(-4.467 19.377) rotate(-1.044)"/><path class="uuid-4807e0d1-b91a-40ae-9fe6-badaa5084e47" d="m1065.515,237.173c6.759,0,12.401,7.833,12.577,17.462.179,9.754-5.246,17.791-12.094,17.917-.76.014-1.526.028-2.307.028-1.469,0-2.698-.053-3.868-.167-4.298-.418-6.414-9.272-6.562-17.322-.149-8.132,1.764-17.122,6.317-17.642,1.77-.202,4.085-.244,5.776-.275h.162m0-1.159c-.061,0-.122,0-.184.002-1.746.032-4.064.075-5.885.283-5.711.652-7.489,10.829-7.343,18.813.14,7.621,2.083,17.915,7.607,18.452,1.389.135,2.704.172,3.98.172.79,0,1.564-.014,2.331-.028,7.496-.138,13.419-8.687,13.228-19.096-.189-10.323-6.32-18.598-13.734-18.598h0Z"/><path class="uuid-adef2de3-b5ed-4d72-bc2e-0ffede363f1f" d="m1062.109,245.296c.638.019,1.23.136,1.773.35.354.139.687.296.998.468.266.148.385.576.262.942l-.353,1.057c-.114.343-.401.51-.65.371-.237-.133-.481-.254-.733-.363-.409-.176-.82-.271-1.234-.284-.485-.015-.887.162-1.206.53-.319.369-.492.996-.519,1.882l-.062,2.03c-.012.389.205.71.485.719l2.374.072c.28.009.497.33.485.719l-.025.834c-.012.389-.248.697-.528.688l-2.374-.072c-.28-.009-.516.3-.528.688l-.041,1.34c-.028.92-.113,1.682-.358,2.185-.18.369-.348.694-.662.915l5.597.17c.28.009.497.33.485.719l-.039,1.277c-.012.389-.248.697-.528.688l-8.014-.244c-.28-.009-.497-.33-.485-.719l.041-1.344c.008-.276.123-.537.306-.649.372-.229.682-.521.93-.875.309-.442.479-1.164.51-2.166l.042-1.365c.012-.389-.205-.71-.485-.719l-.583-.018c-.28-.009-.497-.33-.485-.719l.025-.834c.012-.389.248-.697.528-.688l.583.018c.28.009.516-.3.528-.688l.065-2.128c.035-1.133.226-2.055.573-2.768.347-.712.807-1.233,1.379-1.56.572-.328,1.213-.481,1.922-.459Z"/><path class="uuid-125a7c44-57c1-43a5-925f-39128060ccf9" d="m1050.115,255.15c.161,8.818,5.441,15.871,11.791,15.754,6.351-.117,11.368-7.36,11.206-16.178-.161-8.818-5.441-15.871-11.791-15.754-6.351.117-11.368,7.36-11.206,16.178Z"/><rect class="uuid-86103d50-da98-477e-b5fd-d84b06f0a1f4" x="761.988" y="13.354" width="23.475" height="20.82" rx="1.119" ry="1.119"/><path class="uuid-3705d039-b02b-4aa2-b945-b69211b6134a" d="m783.934,13.346l-20.433.015c-.84,0-1.521.682-1.52,1.522l.002,2.318,23.475-.018-.002-2.318c0-.84-.682-1.521-1.522-1.52Z"/><circle class="uuid-50b67aa7-a9d4-4aef-88ee-5ad21ac8a372" cx="764.334" cy="15.25" r=".668"/><circle class="uuid-50b67aa7-a9d4-4aef-88ee-5ad21ac8a372" cx="766.381" cy="15.249" r=".668"/><path class="uuid-3705d039-b02b-4aa2-b945-b69211b6134a" d="m767.165,28.529l-.329.321c-.038.038-.071.042-.108,0-.119-.161-.265-.312-.51-.312-.26,0-.438.166-.438.42,0,.212.127.349.227.533h.712c.048,0,.076.032.076.075v.326c0,.042-.028.07-.076.07h-.594c-.014.27-.136.481-.306.642h1.207c.042,0,.07.032.07.074v.467c0,.042-.027.071-.07.071h-1.98c-.042.001-.07-.027-.07-.069v-.542c.254-.118.48-.321.48-.618v-.024h-.406c-.042,0-.07-.028-.07-.07v-.326c0-.042.028-.08.07-.08h.213c-.096-.165-.185-.358-.185-.613,0-.561.446-.995,1.083-.996.5,0,.821.268,1.02.542.023.028.023.075-.015.108Z"/><path class="uuid-3705d039-b02b-4aa2-b945-b69211b6134a" d="m769.778,28.527l-.33.321c-.037.038-.07.042-.108,0-.118-.161-.265-.312-.51-.312-.259,0-.438.166-.438.42,0,.212.127.349.227.533h.712c.047,0,.075.032.075.075v.326c0,.042-.028.07-.075.07h-.594c-.014.27-.137.481-.307.642h1.207c.043,0,.071.032.071.074v.467c0,.042-.028.071-.07.071h-1.98c-.042.001-.07-.027-.07-.069v-.542c.254-.118.479-.321.479-.618v-.024h-.405c-.043,0-.071-.028-.071-.07v-.326c0-.042.028-.08.071-.08h.212c-.095-.165-.185-.358-.185-.613,0-.561.447-.995,1.084-.996.499,0,.82.268,1.019.542.023.028.023.075-.014.108Z"/><path class="uuid-3705d039-b02b-4aa2-b945-b69211b6134a" d="m772.39,28.525l-.33.321c-.037.038-.07.042-.108,0-.118-.161-.265-.312-.51-.312-.259,0-.438.166-.438.42,0,.212.127.349.227.533h.712c.047,0,.075.032.075.075v.326c0,.042-.028.07-.075.07h-.594c-.014.27-.137.481-.307.642h1.207c.043,0,.071.032.071.074v.467c0,.042-.028.071-.07.071h-1.98c-.042.001-.07-.027-.07-.069v-.542c.254-.118.479-.321.479-.618v-.024h-.405c-.043,0-.071-.028-.071-.07v-.326c0-.042.028-.08.071-.08h.212c-.095-.165-.185-.358-.185-.613,0-.561.447-.995,1.084-.996.499,0,.82.268,1.019.542.023.028.023.075-.014.108Z"/><rect class="uuid-3705d039-b02b-4aa2-b945-b69211b6134a" x="764.072" y="19.046" width="16.002" height="1.31" rx=".308" ry=".308"/><rect class="uuid-3705d039-b02b-4aa2-b945-b69211b6134a" x="764.072" y="21.451" width="7.083" height="1.31" rx=".402" ry=".402"/><path class="uuid-5b41781e-05a1-41de-adef-9d9ed52a36c3" d="m761.984,18.354l-.003-3.872c0-.618.5-1.12,1.118-1.12l21.237-.016c.618,0,1.12.5,1.12,1.118l.014,18.581c0,.618-.5,1.12-1.118,1.12l-21.237.016c-.618,0-1.12-.5-1.12-1.118l-.009-11.742"/><rect class="uuid-86103d50-da98-477e-b5fd-d84b06f0a1f4" x="557.495" y="214.88" width="115.587" height="102.513" rx="5.511" ry="5.511" transform="translate(34.074 -67.927) rotate(6.499)"/><path class="uuid-3705d039-b02b-4aa2-b945-b69211b6134a" d="m671.07,220.903l-99.961-11.387c-4.11-.468-7.822,2.484-8.29,6.594l-1.292,11.342,114.845,13.082,1.292-11.342c.468-4.11-2.484-7.822-6.594-8.29Z"/><circle class="uuid-50b67aa7-a9d4-4aef-88ee-5ad21ac8a372" cx="574.126" cy="219.223" r="3.29"/><circle class="uuid-50b67aa7-a9d4-4aef-88ee-5ad21ac8a372" cx="584.142" cy="220.364" r="3.29"/><path class="uuid-3705d039-b02b-4aa2-b945-b69211b6134a" d="m568.283,288.918c.468-4.113,3.096-7.665,6.894-9.316,3.797-1.65,8.187-1.15,11.516,1.312,3.328,2.462,5.09,6.514,4.621,10.628-.468,4.114-3.096,7.666-6.893,9.316-3.797,1.651-8.187,1.151-11.516-1.312s-5.09-6.515-4.622-10.629Zm1.374,1.378c.006,1.35.282,2.647.78,3.839.037-.005.078-.004.119-.004l4.002.187c.277.013.562-.05.749-.252l.203-.218c.343-.376.375-.933.271-1.428l-.535-2.626c-.103-.499-.346-1.001-.81-1.209l-.273-.122c-.251-.115-.54-.062-.787.061l-3.609,1.73c-.034.02-.072.033-.11.042Zm2.368-6.579c-1.145,1.364-1.947,3.046-2.242,4.921l2.965-1.425c.058-.025.104-.074.129-.132v-.004s0-.005,0-.005c.025-.057.032-.124.012-.186l-.869-3.17h.005Zm-.822,11.896c.964,1.541,2.336,2.813,3.986,3.652l-.439-3.263c-.006-.064-.041-.122-.086-.164s-.111-.067-.174-.075l-3.286-.155v.005Zm5.396-15.005c-1.26.416-2.415,1.077-3.41,1.931.014.033.028.071.037.108l1.064,3.857c.075.264.224.518.47.633l.274.122c.463.213.999.068,1.442-.182l2.333-1.32c.443-.25.842-.638.899-1.141l.034-.297c.031-.275-.107-.532-.299-.731l-2.769-2.896c-.029-.029-.053-.061-.076-.09v.005Zm4.022,19.732c.008-.036.018-.076.031-.116l1.416-3.748c.098-.257.126-.55-.011-.789l-.148-.258c-.25-.443-.77-.644-1.278-.702l-2.658-.303c-.509-.058-1.056.021-1.404.396l-.202.218c-.187.203-.225.494-.188.767l.536,3.971c.004.042.009.079.005.12.616.192,1.26.334,1.926.41.666.076,1.325.087,1.969.033h.005Zm-1.098-13.321l-2.333,1.319c-.409.231-.622.699-.529,1.161l.535,2.627c.093.461.473.81.94.863l2.662.303c.469.054.917-.2,1.111-.629l1.111-2.439c.195-.429.093-.933-.253-1.25l-1.977-1.811c-.347-.317-.859-.376-1.269-.145Zm4.068-6.194c-.827-.335-1.717-.564-2.644-.67s-1.845-.082-2.727.059l2.271,2.377c.045.047.106.076.168.084.063.007.129-.009.183-.044l2.748-1.806Zm4.375,3.393c-.777-1.055-1.754-1.959-2.888-2.648-.031.023-.061.053-.095.07l-3.349,2.198c-.231.151-.425.371-.457.646l-.034.297c-.057.504.245.971.621,1.314l1.977,1.811c.375.344.865.604,1.364.502l.293-.058c.271-.056.473-.27.601-.511l1.9-3.524c.018-.034.04-.067.062-.098h.004Zm-5.706,15.854c1.796-.447,3.419-1.378,4.705-2.663l-3.236-.588c-.062-.011-.127,0-.187.034-.058.034-.101.084-.121.141l-1.162,3.081v-.005Zm5.783-3.93c.753-1.049,1.314-2.252,1.623-3.565-.035-.018-.063-.039-.097-.065l-3.128-2.503c-.213-.17-.482-.287-.752-.235l-.294.058c-.499.103-.849.532-1.061.995l-1.107,2.439c-.212.464-.306,1.009-.056,1.452l.148.258c.137.238.401.365.673.413l3.942.719c.04.01.076.018.115.031l-.005.004Zm1.874-5.209c.134-1.895-.266-3.707-1.077-5.299l-1.561,2.898c-.029.055-.041.117-.03.183v.005s0,.004,0,.004c.016.062.046.115.096.157l2.568,2.056.005-.004Z"/><rect class="uuid-3705d039-b02b-4aa2-b945-b69211b6134a" x="570.091" y="242.109" width="78.79" height="6.448" rx="1.516" ry="1.516" transform="translate(31.917 -67.836) rotate(6.541)"/><rect class="uuid-3705d039-b02b-4aa2-b945-b69211b6134a" x="568.885" y="251.371" width="34.875" height="6.448" rx="1.978" ry="1.978" transform="translate(32.821 -65.137) rotate(6.541)"/><rect class="uuid-5c17425a-3df7-41da-983e-086d37220b9b" x="557.495" y="214.88" width="115.587" height="102.513" rx="5.511" ry="5.511" transform="translate(34.074 -67.927) rotate(6.499)"/><rect class="uuid-c8dbfa07-6fcc-4ce2-ae39-e66eee291d4a" x="557.495" y="214.88" width="115.587" height="102.513" rx="5.511" ry="5.511" transform="translate(34.074 -67.927) rotate(6.499)"/><path class="uuid-19c1367a-3ca1-46cd-b762-e6cfeebb7a37" d="m674.352,264.335s60.7,3.106,85.827-38.961c0,0,5.647-2.823,9.034.282,4.27,3.914,2.541,8.47,2.541,8.47,0,0-25.127,47.431-97.685,42.349"/><path class="uuid-7c961dff-f7d3-45ac-96f0-113a77c0fe12" d="m742.873,244.816s6.628-1.85,9.285,2.473"/><path class="uuid-7c961dff-f7d3-45ac-96f0-113a77c0fe12" d="m738.49,247.709s6.703-1.557,9.167,2.878"/><path class="uuid-f067fff0-e3e2-48f7-b975-1095630bc0ee" d="m714.583,258.829s3.948.297,6.055,3.093"/><path class="uuid-f067fff0-e3e2-48f7-b975-1095630bc0ee" d="m725.877,254.717s2.625.082,4.802,1.572"/><path class="uuid-f067fff0-e3e2-48f7-b975-1095630bc0ee" d="m716.256,269.86c-.543,1.768-1.326,2.505-2.614,3.744"/><path class="uuid-f067fff0-e3e2-48f7-b975-1095630bc0ee" d="m709.192,260.343s3.335.431,5.552,2.416"/><path class="uuid-321d5488-1664-4acf-b2b7-8725cc5a8d80" d="m678.872,269.109c.151-1.861-1.747-3.248-3.445-2.47-1.858.851-4.515,1.554-8.227,1.554h-6.935c-1.368,0-2.476,1.109-2.476,2.476v7.916c0,1.203.856,2.232,2.041,2.439,4.135.722,13.455,1.788,17.534-2.291.653-.653,1.18-5.581,1.508-9.624Z"/><path class="uuid-b2644dce-5796-4550-9d56-deb0739db419" d="m679.998,263.874l-1.362,5.235-4.164-2.606.236-7.345s3.413,1.985,5.29,4.716Z"/><path class="uuid-cc93d3de-56ac-4eff-9b30-1b8e7d6b77f0" d="m612.752,213.813s2.517-5.978,9.125-7.237c6.608-1.259,12.481,2.622,15.208,9.544l-9.439-.839s-3.356,2.727-3.986,3.776-12.173.011-12.361-1.118c-.311-1.866,1.453-4.126,1.453-4.126Z"/><ellipse class="uuid-a081f901-b602-483f-84f8-4f0a4be5794e" cx="730.908" cy="164.91" rx="17.178" ry="10.438" transform="translate(509.351 880.686) rotate(-85.515)"/><ellipse class="uuid-c744c200-2d34-4faf-8d3e-3fac173ec1f2" cx="732.885" cy="165.065" rx="7.667" ry="4.659" transform="translate(511.019 882.8) rotate(-85.515)"/><path class="uuid-26004008-a9d8-4a74-9e15-3eb32fa56342" d="m774.115,124.696s-.069.885-2.315.709-2.176-1.061-2.176-1.061l3.713-47.339,4.492.352-3.713,47.339Z"/><circle class="uuid-be3a884a-c449-42f6-89c7-049de618bd2b" cx="775.69" cy="77.651" r="7.476"/><line class="uuid-d9a7f6cb-02d4-469e-bb93-4eb3d8aab474" x1="793.166" y1="175.381" x2="792.305" y2="186.358"/><line class="uuid-d9a7f6cb-02d4-469e-bb93-4eb3d8aab474" x1="797.921" y1="175.381" x2="797.06" y2="186.358"/><line class="uuid-d9a7f6cb-02d4-469e-bb93-4eb3d8aab474" x1="802.675" y1="175.155" x2="801.814" y2="186.132"/><line class="uuid-d9a7f6cb-02d4-469e-bb93-4eb3d8aab474" x1="820.642" y1="175.077" x2="819.781" y2="186.054"/><path class="uuid-d9a7f6cb-02d4-469e-bb93-4eb3d8aab474" d="m411.691,274.77c-1.245-15.871,10.612-29.745,26.482-30.99s29.745,10.611,30.99,26.482c.959,12.221-5.868,23.233-16.298,28.231,0,0-2.944,1.482-5.215,2.596-2.363,1.16-6.62,2.549-6.62,2.549l1.124-2.372c-15.648.943-29.232-10.804-30.463-26.497Z"/><circle class="uuid-d9a7f6cb-02d4-469e-bb93-4eb3d8aab474" cx="433.069" cy="275.974" r="28.824"/><circle class="uuid-19c1367a-3ca1-46cd-b762-e6cfeebb7a37" cx="433.069" cy="275.974" r="17.088"/><path class="uuid-814525a1-1128-490e-a6b5-383a25a9b26b" d="m381.555,252.882l-2.63-33.527,104.141-8.168,4.261,54.322c.488,6.218-22.43,13.087-51.187,15.342-28.758,2.256-52.466-.956-52.953-7.174l-.94-11.984"/><ellipse class="uuid-19c1367a-3ca1-46cd-b762-e6cfeebb7a37" cx="431.062" cy="216.115" rx="52.23" ry="11.293" transform="translate(-15.579 34.368) rotate(-4.485)"/><ellipse class="uuid-99586d1f-d540-45e0-8d62-a88cf39dec88" cx="431.062" cy="216.115" rx="52.23" ry="11.293" transform="translate(-15.579 34.368) rotate(-4.485)"/><circle class="uuid-19c1367a-3ca1-46cd-b762-e6cfeebb7a37" cx="431.171" cy="246.227" r="13.363"/><path class="uuid-50b67aa7-a9d4-4aef-88ee-5ad21ac8a372" d="m425.008,138.929c28.758-2.256,53.803,18.001,55.939,45.244l1.545,19.703c.488,6.218-22.43,13.087-51.187,15.342-28.758,2.256-52.466-.956-52.953-7.174l-1.545-19.703c-.611-7.789.717-15.306,3.597-22.122,1.979-4.684,4.691-9.038,8.011-12.921,3.616-4.23,7.953-7.903,12.849-10.839,2.276-1.365,4.672-2.57,7.173-3.598,5.131-2.109,10.702-3.472,16.571-3.932Z"/><line class="uuid-d9a7f6cb-02d4-469e-bb93-4eb3d8aab474" x1="403.949" y1="192.837" x2="404.81" y2="203.814"/><line class="uuid-d9a7f6cb-02d4-469e-bb93-4eb3d8aab474" x1="398.887" y1="192.887" x2="399.748" y2="203.864"/><line class="uuid-d9a7f6cb-02d4-469e-bb93-4eb3d8aab474" x1="393.793" y1="192.532" x2="394.654" y2="203.509"/><path class="uuid-86910567-cb22-4b22-a225-9fb81e60ef5e" d="m780.426,122.925s30.79,14.037,27.167,54.335l-2.264,23.772s10.343-.207,13.435-6.442l1.96-23.668s-2.717-24.451-15.395-35.091-24.904-12.905-24.904-12.905Z"/><path class="uuid-86910567-cb22-4b22-a225-9fb81e60ef5e" d="m805.556,209.408l-4.302,52.977s9.735-.453,10.867-5.433,6.003-54.207,6.003-54.207c0,0,1.694,3.268-12.569,6.664Z"/><path class="uuid-0922152e-27d0-4f29-a2e4-2aeab66baeda" d="m432.152,139.843s32.795,8.339,36.395,48.639l1.998,23.795s10.141-2.042,12.075-8.728l-2.279-23.64s-7.02-23.578-21.388-31.795-26.801-8.271-26.801-8.271Z"/><path class="uuid-b87d0b16-7a33-4527-b133-7e6d0bd1fce5" d="m472.257,220.481l5.185,52.897s9.499-2.176,9.728-7.279-3.73-54.411-3.73-54.411c0,0,2.248,2.915-11.184,8.793Z"/><rect class="uuid-84139123-f753-43e1-b7dd-b05baf776b29" x="507.095" y="233.999" width="115.587" height="102.513" rx="5.511" ry="5.511" transform="translate(-34.646 82.702) rotate(-8.125)"/><path class="uuid-6cc9c55c-1b5e-4a12-b5e6-ddda06378ee0" d="m607.443,227.403l-99.597,14.219c-4.095.585-6.941,4.378-6.356,8.474l1.613,11.301,114.427-16.336-1.613-11.301c-.585-4.095-4.378-6.941-8.474-6.356Z"/><circle class="uuid-50b67aa7-a9d4-4aef-88ee-5ad21ac8a372" cx="513.215" cy="250.253" r="3.29"/><circle class="uuid-50b67aa7-a9d4-4aef-88ee-5ad21ac8a372" cx="523.194" cy="248.828" r="3.29"/><path class="uuid-6cc9c55c-1b5e-4a12-b5e6-ddda06378ee0" d="m536.777,312.09l-1.473,1.904c-.167.223-.334.272-.561.08-.729-.743-1.598-1.416-2.867-1.234-1.343.191-2.148,1.179-1.96,2.496.157,1.099.917,1.713,1.565,2.591l3.687-.526c.244-.035.415.115.446.335l.24,1.685c.031.22-.094.387-.338.422l-3.076.439c.126,1.402-.353,2.591-1.113,3.546l6.25-.892c.22-.031.391.118.422.338l.345,2.417c.031.22-.094.387-.313.418l-10.253,1.464c-.22.031-.387-.094-.418-.314l-.401-2.807c1.231-.798,2.253-2.016,2.034-3.553l-.018-.122-2.1.3c-.22.031-.387-.094-.418-.314l-.24-1.685c-.032-.22.086-.436.306-.467l1.099-.157c-.61-.784-1.217-1.719-1.405-3.037-.414-2.905,1.584-5.482,4.879-5.953,2.588-.369,4.446.785,5.674,2.055.144.129.178.373.008.572Z"/><path class="uuid-6cc9c55c-1b5e-4a12-b5e6-ddda06378ee0" d="m550.328,310.156l-1.471,1.903c-.168.223-.336.272-.562.081-.729-.743-1.597-1.416-2.866-1.235-1.343.192-2.148,1.179-1.96,2.497.157,1.099.917,1.712,1.565,2.591l3.686-.526c.244-.035.415.115.447.334l.24,1.685c.031.22-.095.387-.339.422l-3.075.439c.125,1.402-.353,2.591-1.112,3.546l6.249-.892c.22-.031.391.118.422.338l.345,2.417c.031.22-.094.387-.313.418l-10.253,1.463c-.22.032-.387-.094-.419-.313l-.4-2.808c1.23-.798,2.253-2.016,2.033-3.553l-.018-.122-2.099.3c-.22.031-.388-.095-.419-.314l-.24-1.685c-.032-.22.087-.436.307-.467l1.099-.157c-.61-.784-1.217-1.719-1.405-3.037-.414-2.905,1.584-5.481,4.879-5.952,2.588-.369,4.446.785,5.674,2.055.143.129.178.373.007.572Z"/><path class="uuid-6cc9c55c-1b5e-4a12-b5e6-ddda06378ee0" d="m563.879,308.221l-1.472,1.904c-.168.223-.335.272-.562.08-.729-.742-1.598-1.416-2.866-1.234-1.343.192-2.148,1.179-1.96,2.497.156,1.099.917,1.712,1.564,2.591l3.687-.526c.244-.035.415.115.446.335l.241,1.685c.031.22-.095.387-.339.422l-3.075.439c.125,1.402-.354,2.591-1.113,3.546l6.249-.892c.22-.032.391.118.422.338l.346,2.417c.031.22-.095.387-.314.418l-10.252,1.464c-.22.031-.388-.094-.419-.314l-.4-2.807c1.23-.798,2.253-2.016,2.033-3.553l-.018-.122-2.1.3c-.22.031-.387-.094-.418-.314l-.24-1.685c-.031-.22.087-.436.307-.467l1.099-.157c-.61-.784-1.217-1.719-1.405-3.037-.415-2.905,1.584-5.482,4.879-5.952,2.588-.37,4.446.785,5.674,2.055.144.128.178.373.007.571Z"/><rect class="uuid-6cc9c55c-1b5e-4a12-b5e6-ddda06378ee0" x="514.627" y="263.366" width="78.79" height="6.448" rx="1.516" ry="1.516" transform="translate(-31.978 80.54) rotate(-8.082)"/><rect class="uuid-6cc9c55c-1b5e-4a12-b5e6-ddda06378ee0" x="516.51" y="278.176" width="34.875" height="6.448" rx="1.978" ry="1.978" transform="translate(-34.26 77.865) rotate(-8.082)"/><path class="uuid-715c7064-e39f-4e76-be9a-8dce08577ca0" d="m510.223,311.27l-9.013-63.132c-.43-3.013,1.664-5.805,4.677-6.235l31.413-4.485"/><path class="uuid-715c7064-e39f-4e76-be9a-8dce08577ca0" d="m548.758,235.782l60.644-8.658c3.013-.43,5.805,1.664,6.235,4.677l12.931,90.571c.43,3.013-1.664,5.805-4.677,6.235l-103.515,14.779c-3.013.43-5.805-1.664-6.235-4.677l-1.942-13.604"/><path class="uuid-cc93d3de-56ac-4eff-9b30-1b8e7d6b77f0" d="m584.364,231.268s-2.517-5.978-9.125-7.237c-6.608-1.259-12.481,2.622-15.208,9.544l9.439-.839s3.356,2.727,3.986,3.776,12.173.011,12.361-1.118c.311-1.866-1.453-4.126-1.453-4.126Z"/><path class="uuid-19c1367a-3ca1-46cd-b762-e6cfeebb7a37" d="m425.349,275.019c6.194,16.188,25.695,31.044,77.628,20.645l4.528-6.905-6.226-4.641s-76.216,18.67-64.58-35.991c.178-.834-.282-5.779-6.395-6.232-4.854-.359-6.339,4.415-6.339,4.415,0,0-3.072,11.478-.142,23.751"/><path class="uuid-321d5488-1664-4acf-b2b7-8725cc5a8d80" d="m501.944,286.564c-.151-1.861,1.747-3.248,3.445-2.47,1.858.851,4.515,1.554,8.227,1.554h6.935c1.368,0,2.476,1.109,2.476,2.476v7.916c0,1.203-.856,2.232-2.041,2.439-4.135.722-13.455,1.788-17.534-2.291-.653-.653-1.18-5.581-1.508-9.624Z"/><path class="uuid-321d5488-1664-4acf-b2b7-8725cc5a8d80" d="m500.817,281.602l1.127,4.963,3.445-2.47-.195-6.963s-2.823,1.882-4.376,4.47Z"/><path class="uuid-5e802a10-4baf-454f-8d67-e8afc32099ee" d="m435.512,261.366s-1.358-2.717-5.66-2.717"/><path class="uuid-5e802a10-4baf-454f-8d67-e8afc32099ee" d="m436.104,265.128s-2.006-2.281-6.165-1.185"/><path class="uuid-5e802a10-4baf-454f-8d67-e8afc32099ee" d="m455.043,285.168s-2.746,1.299-2.839,5.599"/><path class="uuid-5e802a10-4baf-454f-8d67-e8afc32099ee" d="m459.275,286.467s-1.659,1.095-2.021,3.773"/><ellipse class="uuid-5e802a10-4baf-454f-8d67-e8afc32099ee" cx="466.208" cy="182.365" rx="10.438" ry="17.178" transform="translate(-12.832 37.013) rotate(-4.485)"/><ellipse class="uuid-c744c200-2d34-4faf-8d3e-3fac173ec1f2" cx="464.23" cy="182.521" rx="4.659" ry="7.667" transform="translate(-12.85 36.858) rotate(-4.485)"/><ellipse class="uuid-59afda23-9e66-44a2-862e-dd81fdd6a57e" cx="466.208" cy="182.365" rx="10.438" ry="17.178" transform="translate(-12.832 37.013) rotate(-4.485)"/><rect class="uuid-86103d50-da98-477e-b5fd-d84b06f0a1f4" x="799.885" y="234.322" width="122.996" height="109.083" rx="5.865" ry="5.865" transform="translate(.645 -1.916) rotate(.127)"/><path class="uuid-3705d039-b02b-4aa2-b945-b69211b6134a" d="m915.032,234.441l-107.055-.238c-4.402-.01-7.978,3.551-7.988,7.952l-.027,12.147,122.996.274.027-12.147c.01-4.402-3.551-7.978-7.952-7.988Z"/><circle class="uuid-50b67aa7-a9d4-4aef-88ee-5ad21ac8a372" cx="812.313" cy="244.112" r="3.5"/><circle class="uuid-50b67aa7-a9d4-4aef-88ee-5ad21ac8a372" cx="823.039" cy="244.135" r="3.5"/><path class="uuid-3705d039-b02b-4aa2-b945-b69211b6134a" d="m824.086,313.863l-1.73,1.673c-.198.197-.37.221-.566-.001-.615-.84-1.377-1.63-2.66-1.633-1.355-.003-2.295.858-2.298,2.189-.003,1.11.661,1.827,1.177,2.789l3.724.008c.247,0,.395.173.394.396l-.003,1.702c0,.222-.148.369-.396.369l-3.106-.007c-.078,1.405-.722,2.513-1.611,3.35l6.312.014c.223,0,.37.173.369.396l-.005,2.441c0,.222-.148.37-.371.369l-10.356-.023c-.222,0-.37-.149-.369-.371l.006-2.835c1.333-.614,2.52-1.671,2.522-3.224v-.124s-2.12-.005-2.12-.005c-.222,0-.369-.149-.368-.371l.003-1.702c0-.222.148-.419.37-.418l1.11.002c-.491-.864-.957-1.876-.954-3.207.006-2.935,2.354-5.198,5.684-5.19,2.613.006,4.286,1.415,5.319,2.848.123.147.122.395-.075.567Z"/><path class="uuid-3705d039-b02b-4aa2-b945-b69211b6134a" d="m837.775,313.894l-1.73,1.673c-.198.197-.371.221-.567-.001-.614-.839-1.377-1.63-2.658-1.633-1.356-.003-2.296.858-2.299,2.189-.003,1.11.661,1.827,1.177,2.789l3.724.008c.246,0,.395.173.394.396l-.003,1.702c0,.222-.149.369-.396.369l-3.107-.007c-.077,1.406-.721,2.514-1.61,3.35l6.312.014c.222,0,.37.173.369.395l-.005,2.441c0,.222-.149.37-.371.37l-10.356-.023c-.222,0-.369-.148-.368-.371l.006-2.835c1.332-.614,2.519-1.671,2.521-3.225v-.124s-2.119-.005-2.119-.005c-.223,0-.37-.148-.369-.37l.003-1.702c0-.222.148-.419.371-.419l1.109.003c-.491-.864-.957-1.876-.954-3.208.006-2.935,2.354-5.198,5.683-5.19,2.614.006,4.287,1.415,5.319,2.848.124.148.123.395-.074.567Z"/><path class="uuid-3705d039-b02b-4aa2-b945-b69211b6134a" d="m851.464,313.924l-1.73,1.673c-.198.197-.371.222-.567,0-.614-.84-1.377-1.63-2.658-1.633-1.356-.003-2.296.858-2.299,2.189-.003,1.11.661,1.827,1.177,2.79l3.724.008c.246,0,.395.173.394.395l-.003,1.702c0,.222-.149.37-.396.369l-3.107-.007c-.077,1.406-.721,2.514-1.61,3.35l6.312.014c.222,0,.37.173.369.396l-.005,2.441c0,.222-.149.37-.371.369l-10.356-.023c-.222,0-.369-.149-.368-.371l.006-2.835c1.332-.614,2.519-1.671,2.521-3.224v-.124s-2.119-.005-2.119-.005c-.223,0-.37-.149-.369-.371l.003-1.702c0-.222.148-.419.371-.418l1.109.002c-.491-.864-.957-1.876-.954-3.207.006-2.935,2.354-5.198,5.683-5.191,2.614.006,4.287,1.415,5.319,2.848.124.147.123.395-.074.566Z"/><rect class="uuid-3705d039-b02b-4aa2-b945-b69211b6134a" x="810.87" y="264.118" width="83.841" height="6.862" rx="1.614" ry="1.614" transform="translate(.799 -2.534) rotate(.17)"/><rect class="uuid-3705d039-b02b-4aa2-b945-b69211b6134a" x="810.832" y="276.648" width="37.111" height="6.862" rx="2.105" ry="2.105" transform="translate(.836 -2.464) rotate(.17)"/><path class="uuid-34a2d6aa-5374-4eb1-af86-59aeee111462" d="m799.865,297.704l.128-57.654c.007-3.239,2.639-5.859,5.878-5.852l36.513.059"/><path class="uuid-34a2d6aa-5374-4eb1-af86-59aeee111462" d="m857.175,234.312l59.963.133c3.239.007,5.859,2.639,5.852,5.878l-.217,97.354c-.007,3.239-2.639,5.859-5.878,5.852l-111.267-.248c-3.239-.007-5.859-2.639-5.852-5.878l.049-22.042"/><rect class="uuid-86103d50-da98-477e-b5fd-d84b06f0a1f4" x="845.024" y="69.081" width="56.521" height="50.128" rx="2.695" ry="2.695" transform="translate(.212 -1.943) rotate(.127)"/><path class="uuid-3705d039-b02b-4aa2-b945-b69211b6134a" d="m897.938,69.136l-49.196-.109c-2.023-.005-3.666,1.632-3.671,3.654l-.012,5.582,56.521.126.012-5.582c.005-2.023-1.632-3.666-3.654-3.671Z"/><circle class="uuid-50b67aa7-a9d4-4aef-88ee-5ad21ac8a372" cx="850.735" cy="73.58" r="1.609"/><circle class="uuid-50b67aa7-a9d4-4aef-88ee-5ad21ac8a372" cx="855.664" cy="73.591" r="1.609"/><path class="uuid-3705d039-b02b-4aa2-b945-b69211b6134a" d="m857.546,105.643l-.796.769c-.091.091-.17.102-.261,0-.282-.386-.633-.75-1.223-.751-.623,0-1.055.395-1.056,1.007,0,.51.304.839.541,1.282l1.712.004c.113,0,.182.08.181.182v.783c-.002.102-.07.169-.184.169l-1.429-.003c-.035.646-.33,1.156-.739,1.541l2.902.006c.102,0,.17.08.169.182l-.002,1.123c0,.102-.069.17-.171.169l-4.762-.01c-.103,0-.169-.068-.169-.17l.003-1.304c.611-.282,1.158-.769,1.159-1.483v-.057l-.976-.002c-.102,0-.17-.069-.169-.17v-.783c.002-.102.07-.192.172-.192h.511c-.226-.396-.44-.862-.439-1.474.003-1.349,1.083-2.39,2.613-2.386,1.202.002,1.971.651,2.446,1.309.057.068.056.182-.035.261Z"/><path class="uuid-3705d039-b02b-4aa2-b945-b69211b6134a" d="m863.837,105.657l-.796.77c-.091.09-.17.102-.261,0-.282-.386-.633-.75-1.223-.751-.623-.001-1.055.394-1.056,1.006,0,.51.304.84.541,1.283l1.712.004c.113,0,.182.079.181.181v.783c-.002.102-.07.17-.184.17l-1.429-.003c-.035.646-.33,1.156-.739,1.541l2.902.006c.102,0,.17.08.169.182l-.002,1.123c0,.102-.069.169-.171.169l-4.762-.011c-.103,0-.169-.068-.169-.17l.003-1.304c.611-.282,1.158-.768,1.159-1.482v-.057l-.976-.002c-.102,0-.17-.069-.169-.17v-.783c.002-.102.07-.192.172-.192h.511c-.226-.396-.44-.861-.439-1.474.003-1.349,1.083-2.39,2.613-2.387,1.202.003,1.971.651,2.446,1.31.057.068.056.182-.035.26Z"/><rect class="uuid-3705d039-b02b-4aa2-b945-b69211b6134a" x="850.072" y="82.773" width="38.528" height="3.153" rx=".741" ry=".741" transform="translate(.255 -2.584) rotate(.17)"/><rect class="uuid-3705d039-b02b-4aa2-b945-b69211b6134a" x="850.055" y="88.531" width="17.054" height="3.153" rx=".967" ry=".967" transform="translate(.272 -2.552) rotate(.17)"/><path class="uuid-5279c486-64bd-414d-a971-fa0bc90f6cab" d="m868.381,69.07l30.525.068c1.488.003,2.692,1.213,2.689,2.701l-.1,44.738c-.003,1.488-1.213,2.692-2.701,2.689l-51.131-.114c-1.488-.003-2.692-1.213-2.689-2.701l.1-44.738c.003-1.488,1.213-2.692,2.701-2.689l7.702.017"/><rect class="uuid-86103d50-da98-477e-b5fd-d84b06f0a1f4" x="1005.317" y="74.554" width="24.29" height="21.542" rx="1.158" ry="1.158" transform="translate(.192 -2.264) rotate(.127)"/><path class="uuid-3705d039-b02b-4aa2-b945-b69211b6134a" d="m1028.057,74.577l-21.142-.047c-.869-.002-1.576.701-1.578,1.571l-.005,2.399,24.29.054.005-2.399c.002-.869-.701-1.576-1.571-1.578Z"/><circle class="uuid-50b67aa7-a9d4-4aef-88ee-5ad21ac8a372" cx="1007.771" cy="76.487" r=".691"/><circle class="uuid-50b67aa7-a9d4-4aef-88ee-5ad21ac8a372" cx="1009.89" cy="76.492" r=".691"/><path class="uuid-3705d039-b02b-4aa2-b945-b69211b6134a" d="m1010.716,90.281l-.342.331c-.039.038-.073.043-.111,0-.121-.166-.272-.322-.525-.322-.268,0-.452.169-.453.432,0,.219.13.36.232.55h.735c.048.001.077.036.077.08v.336c0,.043-.03.073-.078.073h-.613c-.016.276-.143.495-.318.66l1.246.003c.043,0,.072.034.072.078v.481c0,.044-.03.073-.073.073l-2.045-.005c-.044,0-.073-.029-.073-.073v-.56c.265-.121.499-.33.5-.637v-.024h-.419c-.044,0-.073-.03-.073-.074v-.336c0-.044.03-.083.074-.083h.219c-.097-.169-.188-.37-.188-.632.002-.58.466-1.026,1.122-1.025.517.001.847.279,1.05.562.024.029.024.078-.015.112Z"/><rect class="uuid-3705d039-b02b-4aa2-b945-b69211b6134a" x="1007.486" y="80.438" width="16.557" height="1.355" rx=".319" ry=".319" transform="translate(.246 -3.019) rotate(.17)"/><rect class="uuid-3705d039-b02b-4aa2-b945-b69211b6134a" x="1007.479" y="82.912" width="7.329" height="1.355" rx=".416" ry=".416" transform="translate(.253 -3.005) rotate(.17)"/><path class="uuid-9c483044-4baf-40e8-a85e-a90dbb58bda5" d="m1028.473,74.578c.64.001,1.157.521,1.156,1.161l-.043,19.226c-.001.64-.521,1.157-1.161,1.156l-21.974-.049c-.64-.001-1.157-.521-1.156-1.161l.043-19.226c.001-.64.521-1.157,1.161-1.156"/><path class="uuid-a2e044d1-9e00-4a72-8d36-6d6a104d91c7" d="m1023.189,74.551l5.284.027c.64.001,1.157.521,1.156,1.161l-.043,19.226c-.001.64-.521,1.157-1.161,1.156l-21.974-.049c-.64-.001-1.157-.521-1.156-1.161l.043-19.226c.001-.64.521-1.157,1.161-1.156l7.397.016"/><rect class="uuid-86103d50-da98-477e-b5fd-d84b06f0a1f4" x="941.95" y="134.269" width="38.959" height="34.552" rx="1.858" ry="1.858" transform="translate(.34 -2.139) rotate(.127)"/><path class="uuid-3705d039-b02b-4aa2-b945-b69211b6134a" d="m978.422,134.307l-33.91-.075c-1.394-.003-2.527,1.125-2.53,2.519l-.009,3.848,38.959.087.009-3.848c.003-1.394-1.125-2.527-2.519-2.53Z"/><circle class="uuid-50b67aa7-a9d4-4aef-88ee-5ad21ac8a372" cx="945.886" cy="137.37" r="1.109"/><circle class="uuid-50b67aa7-a9d4-4aef-88ee-5ad21ac8a372" cx="949.284" cy="137.378" r="1.109"/><rect class="uuid-3705d039-b02b-4aa2-b945-b69211b6134a" x="945.429" y="143.707" width="26.556" height="2.173" rx=".511" ry=".511" transform="translate(.435 -2.849) rotate(.17)"/><rect class="uuid-3705d039-b02b-4aa2-b945-b69211b6134a" x="945.417" y="147.676" width="11.755" height="2.173" rx=".667" ry=".667" transform="translate(.446 -2.827) rotate(.17)"/><path class="uuid-94a8ff31-641d-4158-b06c-913e7439330a" d="m941.984,136.084c.002-1.026.836-1.856,1.862-1.853l35.244.078c1.026.002,1.856.836,1.853,1.862l-.069,30.837c-.002,1.026-.836,1.856-1.862,1.853l-35.244-.078c-1.026-.002-1.856-.836-1.853-1.862"/><path class="uuid-96722409-8ab8-493e-a6ca-52104b782436" d="m941.971,142.037l.013-5.953c.002-1.026.836-1.856,1.862-1.853l35.244.078c1.026.002,1.856.836,1.853,1.862l-.069,30.837c-.002,1.026-.836,1.856-1.862,1.853l-35.244-.078c-1.026-.002-1.856-.836-1.853-1.862l.044-19.619"/><path class="uuid-3705d039-b02b-4aa2-b945-b69211b6134a" d="m950.601,159.485l-.548.53c-.062.062-.117.07-.18,0-.194-.267-.437-.517-.843-.518-.43,0-.728.271-.728.693,0,.352.209.578.373.884l1.18.002c.078,0,.124.056.124.126v.539c0,.07-.048.117-.126.116l-.984-.002c-.024.445-.229.797-.511,1.062l2,.005c.07,0,.117.055.117.125l-.002.773c0,.07-.047.117-.117.117l-3.281-.008c-.07,0-.117-.047-.117-.117l.002-.898c.423-.194.799-.529.8-1.021v-.039l-.672-.002c-.07,0-.117-.047-.117-.117v-.539c0-.07.049-.133.119-.133h.352c-.156-.272-.304-.594-.303-1.016.002-.93.746-1.646,1.801-1.645.828.002,1.358.448,1.686.902.038.047.038.125-.024.18Z"/><path class="uuid-3705d039-b02b-4aa2-b945-b69211b6134a" d="m954.937,159.495l-.548.53c-.062.062-.117.07-.18,0-.194-.266-.437-.517-.843-.518-.43,0-.728.272-.728.694,0,.352.209.578.373.884l1.18.002c.078,0,.124.056.124.126v.539c0,.07-.048.117-.126.116l-.984-.002c-.024.445-.229.797-.511,1.062l2,.005c.07,0,.117.055.117.125l-.002.773c0,.07-.047.117-.117.117l-3.281-.008c-.07,0-.117-.047-.117-.117l.002-.898c.423-.194.799-.529.8-1.021v-.039l-.672-.002c-.07,0-.117-.047-.117-.117v-.539c0-.07.049-.133.119-.133h.352c-.156-.272-.304-.594-.303-1.016.002-.93.746-1.646,1.801-1.645.828.002,1.358.448,1.686.902.038.047.038.125-.024.18Z"/><rect class="uuid-84139123-f753-43e1-b7dd-b05baf776b29" x="348.083" y="40.158" width="49.162" height="43.601" rx="2.344" ry="2.344" transform="translate(-.37 2.265) rotate(-.348)"/><path class="uuid-6cc9c55c-1b5e-4a12-b5e6-ddda06378ee0" d="m393.927,40.029l-42.79.26c-1.759.011-3.177,1.446-3.166,3.205l.029,4.855,49.161-.299-.029-4.855c-.011-1.759-1.446-3.177-3.205-3.166Z"/><circle class="uuid-50b67aa7-a9d4-4aef-88ee-5ad21ac8a372" cx="352.903" cy="44.235" r="1.399"/><circle class="uuid-50b67aa7-a9d4-4aef-88ee-5ad21ac8a372" cx="357.19" cy="44.209" r="1.399"/><path class="uuid-6cc9c55c-1b5e-4a12-b5e6-ddda06378ee0" d="m358.954,72.01l-.686.675c-.079.079-.147.09-.227.001-.249-.333-.556-.647-1.068-.644-.542.003-.914.35-.911.882.003.444.271.728.48,1.111l1.488-.009c.099,0,.158.068.159.157l.004.68c0,.089-.059.148-.157.149l-1.241.008c-.026.562-.28,1.007-.633,1.344l2.523-.015c.089,0,.148.068.149.157l.006.976c0,.089-.058.148-.147.149l-4.139.025c-.089,0-.148-.059-.149-.147l-.007-1.133c.531-.25,1.001-.676.998-1.297v-.049s-.848.005-.848.005c-.089,0-.148-.058-.148-.147l-.004-.68c0-.088.058-.167.147-.168l.443-.002c-.199-.344-.389-.747-.392-1.279-.007-1.173.924-2.086,2.254-2.094,1.044-.006,1.718.551,2.136,1.121.05.059.05.157-.028.227Z"/><path class="uuid-6cc9c55c-1b5e-4a12-b5e6-ddda06378ee0" d="m364.425,71.977l-.686.675c-.079.079-.147.09-.227.001-.249-.333-.556-.647-1.069-.644-.542.003-.914.35-.911.882.003.444.271.728.48,1.111l1.488-.009c.099,0,.158.068.159.157l.004.68c0,.089-.059.148-.157.149l-1.242.007c-.026.562-.28,1.007-.633,1.345l2.523-.015c.089,0,.148.068.149.157l.006.976c0,.089-.058.148-.147.149l-4.14.025c-.089,0-.148-.059-.149-.147l-.007-1.133c.531-.25,1.001-.676.998-1.297v-.049s-.848.005-.848.005c-.089,0-.148-.058-.148-.147l-.004-.68c0-.088.058-.167.147-.168l.443-.002c-.199-.344-.389-.747-.392-1.279-.007-1.173.924-2.086,2.254-2.094,1.045-.006,1.719.552,2.136,1.121.05.059.05.157-.028.227Z"/><rect class="uuid-6cc9c55c-1b5e-4a12-b5e6-ddda06378ee0" x="352.404" y="52.097" width="33.511" height="2.743" rx=".645" ry=".645" transform="translate(-.28 1.968) rotate(-.305)"/><rect class="uuid-6cc9c55c-1b5e-4a12-b5e6-ddda06378ee0" x="352.431" y="57.183" width="14.833" height="2.743" rx=".841" ry=".841" transform="translate(-.307 1.918) rotate(-.305)"/><path class="uuid-e6f1c8cd-b92d-4a7b-b925-c549afb13010" d="m378.978,40.12l15.791-.096c1.295-.008,2.35,1.035,2.358,2.33l.236,38.912c.008,1.295-1.035,2.35-2.33,2.358l-44.473.27c-1.295.008-2.35-1.035-2.358-2.33l-.236-38.912c-.008-1.295,1.035-2.35,2.33-2.358l21.245-.129"/><rect class="uuid-84139123-f753-43e1-b7dd-b05baf776b29" x="286.568" y="110.947" width="39.136" height="34.71" rx="1.866" ry="1.866" transform="translate(-.774 1.862) rotate(-.348)"/><path class="uuid-6cc9c55c-1b5e-4a12-b5e6-ddda06378ee0" d="m323.063,110.844l-34.064.207c-1.401.009-2.529,1.151-2.521,2.551l.023,3.865,39.136-.238-.023-3.865c-.009-1.401-1.151-2.529-2.551-2.521Z"/><circle class="uuid-50b67aa7-a9d4-4aef-88ee-5ad21ac8a372" cx="290.405" cy="114.192" r="1.114"/><circle class="uuid-50b67aa7-a9d4-4aef-88ee-5ad21ac8a372" cx="293.818" cy="114.172" r="1.114"/><path class="uuid-6cc9c55c-1b5e-4a12-b5e6-ddda06378ee0" d="m295.22,136.306l-.546.537c-.062.063-.117.071-.18,0-.198-.266-.442-.515-.85-.512-.431.002-.728.279-.726.702.002.353.215.579.382.884l1.185-.007c.078,0,.126.055.126.125l.003.541c0,.071-.047.118-.125.118l-.988.006c-.021.447-.223.801-.503,1.07l2.008-.012c.07,0,.118.054.119.125l.005.776c0,.071-.047.118-.117.119l-3.294.02c-.071,0-.118-.046-.118-.117l-.006-.902c.422-.199.797-.538.794-1.032v-.04s-.675.004-.675.004c-.071,0-.118-.046-.118-.117l-.003-.541c0-.07.046-.133.117-.134l.353-.002c-.158-.273-.309-.594-.312-1.018-.005-.934.735-1.659,1.794-1.666.832-.005,1.367.438,1.7.892.04.046.04.125-.022.18Z"/><rect class="uuid-6cc9c55c-1b5e-4a12-b5e6-ddda06378ee0" x="290.008" y="120.451" width="26.677" height="2.183" rx=".513" ry=".513" transform="translate(-.643 1.618) rotate(-.305)"/><rect class="uuid-6cc9c55c-1b5e-4a12-b5e6-ddda06378ee0" x="290.029" y="124.5" width="11.808" height="2.183" rx=".67" ry=".67" transform="translate(-.665 1.578) rotate(-.305)"/><path class="uuid-db45534a-38d7-4de8-8e7e-958fdf750a48" d="m311.162,110.916l12.571-.076c1.031-.006,1.871.824,1.877,1.855l.188,30.977c.006,1.031-.824,1.871-1.855,1.877l-35.404.215c-1.031.006-1.871-.824-1.877-1.855l-.188-30.977c-.006-1.031.824-1.871,1.855-1.877l16.912-.103"/><rect class="uuid-84139123-f753-43e1-b7dd-b05baf776b29" x="230.207" y="60.904" width="19.568" height="17.355" rx=".933" ry=".933" transform="translate(-.418 1.459) rotate(-.348)"/><path class="uuid-6cc9c55c-1b5e-4a12-b5e6-ddda06378ee0" d="m248.454,60.852l-17.032.103c-.7.004-1.265.575-1.26,1.276l.012,1.933,19.568-.119-.012-1.933c-.004-.7-.575-1.265-1.276-1.26Z"/><circle class="uuid-50b67aa7-a9d4-4aef-88ee-5ad21ac8a372" cx="232.125" cy="62.526" r=".557"/><circle class="uuid-50b67aa7-a9d4-4aef-88ee-5ad21ac8a372" cx="233.832" cy="62.516" r=".557"/><path class="uuid-6cc9c55c-1b5e-4a12-b5e6-ddda06378ee0" d="m234.533,73.582l-.273.269c-.032.032-.059.036-.09,0-.099-.133-.221-.257-.425-.256-.216.001-.364.14-.363.352,0,.176.108.289.191.442l.592-.003c.039,0,.062.027.063.062v.271c.001.036-.021.06-.061.06l-.494.003c-.011.223-.111.401-.252.535l1.004-.006c.035,0,.059.027.059.062l.002.389c0,.035-.023.059-.058.059l-1.647.01c-.035,0-.06-.023-.06-.058l-.003-.451c.211-.099.398-.269.397-.516v-.02l-.337.002c-.035,0-.06-.023-.06-.059v-.271c-.002-.035.022-.066.057-.067h.176c-.079-.138-.155-.298-.156-.51-.002-.466.368-.83.897-.833.416-.002.684.219.85.445.02.024.02.063-.011.09Z"/><rect class="uuid-6cc9c55c-1b5e-4a12-b5e6-ddda06378ee0" x="231.927" y="65.655" width="13.339" height="1.092" rx=".257" ry=".257" transform="translate(-.349 1.272) rotate(-.305)"/><rect class="uuid-6cc9c55c-1b5e-4a12-b5e6-ddda06378ee0" x="231.937" y="67.68" width="5.904" height="1.092" rx=".335" ry=".335" transform="translate(-.36 1.252) rotate(-.305)"/><path class="uuid-c61fb23f-d008-46a0-96dc-60c32f9616f7" d="m242.504,60.888l6.285-.038c.515-.003.936.412.939.927l.094,15.488c.003.515-.412.936-.927.939l-17.702.108c-.515.003-.936-.412-.939-.927l-.094-15.488c-.003-.515.412-.936.927-.939l8.456-.051"/><line class="uuid-1416e3cb-f6f8-466e-b783-04708c364312" x1="686.902" y1="344.061" x2="686.902" y2="350.711"/><line class="uuid-1416e3cb-f6f8-466e-b783-04708c364312" x1="686.902" y1="320.883" x2="686.902" y2="326.435"/><line class="uuid-1416e3cb-f6f8-466e-b783-04708c364312" x1="678.638" y1="335.797" x2="671.988" y2="335.797"/><line class="uuid-1416e3cb-f6f8-466e-b783-04708c364312" x1="701.816" y1="335.797" x2="696.264" y2="335.797"/><line class="uuid-1416e3cb-f6f8-466e-b783-04708c364312" x1="681.059" y1="341.641" x2="676.357" y2="346.343"/><line class="uuid-1416e3cb-f6f8-466e-b783-04708c364312" x1="697.448" y1="325.251" x2="693.522" y2="329.177"/><line class="uuid-1416e3cb-f6f8-466e-b783-04708c364312" x1="681.059" y1="329.953" x2="676.357" y2="325.251"/><line class="uuid-1416e3cb-f6f8-466e-b783-04708c364312" x1="697.448" y1="346.343" x2="693.522" y2="342.417"/><line class="uuid-407aff36-17a1-40a7-90b2-1af9ead2af0c" x1="547.242" y1="197.11" x2="547.242" y2="206.006"/><line class="uuid-407aff36-17a1-40a7-90b2-1af9ead2af0c" x1="547.242" y1="166.101" x2="547.242" y2="173.529"/><line class="uuid-407aff36-17a1-40a7-90b2-1af9ead2af0c" x1="536.186" y1="186.054" x2="527.29" y2="186.054"/><line class="uuid-407aff36-17a1-40a7-90b2-1af9ead2af0c" x1="567.195" y1="186.054" x2="559.767" y2="186.054"/><line class="uuid-407aff36-17a1-40a7-90b2-1af9ead2af0c" x1="539.424" y1="193.871" x2="533.134" y2="200.162"/><line class="uuid-407aff36-17a1-40a7-90b2-1af9ead2af0c" x1="561.351" y1="171.945" x2="556.098" y2="177.197"/><line class="uuid-407aff36-17a1-40a7-90b2-1af9ead2af0c" x1="539.424" y1="178.236" x2="533.133" y2="171.945"/><line class="uuid-407aff36-17a1-40a7-90b2-1af9ead2af0c" x1="561.351" y1="200.162" x2="556.098" y2="194.91"/><path class="uuid-5ea330f2-0ef0-4114-ada5-32d13fb31211" d="m408.436,142.861c5.131-2.109,10.702-3.472,16.571-3.932,28.758-2.256,53.803,18.001,55.939,45.244l1.545,19.703c.488,6.218-22.43,13.087-51.187,15.342-28.758,2.256-52.466-.956-52.953-7.174l-1.545-19.703c-.611-7.789.717-15.306,3.597-22.122"/><path class="uuid-5ea330f2-0ef0-4114-ada5-32d13fb31211" d="m388.414,157.298c3.616-4.23,7.953-7.903,12.849-10.839"/><path class="uuid-26004008-a9d8-4a74-9e15-3eb32fa56342" d="m423.001,142.151s.069.885,2.315.709,2.176-1.061,2.176-1.061l-3.713-47.339-4.492.352,3.713,47.339Z"/><circle class="uuid-5e802a10-4baf-454f-8d67-e8afc32099ee" cx="421.571" cy="95.106" r="7.476"/><path class="uuid-86910567-cb22-4b22-a225-9fb81e60ef5e" d="m781.671,264.422l-35.091-2.49s-.226,16.074,15.621,15.169,19.47-12.678,19.47-12.678Z"/><path class="uuid-a8d65bba-5162-45c2-a3bf-edc230b1bde1" d="m415.815,282.081l12.225-.453,12.225,11.32s-18.791,4.754-24.451-10.867Z"/><ellipse class="uuid-4807e0d1-b91a-40ae-9fe6-badaa5084e47" cx="303.676" cy="32.304" rx="23.278" ry="16.766" transform="translate(136.968 288.178) rotate(-62.987)"/><path class="uuid-4807e0d1-b91a-40ae-9fe6-badaa5084e47" d="m303.984,9.356c1.846,0,3.577.405,5.146,1.205,2.162,1.102,4.397,2.242,6.651,3.74,4.441,2.953,1.603,13.832-2.913,22.689-4.028,7.901-10.367,15.874-15.448,15.874-.581,0-1.147-.107-1.684-.32-2.042-.807-4.591-2.106-6.454-3.056-7.534-3.841-9.211-15.698-3.74-26.43,4.178-8.196,11.59-13.703,18.442-13.703m0-1.429c-7.198,0-15.157,5.541-19.715,14.483-5.839,11.453-3.885,24.147,4.364,28.353,1.921.979,4.472,2.28,6.578,3.112.723.286,1.462.419,2.209.419,6.073,0,12.733-8.831,16.722-16.654,4.276-8.386,8.138-20.733,2.431-24.529-2.323-1.544-4.585-2.698-6.794-3.824-1.809-.922-3.772-1.36-5.794-1.36h0Z"/><path class="uuid-adef2de3-b5ed-4d72-bc2e-0ffede363f1f" d="m309.85,21.62c.703.358,1.302.8,1.796,1.326.322.342.611.692.867,1.049.219.305.126.846-.203,1.19l-.951.994c-.308.322-.717.358-.921.072-.195-.274-.404-.537-.627-.791-.364-.413-.773-.736-1.228-.968-.534-.272-1.076-.287-1.626-.044-.551.243-1.074.853-1.572,1.829l-1.139,2.234c-.218.428-.145.902.163,1.059l2.613,1.332c.308.157.381.631.163,1.059l-.468.918c-.218.428-.645.647-.953.49l-2.613-1.332c-.308-.157-.735.062-.953.49l-.752,1.475c-.516,1.012-1.013,1.819-1.552,2.251-.395.317-.754.592-1.221.672l6.161,3.141c.308.157.381.631.163,1.059l-.717,1.406c-.218.428-.645.647-.953.49l-8.822-4.498c-.308-.157-.381-.631-.163-1.059l.754-1.479c.155-.304.42-.535.684-.564.537-.059,1.037-.222,1.5-.487.578-.331,1.149-1.048,1.711-2.15l.766-1.502c.218-.428.145-.902-.163-1.059l-.641-.327c-.308-.157-.381-.631-.163-1.059l.468-.918c.218-.428.645-.647.953-.49l.641.327c.308.157.735-.062.953-.49l1.194-2.343c.636-1.247,1.335-2.176,2.099-2.789.763-.613,1.551-.951,2.363-1.015.812-.065,1.608.102,2.389.501Z"/><path class="uuid-dae1bf49-7ad4-422d-bb43-7a03d12baaee" d="m316.33,38.755c4.947-9.703,3.292-20.457-3.697-24.02-6.988-3.563-16.664,1.415-21.611,11.117-4.947,9.703-3.292,20.457,3.697,24.02,6.989,3.563,16.664-1.415,21.611-11.117Z"/></svg>