<?xml version="1.0" encoding="UTF-8"?><svg id="uuid-2774412d-e5cb-4970-8c6d-0a1e8fc37159" xmlns="http://www.w3.org/2000/svg" viewBox="0 0 80 80"><defs><style>.uuid-13cea166-00c5-44af-a229-e6cc4c93ac2e{fill:#7feaad;}.uuid-07c545f6-c43d-4cbb-81e8-174b0c74ec37{fill:#0b3c3a;}.uuid-347bd5e8-f2e9-427d-84f2-f16d666f0c04{fill:#85c3ff;}</style></defs><path class="uuid-07c545f6-c43d-4cbb-81e8-174b0c74ec37" d="m40,7.32c18.02,0,32.68,14.66,32.68,32.68s-14.66,32.68-32.68,32.68S7.32,58.02,7.32,40,21.98,7.32,40,7.32m0-4C19.74,3.32,3.32,19.74,3.32,40s16.42,36.68,36.68,36.68,36.68-16.42,36.68-36.68S60.26,3.32,40,3.32h0Z"/><path class="uuid-347bd5e8-f2e9-427d-84f2-f16d666f0c04" d="m60.81,21.48L21.48,60.81c10.94,9.75,27.72,9.38,38.21-1.11,10.49-10.49,10.86-27.28,1.11-38.21Z"/><path class="uuid-13cea166-00c5-44af-a229-e6cc4c93ac2e" d="m20.3,20.3c-10.55,10.55-10.87,27.46-.95,38.4L58.7,19.35c-10.93-9.92-27.84-9.6-38.4.95Z"/></svg>