<?xml version="1.0" encoding="UTF-8"?><svg id="uuid-76592516-12e4-4a4f-b1c2-3cf03dcfbdbb" xmlns="http://www.w3.org/2000/svg" viewBox="0 0 80 80"><defs><style>.uuid-645fc5b5-5973-4c1f-aa66-c2d06c2d7c38{fill:#ffbddf;}.uuid-21be547a-03aa-4bd9-ae5d-7b7e741c326d{fill:#7de4ff;}.uuid-38f081f4-d29c-4904-a7d8-94d41b251944{fill:#0b3c3a;}</style></defs><path class="uuid-38f081f4-d29c-4904-a7d8-94d41b251944" d="m40,7.32c18.02,0,32.68,14.66,32.68,32.68s-14.66,32.68-32.68,32.68S7.32,58.02,7.32,40,21.98,7.32,40,7.32m0-4C19.74,3.32,3.32,19.74,3.32,40s16.42,36.68,36.68,36.68,36.68-16.42,36.68-36.68S60.26,3.32,40,3.32h0Z"/><path class="uuid-645fc5b5-5973-4c1f-aa66-c2d06c2d7c38" d="m60.81,21.48L21.48,60.81c10.94,9.75,27.72,9.38,38.21-1.11,10.49-10.49,10.86-27.28,1.11-38.21Z"/><path class="uuid-21be547a-03aa-4bd9-ae5d-7b7e741c326d" d="m20.3,20.3c-10.55,10.55-10.87,27.46-.95,38.4L58.7,19.35c-10.93-9.92-27.84-9.6-38.4.95Z"/></svg>