<svg xmlns="http://www.w3.org/2000/svg" xmlns:xlink="http://www.w3.org/1999/xlink" viewBox="0 0 583.166 476.975"><defs><style>.cls-1,.cls-12,.cls-13,.cls-14,.cls-15,.cls-17,.cls-18,.cls-19,.cls-21,.cls-22,.cls-23,.cls-25,.cls-26,.cls-27,.cls-28,.cls-30,.cls-31,.cls-32,.cls-33,.cls-36,.cls-38,.cls-4,.cls-43,.cls-44,.cls-46,.cls-47,.cls-48,.cls-7,.cls-9{fill:none;}.cls-2,.cls-35{fill:#003e3f;}.cls-3{fill:#eafcfa;}.cls-14,.cls-30,.cls-31,.cls-33,.cls-4{stroke:#c3f6f0;}.cls-12,.cls-13,.cls-14,.cls-15,.cls-17,.cls-18,.cls-19,.cls-21,.cls-22,.cls-23,.cls-25,.cls-26,.cls-27,.cls-28,.cls-30,.cls-31,.cls-32,.cls-33,.cls-35,.cls-36,.cls-38,.cls-4,.cls-43,.cls-44,.cls-46,.cls-47,.cls-48,.cls-7,.cls-9{stroke-linecap:round;}.cls-12,.cls-13,.cls-14,.cls-15,.cls-17,.cls-18,.cls-19,.cls-27,.cls-28,.cls-30,.cls-31,.cls-32,.cls-33,.cls-35,.cls-36,.cls-38,.cls-4,.cls-43,.cls-44,.cls-46,.cls-47,.cls-48,.cls-7,.cls-9{stroke-linejoin:round;}.cls-4{stroke-width:1.933px;}.cls-5{fill:#c3f6f0;}.cls-10,.cls-6{fill:#007173;}.cls-12,.cls-13,.cls-15,.cls-17,.cls-18,.cls-19,.cls-27,.cls-48,.cls-7,.cls-9{stroke:#007173;}.cls-7{stroke-width:0.585px;stroke-dasharray:0.731 2.048;}.cls-8{clip-path:url(#clip-path);}.cls-9{stroke-width:0.871px;stroke-dasharray:1.089 3.049;}.cls-10{opacity:0.15;}.cls-11{fill:#29e0cb;}.cls-12{stroke-width:0.528px;stroke-dasharray:0.533 2.133;}.cls-13{stroke-width:1.922px;stroke-dasharray:2.403 6.727;}.cls-14{stroke-width:3px;}.cls-15{stroke-width:0.445px;stroke-dasharray:0.556 1.556;}.cls-15,.cls-34{opacity:0.5;}.cls-16{fill:#ffd938;}.cls-17{stroke-width:0.23px;stroke-dasharray:0.233 0.93;}.cls-18{stroke-width:0.533px;stroke-dasharray:0.539 2.156;}.cls-19{stroke-width:0.3px;stroke-dasharray:0.303 1.213;}.cls-20{fill:#ffd813;}.cls-21,.cls-23,.cls-26{stroke:#ffd813;}.cls-21,.cls-22,.cls-23,.cls-25,.cls-26{stroke-miterlimit:10;}.cls-21,.cls-22{stroke-width:3.075px;}.cls-22,.cls-25{stroke:#29e0cb;}.cls-23{stroke-width:3.814px;}.cls-24{fill:#4af0d2;}.cls-25,.cls-26,.cls-33{stroke-width:2px;}.cls-27{stroke-width:0.226px;stroke-dasharray:0.228 0.914;}.cls-28,.cls-32,.cls-35,.cls-36,.cls-43,.cls-44,.cls-46,.cls-47{stroke:#003e3f;}.cls-28{stroke-width:0.888px;}.cls-29{clip-path:url(#clip-path-2);}.cls-31{stroke-width:1.167px;}.cls-32{stroke-width:0.639px;}.cls-34,.cls-39,.cls-45{fill:url(#Dots_Small_-_Teal_Darker);}.cls-35,.cls-36,.cls-38,.cls-43{stroke-width:1.505px;}.cls-37{fill:#f3e9d5;}.cls-38{stroke:#fff;}.cls-40{fill:#fff;}.cls-41{fill:#7de4ff;}.cls-42{fill:#ffbddf;}.cls-43,.cls-44,.cls-45{opacity:0.25;}.cls-44{stroke-width:1.5px;}.cls-46{stroke-width:2.305px;}.cls-47{stroke-width:1.035px;}.cls-48{stroke-width:0.903px;stroke-dasharray:0.912 3.648;}</style><clipPath id="clip-path"><polygon class="cls-1" points="490.498 233.111 470.656 279.541 396.721 367.458 481.852 399.382 571.638 309.596 559.667 227.126 490.498 233.111"/></clipPath><clipPath id="clip-path-2"><polygon class="cls-1" points="437.291 319.35 411.797 349.944 453.475 372.113 478.527 345.954 437.291 319.35"/></clipPath><pattern id="Dots_Small_-_Teal_Darker" data-name="Dots Small - Teal Darker" width="2" height="2" patternTransform="translate(18.672 -15.839)" patternUnits="userSpaceOnUse" viewBox="0 0 2 2"><rect class="cls-1" width="2" height="2"/><circle class="cls-2" cx="0.515" cy="0.5" r="0.5"/><circle class="cls-1" cx="1.485" cy="0.5" r="0.5"/><circle class="cls-1" cx="0.515" cy="1.5" r="0.5"/><circle class="cls-1" cx="1.485" cy="1.5" r="0.5"/></pattern></defs><g id="BG"><rect class="cls-1" x="-76.817" y="-89.786" width="784.132" height="774.156"/></g><g id="Illustration"><path class="cls-3" d="M208.725,338.416c18.091,2.306,24.83,16.184,43.315,9.148a20.256,20.256,0,0,0,0-12.017c-.718-2.284-31.494-61.806-31.494-61.806l-61.035,41.778,27.935,23.833C190.98,337.984,197.358,336.967,208.725,338.416Z"/><path class="cls-3" d="M410.356,345.51s6.983,12.637,27.933,14.3c19.587,1.555,26.679-11.127,48.987,1.346l37.476-22.561-48.16-58-41.335-12.511-28.334,56.1c-5.032,7.677-5.417,17.324-1.662,26.428Z"/><path class="cls-3" d="M489.688,253.466c22.635-66.186-27.509-135.437-109.055-154.638C301.962,80.3,222.039,115.3,199.451,176.942c-22.805,62.234,20.216,131.19,98.8,154.209C379.769,355.028,466.82,320.333,489.688,253.466Z"/><path class="cls-3" d="M273.4,370.3c17.664,9.11,45.064,17.2,71.671.706,27.223-16.878,50.43-25.554,71.272-27.078l46.226-56.612-245.748-26.27L272.3,368.5C272.656,369.115,273.027,369.705,273.4,370.3Z"/><path class="cls-4" d="M171.989,321.059c5.176,16.417,24.045,25.229,42.843,19.472a41.348,41.348,0,0,0,8.511-3.69"/><path class="cls-4" d="M173.985,324.162c5.176,16.418,24.044,25.229,42.842,19.473a41.357,41.357,0,0,0,8.512-3.69"/><path class="cls-4" d="M160.461,311.526c5.176,16.417,24.045,25.229,42.843,19.473a41.351,41.351,0,0,0,8.511-3.691"/><path class="cls-5" d="M161.948,312.66l50.274,46.551L211,359.172l.686-.472c7.77,7.909,21.2,7.756,29.981,1.494,8.072-5.362,13.133-16.575,8.673-25.7q-15.619-30.006-33.139-59.026l6.678-3.452q6.564,15.086,13.536,29.953c4.085,8.822,11.284,23.725,15.356,32.526,3.68,9.964-1.753,21.352-10.271,26.92-9.295,6.384-22.741,6.841-31.563-.737,0,0,1.243.052,1.233.055l-.574.468-.644-.506-53.887-42.316,4.879-5.718Z"/><path class="cls-5" d="M227.011,276.869c-6.395-20.328-30.131-29.708-52.133-21.284-21.084,8.073-32.732,29.631-26.8,48.447s27.548,28.905,49.085,22.31C219.636,319.46,233.4,297.189,227.011,276.869Z"/><path class="cls-6" d="M181.462,272.144a18.759,18.759,0,0,1,4.715-1.084,26.847,26.847,0,0,1,2.86-.109,1.366,1.366,0,0,1,1.32,1.5l-.173,2.312a1.4,1.4,0,0,1-1.4,1.319q-1.043-.027-2.111.034a11.9,11.9,0,0,0-3.311.662A4.7,4.7,0,0,0,180.7,278.9a4.938,4.938,0,0,0-.016,3.953l1.226,3.79a1.336,1.336,0,0,0,1.7.874l6.047-2.079a1.355,1.355,0,0,1,1.73.879l.508,1.572a1.409,1.409,0,0,1-.874,1.768l-6.056,2.05a1.389,1.389,0,0,0-.857,1.747l.809,2.5a8.6,8.6,0,0,1,.586,4.337,4.557,4.557,0,0,1-1.037,2.265l14.341-4.684a1.39,1.39,0,0,1,1.751.9l.782,2.419a1.391,1.391,0,0,1-.892,1.757L180.018,309.5a1.348,1.348,0,0,1-1.681-.895l-.8-2.481a1.412,1.412,0,0,1,.317-1.447,7.529,7.529,0,0,0,1.707-2.406,6.371,6.371,0,0,0-.2-4.407l-.819-2.532a1.331,1.331,0,0,0-1.685-.878l-1.447.49a1.323,1.323,0,0,1-1.675-.875l-.5-1.54a1.375,1.375,0,0,1,.833-1.73l1.445-.5a1.384,1.384,0,0,0,.838-1.739l-1.277-3.949a10.522,10.522,0,0,1-.458-5.6,8.216,8.216,0,0,1,2.358-4.172A12.54,12.54,0,0,1,181.462,272.144Z"/><path class="cls-7" d="M220.52,278.8c-5.214-16.532-24.875-24.043-43.208-17.072-17.589,6.687-27.457,24.34-22.671,39.693,4.794,15.375,22.753,23.535,40.759,18C214.17,313.658,225.742,295.358,220.52,278.8Z"/><g class="cls-8"><path class="cls-5" d="M520.315,337.841c-16.183-18.081-31.794-35.743-47.185-54.373l2.158,1.432-41.335-12.511,5.321-2.278c-8.567,13.229-16.315,26.936-23.92,40.723l-7.442,13.843a25.023,25.023,0,0,0-4.118,11.871c-1.109,13.04,7.116,25.161,17.6,32.259,13.76,9.426,34.028,12.152,47.759,1.464,14.309-9.234,36.91-23.468,51.162-32.43Zm8.874,1.5c-15.962,9.407-42.492,24.464-58.135,33.372-14.913,10.8-36.217,7.518-50.5-2.7-10.8-7.495-19.392-19.972-18.639-33.6a27.157,27.157,0,0,1,4.016-12.735l6.725-14.2c7.1-15.426,14.044-30.95,19.874-46.917,2.815.863,43.17,13.058,46.656,14.121,17.03,20.384,33.82,41.723,50,62.669Z"/><path class="cls-5" d="M543.4,328.377c18.892-23.91,8.329-59.628-22.389-79.335-29.635-19.013-67.541-16.219-85.755,5.83-18.389,22.262-10.709,56.826,18.24,77.673C483.527,354.169,524.318,352.532,543.4,328.377Z"/><path class="cls-6" d="M506.676,269.864a29.7,29.7,0,0,1,5.631,4.648,41.02,41.02,0,0,1,2.74,3.257,1.826,1.826,0,0,1-.636,2.743l-3,1.656a2.294,2.294,0,0,1-2.9-.579q-.918-1.242-1.969-2.443A18.707,18.707,0,0,0,502.7,275.8a7.87,7.87,0,0,0-5.064-1.411q-2.57.222-4.909,3.162l-3.58,4.5a1.836,1.836,0,0,0,.478,2.708l8.118,5.415a1.863,1.863,0,0,1,.5,2.741l-1.482,1.87a2.263,2.263,0,0,1-2.993.408l-8.1-5.45a2.242,2.242,0,0,0-2.963.409l-2.376,2.984c-1.632,2.049-3.2,3.612-4.878,4.22a7.487,7.487,0,0,1-3.789.625L490.7,311.026a1.915,1.915,0,0,1,.488,2.8l-2.292,2.9a2.251,2.251,0,0,1-3.011.392L458.829,298.4a1.853,1.853,0,0,1-.428-2.717l2.379-2.972a2.229,2.229,0,0,1,2.111-.805,12.721,12.721,0,0,0,4.6.054q2.676-.492,5.335-3.82l2.411-3.019a1.827,1.827,0,0,0-.453-2.694l-1.945-1.308a1.814,1.814,0,0,1-.448-2.68l1.466-1.832a2.226,2.226,0,0,1,2.926-.417l1.947,1.3a2.234,2.234,0,0,0,2.937-.417l3.741-4.684a15.2,15.2,0,0,1,6.526-5.034,13.467,13.467,0,0,1,7.318-.578A20.863,20.863,0,0,1,506.676,269.864Z"/><path class="cls-9" d="M534.977,322.152c15.416-19.469,6.345-48.91-19.26-65.384-24.7-15.892-56.051-13.946-70.922,4-15.015,18.12-8.341,46.587,15.811,63.98C485.657,342.79,519.4,341.821,534.977,322.152Z"/><path class="cls-10" d="M498.088,239.3c-23.832-5.96-51.238-.757-64.787,15.645-18.389,22.262-7.75,57.36,21.2,78.208a81.461,81.461,0,0,0,11.926,7.124,111.158,111.158,0,0,0,29.139-44.692A99.174,99.174,0,0,0,498.088,239.3Z"/></g><path class="cls-5" d="M222.592,258.063c6.42,17.259,14.189,34.015,22.162,50.583,3.413,7.126,8.591,13.269,12.214,20.249,2.388,4.673,4.488,9.5,6.444,14.408s3.756,9.9,5.632,14.855c1.968,4.832,3.644,9.929,6.68,14.181,11.648,17.708,33.683,25.089,53.924,27.1,20.688,1.843,42.468-4.925,56.9-20.2-.177.276,9.248-11.7,9.231-11.635,9.468-11.552,18.28-23.6,27.089-35.663,11.365-15.662,23.756-32.816,34.66-48.741l10.069,8.223c-13.371,13.879-27.791,29.407-40.826,43.7-10.059,11.043-20.1,22.086-29.526,33.672l-9.626,11.462a74.911,74.911,0,0,1-12.444,9.9c-18.042,11.433-40.87,13.539-61.288,8.105-10.226-2.671-20.233-6.826-28.576-13.438a58.93,58.93,0,0,1-12.1-13.188c-2.408-3.816-4.942-7.965-7.426-11.721C259.9,351.2,253.8,342.545,248.952,333.19c-2.419-4.667-4.1-9.73-6.11-14.61-1.715-4.407-4.882-9.895-7.189-14.032-2.527-4.608-5.194-9.143-7.816-13.7-5.365-9.056-10.8-18.076-16.8-26.818l11.551-5.964Z"/><path class="cls-5" d="M269.108,389.531,237.326,423.79a6.656,6.656,0,0,1-8.66.673L190.627,396.2a5.082,5.082,0,0,1-.821-7.756l32.443-34.087a6.651,6.651,0,0,1,8.615-.543l37.384,28.094A5.058,5.058,0,0,1,269.108,389.531Z"/><path class="cls-11" d="M155.02,142.887a9.8,9.8,0,0,1,4.685,1.144,56.064,56.064,0,0,1,5.718,3.376c3.809,2.65,1.143,12.062-2.947,19.685-3.613,6.733-9.231,13.527-13.639,13.527a3.933,3.933,0,0,1-1.548-.309c-1.762-.74-3.956-1.917-5.558-2.777-6.484-3.479-7.727-13.824-2.771-23.06,3.718-6.93,10.172-11.586,16.06-11.586m0-1.244c-6.2,0-13.084,4.652-17.156,12.242-5.288,9.856-3.82,20.935,3.279,24.744,1.653.887,3.848,2.065,5.665,2.827a5.185,5.185,0,0,0,2.029.407c5.254,0,11.149-7.5,14.735-14.183,3.872-7.218,7.457-17.888,2.561-21.294a57.064,57.064,0,0,0-5.84-3.451,11.053,11.053,0,0,0-5.273-1.292Z"/><ellipse class="cls-11" cx="154.566" cy="162.847" rx="20.253" ry="14.588" transform="translate(-62.002 222.077) rotate(-61.79)"/><path class="cls-6" d="M160.131,153.666a5.634,5.634,0,0,1,1.538,1.185,9.1,9.1,0,0,1,.736.929.873.873,0,0,1-.2,1.031l-.845.848c-.274.275-.631.3-.8.046a8.309,8.309,0,0,0-.531-.7,3.613,3.613,0,0,0-1.051-.865,1.571,1.571,0,0,0-1.413-.067,3.256,3.256,0,0,0-1.4,1.562l-1.031,1.923a.677.677,0,0,0,.122.924l2.249,1.207a.677.677,0,0,1,.122.924l-.423.79c-.2.368-.573.551-.838.408l-2.249-1.206c-.265-.143-.64.04-.837.408l-.682,1.27a6.176,6.176,0,0,1-1.391,1.93,2.369,2.369,0,0,1-1.074.563l5.3,2.845a.677.677,0,0,1,.122.924l-.649,1.21c-.2.368-.572.551-.837.409l-7.592-4.074a.678.678,0,0,1-.123-.924l.683-1.273a.848.848,0,0,1,.6-.478,3.346,3.346,0,0,0,1.314-.4,4.415,4.415,0,0,0,1.527-1.84l.694-1.293a.677.677,0,0,0-.122-.924l-.552-.3a.678.678,0,0,1-.123-.924l.424-.79c.2-.368.572-.551.838-.409l.552.3c.265.143.64-.04.837-.408l1.082-2.017a7.346,7.346,0,0,1,1.876-2.388,3.744,3.744,0,0,1,2.074-.84A3.837,3.837,0,0,1,160.131,153.666Z"/><path class="cls-12" d="M165.455,168.69c4.481-8.35,3.237-17.735-2.777-20.962-14.839-6.993-30.25,21.749-16.224,30.239,6.014,3.227,14.521-.926,19-9.277Z"/><path class="cls-5" d="M338.068,101.87a177.993,177.993,0,0,1,40.732,4.745,162.972,162.972,0,0,1,58.066,25.941c16.009,11.488,29.048,25.839,37.708,41.5a98.675,98.675,0,0,1,12.052,37.432,91.156,91.156,0,0,1-4.508,39.387c-8.067,23.588-25.01,43.66-49,58.046-23.4,14.037-52.674,21.768-82.417,21.768a178.522,178.522,0,0,1-50.2-7.218c-40.092-11.743-72.3-36.747-88.376-68.6a98.306,98.306,0,0,1-10.517-37.056,90.494,90.494,0,0,1,5.35-38.124c8.35-22.786,25.33-42.264,49.1-56.329s52.127-21.5,82-21.5m0-8c-63.206,0-120.124,32.6-138.617,83.072-22.805,62.234,20.216,131.19,98.8,154.209a186.757,186.757,0,0,0,52.448,7.541c63.412,0,121.012-32.676,138.984-85.226,22.635-66.186-27.509-135.437-109.055-154.638a185.831,185.831,0,0,0-42.565-4.958Z"/><path class="cls-6" d="M367.115,154.145a93.949,93.949,0,0,1,18.536,6.583q5.392,2.632,10,5.424c2.634,1.6,3.146,4.567,1.138,6.547L391,178.41a6.592,6.592,0,0,1-7.761.66q-3.5-2.153-7.288-4.127a59,59,0,0,0-12.811-4.884q-7.788-1.965-13.932.257t-9.03,10.354l-4.42,12.434c-.847,2.383.88,4.944,3.861,5.72l25.451,6.624c3.02.786,4.783,3.374,3.935,5.781l-1.821,5.168c-.85,2.41-3.989,3.717-7.008,2.921l-25.451-6.71c-2.981-.786-6.083.515-6.932,2.905l-2.934,8.253c-2.015,5.669-4.35,10.207-7.9,12.694-2.609,1.824-5.007,3.407-8.765,3.94l60.05,16.308c3.045.827,4.825,3.473,3.971,5.908l-2.811,8.011c-.855,2.44-4.021,3.736-7.066,2.9l-85.482-23.57c-2.926-.807-4.6-3.391-3.746-5.773l2.953-8.23a5.157,5.157,0,0,1,4.432-3.215,34.789,34.789,0,0,0,11.433-2.97q6.138-2.895,9.432-12.106l2.987-8.355c.849-2.377-.848-4.931-3.786-5.706l-6.107-1.61c-2.927-.772-4.608-3.314-3.76-5.679l1.82-5.071c.848-2.362,3.9-3.659,6.831-2.9l6.107,1.59c2.939.765,6.011-.536,6.858-2.905l4.634-12.963q3.693-10.335,11.183-15.616a35.394,35.394,0,0,1,17.546-6.208A64.424,64.424,0,0,1,367.115,154.145Z"/><path class="cls-13" d="M461.5,243.892c17.782-51.819-22.7-106.41-88.059-121.888C310.384,107.072,246.6,134.129,228.83,182.383c-17.938,48.717,16.841,103.041,79.854,121.5C374.042,323.029,443.536,296.244,461.5,243.892Z"/><path class="cls-14" d="M222.221,281.356c12.28,28.339,39.852,52.5,77.578,63.554a150.2,150.2,0,0,0,55.977,5.457"/><path class="cls-4" d="M259.2,310.147c-11.859,32.363,10.512,68.22,51.38,80.191a96.768,96.768,0,0,0,36.062,3.516"/><path class="cls-5" d="M386.348,406.072l20.216,23.737a4.736,4.736,0,0,0,5.836.916l26.8-15.981a3.135,3.135,0,0,0,.844-4.921l-20.66-23.641a4.732,4.732,0,0,0-5.8-.832l-26.355,15.886A3.118,3.118,0,0,0,386.348,406.072Z"/><path class="cls-3" d="M346.84,417.117c16.35-8.667,15.213-18.026,32.171-17.985A30.758,30.758,0,0,0,352.3,377.7c-16.874-1.617-32.026,10.2-34.47,26.332a29.684,29.684,0,0,0-.074,8.356C321.771,416.413,332.483,424.728,346.84,417.117Z"/><path class="cls-5" d="M349.209,379.556c.962,0,1.938.047,2.9.139a29.347,29.347,0,0,1,20.315,11.021,27.639,27.639,0,0,1,5.553,21.35c-2.148,14.121-14.772,24.769-29.366,24.769a30.531,30.531,0,0,1-5.176-.445,28.885,28.885,0,0,1-18.527-11.4,27.751,27.751,0,0,1-5.1-20.65c2.14-14.127,14.78-24.78,29.4-24.78m0-2c-15.6,0-29.086,11.34-31.379,26.48a30.4,30.4,0,0,0,25.264,34.325,32.477,32.477,0,0,0,5.517.474c15.3,0,28.976-10.9,31.343-26.468,2.65-17.423-10.047-32.974-27.654-34.663q-1.557-.148-3.091-.148Z"/><path class="cls-6" d="M351.063,392.394a12.94,12.94,0,0,1,3.529.9,19.068,19.068,0,0,1,1.953.953,1.178,1.178,0,0,1,.374,1.589l-.9,1.656a1.019,1.019,0,0,1-1.389.474q-.69-.4-1.426-.737a8.166,8.166,0,0,0-2.444-.7,3.326,3.326,0,0,0-2.511.62,4.3,4.3,0,0,0-1.359,2.932l-.472,3.261a1.071,1.071,0,0,0,.844,1.265l4.761.64a1.086,1.086,0,0,1,.859,1.279l-.2,1.352a1.1,1.1,0,0,1-1.189,1l-4.756-.664a1.09,1.09,0,0,0-1.171.989l-.311,2.153a7.725,7.725,0,0,1-1.087,3.437,3.606,3.606,0,0,1-1.468,1.308l11.207,1.7a1.116,1.116,0,0,1,.866,1.3l-.3,2.082a1.088,1.088,0,0,1-1.2.983l-15.922-2.517a1.084,1.084,0,0,1-.821-1.273l.308-2.134a1.18,1.18,0,0,1,.706-.961,4.672,4.672,0,0,0,3.334-4.521l.315-2.178a1.068,1.068,0,0,0-.829-1.262l-1.136-.159a1.061,1.061,0,0,1-.824-1.255l.191-1.325a1.082,1.082,0,0,1,1.148-.986l1.138.153a1.087,1.087,0,0,0,1.155-.989l.492-3.4a9.347,9.347,0,0,1,1.6-4.326,6.341,6.341,0,0,1,3-2.249A8.663,8.663,0,0,1,351.063,392.394Z"/><path class="cls-15" d="M374.018,411.333c2.069-13.665-8.156-25.9-22.284-27.29-13.555-1.335-25.73,7.88-27.687,20.551-1.96,12.69,6.952,24.8,20.4,27.1C358.458,434.105,371.946,425.02,374.018,411.333Z"/><path class="cls-3" d="M241.868,194.093s-10.419,17.957-13.856,21.394l12.748,14.8,8.978-6.485S241.369,206.453,241.868,194.093Z"/><ellipse class="cls-16" cx="391.401" cy="203.848" rx="6.366" ry="8.838" transform="translate(-49.481 184.567) rotate(-25.007)"/><path class="cls-16" d="M391.424,195.133h0c2.656,0,5.461,2.189,6.981,5.448a10.191,10.191,0,0,1,.911,6.121,5.08,5.08,0,0,1-2.681,3.858c-.719.335-1.7.795-2.49,1.074a1.738,1.738,0,0,1-.58.1c-1.94,0-4.268-3.129-5.714-6.231-1.6-3.421-2.528-7.586-.8-8.648a24.468,24.468,0,0,1,2.574-1.331,4.227,4.227,0,0,1,1.8-.391m0-.543a4.77,4.77,0,0,0-2.032.442,24.991,24.991,0,0,0-2.629,1.361c-2.217,1.364-.915,6.1.6,9.34,1.426,3.058,3.877,6.544,6.206,6.544a2.272,2.272,0,0,0,.762-.132c.81-.287,1.8-.747,2.537-1.093,3.186-1.486,4.1-6.277,2.033-10.7-1.647-3.531-4.691-5.761-7.473-5.761Z"/><path class="cls-6" d="M389.781,199.463a2.472,2.472,0,0,1,.823-.206,3.862,3.862,0,0,1,.516,0,.38.38,0,0,1,.3.347l.062.518c.02.169-.069.3-.2.288a3.76,3.76,0,0,0-.383-.008,1.579,1.579,0,0,0-.58.126.688.688,0,0,0-.406.466,1.418,1.418,0,0,0,.156.9l.38.874c.072.167.229.26.349.208l1.022-.444c.12-.053.277.041.349.208l.156.359a.3.3,0,0,1-.086.4l-1.022.444a.3.3,0,0,0-.086.4l.25.577a2.712,2.712,0,0,1,.285,1,1.044,1.044,0,0,1-.1.521l2.408-1.047c.121-.052.277.041.35.208l.238.55a.3.3,0,0,1-.086.4l-3.449,1.5c-.12.053-.277-.04-.349-.208l-.251-.578a.367.367,0,0,1,0-.336,1.463,1.463,0,0,0,.219-.557,1.922,1.922,0,0,0-.216-1.021l-.256-.587c-.072-.167-.229-.261-.349-.208l-.251.109c-.12.052-.277-.041-.349-.208l-.156-.359a.3.3,0,0,1,.086-.4l.251-.109a.3.3,0,0,0,.087-.4l-.4-.916a3.21,3.21,0,0,1-.311-1.288,1.632,1.632,0,0,1,.274-.938A1.679,1.679,0,0,1,389.781,199.463Z"/><path class="cls-17" d="M386.513,206.127c-1.748-3.747-.977-7.806,1.723-9.065,6.6-2.722,12.657,10.266,6.33,13.572-2.7,1.258-6.3-.759-8.053-4.507Z"/><ellipse class="cls-11" cx="435.296" cy="284.323" rx="20.475" ry="14.746" transform="matrix(0.616, -0.788, 0.788, 0.616, -56.77, 452.23)"/><path class="cls-11" d="M443.253,267.536a4.137,4.137,0,0,1,2.294.641c1.627,1.038,3.61,2.587,5.06,3.72,2.777,2.169,4.213,5.758,4.043,10.105a23.624,23.624,0,0,1-5.245,13.342c-4.316,5.524-10.421,8.955-15.934,8.955a10.466,10.466,0,0,1-6.528-2.115,56.942,56.942,0,0,1-5.117-4.345c-3.339-3.294.935-12.211,6.319-19.1,4.037-5.166,10.417-11.2,15.108-11.2m0-1.257c-5.115,0-11.677,6.024-16.1,11.683-5.1,6.525-10.5,16.538-6.212,20.772a57.582,57.582,0,0,0,5.226,4.44,11.663,11.663,0,0,0,7.3,2.382c5.7,0,12.2-3.4,16.925-9.438,6.962-8.91,7.4-20.2.985-25.212-1.494-1.167-3.479-2.717-5.158-3.789a5.41,5.41,0,0,0-2.97-.838Z"/><path class="cls-6" d="M442.313,276.528a5.7,5.7,0,0,1,1.256,1.508,9.071,9.071,0,0,1,.521,1.078.883.883,0,0,1-.423.974l-1.021.651c-.331.21-.687.155-.8-.132s-.233-.544-.37-.808a3.659,3.659,0,0,0-.847-1.084,1.589,1.589,0,0,0-1.38-.377,3.291,3.291,0,0,0-1.725,1.232l-1.442,1.67a.684.684,0,0,0-.082.939l1.953,1.686a.684.684,0,0,1-.083.938l-.592.686a.685.685,0,0,1-.917.219l-1.953-1.685a.684.684,0,0,0-.916.219l-.952,1.1a6.257,6.257,0,0,1-1.8,1.6,2.4,2.4,0,0,1-1.185.319l4.6,3.974a.684.684,0,0,1-.083.938l-.906,1.051a.685.685,0,0,1-.917.219l-6.594-5.69a.685.685,0,0,1,.083-.939l.954-1.105a.864.864,0,0,1,.7-.339,3.375,3.375,0,0,0,1.383-.1,4.459,4.459,0,0,0,1.912-1.479l.969-1.123a.684.684,0,0,0,.083-.938l-.479-.414a.684.684,0,0,1,.082-.939l.593-.686a.685.685,0,0,1,.916-.219l.479.414a.685.685,0,0,0,.917-.219l1.511-1.751a7.42,7.42,0,0,1,2.378-1.943,3.781,3.781,0,0,1,2.231-.372A3.878,3.878,0,0,1,442.313,276.528Z"/><path class="cls-18" d="M425.452,276.632c-5.9,7.549-6.272,17.111-.835,21.359,13.579,9.514,33.874-16.47,21.359-27.337-5.437-4.247-14.626-1.571-20.524,5.978Z"/><ellipse class="cls-11" cx="549.312" cy="463.712" rx="11.521" ry="8.298" transform="translate(-155.069 320.114) rotate(-28.647)"/><path class="cls-11" d="M555.355,456.5a3.215,3.215,0,0,1,2.853,1.159c.611.9,1.289,2.144,1.785,3.051a6.619,6.619,0,0,1-.165,6.122,13.287,13.287,0,0,1-5.685,5.723,13.82,13.82,0,0,1-6.573,1.773c-3.039,0-5.428-1.184-6.557-3.249a31.956,31.956,0,0,1-1.674-3.385c-.991-2.446,3.206-6.1,7.524-8.459,3.134-1.713,6.308-2.735,8.492-2.735m0-.707c-2.645,0-6.092,1.324-8.831,2.821-4.089,2.234-9.114,6.2-7.841,9.346a32.5,32.5,0,0,0,1.71,3.459c1.295,2.37,4.017,3.616,7.177,3.616a14.583,14.583,0,0,0,6.913-1.859c5.584-3.051,8.329-8.784,6.131-12.806-.512-.936-1.192-2.179-1.82-3.107a3.893,3.893,0,0,0-3.439-1.47Z"/><path class="cls-6" d="M554.675,461.25a3.2,3.2,0,0,1,.313,1.059,5.162,5.162,0,0,1,.029.673.5.5,0,0,1-.436.409l-.672.108c-.218.035-.39-.072-.385-.247a4.9,4.9,0,0,0-.011-.5,2.072,2.072,0,0,0-.2-.749.9.9,0,0,0-.629-.5,1.86,1.86,0,0,0-1.166.252l-1.117.542c-.214.1-.327.312-.252.466l.633,1.307c.075.154-.038.362-.252.466l-.459.222a.385.385,0,0,1-.522-.091l-.633-1.306a.386.386,0,0,0-.523-.091l-.737.357a3.54,3.54,0,0,1-1.285.425,1.345,1.345,0,0,1-.683-.1l1.493,3.08c.075.154-.038.363-.252.467l-.7.34a.384.384,0,0,1-.522-.091l-2.138-4.41c-.075-.154.038-.363.252-.466l.739-.359a.489.489,0,0,1,.439-.018,1.9,1.9,0,0,0,.737.256,2.511,2.511,0,0,0,1.318-.337l.751-.364c.214-.1.326-.313.252-.467l-.156-.321c-.074-.154.039-.362.252-.466l.459-.222a.386.386,0,0,1,.523.091l.155.32a.386.386,0,0,0,.522.092l1.172-.568a4.175,4.175,0,0,1,1.661-.474,2.131,2.131,0,0,1,1.236.305A2.183,2.183,0,0,1,554.675,461.25Z"/><path class="cls-19" d="M545.941,457.544c-4.731,2.584-7.056,7.441-5.194,10.848,4.894,7.943,21.173-.955,17.13-9.36-1.862-3.407-7.206-4.073-11.936-1.488Z"/><path class="cls-11" d="M290.053,54.126c5.249.974,10.633,1.689,15.9,1.119,2.469-.352,5.978-.973,5.265-3.937-1.416-4.987-5.761-9.832-5.491-15.546.928-8.632,10.763-5.645,16.365-6.073,1.006-.158,2.266-.3,1.892-1.291-.216-.885-1.865-2.944-2.432-3.839-2.03-2.681-3.591-7.447-.186-9.908,2.732-1.9,5.921-1.808,8.912-2.317a1.55,1.55,0,0,1,.476,3.063,13,13,0,0,0-5.415.6c-1.089.43-2.275,1.222-1.868,2.341C324.763,21.93,331.049,28.4,325.829,32c-4.365,2.178-9.6.149-13.888,1.749-1.1.479-1.481.938-1.312,2.047.6,2.748,2.91,5.944,4.12,8.9C322.4,63,300.171,59.138,289.487,57.149a1.538,1.538,0,0,1,.566-3.023Z"/><path class="cls-20" d="M177.912,76.941c2.649-.267,5.3-.552,7.97-.771,3.4-.2,6.961-.839,10.451.109,1.165.311,2.541,1.462,2.258,2.967a4.456,4.456,0,0,1-1.931,2.6c-2.849,1.978-6.143,3.146-9.187,4.517-2,.984-4.345,1.818-5.863,3.393a.522.522,0,0,0-.014-.39c-.037-.1-.128-.16-.111-.167-.014-.022-.057-.025,0-.014,5.695.417,11.291-1.768,17.1-.95,1.111.164,2.54.653,2.76,2.044.419,3.464-8.221,6.284-10.124,8.953-.05.07-.053.1-.048.075a.643.643,0,0,0-.117-.479c-.24-.337-.419-.289-.333-.3,3.122-.164,6.192-1.709,9.47-.959a2.9,2.9,0,0,1,2.38,3.192c-.7,3.313-6.005,6-3.426,9.464,1.3,1.314,3.1,1.678,4.877,2.564,9.653,4.5,6.7,15.024,4.065,22.947a.769.769,0,1,1-1.453-.5c1.741-4.537,2.463-10.34.359-14.687-1.541-3.281-5.095-4.876-8.009-7.177-4.906-3.568-2.562-8.2.28-12.021a2.6,2.6,0,0,0,.453-.989c.023.248.216.216-.21.117-2.8-.321-6.284.832-9.3.449a1.828,1.828,0,0,1-1.182-.756,1.65,1.65,0,0,1-.264-.819,3.2,3.2,0,0,1,1.277-2.405c2.148-1.86,4.441-3.077,6.652-4.674a10.086,10.086,0,0,0,1.953-1.675c.136-.145.058-.275.064.111a.84.84,0,0,0,.173.372c.093.053-.014.019-.027,0a4.077,4.077,0,0,0-.661-.128c-3.145-.2-6.338.318-9.607.44-1.978-.074-10.192,1.225-8.775-2.515,1.568-2.143,4.512-3.084,6.689-4.458,3.01-1.793,6.68-3.532,8.939-5.727a.853.853,0,0,0,.212.745,7.054,7.054,0,0,0-1.973-.558,72.863,72.863,0,0,0-15.645-.406.769.769,0,0,1-.125-1.532Z"/><path class="cls-21" d="M452.921,6.983a6.645,6.645,0,0,1,3.178,7.959"/><path class="cls-21" d="M364.132,50.879a6.644,6.644,0,0,1,3.179,7.958"/><path class="cls-21" d="M4.988,53.872A6.646,6.646,0,0,1,8.167,61.83"/><path class="cls-22" d="M378.1,81.805a6.645,6.645,0,0,1,7.885-3.357"/><path class="cls-22" d="M50.879,409.025a6.644,6.644,0,0,1,7.884-3.357"/><path class="cls-22" d="M167.6,429.976a6.647,6.647,0,0,1-6.633-5.428"/><path class="cls-22" d="M151.446,398.211a6.647,6.647,0,0,1,8.4-1.678"/><path class="cls-22" d="M168.387,175.031a6.641,6.641,0,0,1-5.956-6.164"/><path class="cls-21" d="M106.051,120.248a6.645,6.645,0,0,1-5.635,6.456"/><path class="cls-23" d="M214.987,4.688s-.293,6.421-7.572,7.458"/><path class="cls-24" d="M353.673,174.922c2.324,2.333,5.1,4.222,7.082,6.9a6.391,6.391,0,0,1,1.233,2.713,1.8,1.8,0,0,1-2.168,2.01c-2.131-.44-3.785-1.511-5.747-2.2a32.263,32.263,0,0,0-5.195-1.6c-.091-.029-.066.051.177-.084a.865.865,0,0,0,.437-.87,18.344,18.344,0,0,0,2.7,3.2c.936.954,3.257,3.333,4.123,4.3a4.28,4.28,0,0,1,1.05,1.636,1.741,1.741,0,0,1-.2,1.418,1.806,1.806,0,0,1-1.2.75c-2.593.247-5.017-1.588-7.395-1.936-.246-.036-.543-.01-.473.006a.4.4,0,0,0,.174-.107.864.864,0,0,0,.191-.563c-.049-.29-.014-.155.058-.125.34.263.936.6,1.469.938,1.513,1.041,3.8,2.934,3.13,5.138a2.073,2.073,0,0,1-1.589,1.232c-1.921.323-3.941-.718-5.292.884a.631.631,0,1,1-.965-.805,6.931,6.931,0,0,1,3.959-1.728,4.759,4.759,0,0,0,1.741-.52c-.007-.016.047-.033-.006-.031s-.05.022-.092.049c-.207.125-.114.47-.286.239a24,24,0,0,1-3.754-4.075,2.087,2.087,0,0,1-.386-.972c-.105-1.378,1.506-1.641,2.366-1.444,2.3.312,4.451,1.2,6.706,1.382,0,0-.139.011-.369.3s-.075.637-.1.434a6.158,6.158,0,0,0-1.556-2.239c-1.821-1.952-3.815-3.451-5.6-5.561a2.976,2.976,0,0,1-.736-1.617,1.541,1.541,0,0,1,1.431-1.564,4.09,4.09,0,0,1,1.644.273c3.231,1.188,6.224,3.6,9.711,3.735.091-.014.166-.034.154-.046-.143,0-.263.13-.35.25-.179.354-.06.32-.219.071a33.068,33.068,0,0,0-1.982-2.854c-.727-1.025-1.437-2.107-2.242-3.109s-1.644-1.983-2.522-2.927a.629.629,0,0,1,.892-.886Z"/><path class="cls-20" d="M376.13,241.3a2.279,2.279,0,0,1-2.164-.541c-1.337-.668-2.565-1.986-3.849-2.26-1.045-.09-1.588.961-2.042,1.8a11.583,11.583,0,0,1-5.5,4.858,8.317,8.317,0,0,1-3.763.007,9.021,9.021,0,0,0-1.864.014c-1.887-.032-3.152-1.871-4.795-2.416a.5.5,0,1,1,.433-.9c1.762,1.035,3.9.285,5.617,1.584,1.236.538,2.692.056,3.859-.161a3.659,3.659,0,0,0,2.613-1.372c1.674-2.248,4.026-5.906,7.46-4.677,1.587.48,2.131,2.06,3.233,3.007a.5.5,0,0,0,.491.126.493.493,0,0,1,.271.933Z"/><path class="cls-25" d="M483.646,187.909a4.321,4.321,0,0,1,3.086-4.641"/><path class="cls-25" d="M472.883,181.129a4.32,4.32,0,0,1-5.548.549"/><path class="cls-26" d="M519.951,243.149a4.321,4.321,0,0,1-2.621,4.918"/><path class="cls-26" d="M365.566,140.073a4.322,4.322,0,0,1-2.621,4.919"/><ellipse class="cls-16" cx="284.323" cy="279.334" rx="8.682" ry="6.253" transform="matrix(0.645, -0.764, 0.764, 0.645, -112.517, 316.557)"/><path class="cls-16" d="M287.829,272.3h0a1.624,1.624,0,0,1,.93.264,24.014,24.014,0,0,1,2.249,1.745c2.411,2.034,2.015,6.482-.882,9.917a9.306,9.306,0,0,1-6.682,3.545,4.491,4.491,0,0,1-2.945-1c-.6-.5-1.411-1.19-1.984-1.776-1.477-1.508.451-5.277,2.866-8.141,1.771-2.1,4.521-4.549,6.448-4.549m0-.533c-2.133,0-4.981,2.517-6.855,4.739-2.372,2.811-4.693,6.965-2.84,8.857.591.6,1.407,1.292,2.021,1.811a5.01,5.01,0,0,0,3.289,1.13,9.75,9.75,0,0,0,7.089-3.734c3.092-3.666,3.458-8.442.819-10.669a24.588,24.588,0,0,0-2.3-1.782,2.173,2.173,0,0,0-1.225-.352Z"/><path class="cls-6" d="M287.562,276.081a2.426,2.426,0,0,1,.523.648,3.721,3.721,0,0,1,.214.461.373.373,0,0,1-.185.41l-.437.269c-.142.087-.293.062-.34-.061a3.755,3.755,0,0,0-.151-.345,1.552,1.552,0,0,0-.352-.465.673.673,0,0,0-.583-.169,1.4,1.4,0,0,0-.739.511l-.622.7a.289.289,0,0,0-.041.4l.817.728a.29.29,0,0,1-.041.4l-.256.287a.29.29,0,0,1-.39.087l-.817-.727a.29.29,0,0,0-.39.087l-.411.461a2.638,2.638,0,0,1-.772.666,1.017,1.017,0,0,1-.5.127l1.926,1.715a.29.29,0,0,1-.041.4l-.391.439a.29.29,0,0,1-.39.087l-2.759-2.456a.29.29,0,0,1,.041-.4l.412-.463a.363.363,0,0,1,.3-.138,1.433,1.433,0,0,0,.587-.035,1.881,1.881,0,0,0,.821-.614l.418-.47a.29.29,0,0,0,.041-.4l-.2-.179a.289.289,0,0,1,.042-.4l.255-.287a.29.29,0,0,1,.39-.087l.2.178a.29.29,0,0,0,.39-.086l.652-.733a3.139,3.139,0,0,1,1.02-.808,1.611,1.611,0,0,1,.949-.144A1.65,1.65,0,0,1,287.562,276.081Z"/><path class="cls-27" d="M280.273,275.919c2.62-3.1,6.556-4.093,8.792-2.207,5.152,4.762-3.927,15.52-9.485,11.244-2.236-1.886-1.926-5.932.693-9.037Z"/><path class="cls-2" d="M236.9,411.682a8.178,8.178,0,0,1-8.456,2.287c-4.595-1.534-5.8-6.88-2.491-10.512a8.168,8.168,0,0,1,8.454-2.285C239,402.706,240.211,408.05,236.9,411.682Zm-11.67-5.125a5.53,5.53,0,0,0-.2,1.758l2.429,1.165.841-.524.327-2.9-.725-.546Zm.224,3.564a5.276,5.276,0,0,0,1.576,2.049l-.034-1.9-1.784-.855A5.143,5.143,0,0,0,225.457,410.121Zm.2-4.652,1.956-.767.464-1.891A6.213,6.213,0,0,0,225.658,405.469Zm4.093,7.9,2.124-1.858-.2-.811-2.962-.982-.77.48L228,412.78A5.845,5.845,0,0,0,229.751,413.366Zm1.293-11.644a7.226,7.226,0,0,0-1.869.5l-.632,2.588.725.546,3.079-.837.408-.848Zm.957,8.129,2.014-2.21-1.5-2.269-2.943.8-.312,2.772Zm2.479,2.661-1.963-.4-1.547,1.355A7.184,7.184,0,0,0,234.48,412.512Zm-2.2-10.826,1.246,1.422,2.065-.322A6.091,6.091,0,0,0,232.278,401.686Zm4.5,8.717-1.1-2.3-.877-.025-2.184,2.4.189.779,2.694.554A6.517,6.517,0,0,0,236.781,410.4Zm-.347-6.871-2.814.437-.375.777,1.631,2.46.9.025,1.613-2.244A5.3,5.3,0,0,0,236.434,403.532Zm1.291,2.512-1.179,1.642.8,1.676A5.515,5.515,0,0,0,237.725,406.044Z"/><path class="cls-2" d="M205.705,396.8l-4.014-3.015a.1.1,0,0,1-.009-.156l1.922-2.11a.123.123,0,0,1,.171-.021l.659.5a.1.1,0,0,1,.009.157l-1.152,1.264.79.594,1.082-1.188a.123.123,0,0,1,.171-.021l.659.494a.1.1,0,0,1,.009.156l-1.082,1.188,1.635,1.229a.1.1,0,0,1,.009.156l-.688.757A.124.124,0,0,1,205.705,396.8Z"/><path class="cls-2" d="M211.7,390.392l-.737.81a.176.176,0,0,1-.159.061l-2.153-.194-.194.213,1.354,1.017a.1.1,0,0,1,.01.156l-.689.756a.123.123,0,0,1-.171.022l-4.014-3.015a.1.1,0,0,1-.009-.156l1.157-1.271a1.889,1.889,0,0,1,2.718-.437,1.382,1.382,0,0,1,.547,1.725l2.285.173C211.745,390.26,211.76,390.322,211.7,390.392Zm-4.082.26.366-.4c.286-.313.448-.679.017-1s-.8-.115-1.088.2l-.366.4Z"/><path class="cls-2" d="M212.758,389.06l-4.013-3.015a.1.1,0,0,1-.009-.156l1.943-2.134a.123.123,0,0,1,.171-.02l.659.494a.1.1,0,0,1,.009.156l-1.174,1.289.821.616,1.1-1.212a.125.125,0,0,1,.171-.021l.659.5a.1.1,0,0,1,.01.156L212,386.92l.856.644,1.169-1.283a.13.13,0,0,1,.176-.027l.659.494a.1.1,0,0,1,0,.162l-1.939,2.128A.123.123,0,0,1,212.758,389.06Z"/><path class="cls-2" d="M216.054,385.443l-4.013-3.015a.1.1,0,0,1-.01-.156l1.944-2.134a.123.123,0,0,1,.17-.022l.66.5a.1.1,0,0,1,.009.156l-1.174,1.289.821.615,1.1-1.211a.123.123,0,0,1,.171-.021l.659.5a.1.1,0,0,1,.009.156l-1.1,1.212.857.643,1.168-1.283a.133.133,0,0,1,.177-.027l.658.495a.1.1,0,0,1,0,.162l-1.939,2.128A.123.123,0,0,1,216.054,385.443Z"/><path class="cls-2" d="M220.932,380.087l-4.013-3.014a.1.1,0,0,1-.009-.157l1.308-1.435a1.536,1.536,0,0,1,2.11-.347,1.059,1.059,0,0,1,.39,1.189,1.516,1.516,0,0,1,1.793-.007c.707.531.756,1.374-.153,2.373l-1.255,1.377A.124.124,0,0,1,220.932,380.087Zm-1.25-3.179c.258-.284.306-.546,0-.776-.288-.216-.551-.115-.809.168l-.372.408.809.608Zm1.788,1.214c.319-.348.384-.7.036-.959s-.7-.128-1.018.221l-.441.484.982.739Z"/><path class="cls-2" d="M224.67,375.985l-4.014-3.014a.1.1,0,0,1-.009-.156l1.943-2.134a.122.122,0,0,1,.171-.022l.66.5a.1.1,0,0,1,.008.156l-1.173,1.288.82.616,1.1-1.212a.124.124,0,0,1,.171-.02l.659.5a.1.1,0,0,1,.009.155l-1.1,1.212.856.644,1.169-1.283a.13.13,0,0,1,.176-.027l.659.5a.1.1,0,0,1,0,.162l-1.938,2.128A.122.122,0,0,1,224.67,375.985Z"/><path class="cls-2" d="M228.654,371.612l-3.265-2.454-.716.788a.122.122,0,0,1-.17.02l-.66-.5a.1.1,0,0,1-.008-.155l2.288-2.513a.13.13,0,0,1,.175-.027l.66.5a.105.105,0,0,1,0,.162l-.716.786,3.264,2.452a.1.1,0,0,1,.009.156l-.689.757A.132.132,0,0,1,228.654,371.612Z"/><line class="cls-28" x1="197.753" y1="390.391" x2="205.839" y2="381.65"/><path class="cls-5" d="M414.311,335.5l-22.3,32.066a1,1,0,0,1-1.669-1.1l20.711-33.112a1.95,1.95,0,1,1,3.255,2.147Z"/><path class="cls-5" d="M493.42,351.912,470.727,366.23a.688.688,0,0,1-.762-1.144l21.971-15.4a1.339,1.339,0,1,1,1.484,2.23Z"/><g class="cls-29"><path class="cls-30" d="M419.2,285.965c-15.3,18.519-8.909,47.271,15.173,64.613a67.406,67.406,0,0,0,23.292,10.773"/><path class="cls-31" d="M433.158,257.788c-18.915,20.684-13.159,54.568,13.888,76.194a78.659,78.659,0,0,0,26.512,13.923"/><path class="cls-30" d="M416.094,288.4c-15.3,18.519-8.909,47.272,15.174,64.614a67.4,67.4,0,0,0,23.291,10.773"/></g><path class="cls-2" d="M394.615,409.161a4.8,4.8,0,0,1-.305-5.727c1.872-2.511,5.989-2.1,8.115.732a4.793,4.793,0,0,1,.3,5.727C400.858,412.405,396.742,412,394.615,409.161Zm-.216-1.677.615-1.128-.743-1.251A4.146,4.146,0,0,0,394.4,407.484Zm.142-3.113,1.018,1.717.627.053,1.2-1.62-.226-.581-1.906-.524A3.209,3.209,0,0,0,394.541,404.371Zm1.031,4.992,1.865-.185.161-.538-1.4-1.87-.6-.052-.843,1.547A4.924,4.924,0,0,0,395.572,409.363Zm2.046-6.947a3.868,3.868,0,0,0-1.759.533l1.4.388.916-.918A4.3,4.3,0,0,0,397.618,402.416Zm1,8.474-1.013-1.084-1.359.136A5.046,5.046,0,0,0,398.616,410.89Zm-1.862-4.365,1.294,1.724,1.908-.438-.108-2-1.981-.792Zm3.516-3.476a5.073,5.073,0,0,0-1.258-.5l-1.25,1.252.248.633,2.076.831.517-.331Zm.4,7.586.136-1.837-.509-.4-2.069.477-.165.553,1.384,1.483A4.074,4.074,0,0,0,400.669,410.635Zm2.2-2.945a4.134,4.134,0,0,0-.066-1.265l-1.8-.951-.518.331.114,2.086.556.436ZM401,403.547l.245,1.376,1.312.7A4.646,4.646,0,0,0,401,403.547Zm1.7,4.916-1.245.463-.1,1.347A3.4,3.4,0,0,0,402.7,408.463Z"/><path class="cls-2" d="M410.645,393.1l2.877-1.84a.091.091,0,0,1,.12.025l.908,1.083c.467.557.376,1.088-.04,1.354a.955.955,0,0,1-.962,0,.8.8,0,0,1-.253,1.093c-.506.323-1.158.183-1.789-.57l-.87-1.038A.067.067,0,0,1,410.645,393.1Zm1.422.72c.22.262.477.372.726.212s.2-.4-.022-.663l-.306-.365-.7.45Zm1.184-.847c.178.214.373.3.591.157s.166-.313-.012-.527l-.257-.307-.58.37Z"/><path class="cls-2" d="M414.589,395.194a2.3,2.3,0,0,1,2.894.612,1.689,1.689,0,0,1-.2,2.6,2.3,2.3,0,0,1-2.894-.62A1.685,1.685,0,0,1,414.589,395.194Zm2.091,2.494a.931.931,0,0,0,.137-1.457,1.267,1.267,0,0,0-1.631-.326.937.937,0,0,0-.134,1.455A1.269,1.269,0,0,0,416.68,397.688Z"/><path class="cls-2" d="M421.657,400.967l-2.877,1.84a.091.091,0,0,1-.12-.025l-.557-.665a.1.1,0,0,1-.023-.107l.992-2.223-1.838,1.175a.089.089,0,0,1-.12-.026l-.479-.57a.068.068,0,0,1,.009-.108l2.877-1.84a.092.092,0,0,1,.12.026l.557.664a.1.1,0,0,1,.024.107l-.993,2.223,1.838-1.175a.091.091,0,0,1,.121.026l.478.571A.066.066,0,0,1,421.657,400.967Z"/><path class="cls-2" d="M420.741,403.109l1.765-1.129a.09.09,0,0,1,.12.025l.478.57a.068.068,0,0,1-.008.109l-1.756,1.123a.526.526,0,0,0-.154.871.706.706,0,0,0,1,.136l1.757-1.123a.09.09,0,0,1,.12.025l.478.57c.034.041.031.084-.008.109l-1.765,1.129a1.63,1.63,0,0,1-2.245-.42A1.211,1.211,0,0,1,420.741,403.109Z"/><path class="cls-2" d="M422.788,406.928c.007-.039.041-.062.093-.053l.593.093a.1.1,0,0,1,.091.093,1.008,1.008,0,0,0,.224.794c.19.227.411.333.6.212s.12-.283.042-.534l-.146-.488a.918.918,0,0,1,.3-1.178,1.294,1.294,0,0,1,1.692.432,1.545,1.545,0,0,1,.385,1.191.071.071,0,0,1-.09.064l-.59-.074a.1.1,0,0,1-.1-.08.982.982,0,0,0-.208-.681c-.172-.2-.372-.263-.527-.164s-.109.263-.022.556l.128.4c.126.427.227.909-.288,1.238a1.388,1.388,0,0,1-1.787-.486A1.539,1.539,0,0,1,422.788,406.928Z"/><line class="cls-32" x1="416.71" y1="389.473" x2="423.044" y2="396.958"/><path class="cls-33" d="M157.07,341.741l-7.71,20.56a4.331,4.331,0,0,0,2.746,5.648l27.28,8.65a5.088,5.088,0,0,0,6.349-3.192l4.589-12.6"/><path class="cls-33" d="M275.079,406.788a15.118,15.118,0,0,0-.688,20.666,14.492,14.492,0,0,0,20.29,1.037,15.083,15.083,0,0,0,1.534-21.445"/><path class="cls-33" d="M307.606,441.705a5.86,5.86,0,0,0-5.975,5.343,5.618,5.618,0,0,0,5.144,5.962,5.94,5.94,0,0,0,5.14-2.125"/><path class="cls-34" d="M365.181,216.4s24.441,4.743,28.432,21.148-15.962,57.2-25.273,61.188-11.085,2.66-14.189,7.094-23.5,28.377-23.5,28.377-10.641-1.33-26.16-4.434c0,0,21.726-24.386,32.811-51.877,0,0,7.094,2.661,14.632-5.764S364.238,237.371,365.181,216.4Z"/><path class="cls-3" d="M365.236,182.122c-3.146-26.919-29.167-38.676-40.036-42.446,4.158-13.744.276-36.167-16.607-46.232-17.292-10.309-29.263-.665-29.263-.665s-20.618-5.321-30.261,10.974c-4.446,7.511-3.715,20.922-5.077,30.333-4.253,1.7-10.562,5.836-18.368,15.724-14.964,18.955-32.422,58.527-30.593,67.339,1.342,6.469,22.611,16.375,32.427,22.17l-3.884,2.217s-30.817,24.659-33.587,30.287-10.309,11.613-2.106,26.023,36.8,27.268,36.8,27.268a6.171,6.171,0,0,0,6.617-3.381l-10.164-23.222.018-.419a173.077,173.077,0,0,0,31.127-16.618l12.741-7.556L247.3,324.006s-6.429,17.957,11.75,25.5,33.919-5.764,33.919-5.764,22.391-21.948,44.56-66.065l-.626-.067c4.972.093,9.011-.457,11.489-1.929C362.576,267.252,369.227,216.262,365.236,182.122Z"/><path class="cls-35" d="M222.022,324.006s-5.321,8.2-4.656,11.528,2.217,8.2,5.321,7.538,5.764-9.09,5.986-11.307,1.773-8.424,1.773-8.424"/><path class="cls-11" d="M329.765,291.528c-4.655-4.323-18.255-10.792-42.233-16.3-32.362-7.427-30.81-13.3-40.454-21.948a116.788,116.788,0,0,0-17.708-13.274c-9.816-5.794-32.838-15.546-34.335-22.779-1.823-8.813,14.466-49.631,29.43-68.586,7.806-9.888,15.519-13.967,21.726-15.519,1.362-9.411-1.346-22.306,3.1-29.818,9.644-16.294,30.261-10.973,30.261-10.973s11.972-9.644,29.264.665c16.883,10.065,20.765,32.487,16.606,46.232,10.87,3.77,36.89,15.526,40.037,42.445,3.99,34.141-2.66,85.131-16.849,93.555-2.479,1.472-10.863,2-10.863,2Zm-89.675-98.1s-6.374,13.135-13.856,21.615l12.914,14.8,8.812-6.484S240.7,207.339,240.09,193.428Z"/><path class="cls-36" d="M316.229,314.243a333.833,333.833,0,0,0,21.3-36.571"/><path class="cls-37" d="M290.981,249.073l-12.637,1s-11.584-2.882-15.131-2c0,0,.111,2.937,3.714,4.212L256.4,257.553l-2.494,1.164a35.135,35.135,0,0,0,9.7,1.663,37.479,37.479,0,0,1,10.42,2l15.629,3.99S291.147,254.283,290.981,249.073Z"/><path class="cls-38" d="M320.454,138.226s24.89,5.952,37.687,24.83"/><path class="cls-36" d="M285.1,265.479c-6.075-2-10.078-3.1-10.078-3.1s-6.429-2.439-10.42-2-9.754-1.109-11.528-2.882-1.108-4.656-1.108-4.656"/><path class="cls-38" d="M366.335,207.834c-.6,29.776-7.047,61.371-17.948,67.843-9.805,5.822-41.1-2.756-59.495-8.612"/><path class="cls-38" d="M321.341,200.3s-1.33,39.018-.444,44.782"/><path class="cls-37" d="M235.945,244.916,225.8,238.6a14,14,0,0,1,11.972-10.807l8.979,10.308,3.491,2.328-.332,2.993Z"/><polyline class="cls-38" points="221.911 210.831 226.123 215.154 236.437 226.682"/><path class="cls-36" d="M223.574,241.536s-30.817,24.659-33.587,30.287-10.309,11.613-2.106,26.023,36.8,27.268,36.8,27.268a6.171,6.171,0,0,0,6.617-3.381l-10.164-23.222"/><path class="cls-36" d="M215.149,300.285s19.731-5.986,43.231-23.057c0,0,3.99-3.547,7.094-2.438"/><path class="cls-36" d="M266.361,270.134,247.3,324.006s-6.429,17.957,11.75,25.5,33.919-5.764,33.919-5.764"/><path class="cls-36" d="M256.052,263.705s7.981,7.981,30.926,11.972,37.91,13.634,37.91,13.634"/><path class="cls-35" d="M261.04,350.166s-9.394,7.161-8.577,11.783,9.907,2.849,11.681,1.3,3.547-11.307,3.547-11.307"/><path class="cls-37" d="M324.888,139.667s2,9.055-1,16.295c-4.969,11.98-12.356,20.7-25.6,26.27-17.432,7.327-24.608-7.98-24.608-7.98s-7.981-.333-16.3-16.96c-7.516-15.032-7.316-37.577-7.316-37.577A388.457,388.457,0,0,1,324.888,139.667Z"/><path class="cls-36" d="M253.175,146.445c3.258,9.74,10.829,27.183,23.494,28.139A31.641,31.641,0,0,0,305.6,160.95"/><path class="cls-35" d="M323.225,145.32l1.663-4.655c4.655-13.634,2-39.24-15.3-49.549s-26.936-2-26.936-2S269.021,76.152,251.729,98.1c-15.074,19.132,1.663,39.239-12.3,45.89,0,0,28.6,8.979,45.89-5.985l7.981-5.986s5.321-1.33,8.647,1,3.99,8.314,3.325,13.3.665,5.321.665,5.321l4.323-2.661s-1.663-3.325,2.328-6.983c0,0,7.316-5.321,9.976.665"/><path class="cls-36" d="M268.023,155.962s-.665,11.306,1,12.3,6.651-.665,6.651-.665"/><path class="cls-36" d="M276.337,172.145s7.759-.221,8.2-2.438"/><path class="cls-36" d="M276.115,148.868s7.316-1.331,10.641.665"/><line class="cls-36" x1="264.365" y1="147.759" x2="261.705" y2="146.429"/><line class="cls-36" x1="279.219" y1="153.301" x2="279.219" y2="154.853"/><line class="cls-36" x1="260.153" y1="149.311" x2="260.153" y2="150.863"/><line class="cls-36" x1="300.945" y1="288.091" x2="321.784" y2="296.516"/><path class="cls-38" d="M290.648,248.63s.665,9.754-1.552,18.068l8.2,2.66s3.879-12.082,1.663-21.282Z"/><path class="cls-38" d="M237.651,228.123s-10.364.166-12.359,10.475l-7.138-3.819s1.528-12.314,13.844-12.974Z"/><path class="cls-39" d="M252.172,260.158S230,280.11,222.465,284.988s-5.764,11.528-4.434,13.745c0,0,21.726-7.981,30.594-15.075a62.517,62.517,0,0,1,16.4-9.74l1.34-3.784Z"/><path class="cls-39" d="M240.09,197.862s12.636,21.948,15.962,27.268a16.256,16.256,0,0,1,2,12.969c-.665,2.993-3.658-4.489-12.969-1.164l-5.487-6.65,8.147-5.487A180.741,180.741,0,0,1,240.09,197.862Z"/><path class="cls-34" d="M265.021,273.918a133.682,133.682,0,0,0-16.4,9.74c-9.2,6.318-16.184,10.641-16.184,10.641l14.965,28.6S261.354,282.8,265.021,273.918Z"/><path class="cls-2" d="M222.81,246.413s-5.321,0-5.321,3.325,19.287,13.3,19.287,13.3,4.323,1.33,6.319.665,22.28-8.979,22.28-8.979,4.655-1.662-.333-4.323-13.135-7.149-15.13-6.983S222.81,246.413,222.81,246.413Z"/><path class="cls-40" d="M220.651,249.075l1.826,1.218,2.66.11,10.2,6.208L235,258.163s4.212,3.325,5.1,2.993,24.94-7.76,24.94-8.647-14.188-7.759-15.3-7.759c-.985,0-23.872,2.979-28.941,3.64A.374.374,0,0,0,220.651,249.075Z"/><path class="cls-36" d="M278.344,250.071a19.465,19.465,0,0,0-7.316-2.217c-3.769-.222-8.646.055-8.646.055s.61,3.215,5.653,4.434a57.948,57.948,0,0,1,5.931,1.774"/><line class="cls-38" x1="321.23" y1="245.748" x2="292.197" y2="248.674"/><path class="cls-36" d="M314.69,155.3s11.085-1.109,7.538-13.967"/><path class="cls-38" d="M289.638,186.334s13.746.665,26.825-13.524"/><ellipse class="cls-41" cx="237.813" cy="251.393" rx="4.695" ry="2.669"/><ellipse class="cls-42" cx="249.569" cy="252.389" rx="6.252" ry="3.554"/><path class="cls-37" d="M237.222,244.792l6.7-.707c-1.995,2.162-2.993,8.314-2.993,8.314l4.988-.5s0-1.5,2.827-3.159a16.135,16.135,0,0,0,4.157-3.326,8.268,8.268,0,0,0-6.152-7.316"/><path class="cls-36" d="M244.924,243.919s-3.16,2.494-3.492,4.988-.5,3.492-.5,3.492,4.417.4,4.988-.5a12.438,12.438,0,0,1,5.321-4.822"/><path class="cls-36" d="M238.37,228.756l8.383,9.343s4.821,1.331,6.152,5.986c.736,2.578.166.831.166.831"/><path class="cls-36" d="M238.926,181.4l.836,14.3s3.15,18.456,7.976,28.1"/><line class="cls-38" x1="329.987" y1="249.408" x2="323.558" y2="246.97"/><line class="cls-38" x1="321.562" y1="249.3" x2="321.784" y2="252.847"/><path class="cls-36" d="M282.655,89.121s1.33-8.314,13.967-8.314"/><line class="cls-43" x1="299.781" y1="215.487" x2="309.757" y2="212.66"/><line class="cls-44" x1="303.277" y1="217.812" x2="308.559" y2="216.316"/><path class="cls-45" d="M306.044,330.213l-10.087,23.611s3.769,7.759,8.646,3.99,26.049-23.61,26.049-23.61Z"/><line class="cls-46" x1="429.584" y1="214.104" x2="429.584" y2="225.522"/><line class="cls-46" x1="429.584" y1="174.31" x2="429.584" y2="183.843"/><line class="cls-46" x1="415.396" y1="199.916" x2="403.978" y2="199.916"/><line class="cls-46" x1="455.19" y1="199.916" x2="445.657" y2="199.916"/><line class="cls-46" x1="419.551" y1="209.949" x2="411.478" y2="218.022"/><line class="cls-46" x1="447.69" y1="181.81" x2="440.949" y2="188.551"/><line class="cls-46" x1="419.551" y1="189.883" x2="411.478" y2="181.81"/><line class="cls-46" x1="447.69" y1="218.022" x2="440.949" y2="211.281"/><line class="cls-47" x1="136.557" y1="259.887" x2="136.557" y2="265.015"/><line class="cls-47" x1="136.557" y1="242.011" x2="136.557" y2="246.293"/><line class="cls-47" x1="130.184" y1="253.513" x2="125.055" y2="253.513"/><line class="cls-47" x1="148.059" y1="253.513" x2="143.777" y2="253.513"/><line class="cls-47" x1="132.051" y1="258.02" x2="128.424" y2="261.647"/><line class="cls-47" x1="144.69" y1="245.38" x2="141.662" y2="248.408"/><line class="cls-47" x1="132.05" y1="249.007" x2="128.424" y2="245.38"/><line class="cls-47" x1="144.69" y1="261.647" x2="141.662" y2="258.619"/><line class="cls-36" x1="230.95" y1="241.924" x2="236.27" y2="245.249"/><ellipse class="cls-11" cx="547.375" cy="117.186" rx="24.949" ry="34.642" transform="translate(1.873 242.805) rotate(-25.052)"/><path class="cls-11" d="M547.451,83.027c10.4,0,21.4,8.571,27.362,21.328,7.594,16.241,4.5,33.791-6.9,39.122a96.212,96.212,0,0,1-10.475,4.387,6.154,6.154,0,0,1-1.947.315c-7.3,0-16.322-12.3-22.021-24.489-6.332-13.542-9.842-30.064-2.588-34.341,2.816-1.66,6.673-3.464,9.49-4.781a16.587,16.587,0,0,1,7.081-1.541m0-2.127a18.707,18.707,0,0,0-7.982,1.741C536.562,84,532.7,85.805,529.8,87.517c-9.1,5.365-4.475,23.779,1.741,37.074,5.4,11.556,14.974,25.715,23.948,25.715a8.212,8.212,0,0,0,2.62-.425,97.486,97.486,0,0,0,10.7-4.477c12.482-5.837,16.031-24.619,7.929-41.95C570.276,89.627,558.348,80.9,547.451,80.9Z"/><path class="cls-6" d="M541,100.629a9.644,9.644,0,0,1,3.239-.739,15.218,15.218,0,0,1,2.025.04,1.5,1.5,0,0,1,1.145,1.385l.2,2.038c.064.661-.292,1.156-.813,1.108a14.721,14.721,0,0,0-1.5-.061,6.169,6.169,0,0,0-2.283.446,2.688,2.688,0,0,0-1.628,1.792,5.581,5.581,0,0,0,.536,3.548l1.414,3.454c.271.661.876,1.039,1.353.844l4.039-1.654c.476-.195,1.082.183,1.353.844l.58,1.419a1.158,1.158,0,0,1-.372,1.55l-4.039,1.654a1.158,1.158,0,0,0-.372,1.551l.933,2.28a10.573,10.573,0,0,1,1.032,3.936,4.048,4.048,0,0,1-.427,2.031l9.524-3.9c.476-.195,1.081.183,1.352.844l.89,2.174a1.158,1.158,0,0,1-.373,1.55l-13.636,5.583c-.477.195-1.082-.183-1.353-.844l-.936-2.286a1.456,1.456,0,0,1,.029-1.319,5.718,5.718,0,0,0,.907-2.165,7.542,7.542,0,0,0-.765-4.017l-.95-2.323c-.271-.661-.877-1.039-1.353-.844l-.991.406c-.476.2-1.082-.183-1.352-.844l-.581-1.419a1.158,1.158,0,0,1,.372-1.55l.991-.406a1.158,1.158,0,0,0,.372-1.55l-1.482-3.622a12.559,12.559,0,0,1-1.109-5.075,6.409,6.409,0,0,1,1.149-3.651A6.561,6.561,0,0,1,541,100.629Z"/><path class="cls-48" d="M528.228,126.14c6.865,14.682,21,22.577,31.576,17.632,24.759-13.19,1.125-63.718-24.859-53.171-10.574,4.945-13.581,20.856-6.717,35.539Z"/></g></svg>