<svg id="Layer_1" data-name="Layer 1" xmlns="http://www.w3.org/2000/svg" viewBox="0 0 593.309 145.986"><defs><style>.cls-1{fill:#ccd1d6;}</style></defs><path class="cls-1" d="M37.591,29.539c.539-.269,1.132-.593,1.672-.863.215-.108.97-.377,1.078-.593a2.181,2.181,0,0,0,0-.593V6.78c0-.054.054-.431,0-.485s-.485,0-.539,0H38.615c-.431,0-.377.054-.647.377-1.024,1.349-2.049,2.7-3.074,4.1-.485.647-.971,1.241-1.4,1.888-.324.431-.324.485-.917.485l.162-3.559c.054-.863.054-1.726.108-2.589,0-.324.054-.647.054-.971,0-.108-.054-.431,0-.485.108-.162,1.078-.054,1.348-.054H54.417a3.035,3.035,0,0,1,.7,0c.108.054.054.377.054.539.054.7.054,1.456.108,2.158.054,1.564.108,3.074.216,4.638v.323c-.27,0-.485.054-.7-.108a3.46,3.46,0,0,1-.54-.7c-.647-.863-1.294-1.78-2-2.642L50.319,7.1c-.108-.162-.27-.539-.486-.647-.162-.108-.485-.054-.7-.054H48.27a2.594,2.594,0,0,0-.647,0c-.054.054,0,.054-.054.162a6.07,6.07,0,0,0,0,1.4v18.77a5.188,5.188,0,0,0,0,1.294c.108.378.971.647,1.348.809a6.4,6.4,0,0,1,1.349.7,1.046,1.046,0,0,1,.107.809c-.053.054-.323,0-.377,0H38.13c-.108,0-.485.054-.539,0A4.04,4.04,0,0,1,37.591,29.539ZM57.6,28.568V5.7a3.982,3.982,0,0,0,0-1.133c-.108-.377-.755-.431-1.132-.593-.216-.054-.917-.216-1.025-.432V3.111H55.6a4.615,4.615,0,0,1,.917-.162c.485-.108.97-.162,1.4-.269,1.078-.216,2.211-.432,3.29-.594.646-.106,1.3-.267,1.946-.375.162,0,.809-.108.863,0,.054.054,0,.269,0,.323V13.2a9.587,9.587,0,0,1,8.467-2.481c2.481.594,3.29,2.913,3.29,5.286.054,3.02,0,5.986,0,9.006v2.427a4.362,4.362,0,0,0,0,1.186c.054.108.27.162.377.27.378.216.809.431,1.187.647.054.054.216.108.216.162a1.106,1.106,0,0,1,0,.593c-.054.108-.054.054-.216.054a9.8,9.8,0,0,1-1.78,0H67.792c-.054,0-.323.054-.377,0a1.533,1.533,0,0,1,0-.7c.161-.216.809-.431,1.024-.593.162-.108.648-.27.755-.432s0-.755,0-.916V25.494c0-3.128.054-6.31,0-9.438a2.6,2.6,0,0,0-1.078-2.48,3.553,3.553,0,0,0-1.672-.324,4.56,4.56,0,0,0-1.241.216,2.847,2.847,0,0,0-1.132.593c-.162.216-.054.539-.054.809V27.6a3.257,3.257,0,0,0,0,1.024.857.857,0,0,0,.431.27c.378.216.863.431,1.241.647.054.054.162.054.162.108a1.106,1.106,0,0,1,0,.593c-.054.054-.108.054-.216.054-.593.054-1.24,0-1.834,0H56.035c-.054,0-.323.054-.377,0a1.609,1.609,0,0,1,.054-.7,3.42,3.42,0,0,1,.97-.539A7.113,7.113,0,0,0,57.6,28.568Zm25.617-7.442c.108,2.373.863,5.016,3.021,6.31a6.725,6.725,0,0,0,3.829.755,11.781,11.781,0,0,0,4.206-1.618,4.05,4.05,0,0,1,0,.809,3.122,3.122,0,0,1-.539.647,9.609,9.609,0,0,1-.755.7,9.827,9.827,0,0,1-3.02,1.672,11.683,11.683,0,0,1-6.526.108,8.4,8.4,0,0,1-4.314-2.535,9.253,9.253,0,0,1-2.05-4.692c-.593-3.721.108-7.982,3.182-10.462a10.749,10.749,0,0,1,10.193-1.295c3.883,1.564,4.53,5.987,4.53,9.654h-10.3a13.114,13.114,0,0,0-1.457-.054Zm-.107-.917c1.078-.054,2.157-.108,3.289-.216.648-.054,1.349-.054,2-.107a1.5,1.5,0,0,0,.485-.054c.162-.108.054-1.187.054-1.4-.054-1.941-.108-4.314-1.24-5.986-.809-1.186-2.05-.971-2.805.108-1.568,2.1-1.783,5.228-1.783,7.657ZM1.457,39.894a15.748,15.748,0,0,1,2.265-8.683A12.293,12.293,0,0,1,10.733,26.3a23.77,23.77,0,0,1,10.678-.215c.756.161,1.511.323,2.212.539.108.054.593.162.647.27v.161a9.106,9.106,0,0,1,.054,2.1c.054,1.672.054,3.4.108,5.069a3.529,3.529,0,0,1-.755,0c-.108-.054-.216-.323-.27-.431-.432-.647-.863-1.3-1.24-2-.917-1.456-1.888-2.912-2.8-4.368-.485-.809-1.834-.809-2.7-.809a5.322,5.322,0,0,0-2.751.647c-1.835,1.145-2.7,3.352-3.183,5.345a34.865,34.865,0,0,0-.539,9.762,22.687,22.687,0,0,0,1.348,7.388,4.622,4.622,0,0,0,3.182,2.967,4.7,4.7,0,0,0,1.51.053c.324-.053,1.456-.107,1.618-.431a1.462,1.462,0,0,0,0-.485V43.022c0-.378.108-.539-.216-.755-.377-.216-.809-.432-1.186-.7-.27-.162-.809-.324-.971-.54a1.055,1.055,0,0,1-.054-.808c.054-.108.054-.054.216-.054a8.1,8.1,0,0,1,1.618,0h8.359c.539,0,1.133-.054,1.672,0h.216a2.61,2.61,0,0,1,0,.916,3.306,3.306,0,0,1-.863.486,13.728,13.728,0,0,0-1.187.7c-.431.216-.377.216-.377.7v8.791a1.462,1.462,0,0,1,0,.485c-.108.27-1.241.432-1.564.539a24.521,24.521,0,0,1-2.859.648,28.63,28.63,0,0,1-5.662.377,15.479,15.479,0,0,1-8.683-2.589A11.361,11.361,0,0,1,2.1,44.694,15.912,15.912,0,0,1,1.457,39.894Zm24.862-4.908c0-.108-.054-.539,0-.593s.108,0,.162-.054a3.815,3.815,0,0,1,1.133-.216c1.24-.215,2.48-.431,3.775-.647.97-.162,1.941-.377,2.858-.485a1.566,1.566,0,0,1,.863.054c.27.054.162,0,.216.215a12.991,12.991,0,0,1,0,2.05V46.581c0,1.349-.378,3.829.917,4.638a3.131,3.131,0,0,0,2.319.27c.593-.108,1.725-.539,1.941-1.186a1.81,1.81,0,0,0,0-.54V36.55a1.8,1.8,0,0,0,0-.539,3,3,0,0,0-.863-.378c-.323-.107-.593-.269-.917-.377-.108-.054-.485-.108-.539-.216a1.106,1.106,0,0,1,0-.593c.054-.054.054,0,.108-.054a3.369,3.369,0,0,1,1.025-.162c2.211-.377,4.476-.863,6.741-1.186a2.04,2.04,0,0,1,.809,0c.27.054.162-.054.216.215a11.022,11.022,0,0,1,0,1.888V50.68a2.594,2.594,0,0,0,0,.647c.054.162,0,.108.269.216.54.216,1.133.485,1.672.7.162.054.216.054.27.162s.054.485,0,.485c-.108.108-.647.054-.755.108-1.187.162-2.373.27-3.614.432-1.078.107-2.157.269-3.182.377a1.312,1.312,0,0,1-.647,0,1.35,1.35,0,0,1-.485-.054,2.594,2.594,0,0,1,0-.647v-.917c0-.162.108-.593,0-.755s-.324.054-.485.162a8.99,8.99,0,0,1-7.443,2.157,4.693,4.693,0,0,1-3.452-2.642,7.517,7.517,0,0,1-.593-3.236V36.55a1.8,1.8,0,0,0,0-.539c-.108-.162-.755-.324-.917-.432C27.182,35.364,26.751,35.2,26.319,34.986Zm50.857-2.049c.108,0,.593,0,.647.108.054.054,0,.431,0,.485v4.746a2.181,2.181,0,0,0,0,.593v.108c.216.216.27-.485.324-.539.485-2,1.4-4.315,3.451-5.124a4.333,4.333,0,0,1,1.133-.269c.324,0,1.24-.108,1.4.161a1.468,1.468,0,0,1,0,.486v5.5a9.916,9.916,0,0,0-3.991.054,6.038,6.038,0,0,0-1.671.539c-.27.108-.324.054-.378.27a4.05,4.05,0,0,0,0,.809V51.273c0,.108-.054.27,0,.378.108.162.485.27.647.323.27.162.593.324.863.486.108.054.27.108.324.216a1.78,1.78,0,0,1,0,.755c-.054.054-.378,0-.486,0h-8.95a2.985,2.985,0,0,1-.971,0h-.161a3.035,3.035,0,0,1,0-.7c.108-.324.809-.54,1.133-.7.215-.107.647-.269.755-.485a1.8,1.8,0,0,0,0-.539v-15c0-.054.054-.324,0-.378a1.013,1.013,0,0,0-.432-.107,6.4,6.4,0,0,0-.97-.27c-.324-.108-1.133-.162-.863-.7.054-.162.269-.108.485-.162,2.373-.431,4.692-.863,7.065-1.294a2.789,2.789,0,0,1,.647-.162Zm20.332.485V27.867a2.594,2.594,0,0,0,0-.647c-.054-.108-.27-.162-.431-.216-.432-.161-.863-.323-1.349-.485-.323-.108-.485-.054-.485-.431,0-.324-.054-.216.216-.27a11.385,11.385,0,0,1,1.887-.324c1.78-.323,3.506-.647,5.286-.97a4,4,0,0,1,1.132-.108c.432.054.486-.054.486.323.053.863,0,1.78,0,2.643V51c0,.215-.054.215.107.323a5.29,5.29,0,0,0,1.187.432c.216.054.809.162.917.323a1.533,1.533,0,0,1,0,.7,1.214,1.214,0,0,1-.432.054c-.755.108-1.456.216-2.211.27-1.672.216-3.344.431-5.069.647-.27.054-.917.162-1.025-.054a3.975,3.975,0,0,1,0-1.132c0-.162.108-.863,0-.971s-1.294.971-1.456,1.079a7.469,7.469,0,0,1-2.1.97,7.9,7.9,0,0,1-3.721.054c-5.177-1.186-6.256-7.334-5.824-11.811a10.786,10.786,0,0,1,2.588-6.471,8.719,8.719,0,0,1,5.663-2.535,9.592,9.592,0,0,1,4.638.539Zm0,17.2V34.878c0-.323-.054-.377-.431-.593a3.01,3.01,0,0,0-2.535-.27c-1.24.486-1.834,1.942-2.157,3.128a21.719,21.719,0,0,0-.647,6.742c.053,1.941.107,4.314,1.186,6.04a3.138,3.138,0,0,0,4.35.873c.081-.054.159-.111.234-.172Zm17.849-17.685c.27.054.594-.054.7.216a3.035,3.035,0,0,1,0,.7v16.88a3.529,3.529,0,0,0,0,.755c.054.216.27.27.486.378.323.161.593.323.917.485.107.054.431.162.485.324a3.529,3.529,0,0,1,0,.755h-.162a7.92,7.92,0,0,1-1.132,0h-8.194c-.216,0-.809.107-.971,0a1.053,1.053,0,0,1-.054-.809c.108-.162.486-.27.648-.324.323-.162.647-.377.97-.539.27-.162.216-.108.216-.324a19.854,19.854,0,0,0,0-2.535V36.874a4.05,4.05,0,0,0,0-.809c-.054-.216-.323-.216-.539-.324-.378-.162-.7-.269-1.079-.431-.108-.054-.539-.108-.647-.27a1.312,1.312,0,0,1,0-.647c.054-.054.162,0,.216-.054a10.742,10.742,0,0,1,1.4-.27c.7-.107,1.348-.269,2.049-.377,1.349-.216,2.643-.485,3.991-.7a1.5,1.5,0,0,0,.7-.054Zm.755-5.016a3.682,3.682,0,0,1-6.471,2.1,3.488,3.488,0,0,1-.162-4.045,3.621,3.621,0,0,1,3.829-1.456,3.464,3.464,0,0,1,2.806,3.4ZM139.734,51.6V36.119c0-.054.054-.324,0-.378-.054-.108-.377-.162-.485-.162l-.971-.323c-.162-.054-.593-.108-.7-.27-.108-.108-.054-.377-.054-.539,0-.324.108-.27.431-.324l3.56-.647,3.559-.647a2.27,2.27,0,0,1,.594-.108,3.537,3.537,0,0,1,.755.054c.054.054,0,.378,0,.485v1.025c0,.162-.108.647,0,.809.107.216.323,0,.485-.162a9,9,0,0,1,1.51-.97,10.4,10.4,0,0,1,6.472-1.241,3.888,3.888,0,0,1,3.29,2.481,9.1,9.1,0,0,1,.431,3.182v12.3a4.05,4.05,0,0,0,0,.809c.054.216.216.27.485.378.27.161.594.323.863.485.108.054.486.162.54.324a1.561,1.561,0,0,1,0,.7c-.054.108.053,0-.108.054a2.985,2.985,0,0,1-.971,0h-7.712c-.324,0-1.564.161-1.726-.054a1.78,1.78,0,0,1,0-.755c.054-.108.378-.216.485-.27.324-.162.594-.324.917-.485.108-.054.432-.162.486-.27s0-.324,0-.431V38.923a4.3,4.3,0,0,0-.486-2.589,2.357,2.357,0,0,0-1.941-.862,5.693,5.693,0,0,0-1.672.215c-.27.108-1.079.324-1.241.647-.054.108,0,.324,0,.432V50.734a3.035,3.035,0,0,0,0,.7c.054.216.378.27.54.378.269.161.593.323.863.485a2.27,2.27,0,0,1,.377.216,1.78,1.78,0,0,1,0,.755c0,.054-.054,0-.108,0a2.924,2.924,0,0,1-.97,0h-9.061c-.27,0-.323.054-.377-.108a1.533,1.533,0,0,1,0-.7c.054-.108.377-.216.485-.27a3.8,3.8,0,0,0,1.457-.593ZM128.3,41.674c0-1.4.054-2.859-.054-4.315-.162-1.564-.593-3.29-2.373-3.613-.539-.108-1.51-.27-1.888.162a12.015,12.015,0,0,0-.97,1.348l-2.751,3.721c-.162.216-.324.647-.539.755a1.109,1.109,0,0,1-.594,0c-.053-.054,0-.431,0-.539V34.824a2.264,2.264,0,0,1,0-.593c.108-.269,1.3-.431,1.564-.539a26.791,26.791,0,0,1,4.639-.755,13.656,13.656,0,0,1,6.741.863,4.951,4.951,0,0,1,2.912,3.829,15.04,15.04,0,0,1,.108,2.7V51.111c0,.161-.108.593,0,.7a1.02,1.02,0,0,0,.378.108c.431.107.809.215,1.24.323.27.054.324.054.324.324s.054.269-.27.377a9.861,9.861,0,0,1-1.133.432c-2,.593-5.123.755-6.579-1.079-.108-.162-.432-.863-.593-.917-.216-.054-.863.809-1.079.971a6.06,6.06,0,0,1-3.128,1.348c-2.1.27-4.368-.162-5.663-2a6.149,6.149,0,0,1-.485-5.717c1.456-3.29,5.77-3.613,8.9-4.153.378,0,.809-.107,1.3-.161Zm0,8.952V42.644c-1.618.108-3.29.216-3.883,2a8.359,8.359,0,0,0-.27,3.829,3.359,3.359,0,0,0,1.133,2.481,2.445,2.445,0,0,0,3.02-.324ZM60.026,41.674c0-1.4.054-2.859-.054-4.315-.162-1.564-.593-3.29-2.373-3.613-.539-.108-1.51-.27-1.887.162a11.932,11.932,0,0,0-.971,1.348L51.99,38.977c-.161.216-.323.647-.539.755a1.106,1.106,0,0,1-.593,0c-.054-.054,0-.431,0-.539V34.878a2.181,2.181,0,0,1,0-.593c.108-.27,1.24-.431,1.564-.539a26.947,26.947,0,0,1,4.584-.755,13.656,13.656,0,0,1,6.741.863,4.954,4.954,0,0,1,2.91,3.829,15.133,15.133,0,0,1,.107,2.7V51.166c0,.161-.107.593,0,.7a1.019,1.019,0,0,0,.378.107c.431.108.809.216,1.24.324.27.054.324.054.324.324s.054.269-.27.377a9.916,9.916,0,0,1-1.132.432c-2,.593-5.124.755-6.58-1.079-.108-.162-.431-.863-.593-.917-.216-.054-.863.809-1.025.971a6.06,6.06,0,0,1-3.128,1.348c-2.1.27-4.368-.162-5.662-2a6.147,6.147,0,0,1-.486-5.717c1.456-3.29,5.771-3.613,8.845-4.153C59.109,41.835,59.541,41.728,60.026,41.674Zm0,8.952V42.644c-1.618.108-3.29.216-3.883,2a8.387,8.387,0,0,0-.27,3.829,3.362,3.362,0,0,0,1.133,2.481A2.445,2.445,0,0,0,60.026,50.626Z"/><path class="cls-1" d="M230.849,52.111c3.787-.361,7.574-1.623,7.574-5.591V33.711l-1.8-1.8-1.984,1.8v9.56l1.618,1.44-3.6,3.248h-.181l-3.606-3.065.9-.9V24.517a2.53,2.53,0,0,0-1.983-2.345v-.361a3.592,3.592,0,0,1,1.623-.361,2.9,2.9,0,0,1,2.705,1.623h.18a3.77,3.77,0,0,1,3.062-1.622,2.282,2.282,0,0,1,1.082.18v.361c-.541.18-1.623.9-1.623,2.885v8.115l4.868-4.508h.361c.361.36,2.344,2.164,2.885,2.524.181.181.361.181.722.181a2.586,2.586,0,0,0,1.082-.361v.541a2.476,2.476,0,0,0-.9,1.8v11c0,4.869-5.41,7.935-12.623,8.476v-.534ZM229.049,22a2.721,2.721,0,0,1,1.443,2.344V44.353l-.722.721,3.066,2.524.9-.721-2.345-1.983.361-.361V24.517a3.034,3.034,0,0,0-2.705-2.525m8.476,28.852c1.442-.9,2.885-1.983,2.885-4.147V33l-2.164-2.344-1.082.9,1.8,1.984V46.516a5.753,5.753,0,0,1-1.44,4.328Zm9.016-17.852a54.2,54.2,0,0,0,7.393-4.508h.361c1.443,1.442,3.426,3.787,5.229,5.41v.36L251.588,39.3v3.246a26.6,26.6,0,0,0,4.508,2.164l3.246-3.065.361.36-6.312,6.131h-.36c-2.164-.9-4.869-2.164-6.672-3.065a21.156,21.156,0,0,0,.36-4.328V32.992Zm7.393,13.885c-2.164-.9-3.967-1.8-5.77-2.7a13.9,13.9,0,0,0,.18-3.426v-8.12l-1.262.722v7.393a19.865,19.865,0,0,1-.18,3.967,66.084,66.084,0,0,0,6.131,2.885Zm-2.344-8.115,3.607-2.344c-1.263-1.442-2.525-2.885-3.607-3.967Zm1.082-7.934-.9.721c1.082,1.263,2.525,2.886,3.968,4.508l1.082-.721c-1.623-1.623-3.066-3.246-4.148-4.508M401.078,52.111c3.787-.361,7.574-1.623,7.574-5.591V33.711l-1.8-1.8-1.984,1.8v9.56l1.623,1.442-3.606,3.246h-.361l-3.606-3.065.9-.9V24.517a2.53,2.53,0,0,0-1.983-2.345v-.361a3.573,3.573,0,0,1,1.622-.36,2.9,2.9,0,0,1,2.7,1.623h.181a3.771,3.771,0,0,1,3.065-1.623,2.28,2.28,0,0,1,1.082.18v.361c-.541.18-1.623.9-1.623,2.885v8.115l4.689-4.508h.36c.361.36,2.345,2.164,2.886,2.524.18.181.36.181.721.181a2.572,2.572,0,0,0,1.082-.361v.721a2.476,2.476,0,0,0-.9,1.8V44.172c0,4.869-5.409,7.935-12.623,8.476ZM399.278,22a2.839,2.839,0,0,1,1.443,2.344V44.172l-.722.722,3.066,2.524.9-.721-2.346-1.986.361-.36V24.517a3.034,3.034,0,0,0-2.705-2.525m8.3,28.672c1.443-.9,2.885-1.984,2.885-4.148V32.992L408.3,30.648l-.9.9,1.8,1.984V46.516a4.663,4.663,0,0,1-1.627,4.148ZM293.243,32.992a54.2,54.2,0,0,0,7.393-4.508H301c1.442,1.442,3.426,3.787,5.049,5.229v.361l-7.754,5.049v3.246a35.675,35.675,0,0,0,4.508,2.164l3.246-3.066.361.361L300.1,47.959h-.361c-2.163-.9-4.868-2.164-6.672-3.065a21.086,21.086,0,0,0,.361-4.328V32.992Zm7.214,13.885c-2.164-.9-3.967-1.8-5.771-2.7a13.849,13.849,0,0,0,.181-3.426v-8.12l-1.082.541v7.394a19.792,19.792,0,0,1-.181,3.967,66.726,66.726,0,0,0,6.131,2.885Zm-2.164-8.3,3.606-2.344c-1.262-1.443-2.524-2.885-3.606-3.967Zm1.082-7.754-1.082.721c1.082,1.263,2.524,2.886,3.967,4.508l1.082-.721c-1.443-1.623-2.885-3.246-3.967-4.508m13.882-6.847V42.911a2.14,2.14,0,0,0,1.443,1.8l1.082-1.082.36.361-3.967,4.147h-.361c-1.442-.36-3.606-1.8-3.606-4.147V26.32l-1.082-1.082L305.864,26.5l-.361-.361,4.508-4.688h.361ZM312.716,46.7c-1.443-.361-2.885-1.262-2.885-3.246V25.6l-1.623-1.623-.9.9,1.443,1.262V43.992a3.87,3.87,0,0,0,3.065,3.606Zm5.23-13.7a54.2,54.2,0,0,0,7.393-4.508h.361c1.442,1.442,3.426,3.787,5.049,5.229v.361L323,39.128v3.246a26.529,26.529,0,0,0,4.508,2.164l3.246-3.066.36.361L324.8,47.964h-.361c-2.164-.9-4.869-2.164-6.672-3.065a21.086,21.086,0,0,0,.361-4.328V32.992Zm7.211,13.88c-2.164-.9-3.968-1.8-5.771-2.7a13.9,13.9,0,0,0,.18-3.426v-8.12l-1.081.541v7.394a19.792,19.792,0,0,1-.181,3.967,66.6,66.6,0,0,0,6.131,2.885Zm-2.164-8.3,3.606-2.344c-1.262-1.443-2.524-2.885-3.606-3.967Zm1.082-7.754-.9.721c1.082,1.263,2.525,2.886,3.967,4.508l.9-.721c-1.443-1.623-2.885-3.246-3.967-4.508m32.1,2.885v9.2a1.735,1.735,0,0,0,1.443,1.623l1.082-1.082.36.361-3.967,4.147h-.18a4.459,4.459,0,0,1-3.607-4.147V33.353l-1.082-1.082-1.262,1.082-.361-.361,4.508-4.508h.361l2.885,2.885v1.623l3.607-4.328h.36a20.753,20.753,0,0,0,2.886,2.525L360.142,34.8c-.9-.721-1.983-1.8-2.7-2.344Zm-.361,12.984c-1.442-.361-2.885-1.262-2.885-3.246V32.631l-1.441-1.62-.9.9,1.262,1.262V43.811a3.871,3.871,0,0,0,3.066,3.606ZM357.8,32.085a23.9,23.9,0,0,0,2.164,1.984l.721-.9c-.721-.541-1.8-1.623-2.344-1.983Zm10.1,16.049-4.328-2.885v-5.77c1.082-.722,3.427-2.345,4.509-3.066a11.1,11.1,0,0,1-4.148-3.246v-.356a28.327,28.327,0,0,0,5.951-4.328h.36s5.41,2.524,5.591,2.7a1.369,1.369,0,0,0,.721.18A2.567,2.567,0,0,0,377.636,31v.541a2.43,2.43,0,0,0-.9,1.623v9.558a1.931,1.931,0,0,0,1.623,1.8l1.082-1.082.361.361-3.967,4.147h-.178a4.855,4.855,0,0,1-3.606-3.787l-3.794,3.8H367.9Zm.9-1.442-3.607-2.344v-5.41l-1.082.721v5.23l3.968,2.524Zm3.065-9.377v-2.88l-5.229-2.705c-.361.36-1.8,1.082-2.164,1.442a16.967,16.967,0,0,0,7.393,4.148m4.689,9.377c-1.443-.541-2.885-1.443-2.885-3.426V33.353l-5.41-2.705c-.18.18-.721.541-.9.721l5.23,2.7v9.742c0,1.8,1.8,3.245,3.065,3.786Zm-4.689-3.066v-5.77a26.584,26.584,0,0,1-3.426-1.263v7.213l1.984,1.262Zm-39.131,1.443V32.992l6.492-4.508h.361c1.262.541,5.41,2.344,5.77,2.524.181,0,.361.181.722.181a4.618,4.618,0,0,0,1.262-.361v.721a2.925,2.925,0,0,0-.9,1.623V43.451c0,2.344.541,3.787,1.443,4.688V48.5c-1.443,1.443-4.689,4.869-6.131,6.492h-.181a14.225,14.225,0,0,0-5.59-1.443,6.655,6.655,0,0,0-4.147,1.263l-.361-.181c1.082-2.524,3.426-5.229,6.492-5.229a14.069,14.069,0,0,1,6.493,1.983,12.084,12.084,0,0,1-2.7-7.032l-3.787,3.606H337.6Zm3.066,7.033a4.458,4.458,0,0,0-3.426,1.623v.18a6.053,6.053,0,0,1,3.426-.721,13.419,13.419,0,0,1,5.59,1.262l.721-.9a16.261,16.261,0,0,0-6.311-1.442m1.443-4.509.9-.721-3.787-2.7V32.631l-1.082.722V44.894Zm5.77-14.967-5.41-2.164v1.082l4.148,1.8V44.172a11.326,11.326,0,0,0,2.708,6.853l.9-.9a9.619,9.619,0,0,1-2.344-6.131Zm-1.623,11V33.711l-3.606-1.623V43.451l2.344,1.443Zm46.169-10.641,4.688-4.508h.361a36.588,36.588,0,0,0,2.885,2.524.664.664,0,0,0,.541.181,2.572,2.572,0,0,0,1.082-.361v.721a2.883,2.883,0,0,0-.9,1.8V44.894A11.016,11.016,0,0,0,390.8,48.5h-.181l-3.065-.721V50.3l1.623,1.443-3.787,3.246h-.18l-3.607-3.066.9-1.082V46.516a4.266,4.266,0,0,1-1.443-.36v-.545c.361-.18,1.623-1.262,1.623-2.164V33.533l-1.082-1.082-1.264,1.26-.361-.36,4.508-4.509h.361l2.885,2.886V32.99Zm-4.508,18.213-.722.721,2.886,2.525.9-.721-2.344-1.984.361-.361V32.631l-1.625-1.62-.722.722,1.263,1.262v18.21Zm8.114-7.033V33.711l-1.8-1.8-1.983,1.8v9.56c.9.36,3.426.721,3.786.9m-.541,3.787a3.973,3.973,0,0,1,.722-.9l-3.967-.721v1.082Zm-.9-16.229,1.983,1.983v10.46l1.082-.541V32.992l-2.164-2.164ZM205.07,37.5c0-4.688,3.426-7.754,6.672-9.2l.18.361c-1.082,1.262-1.8,2.525-1.8,5.41a10,10,0,0,0,2.164,6.852,3.778,3.778,0,0,0,.721-1.983V34.254l5.771-4.147.18.36a4.016,4.016,0,0,0-.721,2.345v3.065c0,2.164-3.427,4.508-5.591,5.23a7.631,7.631,0,0,0,5.591,1.983,8.824,8.824,0,0,0,2.163-.18V29.746a23.946,23.946,0,0,1-5.409-1.082,19.574,19.574,0,0,0-5.05-1.082c-2.344,0-5.229.721-5.229,4.148v1.081l-.541.18a10.007,10.007,0,0,1-.541-3.066,7.629,7.629,0,0,1,7.5-7.759c.146,0,.292,0,.437,0a20.416,20.416,0,0,1,5.771,1.082,19.233,19.233,0,0,0,5.41,1.082,1.327,1.327,0,0,0,1.442-1.2,1.213,1.213,0,0,0,0-.241,1.26,1.26,0,0,0-1.051-1.439l-.031,0v-.361c2.164.361,4.328,1.623,4.328,4.328.181,2.7-2.164,4.328-6.131,4.328h-.361V43.09a7.793,7.793,0,0,0,5.591-3.787l.36.181c-1.442,4.508-4.869,8.836-10.819,8.836s-11-3.607-11-10.82M221.3,28.123c-4.328,0-8.3-2.164-11.361-2.164-2.163,0-4.508.9-5.229,3.246h.18c.9-1.623,3.066-2.164,5.049-2.164,3.246,0,7.033,2.164,11.361,2.164,3.426,0,5.59-1.262,5.771-3.967h-.181c-.36,2.164-2.164,2.885-5.59,2.885m-12.442,2.7a9.337,9.337,0,0,0-3.066,6.672c0,6.853,4.508,10.279,10.459,10.279a10.711,10.711,0,0,0,7.574-3.426l-.181-.181a10.842,10.842,0,0,1-7.573,2.525c-4.689,0-9.2-2.885-9.2-9.2a12.691,12.691,0,0,1,1.977-6.669Zm5.77,7.754V33.533l-1.082.9v4.688c0,.541-.18.9-.18,1.262h.18a2.748,2.748,0,0,0,1.082-1.8M269.257,37.5c0-4.688,3.426-7.754,6.672-9.2l.181.361a7.076,7.076,0,0,0-1.984,5.41,10,10,0,0,0,2.164,6.852,3.775,3.775,0,0,0,.721-1.983V34.254l5.951-4.328.18.361a3.818,3.818,0,0,0-.721,2.525v3.065c0,2.164-3.426,4.508-5.59,5.23a7.63,7.63,0,0,0,5.59,1.983,8.832,8.832,0,0,0,2.164-.18V29.746a23.943,23.943,0,0,1-5.41-1.082,19.567,19.567,0,0,0-5.049-1.082c-2.344,0-5.229.721-5.229,4.148v1.081l-.361.18A10.007,10.007,0,0,1,268,29.925a7.629,7.629,0,0,1,7.5-7.759c.146,0,.292,0,.437,0a20.416,20.416,0,0,1,5.771,1.082,19.233,19.233,0,0,0,5.41,1.082,1.327,1.327,0,0,0,1.442-1.2,1.386,1.386,0,0,0,0-.241,1.26,1.26,0,0,0-1.051-1.439l-.031,0v-.361c2.164.361,4.328,1.623,4.328,4.328,0,3.246-2.344,4.689-6.311,4.689h-.361V43.451a7.79,7.79,0,0,0,5.59-3.787l.361.18c-1.443,4.509-4.869,8.836-10.82,8.836-5.951-.36-11-3.967-11-11.18m16.23-9.377c-4.328,0-8.3-2.164-11.361-2.164a5.4,5.4,0,0,0-5.229,3.246h.18c.9-1.623,3.065-2.164,5.049-2.164,3.246,0,7.033,2.164,11.361,2.164,3.426,0,5.59-1.262,5.77-3.967h-.18c-.541,2.164-2.164,2.885-5.59,2.885m-12.443,2.7a9.337,9.337,0,0,0-3.066,6.672c0,6.853,4.509,10.279,10.459,10.279a10.711,10.711,0,0,0,7.574-3.426l-.18-.181a10.845,10.845,0,0,1-7.574,2.525c-4.688,0-9.2-2.885-9.2-9.2a12.68,12.68,0,0,1,1.989-6.669Zm5.771,7.754V33.533l-1.082.721v4.689c0,.541-.181.9-.181,1.262h.181a2.074,2.074,0,0,0,1.082-1.623"/><path class="cls-1" d="M510.977,23.786c-3.355-6.575-11.866-10.175-24.059-10.175-14.594,0-23.461,5.02-23.461,13.367,0,5.264,4.119,8.783,12.794,11.047l3.792.982,3.682.982,3.792.982a3.582,3.582,0,0,1,.682.246c1.364.545,2.155,1.337,2.155,2.209,0,1.774-2.564,3-6.356,3-6.11,0-9.193-1.227-10.911-4.283l-16.476,2.268c4.2,7.611,13.149,11.4,27.061,11.4,14.785,0,24.985-5.838,24.985-14.294,0-4.665-4.637-9.084-11.675-10.8l-3.273-.791-3.273-.846-3.274-.791c-.955-.245-1.8-.491-2.564-.736-1.882-.546-2.755-1.283-2.755-2.319,0-1.664,2.155-2.7,5.51-2.7,4.556,0,7.829,1.419,8.838,3.983Zm41.654,3.846H537.982L534.764,41.3c-1.091,4.583-3.3,6.9-6.6,6.9-1.718,0-2.673-.736-2.673-2.073a9.987,9.987,0,0,1,.464-2.7l3.764-15.794h-14.9L510.813,44.9a28.044,28.044,0,0,0-.791,4.72c0,3.573,4.556,6.383,10.366,6.383,5.892,0,9.493-1.637,13.094-5.892l-1.255,5.155h13.966Zm3.164,0-6.519,27.633h14.348l3.933-16.585a5.221,5.221,0,0,1,5.483-4.419c2.346,0,3.6.736,3.6,2.182a13.891,13.891,0,0,1-.382,2.237l-3.846,16.585h14.675l4.392-18.876a12.122,12.122,0,0,0,.382-2.81c0-4.037-4.474-6.792-11.048-6.792-6.028,0-10.42,1.855-12.63,5.319l1.092-4.474ZM530,17.321h2.782l.464-2.073h-9.084l-.5,2.073h2.7l-1.637,6.956h3.656Zm10.147,3.355-.845,3.6h3.628l2.1-8.974H541.37l-.764,3.3h-3.273l.764-3.3h-3.628l-2.1,8.974H536l.846-3.6Zm13.885,1.555h-5.619l.382-1.582h4.528l.464-1.964h-4.529l.328-1.418h5.4l.464-1.964h-9l-2.1,8.974h9.193Z"/><path class="cls-1" d="M163.887,115.341c0,1.162.313,1.431,2.46,1.431v.716h-7.38v-.716c1.431,0,1.968-.134,1.968-1.387V103.622c0-1.253-.492-1.387-1.968-1.387v-.716h10.108a9.47,9.47,0,0,0,2.237-.134l.089,4.518h-.626c-.358-3.31-1.163-3.579-4.205-3.579h-2.683v6.531h2.191c2.1,0,2.192-.358,2.371-1.968h.582v4.741h-.582c-.179-1.655-.268-1.968-2.371-1.968h-2.191v5.681Zm8.99,2.147v-.716c1.432,0,1.968-.134,1.968-1.387V103.622c0-1.253-.492-1.387-1.968-1.387v-.716h6.844v.716c-1.432,0-1.968.134-1.968,1.387v11.763c0,1.253.492,1.387,1.968,1.387v.716Zm22.454.223-10.914-13.553v11.093c0,1.3.9,1.476,2.416,1.476v.716h-5.815v-.716c1.521,0,2.326-.179,2.326-1.476v-12.3a2.622,2.622,0,0,0-2.326-.761v-.715h5.144l8.409,10.824v-8.633c0-1.3-.9-1.476-2.416-1.476v-.715h5.815v.715c-1.521,0-2.326.179-2.326,1.476v14.09h-.313Zm7.828-.223h-5.815v-.716c1.521,0,2.236-.224,2.684-1.521l5.233-13.911h1.431l5.636,14c.492,1.252.716,1.386,1.879,1.386v.716H207.5v-.716c2.057,0,2.236-.179,1.744-1.386l-1.655-4.25h-5.01l-1.476,4.115c-.492,1.253.269,1.521,2.013,1.521Zm-.224-7.247h4.339l-2.281-5.725Zm26.346,7.47-10.914-13.553v11.093c0,1.3.894,1.476,2.415,1.476v.716H215.1v-.716c1.387,0,2.237-.179,2.237-1.476v-12.3c-.805-.761-1.387-.806-2.684-.806v-.715h5.5l8.364,10.824v-8.632c0-1.3-.894-1.477-2.415-1.477v-.715h5.815v.715c-1.521,0-2.326.179-2.326,1.477v14.089Zm16.191-16.281h.4l.224,4.786-.627.045c-.4-2.729-1.833-4.16-4.517-4.16-2.952,0-5.233,2.549-5.233,6.441,0,5.009,3.131,7.827,6.441,7.827a5.073,5.073,0,0,0,3.98-1.744l.448.492a7.008,7.008,0,0,1-5.77,2.684,8.047,8.047,0,0,1-8.141-7.95c0-.064,0-.128,0-.191a8.167,8.167,0,0,1,7.921-8.406q.154,0,.309,0c2.147,0,3.265.939,3.847.939.358-.045.581-.313.715-.76Zm2.461,16.058v-.716c1.431,0,1.968-.134,1.968-1.387V103.622c0-1.253-.492-1.387-1.968-1.387v-.716h6.888v.716c-1.431,0-1.968.134-1.968,1.387v11.763c0,1.253.492,1.387,1.968,1.387v.716Zm13.329,0h-5.368v-.716a1.974,1.974,0,0,0,2.282-1.521l5.233-13.911h1.431l5.636,14c.492,1.252.716,1.386,1.879,1.386v.716h-6.71v-.716c2.058,0,2.237-.179,1.745-1.386l-1.655-4.25h-5.01l-1.476,4.115c-.492,1.253.268,1.521,2.013,1.521Zm-.179-7.247h4.339l-2.282-5.725-2.057,5.725Zm12.39,7.247v-.716c1.476,0,1.968-.134,1.968-1.387V103.622c0-1.253-.492-1.387-1.968-1.387v-.716h6.843v.716c-1.431,0-1.923.134-1.923,1.387v11.9c0,1.074.537,1.208,1.387,1.208h.805c3.086,0,4.07-.447,4.92-3.981l.581.09-.492,4.741-12.121-.089Z"/><path class="cls-1" d="M173.457,126.165l.089,4.786h-.581c-.358-3.444-1.163-3.847-4.2-3.847h-.984v13.061c0,1.253.492,1.431,2.46,1.431v.671h-7.917v-.715c1.968,0,2.46-.179,2.46-1.432V127.06H163.8c-3.041,0-3.891.4-4.2,3.846h-.626l.089-4.741a9.468,9.468,0,0,0,2.236.134h9.93A18.428,18.428,0,0,0,173.457,126.165Zm1.565,16.1v-.715c1.432,0,1.968-.134,1.968-1.387V128.4c0-1.252-.492-1.386-1.968-1.386V126.3h6.889v.716c-1.432,0-1.969.134-1.969,1.386v11.764c0,1.253.492,1.387,1.969,1.387v.715Zm27.509-16.013v.716c-1.432,0-2.1.09-1.968,1.342l1.252,11.853c.134,1.208.626,1.342,2.013,1.342v.716h-6.8v-.71c1.431,0,1.923-.134,1.834-1.342l-1.3-12.479-5.055,14.85h-.223l-4.876-14.806L186.2,140.169c-.135,1.253.715,1.387,2.191,1.387v.715h-5.367v-.715c1.431,0,1.968-.224,2.057-1.387l1.208-11.853c.134-1.252-.492-1.342-1.968-1.342v-.716h5.636l3.4,10.914,3.623-10.914Zm12.749,10.159H214.7c-.179-1.655-.268-1.968-2.371-1.968h-2.415v5.815c0,1.073.537,1.207,1.387,1.207h1.341c3.087,0,4.071-.447,4.921-3.981l.581.09-.581,4.7H204.993v-.715c1.431,0,1.968-.134,1.968-1.387V128.4c0-1.252-.492-1.386-1.968-1.386V126.3H217.07l.044,3.981h-.626c-.358-2.818-1.073-3.176-4.249-3.176h-2.371v6.486h2.416c2.1,0,2.236-.358,2.37-1.968h.582l.044,4.786Zm12.748,2.549c0-1.431-.939-2.191-2.5-3.041l-2.549-1.342c-1.879-1.029-3.042-2.147-3.042-4.16a4.622,4.622,0,0,1,4.8-4.435l.119.007c1.924,0,2.908.939,3.445.939.357,0,.536-.223.67-.671h.448l.223,4.473-.581.045a4.2,4.2,0,0,0-4.07-3.847,2.435,2.435,0,0,0-2.711,2.125q-.015.121-.018.246c0,1.521,1.163,2.147,2.415,2.863l2.192,1.207c2.058,1.119,3.534,2.237,3.534,4.384,0,2.818-2.416,4.83-5.5,4.83-2.147,0-3.176-1.028-3.757-1.028-.358,0-.537.313-.716.805h-.447l-.313-4.786.581-.09a4.519,4.519,0,0,0,4.563,4.2c1.744-.045,3.22-.76,3.22-2.729Z"/><g id="layer1"><g id="layer1-3"><path id="path3348" class="cls-1" d="M344.922,121.817h7.78l4.171-23.872h-7.78l-1.538,8.549H340.81l1.538-8.549h-7.78L330.4,121.817h7.78l1.568-8.933h6.745Z"/><path id="path3352" class="cls-1" d="M361.281,97.911l-2.367,13.282a15.287,15.287,0,0,0-.3,2.988c0,7.041,6.154,8.106,9.851,8.106,7.751,0,11.094-2.574,12.307-9.526l2.6-14.88h-7.78l-2.219,12.484c-.71,3.905-1.213,5.946-4.112,5.946-1.893,0-2.81-1.006-2.81-3.076a16.139,16.139,0,0,1,.355-2.988l2.251-12.362h-7.78Z"/><path id="path3356" class="cls-1" d="M424.5,121.817h7.78l1.095-6.153h3.668c6.775,0,10.532-3.668,10.532-10.353,0-4.7-3.255-7.4-8.964-7.4h-9.94Zm12.129-12.04h-2.248l1.035-5.62h2.1c1.715,0,2.632.858,2.632,2.426,0,1.982-1.33,3.194-3.519,3.194Z"/><path id="path3360" class="cls-1" d="M462.689,97.411c-8.46,0-13.519,5.473-13.519,14.673,0,6.39,4.023,10.235,10.768,10.235,8.46,0,13.519-5.472,13.519-14.672C473.487,101.227,469.463,97.411,462.689,97.411Zm-2.278,18.726c-2.011,0-3.195-1.45-3.195-3.876a13.22,13.22,0,0,1,.267-2.632c.591-3.136,1.6-6.006,4.762-6.006,2.012,0,3.195,1.45,3.195,3.876a13.3,13.3,0,0,1-.266,2.632c-.592,3.108-1.6,6.007-4.763,6.007Z"/><path id="path3364" class="cls-1" d="M500.525,121.817h7.78l3.077-17.483h5.857l1.124-6.389H498.457l-1.124,6.389h6.212Z"/><path id="path3366" class="cls-1" d="M487.627,106.76c-2.455-.769-3.461-1.094-3.461-2.248,0-.769.5-1.686,1.982-1.686a2.481,2.481,0,0,1,2.366,1.538l6.864-1.864c-.8-3.372-3.7-5.088-8.7-5.088-9.407,0-10.146,6.3-10.146,8.224,0,3.905,2.07,6.3,6.567,7.543,1.183.326,2.544.681,2.544,1.982,0,1.036-.769,1.687-2.1,1.687a3.143,3.143,0,0,1-2.959-1.953l-6.774,1.834c.74,3.55,4.082,5.562,9.318,5.562,3.994,0,10.68-1.065,10.68-8.283.029-3.609-2.012-5.976-6.183-7.248Z"/><path id="path3370" class="cls-1" d="M326.048,121.817l4.2-23.872H317.381v23.872Z"/><path id="path3374" class="cls-1" d="M521.706,97.945l-4.171,23.872H530.4V97.945Z"/><polygon id="polygon3376" class="cls-1" points="392.668 114.777 399.205 114.777 400.27 108.772 393.733 108.772 394.472 104.334 403.613 104.334 404.737 97.915 387.816 97.915 383.645 121.817 391.425 121.817 392.668 114.777"/><polygon id="polygon3378" class="cls-1" points="413.05 114.777 419.617 114.777 420.682 108.772 414.144 108.772 414.884 104.334 424.025 104.334 425.149 97.915 408.228 97.915 404.057 121.817 411.837 121.817 413.05 114.777"/></g></g><path class="cls-1" d="M79.177,74.079V143.1H148.2V74.079Zm31.944,18.992h-1.314c-.682-6.745-2.021-7.889-8.035-7.889H97v12.88h3.8c4.09,0,4.309-.682,4.626-3.9h1.193v9.4h-1.193c-.317-3.214-.511-3.823-4.626-3.823H97V110.89c0,2.289.633,2.8,4.82,2.8v1.388H87.066v-1.412c3.068,0,4.139-.146,4.139-2.654V87.69c0-2.484-1.1-2.654-4.139-2.654V83.648h19.648a20.976,20.976,0,0,0,4.407-.268Zm31.214.029h-1.29c-.682-6.744-2.021-7.889-8.035-7.889h-1.653v25.663c0,2.435.926,2.8,4.821,2.8v1.412H120.69v-1.412c3.9,0,4.87-.365,4.87-2.8V85.211H123.9c-6.014,0-7.353,1.145-8.035,7.889h-1.29V83.38a23.053,23.053,0,0,0,4.407.268l18.942.024v.005a21.11,21.11,0,0,0,4.407-.267Z"/></svg>