<?xml version="1.0" encoding="UTF-8"?><svg id="uuid-97837769-313d-4307-a6eb-637d7dc44ad4" xmlns="http://www.w3.org/2000/svg" xmlns:xlink="http://www.w3.org/1999/xlink" viewBox="0 0 642.79 134.33"><defs><style>.uuid-1c97abce-eed5-4429-a18e-2eb0c3f677d1,.uuid-49cec2f6-6018-4890-a20c-258bb6dbadf2{fill:none;}.uuid-49cec2f6-6018-4890-a20c-258bb6dbadf2{stroke:#ccd1d6;stroke-miterlimit:10;}.uuid-74da8b09-f1b7-4299-a927-8c3b793e645b{fill-opacity:.1;}.uuid-74da8b09-f1b7-4299-a927-8c3b793e645b,.uuid-3bd90378-1586-4e3d-a90c-e47c66691b6a{fill:url(#uuid-64162fcc-7d6f-40e0-acdb-e3dbfdcd8b00);}.uuid-3bd90378-1586-4e3d-a90c-e47c66691b6a{fill-opacity:.4;}.uuid-6b19e6c7-6141-4096-8cde-eade12ae51ff{fill:#ffd938;}.uuid-ae0bc615-8243-4d4e-a4b8-fe098ab8b93b{fill:#0b3c3a;}.uuid-66da2984-4662-4475-88eb-bb61d29378ed{fill:#003e3f;}</style><pattern id="uuid-64162fcc-7d6f-40e0-acdb-e3dbfdcd8b00" x="0" y="0" width="2" height="2" patternTransform="translate(293.34 149.36)" patternUnits="userSpaceOnUse" viewBox="0 0 2 2"><rect class="uuid-1c97abce-eed5-4429-a18e-2eb0c3f677d1" width="2" height="2"/><circle class="uuid-66da2984-4662-4475-88eb-bb61d29378ed" cx=".52" cy=".5" r=".5"/><circle class="uuid-1c97abce-eed5-4429-a18e-2eb0c3f677d1" cx="1.49" cy=".5" r=".5"/><circle class="uuid-1c97abce-eed5-4429-a18e-2eb0c3f677d1" cx=".52" cy="1.5" r=".5"/><circle class="uuid-1c97abce-eed5-4429-a18e-2eb0c3f677d1" cx="1.49" cy="1.5" r=".5"/></pattern></defs><line class="uuid-49cec2f6-6018-4890-a20c-258bb6dbadf2" x1="321.39" y1="67.81" x2="321.39" y2="127.61"/><path class="uuid-6b19e6c7-6141-4096-8cde-eade12ae51ff" d="M207.73,5.54l8.11,15.38,17.13,2.96-12.12,12.46,2.48,17.2-15.59-7.67-15.6,7.67,2.47-17.2-12.11-12.46,17.12-2.96,8.12-15.38Z"/><path class="uuid-6b19e6c7-6141-4096-8cde-eade12ae51ff" d="M264.56,5.54l8.11,15.38,17.13,2.96-12.12,12.46,2.48,17.2-15.59-7.67-15.6,7.67,2.47-17.2-12.11-12.46,17.12-2.96,8.12-15.38Z"/><path class="uuid-6b19e6c7-6141-4096-8cde-eade12ae51ff" d="M321.4,5.54l8.11,15.38,17.13,2.96-12.12,12.46,2.48,17.2-15.59-7.67-15.6,7.67,2.47-17.2-12.11-12.46,17.12-2.96,8.12-15.38Z"/><path class="uuid-6b19e6c7-6141-4096-8cde-eade12ae51ff" d="M378.24,5.54l8.11,15.38,17.13,2.96-12.12,12.46,2.48,17.2-15.59-7.67-15.6,7.67,2.47-17.2-12.11-12.46,17.12-2.96,8.12-15.38Z"/><path class="uuid-6b19e6c7-6141-4096-8cde-eade12ae51ff" d="M435.08,5.54l8.11,15.38,17.13,2.96-12.12,12.46,2.48,17.2-15.59-7.67-15.6,7.67,2.47-17.2-12.11-12.46,17.12-2.96,8.12-15.38Z"/><path class="uuid-ae0bc615-8243-4d4e-a4b8-fe098ab8b93b" d="M69.94,100.32v3.34c0,.36-.24.6-.6.6h-2.43v4.78c0,.36-.24.6-.6.6h-4.3c-.36,0-.6-.24-.6-.6v-4.78h-11.19c-.36,0-.6-.24-.6-.6v-3.54c0-.28.04-.48.2-.76l11.35-17.2c.16-.28.4-.4.72-.4h4.42c.36,0,.6.24.6.6v17.36h2.43c.36,0,.6.24.6.6ZM61.42,99.72v-9.83l-6.41,9.83h6.41Z"/><path class="uuid-ae0bc615-8243-4d4e-a4b8-fe098ab8b93b" d="M73.13,106.89c0-1.83,1.43-3.34,3.26-3.34s3.3,1.51,3.3,3.34-1.47,3.26-3.3,3.26-3.26-1.47-3.26-3.26Z"/><path class="uuid-ae0bc615-8243-4d4e-a4b8-fe098ab8b93b" d="M101.15,91.01c0,2.63-1,5.17-3.42,8.2l-8.92,11.15c-.24.28-.52.4-.84.12l-2.95-2.59c-.32-.28-.4-.52-.12-.84l5.33-6.49c-5.02-.52-8.84-4.14-8.84-9.51s4.38-9.59,9.87-9.59,9.87,4.14,9.87,9.55ZM95.82,91.2c0-2.71-1.91-4.7-4.54-4.7s-4.54,1.99-4.54,4.7,1.91,4.7,4.54,4.7,4.54-2.03,4.54-4.7Z"/><path class="uuid-ae0bc615-8243-4d4e-a4b8-fe098ab8b93b" d="M111.63,99.88c0-5.77,4.34-10.23,10.23-10.23s10.19,4.46,10.19,10.23-4.34,10.23-10.19,10.23-10.23-4.46-10.23-10.23ZM126.75,99.88c0-3.18-2.15-5.17-4.9-5.17s-4.94,1.99-4.94,5.17,2.15,5.18,4.94,5.18,4.9-1.99,4.9-5.18Z"/><path class="uuid-ae0bc615-8243-4d4e-a4b8-fe098ab8b93b" d="M154.18,97.69v11.35c0,.36-.28.6-.64.6h-4.26c-.36,0-.6-.24-.6-.6v-10.11c0-2.75-1.27-4.22-3.62-4.22s-3.82,1.47-3.82,4.22v10.11c0,.36-.24.6-.6.6h-4.3c-.36,0-.6-.24-.6-.6v-18.31c0-.36.24-.6.6-.6h4.14c.36,0,.6.16.6.64l.16,2.31c1.11-1.99,2.99-3.42,5.89-3.42,4.1,0,7.05,2.95,7.05,8.04Z"/><path class="uuid-ae0bc615-8243-4d4e-a4b8-fe098ab8b93b" d="M193.52,94.39v2.59c0,7.29-4.82,13.18-12.82,13.18s-14.45-6.17-14.45-14.33,6.41-14.37,14.33-14.37c4.02,0,7.29,1.47,9.71,3.94.32.32.32.64,0,1.04l-2.67,2.83c-.28.32-.6.32-.88.08-1.67-1.39-3.66-2.31-6.13-2.31-4.9,0-8.6,3.74-8.6,8.8s3.7,8.76,8.88,8.76c4.38,0,7.01-2.59,7.21-5.73h-7.21c-.36,0-.6-.24-.6-.6v-3.86c0-.36.24-.6.6-.6h12.02c.36,0,.6.24.6.6Z"/><path class="uuid-ae0bc615-8243-4d4e-a4b8-fe098ab8b93b" d="M196.07,99.88c0-5.77,4.34-10.23,10.23-10.23s10.19,4.46,10.19,10.23-4.34,10.23-10.19,10.23-10.23-4.46-10.23-10.23ZM211.2,99.88c0-3.18-2.15-5.17-4.9-5.17s-4.94,1.99-4.94,5.17,2.15,5.18,4.94,5.18,4.9-1.99,4.9-5.18Z"/><path class="uuid-ae0bc615-8243-4d4e-a4b8-fe098ab8b93b" d="M219.2,99.88c0-5.77,4.34-10.23,10.23-10.23s10.19,4.46,10.19,10.23-4.34,10.23-10.19,10.23-10.23-4.46-10.23-10.23ZM234.33,99.88c0-3.18-2.15-5.17-4.9-5.17s-4.94,1.99-4.94,5.17,2.15,5.18,4.94,5.18,4.9-1.99,4.9-5.18Z"/><path class="uuid-ae0bc615-8243-4d4e-a4b8-fe098ab8b93b" d="M262.84,90.73v17.83c0,7.01-5.49,9.24-10.31,9.24-2.91,0-5.69-.8-7.6-2.23-.4-.28-.44-.8-.24-1.15l1.15-2.19c.2-.4.56-.56,1-.32,1.71.96,3.46,1.43,5.18,1.43,2.75,0,5.57-1.19,5.57-4.82v-2.07c-1.27,1.75-3.26,2.79-6.05,2.79-5.49,0-9.2-4.02-9.2-9.79s3.7-9.79,9.2-9.79c2.87,0,4.82,1.04,6.09,2.83l.08-1.75c0-.36.28-.6.64-.6h3.9c.36,0,.6.24.6.6ZM257.38,99.44c0-2.99-1.99-4.86-4.78-4.86s-4.9,1.91-4.9,4.86,2.07,4.86,4.9,4.86,4.78-1.87,4.78-4.86Z"/><path class="uuid-ae0bc615-8243-4d4e-a4b8-fe098ab8b93b" d="M267.53,109.04v-27.27c0-.36.24-.6.6-.6h4.34c.36,0,.6.24.6.6v27.27c0,.36-.24.6-.6.6h-4.34c-.36,0-.6-.24-.6-.6Z"/><path class="uuid-ae0bc615-8243-4d4e-a4b8-fe098ab8b93b" d="M294.05,101.95h-11.82c.6,2.47,2.55,3.82,5.73,3.82,1.51,0,2.95-.28,4.54-1.19.28-.16.48-.12.68.16l1.47,2.03c.2.28.16.56-.2.88-1.67,1.67-4.18,2.47-6.93,2.47-6.41,0-10.71-4.42-10.71-10.31s4.02-10.15,10.03-10.15,9.36,4.38,9.36,9.32c0,1.91-.44,2.99-2.15,2.99ZM282.15,98.09h9.16c-.32-2.63-2.07-3.9-4.42-3.9s-4.3,1.31-4.74,3.9Z"/><path class="uuid-ae0bc615-8243-4d4e-a4b8-fe098ab8b93b" d="M365.39,100.32v3.34c0,.36-.24.6-.6.6h-2.43v4.78c0,.36-.24.6-.6.6h-4.3c-.36,0-.6-.24-.6-.6v-4.78h-11.19c-.36,0-.6-.24-.6-.6v-3.54c0-.28.04-.48.2-.76l11.35-17.2c.16-.28.4-.4.72-.4h4.42c.36,0,.6.24.6.6v17.36h2.43c.36,0,.6.24.6.6ZM356.87,99.72v-9.83l-6.41,9.83h6.41Z"/><path class="uuid-ae0bc615-8243-4d4e-a4b8-fe098ab8b93b" d="M368.57,106.89c0-1.83,1.43-3.34,3.26-3.34s3.3,1.51,3.3,3.34-1.47,3.26-3.3,3.26-3.26-1.47-3.26-3.26Z"/><path class="uuid-ae0bc615-8243-4d4e-a4b8-fe098ab8b93b" d="M396.6,91.01c0,2.63-1,5.17-3.42,8.2l-8.92,11.15c-.24.28-.52.4-.84.12l-2.95-2.59c-.32-.28-.4-.52-.12-.84l5.33-6.49c-5.02-.52-8.84-4.14-8.84-9.51s4.38-9.59,9.87-9.59,9.87,4.14,9.87,9.55ZM391.27,91.2c0-2.71-1.91-4.7-4.54-4.7s-4.54,1.99-4.54,4.7,1.91,4.7,4.54,4.7,4.54-2.03,4.54-4.7Z"/><path class="uuid-ae0bc615-8243-4d4e-a4b8-fe098ab8b93b" d="M407.07,99.88c0-5.77,4.34-10.23,10.23-10.23s10.19,4.46,10.19,10.23-4.34,10.23-10.19,10.23-10.23-4.46-10.23-10.23ZM422.2,99.88c0-3.18-2.15-5.17-4.9-5.17s-4.94,1.99-4.94,5.17,2.15,5.18,4.94,5.18,4.9-1.99,4.9-5.18Z"/><path class="uuid-ae0bc615-8243-4d4e-a4b8-fe098ab8b93b" d="M449.63,97.69v11.35c0,.36-.28.6-.64.6h-4.26c-.36,0-.6-.24-.6-.6v-10.11c0-2.75-1.27-4.22-3.62-4.22s-3.82,1.47-3.82,4.22v10.11c0,.36-.24.6-.6.6h-4.3c-.36,0-.6-.24-.6-.6v-18.31c0-.36.24-.6.6-.6h4.14c.36,0,.6.16.6.64l.16,2.31c1.11-1.99,2.99-3.42,5.89-3.42,4.1,0,7.05,2.95,7.05,8.04Z"/><path class="uuid-ae0bc615-8243-4d4e-a4b8-fe098ab8b93b" d="M467.75,109.04v-22.21h-5.45c-.36,0-.6-.24-.6-.6v-3.86c0-.36.24-.6.6-.6h16.56c.36,0,.6.24.6.6v3.86c0,.36-.24.6-.6.6h-5.41v22.21c0,.36-.24.6-.6.6h-4.5c-.36,0-.6-.24-.6-.6Z"/><path class="uuid-ae0bc615-8243-4d4e-a4b8-fe098ab8b93b" d="M493.67,90.92v3.42c0,.48-.28.6-.8.48-.44-.12-.88-.2-1.43-.2-2.71,0-4.14,1.87-4.14,4.66v9.75c0,.36-.24.6-.6.6h-4.3c-.36,0-.6-.24-.6-.6v-18.31c0-.36.24-.6.6-.6h4.14c.36,0,.6.16.6.64l.16,2.51c.68-2.07,1.91-3.62,4.22-3.62.92,0,1.47.24,1.79.48.28.2.36.44.36.8Z"/><path class="uuid-ae0bc615-8243-4d4e-a4b8-fe098ab8b93b" d="M515.64,90.73v18.31c0,.36-.24.6-.6.6h-4.14c-.36,0-.6-.16-.6-.64l-.16-2.31c-1.11,1.99-2.99,3.42-5.89,3.42-4.06,0-7.01-2.95-7.01-8.04v-11.35c0-.36.24-.6.6-.6h4.26c.36,0,.64.24.64.6v10.11c0,2.75,1.23,4.22,3.58,4.22s3.82-1.47,3.82-4.22v-10.11c0-.36.24-.6.6-.6h4.3c.36,0,.6.24.6.6Z"/><path class="uuid-ae0bc615-8243-4d4e-a4b8-fe098ab8b93b" d="M519.71,106.89c-.24-.28-.2-.72.08-1.15l1.39-1.95c.32-.48.68-.4,1-.16,1.63,1.23,2.99,1.91,4.5,1.91,1.31,0,2.19-.52,2.19-1.63,0-.96-.6-1.43-2.03-2.03l-2.47-1c-2.51-1-4.26-2.63-4.26-5.33,0-3.74,3.19-5.89,6.81-5.89,2.55,0,4.9,1.04,6.53,2.99.24.28.16.6-.04.84l-1.75,2.11c-.28.32-.56.28-.92,0-1.27-1.08-2.39-1.63-3.54-1.63-1.27,0-1.87.72-1.87,1.55,0,.96.8,1.51,1.87,1.91l2.75,1.08c2.47,1,4.42,2.67,4.38,5.65-.04,3.94-3.42,5.97-7.33,5.97-3.26,0-5.73-1.39-7.29-3.22Z"/><path class="uuid-ae0bc615-8243-4d4e-a4b8-fe098ab8b93b" d="M544.83,94.39v9.43c0,1.15.68,1.71,1.71,1.71.36,0,.76,0,1.23-.04.44-.04.72.16.72.56v2.91c0,.92-1.99,1.15-3.3,1.15-3.11,0-5.89-1.43-5.89-5.69v-10.03h-2.47c-.36,0-.6-.24-.6-.6v-3.07c0-.36.24-.6.6-.6h2.47v-4.58c0-.36.24-.6.6-.6h4.34c.36,0,.6.24.6.6v4.58h3.07c.36,0,.6.24.6.6v3.07c0,.36-.24.6-.6.6h-3.07Z"/><path class="uuid-ae0bc615-8243-4d4e-a4b8-fe098ab8b93b" d="M572.81,99.88c0,5.81-3.78,10.23-9.24,10.23-2.75,0-4.74-1.04-6.05-2.79v9.28c0,.36-.24.6-.6.6h-4.34c-.36,0-.6-.24-.6-.6v-25.88c0-.36.24-.6.6-.6h3.94c.36,0,.6.24.6.6l.08,2.15c1.31-1.99,3.42-3.22,6.37-3.22,5.45,0,9.24,4.46,9.24,10.23ZM567.44,99.88c0-3.1-2.15-5.21-5.02-5.21s-4.98,2.07-4.98,5.21,2.03,5.22,4.98,5.22,5.02-2.07,5.02-5.22Z"/><path class="uuid-ae0bc615-8243-4d4e-a4b8-fe098ab8b93b" d="M576.32,83.6c0-1.67,1.31-3.03,3.07-3.03s3.03,1.35,3.03,3.03-1.27,3.07-3.03,3.07-3.07-1.35-3.07-3.07ZM576.6,109.04v-18.31c0-.36.24-.6.6-.6h4.34c.36,0,.6.24.6.6v18.31c0,.36-.24.6-.6.6h-4.34c-.36,0-.6-.24-.6-.6Z"/><path class="uuid-ae0bc615-8243-4d4e-a4b8-fe098ab8b93b" d="M586.91,109.04v-27.27c0-.36.24-.6.6-.6h4.34c.36,0,.6.24.6.6v27.27c0,.36-.24.6-.6.6h-4.34c-.36,0-.6-.24-.6-.6Z"/><path class="uuid-ae0bc615-8243-4d4e-a4b8-fe098ab8b93b" d="M596.19,99.88c0-5.77,4.34-10.23,10.23-10.23s10.19,4.46,10.19,10.23-4.34,10.23-10.19,10.23-10.23-4.46-10.23-10.23ZM611.31,99.88c0-3.18-2.15-5.17-4.9-5.17s-4.94,1.99-4.94,5.17,2.15,5.18,4.94,5.18,4.9-1.99,4.9-5.18Z"/><path class="uuid-ae0bc615-8243-4d4e-a4b8-fe098ab8b93b" d="M627.32,94.39v9.43c0,1.15.68,1.71,1.71,1.71.36,0,.76,0,1.23-.04.44-.04.72.16.72.56v2.91c0,.92-1.99,1.15-3.3,1.15-3.1,0-5.89-1.43-5.89-5.69v-10.03h-2.47c-.36,0-.6-.24-.6-.6v-3.07c0-.36.24-.6.6-.6h2.47v-4.58c0-.36.24-.6.6-.6h4.34c.36,0,.6.24.6.6v4.58h3.07c.36,0,.6.24.6.6v3.07c0,.36-.24.6-.6.6h-3.07Z"/><polygon class="uuid-3bd90378-1586-4e3d-a90c-e47c66691b6a" points="409.84 23.93 434.99 32.37 419.43 53.47 421.94 36.36 409.84 23.93"/><polygon class="uuid-74da8b09-f1b7-4299-a927-8c3b793e645b" points="434.99 32.37 419.43 53.47 434.99 45.87 450.55 53.51 434.99 32.37"/><polygon class="uuid-74da8b09-f1b7-4299-a927-8c3b793e645b" points="409.84 23.93 434.99 32.37 434.95 5.6 426.8 20.89 409.84 23.93"/><polygon class="uuid-3bd90378-1586-4e3d-a90c-e47c66691b6a" points="353.13 23.93 378.28 32.37 362.72 53.47 365.22 36.36 353.13 23.93"/><polygon class="uuid-74da8b09-f1b7-4299-a927-8c3b793e645b" points="378.28 32.37 362.72 53.47 378.28 45.87 393.84 53.51 378.28 32.37"/><polygon class="uuid-74da8b09-f1b7-4299-a927-8c3b793e645b" points="353.13 23.93 378.28 32.37 378.24 5.6 370.09 20.89 353.13 23.93"/><polygon class="uuid-3bd90378-1586-4e3d-a90c-e47c66691b6a" points="296.41 23.93 321.56 32.37 306.01 53.47 308.51 36.36 296.41 23.93"/><polygon class="uuid-74da8b09-f1b7-4299-a927-8c3b793e645b" points="321.56 32.37 306.01 53.47 321.56 45.87 337.12 53.51 321.56 32.37"/><polygon class="uuid-74da8b09-f1b7-4299-a927-8c3b793e645b" points="296.41 23.93 321.56 32.37 321.53 5.6 313.38 20.89 296.41 23.93"/><polygon class="uuid-3bd90378-1586-4e3d-a90c-e47c66691b6a" points="239.7 23.93 264.85 32.37 249.3 53.47 251.8 36.36 239.7 23.93"/><polygon class="uuid-74da8b09-f1b7-4299-a927-8c3b793e645b" points="264.85 32.37 249.3 53.47 264.85 45.87 280.41 53.51 264.85 32.37"/><polygon class="uuid-74da8b09-f1b7-4299-a927-8c3b793e645b" points="239.7 23.93 264.85 32.37 264.82 5.6 256.67 20.89 239.7 23.93"/><polygon class="uuid-3bd90378-1586-4e3d-a90c-e47c66691b6a" points="182.99 23.93 208.14 32.37 192.58 53.47 195.09 36.36 182.99 23.93"/><polygon class="uuid-74da8b09-f1b7-4299-a927-8c3b793e645b" points="208.14 32.37 192.58 53.47 208.14 45.87 223.7 53.51 208.14 32.37"/><polygon class="uuid-74da8b09-f1b7-4299-a927-8c3b793e645b" points="182.99 23.93 208.14 32.37 208.11 5.6 199.96 20.89 182.99 23.93"/></svg>