<svg id="Layer_1" data-name="Layer 1" xmlns="http://www.w3.org/2000/svg" viewBox="0 0 512 512"><defs><style>.cls-1{fill:#fff;}</style></defs><path class="cls-1" d="M459.4,151.7c.33,4.55.33,9.1.33,13.65,0,138.7-105.61,298.6-298.61,298.6A296.3,296.3,0,0,1,0,416.84a218,218,0,0,0,25.34,1.3,210.3,210.3,0,0,0,130.3-44.83,105.13,105.13,0,0,1-98.11-72.77,132.83,132.83,0,0,0,19.82,1.62A111,111,0,0,0,105,298.59c-48.08-9.75-84.14-52-84.14-102.1v-1.3a105.64,105.64,0,0,0,47.43,13.32A105.09,105.09,0,0,1,35.78,68.17,298.11,298.11,0,0,0,252.18,178a118.78,118.78,0,0,1-2.59-24A105,105,0,0,1,431.16,82.17a206.58,206.58,0,0,0,66.6-25.34,104.69,104.69,0,0,1-46.13,57.83,210.36,210.36,0,0,0,60.43-16.24,225.4,225.4,0,0,1-52.63,54.25Z"/></svg>